G04 #@! TF.GenerationSoftware,KiCad,Pcbnew,(5.1.5)-3*
G04 #@! TF.CreationDate,2020-04-03T19:02:15-07:00*
G04 #@! TF.ProjectId,ShadowRunner,53686164-6f77-4527-956e-6e65722e6b69,rev?*
G04 #@! TF.SameCoordinates,Original*
G04 #@! TF.FileFunction,Copper,L2,Inr*
G04 #@! TF.FilePolarity,Positive*
%FSLAX46Y46*%
G04 Gerber Fmt 4.6, Leading zero omitted, Abs format (unit mm)*
G04 Created by KiCad (PCBNEW (5.1.5)-3) date 2020-04-03 19:02:15*
%MOMM*%
%LPD*%
G04 APERTURE LIST*
%ADD10C,0.650000*%
%ADD11O,2.400000X0.900000*%
%ADD12O,1.700000X0.900000*%
%ADD13C,0.400000*%
%ADD14C,0.800000*%
%ADD15C,0.152400*%
%ADD16C,0.254000*%
G04 APERTURE END LIST*
D10*
X155402500Y-130487500D03*
X155402500Y-129637500D03*
X155402500Y-128787500D03*
X155402500Y-127937500D03*
X155402500Y-127087500D03*
X155402500Y-126237500D03*
X155402500Y-125387500D03*
X155402500Y-124537500D03*
X154052500Y-124537500D03*
X154052500Y-125387500D03*
X154052500Y-126237500D03*
X154052500Y-127087500D03*
X154052500Y-127937500D03*
X154052500Y-128787500D03*
X154052500Y-129637500D03*
X154052500Y-130487500D03*
D11*
X154427500Y-131850000D03*
X154412500Y-123195000D03*
D12*
X151022500Y-131850000D03*
X151022500Y-123197500D03*
D13*
X140365000Y-113115000D03*
X130965000Y-112825000D03*
X134215000Y-116995000D03*
X153325000Y-118255000D03*
X126365000Y-120445000D03*
X113415000Y-119975000D03*
X118945000Y-120865000D03*
X133925000Y-114985000D03*
X113535000Y-112985000D03*
X141945000Y-131245000D03*
X138485000Y-132005000D03*
X135025000Y-131985000D03*
X122515000Y-124445000D03*
X125655000Y-124155000D03*
X129655000Y-124245000D03*
X130885000Y-117795000D03*
X124855000Y-114315000D03*
X128825000Y-115285000D03*
X128855000Y-121645000D03*
X125015000Y-122665000D03*
X119895000Y-122675000D03*
X114955000Y-121635000D03*
X114865000Y-116825000D03*
X119895000Y-114285000D03*
D14*
X121725000Y-111075000D03*
X117650000Y-111225000D03*
X115550000Y-111175000D03*
X112650000Y-111150000D03*
X155650000Y-111100000D03*
X153650000Y-111100000D03*
X151650000Y-111100000D03*
X149650000Y-111100000D03*
X147650000Y-111100000D03*
X145650000Y-111100000D03*
X143650000Y-111100000D03*
X142250000Y-111100000D03*
X137750000Y-111100000D03*
X135750000Y-111100000D03*
X133725000Y-111100000D03*
X131925000Y-111100000D03*
X129850000Y-111100000D03*
X128050000Y-111100000D03*
X126475000Y-111100000D03*
X123775000Y-111100000D03*
D13*
X114385000Y-130905000D03*
X150245000Y-125675000D03*
X117535000Y-124885000D03*
X145945000Y-122625000D03*
X148715000Y-114215000D03*
X129625000Y-112785000D03*
X123515000Y-112395000D03*
X123125000Y-125215000D03*
X113415000Y-122135000D03*
X142175000Y-115255000D03*
X131325000Y-118115000D03*
X127515000Y-124945000D03*
X155905000Y-112545000D03*
X154965000Y-112505000D03*
X153975000Y-112515000D03*
X152965000Y-112485000D03*
X149995000Y-113465000D03*
X149945000Y-114435000D03*
X149965000Y-115245000D03*
X149915000Y-116105000D03*
X149885000Y-116965000D03*
X150425000Y-118165000D03*
X151085000Y-118195000D03*
X151925000Y-118145000D03*
X152755000Y-118185000D03*
X153875000Y-118155000D03*
X156025000Y-118465000D03*
X154845000Y-118545000D03*
X149225000Y-127775000D03*
X141200000Y-127775000D03*
X123175000Y-131925000D03*
X112075000Y-119750000D03*
X118650000Y-124800000D03*
X142600000Y-125550000D03*
X139050000Y-114050000D03*
X147375000Y-115950000D03*
X145100000Y-119200000D03*
X140385000Y-132475000D03*
X133345000Y-123165000D03*
X128755000Y-124615000D03*
X139755000Y-126295000D03*
X143715000Y-128805000D03*
X133805000Y-128035000D03*
X114925000Y-125485000D03*
X121325000Y-129775000D03*
X112805000Y-113695000D03*
X112685000Y-121315000D03*
X151225000Y-121400000D03*
X134815000Y-130895000D03*
X143965000Y-129805000D03*
X141925000Y-132205000D03*
X120800000Y-124150000D03*
X120051201Y-124150000D03*
X120875000Y-125165000D03*
X126185000Y-124485000D03*
X130875000Y-124000000D03*
X130575000Y-123025000D03*
X132125000Y-122850000D03*
X152325000Y-127000000D03*
X155650000Y-119475000D03*
X118135000Y-112405000D03*
X150100000Y-119475000D03*
X117600000Y-112775000D03*
X138665000Y-112275000D03*
X144495000Y-116825000D03*
X119845000Y-125195000D03*
X122360000Y-112450000D03*
X132050000Y-125625000D03*
X130750000Y-125050000D03*
X132850000Y-125400000D03*
X130325000Y-124625000D03*
X115565000Y-124565000D03*
X139050000Y-119350000D03*
X116145000Y-125575000D03*
X139045222Y-118650000D03*
X136785000Y-120405000D03*
X116705000Y-126085000D03*
X117255000Y-126685000D03*
X137775000Y-119875000D03*
X141475000Y-117375000D03*
X117835000Y-124315000D03*
X118675000Y-124155000D03*
X140748799Y-116873799D03*
X153150000Y-126950000D03*
X139345000Y-111595000D03*
X143815000Y-122325000D03*
D15*
X155402500Y-124537500D02*
X154052500Y-124537500D01*
X153592881Y-124537500D02*
X153585381Y-124545000D01*
X154052500Y-124537500D02*
X153592881Y-124537500D01*
X153585381Y-124545000D02*
X152845000Y-124545000D01*
X155402500Y-130487500D02*
X152752500Y-130487500D01*
X117535000Y-124885000D02*
X117535000Y-125115000D01*
X125372158Y-124155000D02*
X125312158Y-124095000D01*
X125655000Y-124155000D02*
X125372158Y-124155000D01*
D16*
G36*
X112158000Y-110465181D02*
G01*
X112160412Y-110489635D01*
X112167612Y-110513467D01*
X112179323Y-110535437D01*
X112195095Y-110554700D01*
X112214322Y-110570516D01*
X112236266Y-110582277D01*
X112260082Y-110589531D01*
X112284855Y-110592000D01*
X156115776Y-110641887D01*
X156116913Y-112708000D01*
X150265000Y-112708000D01*
X150240224Y-112710440D01*
X150216399Y-112717667D01*
X150194443Y-112729403D01*
X150175197Y-112745197D01*
X150159403Y-112764443D01*
X150147667Y-112786399D01*
X150140440Y-112810224D01*
X150138000Y-112835000D01*
X150138000Y-117835000D01*
X150140440Y-117859776D01*
X150147667Y-117883601D01*
X150159403Y-117905557D01*
X150175197Y-117924803D01*
X150194443Y-117940597D01*
X150216399Y-117952333D01*
X150240224Y-117959560D01*
X150265000Y-117962000D01*
X156119803Y-117962000D01*
X156120255Y-118784969D01*
X156045521Y-118735033D01*
X155893560Y-118672089D01*
X155732240Y-118640000D01*
X155567760Y-118640000D01*
X155406440Y-118672089D01*
X155254479Y-118735033D01*
X155117719Y-118826413D01*
X155001413Y-118942719D01*
X154910033Y-119079479D01*
X154847089Y-119231440D01*
X154815000Y-119392760D01*
X154815000Y-119557240D01*
X154847089Y-119718560D01*
X154910033Y-119870521D01*
X155001413Y-120007281D01*
X155117719Y-120123587D01*
X155254479Y-120214967D01*
X155406440Y-120277911D01*
X155567760Y-120310000D01*
X155732240Y-120310000D01*
X155893560Y-120277911D01*
X156045521Y-120214967D01*
X156121014Y-120164524D01*
X156122396Y-122677855D01*
X156019514Y-122517592D01*
X155870891Y-122363413D01*
X155695045Y-122241191D01*
X155498733Y-122155624D01*
X155289500Y-122110000D01*
X154539500Y-122110000D01*
X154539500Y-123068000D01*
X154559500Y-123068000D01*
X154559500Y-123322000D01*
X154539500Y-123322000D01*
X154539500Y-123870892D01*
X154525431Y-123884961D01*
X154511823Y-123689230D01*
X154337508Y-123615919D01*
X154285500Y-123605281D01*
X154285500Y-123322000D01*
X152744998Y-123322000D01*
X152618092Y-123489001D01*
X152689798Y-123692197D01*
X152805486Y-123872408D01*
X152954109Y-124026587D01*
X153129955Y-124148809D01*
X153167620Y-124165226D01*
X153130919Y-124252492D01*
X153093025Y-124437760D01*
X153092003Y-124626861D01*
X153127892Y-124812528D01*
X153189253Y-124962962D01*
X153129392Y-125107478D01*
X153092500Y-125292948D01*
X153092500Y-125482052D01*
X153129392Y-125667522D01*
X153189444Y-125812500D01*
X153129392Y-125957478D01*
X153098059Y-126115000D01*
X153067760Y-126115000D01*
X152906440Y-126147089D01*
X152754479Y-126210033D01*
X152695290Y-126249582D01*
X152568560Y-126197089D01*
X152407240Y-126165000D01*
X152242760Y-126165000D01*
X152081440Y-126197089D01*
X151929479Y-126260033D01*
X151792719Y-126351413D01*
X151676413Y-126467719D01*
X151585033Y-126604479D01*
X151522089Y-126756440D01*
X151490000Y-126917760D01*
X151490000Y-127082240D01*
X151522089Y-127243560D01*
X151585033Y-127395521D01*
X151676413Y-127532281D01*
X151792719Y-127648587D01*
X151929479Y-127739967D01*
X152081440Y-127802911D01*
X152242760Y-127835000D01*
X152407240Y-127835000D01*
X152568560Y-127802911D01*
X152720521Y-127739967D01*
X152779710Y-127700418D01*
X152906440Y-127752911D01*
X153067760Y-127785000D01*
X153104026Y-127785000D01*
X153092500Y-127842948D01*
X153092500Y-128032052D01*
X153129392Y-128217522D01*
X153189444Y-128362500D01*
X153129392Y-128507478D01*
X153092500Y-128692948D01*
X153092500Y-128882052D01*
X153129392Y-129067522D01*
X153189444Y-129212500D01*
X153129392Y-129357478D01*
X153092500Y-129542948D01*
X153092500Y-129732052D01*
X153129392Y-129917522D01*
X153189618Y-130062920D01*
X153130919Y-130202492D01*
X153093025Y-130387760D01*
X153092003Y-130576861D01*
X153127892Y-130762528D01*
X153176758Y-130882329D01*
X153144955Y-130896191D01*
X152969109Y-131018413D01*
X152820486Y-131172592D01*
X152704798Y-131352803D01*
X152633092Y-131555999D01*
X152759998Y-131723000D01*
X154300500Y-131723000D01*
X154300500Y-131417332D01*
X154327528Y-131412108D01*
X154502626Y-131340687D01*
X154511823Y-131335770D01*
X154525431Y-131140039D01*
X154554500Y-131169108D01*
X154554500Y-131723000D01*
X154574500Y-131723000D01*
X154574500Y-131977000D01*
X154554500Y-131977000D01*
X154554500Y-131997000D01*
X154300500Y-131997000D01*
X154300500Y-131977000D01*
X152759998Y-131977000D01*
X152633092Y-132144001D01*
X152704798Y-132347197D01*
X152820486Y-132527408D01*
X152969109Y-132681587D01*
X153050273Y-132738000D01*
X152049727Y-132738000D01*
X152130891Y-132681587D01*
X152279514Y-132527408D01*
X152395202Y-132347197D01*
X152466908Y-132144001D01*
X152340002Y-131977000D01*
X151149500Y-131977000D01*
X151149500Y-131997000D01*
X150895500Y-131997000D01*
X150895500Y-131977000D01*
X149704998Y-131977000D01*
X149578092Y-132144001D01*
X149649798Y-132347197D01*
X149765486Y-132527408D01*
X149914109Y-132681587D01*
X149995273Y-132738000D01*
X142572868Y-132738000D01*
X142573587Y-132737281D01*
X142664967Y-132600521D01*
X142727911Y-132448560D01*
X142760000Y-132287240D01*
X142760000Y-132122760D01*
X142727911Y-131961440D01*
X142664967Y-131809479D01*
X142573587Y-131672719D01*
X142457281Y-131556413D01*
X142456662Y-131555999D01*
X149578092Y-131555999D01*
X149704998Y-131723000D01*
X150895500Y-131723000D01*
X150895500Y-130765000D01*
X151149500Y-130765000D01*
X151149500Y-131723000D01*
X152340002Y-131723000D01*
X152466908Y-131555999D01*
X152395202Y-131352803D01*
X152279514Y-131172592D01*
X152130891Y-131018413D01*
X151955045Y-130896191D01*
X151758733Y-130810624D01*
X151549500Y-130765000D01*
X151149500Y-130765000D01*
X150895500Y-130765000D01*
X150495500Y-130765000D01*
X150286267Y-130810624D01*
X150089955Y-130896191D01*
X149914109Y-131018413D01*
X149765486Y-131172592D01*
X149649798Y-131352803D01*
X149578092Y-131555999D01*
X142456662Y-131555999D01*
X142320521Y-131465033D01*
X142168560Y-131402089D01*
X142007240Y-131370000D01*
X141842760Y-131370000D01*
X141681440Y-131402089D01*
X141529479Y-131465033D01*
X141392719Y-131556413D01*
X141276413Y-131672719D01*
X141185033Y-131809479D01*
X141122089Y-131961440D01*
X141104656Y-132049081D01*
X141033587Y-131942719D01*
X140917281Y-131826413D01*
X140780521Y-131735033D01*
X140628560Y-131672089D01*
X140467240Y-131640000D01*
X140302760Y-131640000D01*
X140141440Y-131672089D01*
X139989479Y-131735033D01*
X139852719Y-131826413D01*
X139736413Y-131942719D01*
X139645033Y-132079479D01*
X139582089Y-132231440D01*
X139550000Y-132392760D01*
X139550000Y-132557240D01*
X139582089Y-132718560D01*
X139590141Y-132738000D01*
X123367840Y-132738000D01*
X123418560Y-132727911D01*
X123570521Y-132664967D01*
X123707281Y-132573587D01*
X123823587Y-132457281D01*
X123914967Y-132320521D01*
X123977911Y-132168560D01*
X124010000Y-132007240D01*
X124010000Y-131842760D01*
X123977911Y-131681440D01*
X123914967Y-131529479D01*
X123823587Y-131392719D01*
X123707281Y-131276413D01*
X123570521Y-131185033D01*
X123418560Y-131122089D01*
X123257240Y-131090000D01*
X123092760Y-131090000D01*
X122931440Y-131122089D01*
X122779479Y-131185033D01*
X122642719Y-131276413D01*
X122526413Y-131392719D01*
X122435033Y-131529479D01*
X122372089Y-131681440D01*
X122340000Y-131842760D01*
X122340000Y-132007240D01*
X122372089Y-132168560D01*
X122435033Y-132320521D01*
X122526413Y-132457281D01*
X122642719Y-132573587D01*
X122779479Y-132664967D01*
X122931440Y-132727911D01*
X122982160Y-132738000D01*
X111972140Y-132738000D01*
X111974257Y-130812760D01*
X133980000Y-130812760D01*
X133980000Y-130977240D01*
X134012089Y-131138560D01*
X134075033Y-131290521D01*
X134166413Y-131427281D01*
X134282719Y-131543587D01*
X134419479Y-131634967D01*
X134571440Y-131697911D01*
X134732760Y-131730000D01*
X134897240Y-131730000D01*
X135058560Y-131697911D01*
X135210521Y-131634967D01*
X135347281Y-131543587D01*
X135463587Y-131427281D01*
X135554967Y-131290521D01*
X135617911Y-131138560D01*
X135650000Y-130977240D01*
X135650000Y-130812760D01*
X135617911Y-130651440D01*
X135554967Y-130499479D01*
X135463587Y-130362719D01*
X135347281Y-130246413D01*
X135210521Y-130155033D01*
X135058560Y-130092089D01*
X134897240Y-130060000D01*
X134732760Y-130060000D01*
X134571440Y-130092089D01*
X134419479Y-130155033D01*
X134282719Y-130246413D01*
X134166413Y-130362719D01*
X134075033Y-130499479D01*
X134012089Y-130651440D01*
X133980000Y-130812760D01*
X111974257Y-130812760D01*
X111975489Y-129692760D01*
X120490000Y-129692760D01*
X120490000Y-129857240D01*
X120522089Y-130018560D01*
X120585033Y-130170521D01*
X120676413Y-130307281D01*
X120792719Y-130423587D01*
X120929479Y-130514967D01*
X121081440Y-130577911D01*
X121242760Y-130610000D01*
X121407240Y-130610000D01*
X121568560Y-130577911D01*
X121720521Y-130514967D01*
X121857281Y-130423587D01*
X121973587Y-130307281D01*
X122064967Y-130170521D01*
X122127911Y-130018560D01*
X122160000Y-129857240D01*
X122160000Y-129692760D01*
X122127911Y-129531440D01*
X122064967Y-129379479D01*
X121973587Y-129242719D01*
X121857281Y-129126413D01*
X121720521Y-129035033D01*
X121568560Y-128972089D01*
X121407240Y-128940000D01*
X121242760Y-128940000D01*
X121081440Y-128972089D01*
X120929479Y-129035033D01*
X120792719Y-129126413D01*
X120676413Y-129242719D01*
X120585033Y-129379479D01*
X120522089Y-129531440D01*
X120490000Y-129692760D01*
X111975489Y-129692760D01*
X111977403Y-127952760D01*
X132970000Y-127952760D01*
X132970000Y-128117240D01*
X133002089Y-128278560D01*
X133065033Y-128430521D01*
X133156413Y-128567281D01*
X133272719Y-128683587D01*
X133409479Y-128774967D01*
X133561440Y-128837911D01*
X133722760Y-128870000D01*
X133887240Y-128870000D01*
X134048560Y-128837911D01*
X134200521Y-128774967D01*
X134278654Y-128722760D01*
X142880000Y-128722760D01*
X142880000Y-128887240D01*
X142912089Y-129048560D01*
X142975033Y-129200521D01*
X143066413Y-129337281D01*
X143182719Y-129453587D01*
X143201551Y-129466170D01*
X143162089Y-129561440D01*
X143130000Y-129722760D01*
X143130000Y-129887240D01*
X143162089Y-130048560D01*
X143225033Y-130200521D01*
X143316413Y-130337281D01*
X143432719Y-130453587D01*
X143569479Y-130544967D01*
X143721440Y-130607911D01*
X143882760Y-130640000D01*
X144047240Y-130640000D01*
X144208560Y-130607911D01*
X144360521Y-130544967D01*
X144497281Y-130453587D01*
X144613587Y-130337281D01*
X144704967Y-130200521D01*
X144767911Y-130048560D01*
X144800000Y-129887240D01*
X144800000Y-129722760D01*
X144767911Y-129561440D01*
X144704967Y-129409479D01*
X144613587Y-129272719D01*
X144497281Y-129156413D01*
X144478449Y-129143830D01*
X144517911Y-129048560D01*
X144550000Y-128887240D01*
X144550000Y-128722760D01*
X144517911Y-128561440D01*
X144454967Y-128409479D01*
X144363587Y-128272719D01*
X144247281Y-128156413D01*
X144110521Y-128065033D01*
X143958560Y-128002089D01*
X143797240Y-127970000D01*
X143632760Y-127970000D01*
X143471440Y-128002089D01*
X143319479Y-128065033D01*
X143182719Y-128156413D01*
X143066413Y-128272719D01*
X142975033Y-128409479D01*
X142912089Y-128561440D01*
X142880000Y-128722760D01*
X134278654Y-128722760D01*
X134337281Y-128683587D01*
X134453587Y-128567281D01*
X134544967Y-128430521D01*
X134607911Y-128278560D01*
X134640000Y-128117240D01*
X134640000Y-127952760D01*
X134607911Y-127791440D01*
X134567037Y-127692760D01*
X140365000Y-127692760D01*
X140365000Y-127857240D01*
X140397089Y-128018560D01*
X140460033Y-128170521D01*
X140551413Y-128307281D01*
X140667719Y-128423587D01*
X140804479Y-128514967D01*
X140956440Y-128577911D01*
X141117760Y-128610000D01*
X141282240Y-128610000D01*
X141443560Y-128577911D01*
X141595521Y-128514967D01*
X141732281Y-128423587D01*
X141848587Y-128307281D01*
X141939967Y-128170521D01*
X142002911Y-128018560D01*
X142035000Y-127857240D01*
X142035000Y-127692760D01*
X148390000Y-127692760D01*
X148390000Y-127857240D01*
X148422089Y-128018560D01*
X148485033Y-128170521D01*
X148576413Y-128307281D01*
X148692719Y-128423587D01*
X148829479Y-128514967D01*
X148981440Y-128577911D01*
X149142760Y-128610000D01*
X149307240Y-128610000D01*
X149468560Y-128577911D01*
X149620521Y-128514967D01*
X149757281Y-128423587D01*
X149873587Y-128307281D01*
X149964967Y-128170521D01*
X150027911Y-128018560D01*
X150060000Y-127857240D01*
X150060000Y-127692760D01*
X150027911Y-127531440D01*
X149964967Y-127379479D01*
X149873587Y-127242719D01*
X149757281Y-127126413D01*
X149620521Y-127035033D01*
X149468560Y-126972089D01*
X149307240Y-126940000D01*
X149142760Y-126940000D01*
X148981440Y-126972089D01*
X148829479Y-127035033D01*
X148692719Y-127126413D01*
X148576413Y-127242719D01*
X148485033Y-127379479D01*
X148422089Y-127531440D01*
X148390000Y-127692760D01*
X142035000Y-127692760D01*
X142002911Y-127531440D01*
X141939967Y-127379479D01*
X141848587Y-127242719D01*
X141732281Y-127126413D01*
X141595521Y-127035033D01*
X141443560Y-126972089D01*
X141282240Y-126940000D01*
X141117760Y-126940000D01*
X140956440Y-126972089D01*
X140804479Y-127035033D01*
X140667719Y-127126413D01*
X140551413Y-127242719D01*
X140460033Y-127379479D01*
X140397089Y-127531440D01*
X140365000Y-127692760D01*
X134567037Y-127692760D01*
X134544967Y-127639479D01*
X134453587Y-127502719D01*
X134337281Y-127386413D01*
X134200521Y-127295033D01*
X134048560Y-127232089D01*
X133887240Y-127200000D01*
X133722760Y-127200000D01*
X133561440Y-127232089D01*
X133409479Y-127295033D01*
X133272719Y-127386413D01*
X133156413Y-127502719D01*
X133065033Y-127639479D01*
X133002089Y-127791440D01*
X132970000Y-127952760D01*
X111977403Y-127952760D01*
X111980209Y-125402760D01*
X114090000Y-125402760D01*
X114090000Y-125567240D01*
X114122089Y-125728560D01*
X114185033Y-125880521D01*
X114276413Y-126017281D01*
X114392719Y-126133587D01*
X114529479Y-126224967D01*
X114681440Y-126287911D01*
X114842760Y-126320000D01*
X115007240Y-126320000D01*
X115168560Y-126287911D01*
X115320521Y-126224967D01*
X115457281Y-126133587D01*
X115491276Y-126099592D01*
X115496413Y-126107281D01*
X115612719Y-126223587D01*
X115749479Y-126314967D01*
X115901440Y-126377911D01*
X115924425Y-126382483D01*
X115965033Y-126480521D01*
X116056413Y-126617281D01*
X116172719Y-126733587D01*
X116309479Y-126824967D01*
X116442438Y-126880040D01*
X116452089Y-126928560D01*
X116515033Y-127080521D01*
X116606413Y-127217281D01*
X116722719Y-127333587D01*
X116859479Y-127424967D01*
X117011440Y-127487911D01*
X117172760Y-127520000D01*
X117337240Y-127520000D01*
X117498560Y-127487911D01*
X117650521Y-127424967D01*
X117787281Y-127333587D01*
X117903587Y-127217281D01*
X117994967Y-127080521D01*
X118057911Y-126928560D01*
X118090000Y-126767240D01*
X118090000Y-126602760D01*
X118057911Y-126441440D01*
X117994967Y-126289479D01*
X117903587Y-126152719D01*
X117787281Y-126036413D01*
X117650521Y-125945033D01*
X117517562Y-125889960D01*
X117507911Y-125841440D01*
X117444967Y-125689479D01*
X117353587Y-125552719D01*
X117237281Y-125436413D01*
X117100521Y-125345033D01*
X116948560Y-125282089D01*
X116925575Y-125277517D01*
X116884967Y-125179479D01*
X116793587Y-125042719D01*
X116677281Y-124926413D01*
X116540521Y-124835033D01*
X116388560Y-124772089D01*
X116375675Y-124769526D01*
X116400000Y-124647240D01*
X116400000Y-124482760D01*
X116367911Y-124321440D01*
X116331179Y-124232760D01*
X117000000Y-124232760D01*
X117000000Y-124397240D01*
X117032089Y-124558560D01*
X117095033Y-124710521D01*
X117186413Y-124847281D01*
X117302719Y-124963587D01*
X117439479Y-125054967D01*
X117591440Y-125117911D01*
X117752760Y-125150000D01*
X117891178Y-125150000D01*
X117910033Y-125195521D01*
X118001413Y-125332281D01*
X118117719Y-125448587D01*
X118254479Y-125539967D01*
X118406440Y-125602911D01*
X118567760Y-125635000D01*
X118732240Y-125635000D01*
X118893560Y-125602911D01*
X119045521Y-125539967D01*
X119075732Y-125519781D01*
X119105033Y-125590521D01*
X119196413Y-125727281D01*
X119312719Y-125843587D01*
X119449479Y-125934967D01*
X119601440Y-125997911D01*
X119762760Y-126030000D01*
X119927240Y-126030000D01*
X120088560Y-125997911D01*
X120240521Y-125934967D01*
X120377281Y-125843587D01*
X120381421Y-125839447D01*
X120479479Y-125904967D01*
X120631440Y-125967911D01*
X120792760Y-126000000D01*
X120957240Y-126000000D01*
X121118560Y-125967911D01*
X121270521Y-125904967D01*
X121407281Y-125813587D01*
X121523587Y-125697281D01*
X121614967Y-125560521D01*
X121677911Y-125408560D01*
X121710000Y-125247240D01*
X121710000Y-125082760D01*
X121677911Y-124921440D01*
X121614967Y-124769479D01*
X121523587Y-124632719D01*
X121498480Y-124607612D01*
X121539967Y-124545521D01*
X121599100Y-124402760D01*
X125350000Y-124402760D01*
X125350000Y-124567240D01*
X125382089Y-124728560D01*
X125445033Y-124880521D01*
X125536413Y-125017281D01*
X125652719Y-125133587D01*
X125789479Y-125224967D01*
X125941440Y-125287911D01*
X126102760Y-125320000D01*
X126267240Y-125320000D01*
X126428560Y-125287911D01*
X126580521Y-125224967D01*
X126717281Y-125133587D01*
X126833587Y-125017281D01*
X126924967Y-124880521D01*
X126987911Y-124728560D01*
X127020000Y-124567240D01*
X127020000Y-124532760D01*
X127920000Y-124532760D01*
X127920000Y-124697240D01*
X127952089Y-124858560D01*
X128015033Y-125010521D01*
X128106413Y-125147281D01*
X128222719Y-125263587D01*
X128359479Y-125354967D01*
X128511440Y-125417911D01*
X128672760Y-125450000D01*
X128837240Y-125450000D01*
X128998560Y-125417911D01*
X129150521Y-125354967D01*
X129287281Y-125263587D01*
X129403587Y-125147281D01*
X129494967Y-125010521D01*
X129537929Y-124906801D01*
X129585033Y-125020521D01*
X129676413Y-125157281D01*
X129792719Y-125273587D01*
X129929479Y-125364967D01*
X129986439Y-125388561D01*
X130010033Y-125445521D01*
X130101413Y-125582281D01*
X130217719Y-125698587D01*
X130354479Y-125789967D01*
X130506440Y-125852911D01*
X130667760Y-125885000D01*
X130832240Y-125885000D01*
X130993560Y-125852911D01*
X131145521Y-125789967D01*
X131221374Y-125739284D01*
X131247089Y-125868560D01*
X131310033Y-126020521D01*
X131401413Y-126157281D01*
X131517719Y-126273587D01*
X131654479Y-126364967D01*
X131806440Y-126427911D01*
X131967760Y-126460000D01*
X132132240Y-126460000D01*
X132293560Y-126427911D01*
X132445521Y-126364967D01*
X132582281Y-126273587D01*
X132645239Y-126210629D01*
X132767760Y-126235000D01*
X132932240Y-126235000D01*
X133044046Y-126212760D01*
X138920000Y-126212760D01*
X138920000Y-126377240D01*
X138952089Y-126538560D01*
X139015033Y-126690521D01*
X139106413Y-126827281D01*
X139222719Y-126943587D01*
X139359479Y-127034967D01*
X139511440Y-127097911D01*
X139672760Y-127130000D01*
X139837240Y-127130000D01*
X139998560Y-127097911D01*
X140150521Y-127034967D01*
X140287281Y-126943587D01*
X140403587Y-126827281D01*
X140494967Y-126690521D01*
X140557911Y-126538560D01*
X140590000Y-126377240D01*
X140590000Y-126212760D01*
X140557911Y-126051440D01*
X140494967Y-125899479D01*
X140403587Y-125762719D01*
X140287281Y-125646413D01*
X140150521Y-125555033D01*
X139998560Y-125492089D01*
X139876252Y-125467760D01*
X141765000Y-125467760D01*
X141765000Y-125632240D01*
X141797089Y-125793560D01*
X141860033Y-125945521D01*
X141951413Y-126082281D01*
X142067719Y-126198587D01*
X142204479Y-126289967D01*
X142356440Y-126352911D01*
X142517760Y-126385000D01*
X142682240Y-126385000D01*
X142843560Y-126352911D01*
X142995521Y-126289967D01*
X143132281Y-126198587D01*
X143248587Y-126082281D01*
X143339967Y-125945521D01*
X143402911Y-125793560D01*
X143435000Y-125632240D01*
X143435000Y-125467760D01*
X143402911Y-125306440D01*
X143339967Y-125154479D01*
X143248587Y-125017719D01*
X143132281Y-124901413D01*
X142995521Y-124810033D01*
X142843560Y-124747089D01*
X142682240Y-124715000D01*
X142517760Y-124715000D01*
X142356440Y-124747089D01*
X142204479Y-124810033D01*
X142067719Y-124901413D01*
X141951413Y-125017719D01*
X141860033Y-125154479D01*
X141797089Y-125306440D01*
X141765000Y-125467760D01*
X139876252Y-125467760D01*
X139837240Y-125460000D01*
X139672760Y-125460000D01*
X139511440Y-125492089D01*
X139359479Y-125555033D01*
X139222719Y-125646413D01*
X139106413Y-125762719D01*
X139015033Y-125899479D01*
X138952089Y-126051440D01*
X138920000Y-126212760D01*
X133044046Y-126212760D01*
X133093560Y-126202911D01*
X133245521Y-126139967D01*
X133382281Y-126048587D01*
X133498587Y-125932281D01*
X133589967Y-125795521D01*
X133652911Y-125643560D01*
X133685000Y-125482240D01*
X133685000Y-125317760D01*
X133652911Y-125156440D01*
X133589967Y-125004479D01*
X133498587Y-124867719D01*
X133382281Y-124751413D01*
X133245521Y-124660033D01*
X133093560Y-124597089D01*
X132932240Y-124565000D01*
X132767760Y-124565000D01*
X132606440Y-124597089D01*
X132454479Y-124660033D01*
X132317719Y-124751413D01*
X132254761Y-124814371D01*
X132132240Y-124790000D01*
X131967760Y-124790000D01*
X131806440Y-124822089D01*
X131654479Y-124885033D01*
X131578626Y-124935716D01*
X131552911Y-124806440D01*
X131489967Y-124654479D01*
X131454488Y-124601380D01*
X131523587Y-124532281D01*
X131614967Y-124395521D01*
X131677911Y-124243560D01*
X131710000Y-124082240D01*
X131710000Y-123917760D01*
X131677911Y-123756440D01*
X131614967Y-123604479D01*
X131523587Y-123467719D01*
X131407281Y-123351413D01*
X131357398Y-123318082D01*
X131377911Y-123268560D01*
X131383318Y-123241380D01*
X131385033Y-123245521D01*
X131476413Y-123382281D01*
X131592719Y-123498587D01*
X131729479Y-123589967D01*
X131881440Y-123652911D01*
X132042760Y-123685000D01*
X132207240Y-123685000D01*
X132368560Y-123652911D01*
X132520521Y-123589967D01*
X132596266Y-123539356D01*
X132605033Y-123560521D01*
X132696413Y-123697281D01*
X132812719Y-123813587D01*
X132949479Y-123904967D01*
X133101440Y-123967911D01*
X133262760Y-124000000D01*
X133427240Y-124000000D01*
X133588560Y-123967911D01*
X133740521Y-123904967D01*
X133877281Y-123813587D01*
X133993587Y-123697281D01*
X134084967Y-123560521D01*
X134113555Y-123491501D01*
X149578092Y-123491501D01*
X149649798Y-123694697D01*
X149765486Y-123874908D01*
X149914109Y-124029087D01*
X150089955Y-124151309D01*
X150286267Y-124236876D01*
X150495500Y-124282500D01*
X150895500Y-124282500D01*
X150895500Y-123324500D01*
X151149500Y-123324500D01*
X151149500Y-124282500D01*
X151549500Y-124282500D01*
X151758733Y-124236876D01*
X151955045Y-124151309D01*
X152130891Y-124029087D01*
X152279514Y-123874908D01*
X152395202Y-123694697D01*
X152466908Y-123491501D01*
X152340002Y-123324500D01*
X151149500Y-123324500D01*
X150895500Y-123324500D01*
X149704998Y-123324500D01*
X149578092Y-123491501D01*
X134113555Y-123491501D01*
X134147911Y-123408560D01*
X134180000Y-123247240D01*
X134180000Y-123082760D01*
X134147911Y-122921440D01*
X134084967Y-122769479D01*
X133993587Y-122632719D01*
X133877281Y-122516413D01*
X133740521Y-122425033D01*
X133588560Y-122362089D01*
X133427240Y-122330000D01*
X133262760Y-122330000D01*
X133101440Y-122362089D01*
X132949479Y-122425033D01*
X132873734Y-122475644D01*
X132864967Y-122454479D01*
X132773587Y-122317719D01*
X132698628Y-122242760D01*
X142980000Y-122242760D01*
X142980000Y-122407240D01*
X143012089Y-122568560D01*
X143075033Y-122720521D01*
X143166413Y-122857281D01*
X143282719Y-122973587D01*
X143419479Y-123064967D01*
X143571440Y-123127911D01*
X143732760Y-123160000D01*
X143897240Y-123160000D01*
X144058560Y-123127911D01*
X144210521Y-123064967D01*
X144347281Y-122973587D01*
X144417369Y-122903499D01*
X149578092Y-122903499D01*
X149704998Y-123070500D01*
X150895500Y-123070500D01*
X150895500Y-123050500D01*
X151149500Y-123050500D01*
X151149500Y-123070500D01*
X152340002Y-123070500D01*
X152466908Y-122903499D01*
X152466026Y-122900999D01*
X152618092Y-122900999D01*
X152744998Y-123068000D01*
X154285500Y-123068000D01*
X154285500Y-122110000D01*
X153535500Y-122110000D01*
X153326267Y-122155624D01*
X153129955Y-122241191D01*
X152954109Y-122363413D01*
X152805486Y-122517592D01*
X152689798Y-122697803D01*
X152618092Y-122900999D01*
X152466026Y-122900999D01*
X152395202Y-122700303D01*
X152279514Y-122520092D01*
X152130891Y-122365913D01*
X151955045Y-122243691D01*
X151758733Y-122158124D01*
X151634040Y-122130934D01*
X151757281Y-122048587D01*
X151873587Y-121932281D01*
X151964967Y-121795521D01*
X152027911Y-121643560D01*
X152060000Y-121482240D01*
X152060000Y-121317760D01*
X152027911Y-121156440D01*
X151964967Y-121004479D01*
X151873587Y-120867719D01*
X151757281Y-120751413D01*
X151620521Y-120660033D01*
X151468560Y-120597089D01*
X151307240Y-120565000D01*
X151142760Y-120565000D01*
X150981440Y-120597089D01*
X150829479Y-120660033D01*
X150692719Y-120751413D01*
X150576413Y-120867719D01*
X150485033Y-121004479D01*
X150422089Y-121156440D01*
X150390000Y-121317760D01*
X150390000Y-121482240D01*
X150422089Y-121643560D01*
X150485033Y-121795521D01*
X150576413Y-121932281D01*
X150692719Y-122048587D01*
X150788372Y-122112500D01*
X150495500Y-122112500D01*
X150286267Y-122158124D01*
X150089955Y-122243691D01*
X149914109Y-122365913D01*
X149765486Y-122520092D01*
X149649798Y-122700303D01*
X149578092Y-122903499D01*
X144417369Y-122903499D01*
X144463587Y-122857281D01*
X144554967Y-122720521D01*
X144617911Y-122568560D01*
X144650000Y-122407240D01*
X144650000Y-122242760D01*
X144617911Y-122081440D01*
X144554967Y-121929479D01*
X144463587Y-121792719D01*
X144347281Y-121676413D01*
X144210521Y-121585033D01*
X144058560Y-121522089D01*
X143897240Y-121490000D01*
X143732760Y-121490000D01*
X143571440Y-121522089D01*
X143419479Y-121585033D01*
X143282719Y-121676413D01*
X143166413Y-121792719D01*
X143075033Y-121929479D01*
X143012089Y-122081440D01*
X142980000Y-122242760D01*
X132698628Y-122242760D01*
X132657281Y-122201413D01*
X132520521Y-122110033D01*
X132368560Y-122047089D01*
X132207240Y-122015000D01*
X132042760Y-122015000D01*
X131881440Y-122047089D01*
X131729479Y-122110033D01*
X131592719Y-122201413D01*
X131476413Y-122317719D01*
X131385033Y-122454479D01*
X131322089Y-122606440D01*
X131316682Y-122633620D01*
X131314967Y-122629479D01*
X131223587Y-122492719D01*
X131107281Y-122376413D01*
X130970521Y-122285033D01*
X130818560Y-122222089D01*
X130657240Y-122190000D01*
X130492760Y-122190000D01*
X130331440Y-122222089D01*
X130179479Y-122285033D01*
X130042719Y-122376413D01*
X129926413Y-122492719D01*
X129835033Y-122629479D01*
X129772089Y-122781440D01*
X129740000Y-122942760D01*
X129740000Y-123107240D01*
X129772089Y-123268560D01*
X129835033Y-123420521D01*
X129926413Y-123557281D01*
X130042719Y-123673587D01*
X130092602Y-123706918D01*
X130072089Y-123756440D01*
X130057018Y-123832205D01*
X129929479Y-123885033D01*
X129792719Y-123976413D01*
X129676413Y-124092719D01*
X129585033Y-124229479D01*
X129542071Y-124333199D01*
X129494967Y-124219479D01*
X129403587Y-124082719D01*
X129287281Y-123966413D01*
X129150521Y-123875033D01*
X128998560Y-123812089D01*
X128837240Y-123780000D01*
X128672760Y-123780000D01*
X128511440Y-123812089D01*
X128359479Y-123875033D01*
X128222719Y-123966413D01*
X128106413Y-124082719D01*
X128015033Y-124219479D01*
X127952089Y-124371440D01*
X127920000Y-124532760D01*
X127020000Y-124532760D01*
X127020000Y-124402760D01*
X126987911Y-124241440D01*
X126924967Y-124089479D01*
X126833587Y-123952719D01*
X126717281Y-123836413D01*
X126580521Y-123745033D01*
X126428560Y-123682089D01*
X126267240Y-123650000D01*
X126102760Y-123650000D01*
X125941440Y-123682089D01*
X125789479Y-123745033D01*
X125652719Y-123836413D01*
X125536413Y-123952719D01*
X125445033Y-124089479D01*
X125382089Y-124241440D01*
X125350000Y-124402760D01*
X121599100Y-124402760D01*
X121602911Y-124393560D01*
X121635000Y-124232240D01*
X121635000Y-124067760D01*
X121602911Y-123906440D01*
X121539967Y-123754479D01*
X121448587Y-123617719D01*
X121332281Y-123501413D01*
X121195521Y-123410033D01*
X121043560Y-123347089D01*
X120882240Y-123315000D01*
X120717760Y-123315000D01*
X120556440Y-123347089D01*
X120425601Y-123401284D01*
X120294761Y-123347089D01*
X120133441Y-123315000D01*
X119968961Y-123315000D01*
X119807641Y-123347089D01*
X119655680Y-123410033D01*
X119518920Y-123501413D01*
X119402614Y-123617719D01*
X119361430Y-123679355D01*
X119323587Y-123622719D01*
X119207281Y-123506413D01*
X119070521Y-123415033D01*
X118918560Y-123352089D01*
X118757240Y-123320000D01*
X118592760Y-123320000D01*
X118431440Y-123352089D01*
X118279479Y-123415033D01*
X118142719Y-123506413D01*
X118119914Y-123529218D01*
X118078560Y-123512089D01*
X117917240Y-123480000D01*
X117752760Y-123480000D01*
X117591440Y-123512089D01*
X117439479Y-123575033D01*
X117302719Y-123666413D01*
X117186413Y-123782719D01*
X117095033Y-123919479D01*
X117032089Y-124071440D01*
X117000000Y-124232760D01*
X116331179Y-124232760D01*
X116304967Y-124169479D01*
X116213587Y-124032719D01*
X116097281Y-123916413D01*
X115960521Y-123825033D01*
X115808560Y-123762089D01*
X115647240Y-123730000D01*
X115482760Y-123730000D01*
X115321440Y-123762089D01*
X115169479Y-123825033D01*
X115032719Y-123916413D01*
X114916413Y-124032719D01*
X114825033Y-124169479D01*
X114762089Y-124321440D01*
X114730000Y-124482760D01*
X114730000Y-124647240D01*
X114734820Y-124671471D01*
X114681440Y-124682089D01*
X114529479Y-124745033D01*
X114392719Y-124836413D01*
X114276413Y-124952719D01*
X114185033Y-125089479D01*
X114122089Y-125241440D01*
X114090000Y-125402760D01*
X111980209Y-125402760D01*
X111984207Y-121769149D01*
X112036413Y-121847281D01*
X112152719Y-121963587D01*
X112289479Y-122054967D01*
X112441440Y-122117911D01*
X112602760Y-122150000D01*
X112767240Y-122150000D01*
X112928560Y-122117911D01*
X113080521Y-122054967D01*
X113217281Y-121963587D01*
X113333587Y-121847281D01*
X113424967Y-121710521D01*
X113487911Y-121558560D01*
X113520000Y-121397240D01*
X113520000Y-121232760D01*
X113487911Y-121071440D01*
X113424967Y-120919479D01*
X113333587Y-120782719D01*
X113217281Y-120666413D01*
X113080521Y-120575033D01*
X112928560Y-120512089D01*
X112767240Y-120480000D01*
X112602760Y-120480000D01*
X112441440Y-120512089D01*
X112289479Y-120575033D01*
X112152719Y-120666413D01*
X112036413Y-120782719D01*
X111985208Y-120859353D01*
X111985511Y-120583558D01*
X111992760Y-120585000D01*
X112157240Y-120585000D01*
X112318560Y-120552911D01*
X112470521Y-120489967D01*
X112607281Y-120398587D01*
X112683108Y-120322760D01*
X135950000Y-120322760D01*
X135950000Y-120487240D01*
X135982089Y-120648560D01*
X136045033Y-120800521D01*
X136136413Y-120937281D01*
X136252719Y-121053587D01*
X136389479Y-121144967D01*
X136541440Y-121207911D01*
X136702760Y-121240000D01*
X136867240Y-121240000D01*
X137028560Y-121207911D01*
X137180521Y-121144967D01*
X137317281Y-121053587D01*
X137433587Y-120937281D01*
X137524967Y-120800521D01*
X137572380Y-120686055D01*
X137692760Y-120710000D01*
X137857240Y-120710000D01*
X138018560Y-120677911D01*
X138170521Y-120614967D01*
X138307281Y-120523587D01*
X138423587Y-120407281D01*
X138514967Y-120270521D01*
X138577911Y-120118560D01*
X138591914Y-120048163D01*
X138654479Y-120089967D01*
X138806440Y-120152911D01*
X138967760Y-120185000D01*
X139132240Y-120185000D01*
X139293560Y-120152911D01*
X139445521Y-120089967D01*
X139582281Y-119998587D01*
X139698587Y-119882281D01*
X139789967Y-119745521D01*
X139852911Y-119593560D01*
X139885000Y-119432240D01*
X139885000Y-119267760D01*
X139855163Y-119117760D01*
X144265000Y-119117760D01*
X144265000Y-119282240D01*
X144297089Y-119443560D01*
X144360033Y-119595521D01*
X144451413Y-119732281D01*
X144567719Y-119848587D01*
X144704479Y-119939967D01*
X144856440Y-120002911D01*
X145017760Y-120035000D01*
X145182240Y-120035000D01*
X145343560Y-120002911D01*
X145495521Y-119939967D01*
X145632281Y-119848587D01*
X145748587Y-119732281D01*
X145839967Y-119595521D01*
X145902911Y-119443560D01*
X145913015Y-119392760D01*
X149265000Y-119392760D01*
X149265000Y-119557240D01*
X149297089Y-119718560D01*
X149360033Y-119870521D01*
X149451413Y-120007281D01*
X149567719Y-120123587D01*
X149704479Y-120214967D01*
X149856440Y-120277911D01*
X150017760Y-120310000D01*
X150182240Y-120310000D01*
X150343560Y-120277911D01*
X150495521Y-120214967D01*
X150632281Y-120123587D01*
X150748587Y-120007281D01*
X150839967Y-119870521D01*
X150902911Y-119718560D01*
X150935000Y-119557240D01*
X150935000Y-119392760D01*
X150902911Y-119231440D01*
X150839967Y-119079479D01*
X150748587Y-118942719D01*
X150632281Y-118826413D01*
X150495521Y-118735033D01*
X150343560Y-118672089D01*
X150182240Y-118640000D01*
X150017760Y-118640000D01*
X149856440Y-118672089D01*
X149704479Y-118735033D01*
X149567719Y-118826413D01*
X149451413Y-118942719D01*
X149360033Y-119079479D01*
X149297089Y-119231440D01*
X149265000Y-119392760D01*
X145913015Y-119392760D01*
X145935000Y-119282240D01*
X145935000Y-119117760D01*
X145902911Y-118956440D01*
X145839967Y-118804479D01*
X145748587Y-118667719D01*
X145632281Y-118551413D01*
X145495521Y-118460033D01*
X145343560Y-118397089D01*
X145182240Y-118365000D01*
X145017760Y-118365000D01*
X144856440Y-118397089D01*
X144704479Y-118460033D01*
X144567719Y-118551413D01*
X144451413Y-118667719D01*
X144360033Y-118804479D01*
X144297089Y-118956440D01*
X144265000Y-119117760D01*
X139855163Y-119117760D01*
X139852911Y-119106440D01*
X139806433Y-118994232D01*
X139848133Y-118893560D01*
X139880222Y-118732240D01*
X139880222Y-118567760D01*
X139848133Y-118406440D01*
X139785189Y-118254479D01*
X139693809Y-118117719D01*
X139577503Y-118001413D01*
X139440743Y-117910033D01*
X139288782Y-117847089D01*
X139127462Y-117815000D01*
X138962982Y-117815000D01*
X138801662Y-117847089D01*
X138649701Y-117910033D01*
X138512941Y-118001413D01*
X138396635Y-118117719D01*
X138305255Y-118254479D01*
X138242311Y-118406440D01*
X138210222Y-118567760D01*
X138210222Y-118732240D01*
X138242311Y-118893560D01*
X138288789Y-119005768D01*
X138247089Y-119106440D01*
X138233086Y-119176837D01*
X138170521Y-119135033D01*
X138018560Y-119072089D01*
X137857240Y-119040000D01*
X137692760Y-119040000D01*
X137531440Y-119072089D01*
X137379479Y-119135033D01*
X137242719Y-119226413D01*
X137126413Y-119342719D01*
X137035033Y-119479479D01*
X136987620Y-119593945D01*
X136867240Y-119570000D01*
X136702760Y-119570000D01*
X136541440Y-119602089D01*
X136389479Y-119665033D01*
X136252719Y-119756413D01*
X136136413Y-119872719D01*
X136045033Y-120009479D01*
X135982089Y-120161440D01*
X135950000Y-120322760D01*
X112683108Y-120322760D01*
X112723587Y-120282281D01*
X112814967Y-120145521D01*
X112877911Y-119993560D01*
X112910000Y-119832240D01*
X112910000Y-119667760D01*
X112877911Y-119506440D01*
X112814967Y-119354479D01*
X112723587Y-119217719D01*
X112607281Y-119101413D01*
X112470521Y-119010033D01*
X112318560Y-118947089D01*
X112157240Y-118915000D01*
X111992760Y-118915000D01*
X111987345Y-118916077D01*
X111989682Y-116791559D01*
X139913799Y-116791559D01*
X139913799Y-116956039D01*
X139945888Y-117117359D01*
X140008832Y-117269320D01*
X140100212Y-117406080D01*
X140216518Y-117522386D01*
X140353278Y-117613766D01*
X140505239Y-117676710D01*
X140666559Y-117708799D01*
X140709467Y-117708799D01*
X140735033Y-117770521D01*
X140826413Y-117907281D01*
X140942719Y-118023587D01*
X141079479Y-118114967D01*
X141231440Y-118177911D01*
X141392760Y-118210000D01*
X141557240Y-118210000D01*
X141718560Y-118177911D01*
X141870521Y-118114967D01*
X142007281Y-118023587D01*
X142123587Y-117907281D01*
X142214967Y-117770521D01*
X142277911Y-117618560D01*
X142310000Y-117457240D01*
X142310000Y-117292760D01*
X142277911Y-117131440D01*
X142214967Y-116979479D01*
X142123587Y-116842719D01*
X142023628Y-116742760D01*
X143660000Y-116742760D01*
X143660000Y-116907240D01*
X143692089Y-117068560D01*
X143755033Y-117220521D01*
X143846413Y-117357281D01*
X143962719Y-117473587D01*
X144099479Y-117564967D01*
X144251440Y-117627911D01*
X144412760Y-117660000D01*
X144577240Y-117660000D01*
X144738560Y-117627911D01*
X144890521Y-117564967D01*
X145027281Y-117473587D01*
X145143587Y-117357281D01*
X145234967Y-117220521D01*
X145297911Y-117068560D01*
X145330000Y-116907240D01*
X145330000Y-116742760D01*
X145297911Y-116581440D01*
X145234967Y-116429479D01*
X145143587Y-116292719D01*
X145027281Y-116176413D01*
X144890521Y-116085033D01*
X144738560Y-116022089D01*
X144577240Y-115990000D01*
X144412760Y-115990000D01*
X144251440Y-116022089D01*
X144099479Y-116085033D01*
X143962719Y-116176413D01*
X143846413Y-116292719D01*
X143755033Y-116429479D01*
X143692089Y-116581440D01*
X143660000Y-116742760D01*
X142023628Y-116742760D01*
X142007281Y-116726413D01*
X141870521Y-116635033D01*
X141718560Y-116572089D01*
X141557240Y-116540000D01*
X141514332Y-116540000D01*
X141488766Y-116478278D01*
X141397386Y-116341518D01*
X141281080Y-116225212D01*
X141144320Y-116133832D01*
X140992359Y-116070888D01*
X140831039Y-116038799D01*
X140666559Y-116038799D01*
X140505239Y-116070888D01*
X140353278Y-116133832D01*
X140216518Y-116225212D01*
X140100212Y-116341518D01*
X140008832Y-116478278D01*
X139945888Y-116630239D01*
X139913799Y-116791559D01*
X111989682Y-116791559D01*
X111990698Y-115867760D01*
X146540000Y-115867760D01*
X146540000Y-116032240D01*
X146572089Y-116193560D01*
X146635033Y-116345521D01*
X146726413Y-116482281D01*
X146842719Y-116598587D01*
X146979479Y-116689967D01*
X147131440Y-116752911D01*
X147292760Y-116785000D01*
X147457240Y-116785000D01*
X147618560Y-116752911D01*
X147770521Y-116689967D01*
X147907281Y-116598587D01*
X148023587Y-116482281D01*
X148114967Y-116345521D01*
X148177911Y-116193560D01*
X148210000Y-116032240D01*
X148210000Y-115867760D01*
X148177911Y-115706440D01*
X148114967Y-115554479D01*
X148023587Y-115417719D01*
X147907281Y-115301413D01*
X147770521Y-115210033D01*
X147618560Y-115147089D01*
X147457240Y-115115000D01*
X147292760Y-115115000D01*
X147131440Y-115147089D01*
X146979479Y-115210033D01*
X146842719Y-115301413D01*
X146726413Y-115417719D01*
X146635033Y-115554479D01*
X146572089Y-115706440D01*
X146540000Y-115867760D01*
X111990698Y-115867760D01*
X111992872Y-113892224D01*
X112002089Y-113938560D01*
X112065033Y-114090521D01*
X112156413Y-114227281D01*
X112272719Y-114343587D01*
X112409479Y-114434967D01*
X112561440Y-114497911D01*
X112722760Y-114530000D01*
X112887240Y-114530000D01*
X113048560Y-114497911D01*
X113200521Y-114434967D01*
X113337281Y-114343587D01*
X113453587Y-114227281D01*
X113544967Y-114090521D01*
X113595816Y-113967760D01*
X138215000Y-113967760D01*
X138215000Y-114132240D01*
X138247089Y-114293560D01*
X138310033Y-114445521D01*
X138401413Y-114582281D01*
X138517719Y-114698587D01*
X138654479Y-114789967D01*
X138806440Y-114852911D01*
X138967760Y-114885000D01*
X139132240Y-114885000D01*
X139293560Y-114852911D01*
X139445521Y-114789967D01*
X139582281Y-114698587D01*
X139698587Y-114582281D01*
X139789967Y-114445521D01*
X139852911Y-114293560D01*
X139885000Y-114132240D01*
X139885000Y-113967760D01*
X139852911Y-113806440D01*
X139789967Y-113654479D01*
X139698587Y-113517719D01*
X139582281Y-113401413D01*
X139445521Y-113310033D01*
X139293560Y-113247089D01*
X139132240Y-113215000D01*
X138967760Y-113215000D01*
X138806440Y-113247089D01*
X138654479Y-113310033D01*
X138517719Y-113401413D01*
X138401413Y-113517719D01*
X138310033Y-113654479D01*
X138247089Y-113806440D01*
X138215000Y-113967760D01*
X113595816Y-113967760D01*
X113607911Y-113938560D01*
X113640000Y-113777240D01*
X113640000Y-113612760D01*
X113607911Y-113451440D01*
X113544967Y-113299479D01*
X113453587Y-113162719D01*
X113337281Y-113046413D01*
X113200521Y-112955033D01*
X113048560Y-112892089D01*
X112887240Y-112860000D01*
X112722760Y-112860000D01*
X112561440Y-112892089D01*
X112409479Y-112955033D01*
X112272719Y-113046413D01*
X112156413Y-113162719D01*
X112065033Y-113299479D01*
X112002089Y-113451440D01*
X111993308Y-113495582D01*
X111994191Y-112692760D01*
X116765000Y-112692760D01*
X116765000Y-112857240D01*
X116797089Y-113018560D01*
X116860033Y-113170521D01*
X116951413Y-113307281D01*
X117067719Y-113423587D01*
X117204479Y-113514967D01*
X117356440Y-113577911D01*
X117517760Y-113610000D01*
X117682240Y-113610000D01*
X117843560Y-113577911D01*
X117995521Y-113514967D01*
X118132281Y-113423587D01*
X118248587Y-113307281D01*
X118305239Y-113222496D01*
X118378560Y-113207911D01*
X118530521Y-113144967D01*
X118667281Y-113053587D01*
X118783587Y-112937281D01*
X118874967Y-112800521D01*
X118937911Y-112648560D01*
X118970000Y-112487240D01*
X118970000Y-112367760D01*
X121525000Y-112367760D01*
X121525000Y-112532240D01*
X121557089Y-112693560D01*
X121620033Y-112845521D01*
X121711413Y-112982281D01*
X121827719Y-113098587D01*
X121964479Y-113189967D01*
X122116440Y-113252911D01*
X122277760Y-113285000D01*
X122442240Y-113285000D01*
X122603560Y-113252911D01*
X122755521Y-113189967D01*
X122892281Y-113098587D01*
X123008587Y-112982281D01*
X123099967Y-112845521D01*
X123162911Y-112693560D01*
X123195000Y-112532240D01*
X123195000Y-112367760D01*
X123162911Y-112206440D01*
X123157245Y-112192760D01*
X137830000Y-112192760D01*
X137830000Y-112357240D01*
X137862089Y-112518560D01*
X137925033Y-112670521D01*
X138016413Y-112807281D01*
X138132719Y-112923587D01*
X138269479Y-113014967D01*
X138421440Y-113077911D01*
X138582760Y-113110000D01*
X138747240Y-113110000D01*
X138908560Y-113077911D01*
X139060521Y-113014967D01*
X139197281Y-112923587D01*
X139313587Y-112807281D01*
X139404967Y-112670521D01*
X139467911Y-112518560D01*
X139487928Y-112417928D01*
X139588560Y-112397911D01*
X139740521Y-112334967D01*
X139877281Y-112243587D01*
X139993587Y-112127281D01*
X140084967Y-111990521D01*
X140147911Y-111838560D01*
X140180000Y-111677240D01*
X140180000Y-111512760D01*
X140147911Y-111351440D01*
X140084967Y-111199479D01*
X139993587Y-111062719D01*
X139877281Y-110946413D01*
X139740521Y-110855033D01*
X139588560Y-110792089D01*
X139427240Y-110760000D01*
X139262760Y-110760000D01*
X139101440Y-110792089D01*
X138949479Y-110855033D01*
X138812719Y-110946413D01*
X138696413Y-111062719D01*
X138605033Y-111199479D01*
X138542089Y-111351440D01*
X138522072Y-111452072D01*
X138421440Y-111472089D01*
X138269479Y-111535033D01*
X138132719Y-111626413D01*
X138016413Y-111742719D01*
X137925033Y-111879479D01*
X137862089Y-112031440D01*
X137830000Y-112192760D01*
X123157245Y-112192760D01*
X123099967Y-112054479D01*
X123008587Y-111917719D01*
X122892281Y-111801413D01*
X122755521Y-111710033D01*
X122603560Y-111647089D01*
X122442240Y-111615000D01*
X122277760Y-111615000D01*
X122116440Y-111647089D01*
X121964479Y-111710033D01*
X121827719Y-111801413D01*
X121711413Y-111917719D01*
X121620033Y-112054479D01*
X121557089Y-112206440D01*
X121525000Y-112367760D01*
X118970000Y-112367760D01*
X118970000Y-112322760D01*
X118937911Y-112161440D01*
X118874967Y-112009479D01*
X118783587Y-111872719D01*
X118667281Y-111756413D01*
X118530521Y-111665033D01*
X118378560Y-111602089D01*
X118217240Y-111570000D01*
X118052760Y-111570000D01*
X117891440Y-111602089D01*
X117739479Y-111665033D01*
X117602719Y-111756413D01*
X117486413Y-111872719D01*
X117429761Y-111957504D01*
X117356440Y-111972089D01*
X117204479Y-112035033D01*
X117067719Y-112126413D01*
X116951413Y-112242719D01*
X116860033Y-112379479D01*
X116797089Y-112531440D01*
X116765000Y-112692760D01*
X111994191Y-112692760D01*
X112011860Y-96632000D01*
X112138267Y-96632000D01*
X112158000Y-110465181D01*
G37*
X112158000Y-110465181D02*
X112160412Y-110489635D01*
X112167612Y-110513467D01*
X112179323Y-110535437D01*
X112195095Y-110554700D01*
X112214322Y-110570516D01*
X112236266Y-110582277D01*
X112260082Y-110589531D01*
X112284855Y-110592000D01*
X156115776Y-110641887D01*
X156116913Y-112708000D01*
X150265000Y-112708000D01*
X150240224Y-112710440D01*
X150216399Y-112717667D01*
X150194443Y-112729403D01*
X150175197Y-112745197D01*
X150159403Y-112764443D01*
X150147667Y-112786399D01*
X150140440Y-112810224D01*
X150138000Y-112835000D01*
X150138000Y-117835000D01*
X150140440Y-117859776D01*
X150147667Y-117883601D01*
X150159403Y-117905557D01*
X150175197Y-117924803D01*
X150194443Y-117940597D01*
X150216399Y-117952333D01*
X150240224Y-117959560D01*
X150265000Y-117962000D01*
X156119803Y-117962000D01*
X156120255Y-118784969D01*
X156045521Y-118735033D01*
X155893560Y-118672089D01*
X155732240Y-118640000D01*
X155567760Y-118640000D01*
X155406440Y-118672089D01*
X155254479Y-118735033D01*
X155117719Y-118826413D01*
X155001413Y-118942719D01*
X154910033Y-119079479D01*
X154847089Y-119231440D01*
X154815000Y-119392760D01*
X154815000Y-119557240D01*
X154847089Y-119718560D01*
X154910033Y-119870521D01*
X155001413Y-120007281D01*
X155117719Y-120123587D01*
X155254479Y-120214967D01*
X155406440Y-120277911D01*
X155567760Y-120310000D01*
X155732240Y-120310000D01*
X155893560Y-120277911D01*
X156045521Y-120214967D01*
X156121014Y-120164524D01*
X156122396Y-122677855D01*
X156019514Y-122517592D01*
X155870891Y-122363413D01*
X155695045Y-122241191D01*
X155498733Y-122155624D01*
X155289500Y-122110000D01*
X154539500Y-122110000D01*
X154539500Y-123068000D01*
X154559500Y-123068000D01*
X154559500Y-123322000D01*
X154539500Y-123322000D01*
X154539500Y-123870892D01*
X154525431Y-123884961D01*
X154511823Y-123689230D01*
X154337508Y-123615919D01*
X154285500Y-123605281D01*
X154285500Y-123322000D01*
X152744998Y-123322000D01*
X152618092Y-123489001D01*
X152689798Y-123692197D01*
X152805486Y-123872408D01*
X152954109Y-124026587D01*
X153129955Y-124148809D01*
X153167620Y-124165226D01*
X153130919Y-124252492D01*
X153093025Y-124437760D01*
X153092003Y-124626861D01*
X153127892Y-124812528D01*
X153189253Y-124962962D01*
X153129392Y-125107478D01*
X153092500Y-125292948D01*
X153092500Y-125482052D01*
X153129392Y-125667522D01*
X153189444Y-125812500D01*
X153129392Y-125957478D01*
X153098059Y-126115000D01*
X153067760Y-126115000D01*
X152906440Y-126147089D01*
X152754479Y-126210033D01*
X152695290Y-126249582D01*
X152568560Y-126197089D01*
X152407240Y-126165000D01*
X152242760Y-126165000D01*
X152081440Y-126197089D01*
X151929479Y-126260033D01*
X151792719Y-126351413D01*
X151676413Y-126467719D01*
X151585033Y-126604479D01*
X151522089Y-126756440D01*
X151490000Y-126917760D01*
X151490000Y-127082240D01*
X151522089Y-127243560D01*
X151585033Y-127395521D01*
X151676413Y-127532281D01*
X151792719Y-127648587D01*
X151929479Y-127739967D01*
X152081440Y-127802911D01*
X152242760Y-127835000D01*
X152407240Y-127835000D01*
X152568560Y-127802911D01*
X152720521Y-127739967D01*
X152779710Y-127700418D01*
X152906440Y-127752911D01*
X153067760Y-127785000D01*
X153104026Y-127785000D01*
X153092500Y-127842948D01*
X153092500Y-128032052D01*
X153129392Y-128217522D01*
X153189444Y-128362500D01*
X153129392Y-128507478D01*
X153092500Y-128692948D01*
X153092500Y-128882052D01*
X153129392Y-129067522D01*
X153189444Y-129212500D01*
X153129392Y-129357478D01*
X153092500Y-129542948D01*
X153092500Y-129732052D01*
X153129392Y-129917522D01*
X153189618Y-130062920D01*
X153130919Y-130202492D01*
X153093025Y-130387760D01*
X153092003Y-130576861D01*
X153127892Y-130762528D01*
X153176758Y-130882329D01*
X153144955Y-130896191D01*
X152969109Y-131018413D01*
X152820486Y-131172592D01*
X152704798Y-131352803D01*
X152633092Y-131555999D01*
X152759998Y-131723000D01*
X154300500Y-131723000D01*
X154300500Y-131417332D01*
X154327528Y-131412108D01*
X154502626Y-131340687D01*
X154511823Y-131335770D01*
X154525431Y-131140039D01*
X154554500Y-131169108D01*
X154554500Y-131723000D01*
X154574500Y-131723000D01*
X154574500Y-131977000D01*
X154554500Y-131977000D01*
X154554500Y-131997000D01*
X154300500Y-131997000D01*
X154300500Y-131977000D01*
X152759998Y-131977000D01*
X152633092Y-132144001D01*
X152704798Y-132347197D01*
X152820486Y-132527408D01*
X152969109Y-132681587D01*
X153050273Y-132738000D01*
X152049727Y-132738000D01*
X152130891Y-132681587D01*
X152279514Y-132527408D01*
X152395202Y-132347197D01*
X152466908Y-132144001D01*
X152340002Y-131977000D01*
X151149500Y-131977000D01*
X151149500Y-131997000D01*
X150895500Y-131997000D01*
X150895500Y-131977000D01*
X149704998Y-131977000D01*
X149578092Y-132144001D01*
X149649798Y-132347197D01*
X149765486Y-132527408D01*
X149914109Y-132681587D01*
X149995273Y-132738000D01*
X142572868Y-132738000D01*
X142573587Y-132737281D01*
X142664967Y-132600521D01*
X142727911Y-132448560D01*
X142760000Y-132287240D01*
X142760000Y-132122760D01*
X142727911Y-131961440D01*
X142664967Y-131809479D01*
X142573587Y-131672719D01*
X142457281Y-131556413D01*
X142456662Y-131555999D01*
X149578092Y-131555999D01*
X149704998Y-131723000D01*
X150895500Y-131723000D01*
X150895500Y-130765000D01*
X151149500Y-130765000D01*
X151149500Y-131723000D01*
X152340002Y-131723000D01*
X152466908Y-131555999D01*
X152395202Y-131352803D01*
X152279514Y-131172592D01*
X152130891Y-131018413D01*
X151955045Y-130896191D01*
X151758733Y-130810624D01*
X151549500Y-130765000D01*
X151149500Y-130765000D01*
X150895500Y-130765000D01*
X150495500Y-130765000D01*
X150286267Y-130810624D01*
X150089955Y-130896191D01*
X149914109Y-131018413D01*
X149765486Y-131172592D01*
X149649798Y-131352803D01*
X149578092Y-131555999D01*
X142456662Y-131555999D01*
X142320521Y-131465033D01*
X142168560Y-131402089D01*
X142007240Y-131370000D01*
X141842760Y-131370000D01*
X141681440Y-131402089D01*
X141529479Y-131465033D01*
X141392719Y-131556413D01*
X141276413Y-131672719D01*
X141185033Y-131809479D01*
X141122089Y-131961440D01*
X141104656Y-132049081D01*
X141033587Y-131942719D01*
X140917281Y-131826413D01*
X140780521Y-131735033D01*
X140628560Y-131672089D01*
X140467240Y-131640000D01*
X140302760Y-131640000D01*
X140141440Y-131672089D01*
X139989479Y-131735033D01*
X139852719Y-131826413D01*
X139736413Y-131942719D01*
X139645033Y-132079479D01*
X139582089Y-132231440D01*
X139550000Y-132392760D01*
X139550000Y-132557240D01*
X139582089Y-132718560D01*
X139590141Y-132738000D01*
X123367840Y-132738000D01*
X123418560Y-132727911D01*
X123570521Y-132664967D01*
X123707281Y-132573587D01*
X123823587Y-132457281D01*
X123914967Y-132320521D01*
X123977911Y-132168560D01*
X124010000Y-132007240D01*
X124010000Y-131842760D01*
X123977911Y-131681440D01*
X123914967Y-131529479D01*
X123823587Y-131392719D01*
X123707281Y-131276413D01*
X123570521Y-131185033D01*
X123418560Y-131122089D01*
X123257240Y-131090000D01*
X123092760Y-131090000D01*
X122931440Y-131122089D01*
X122779479Y-131185033D01*
X122642719Y-131276413D01*
X122526413Y-131392719D01*
X122435033Y-131529479D01*
X122372089Y-131681440D01*
X122340000Y-131842760D01*
X122340000Y-132007240D01*
X122372089Y-132168560D01*
X122435033Y-132320521D01*
X122526413Y-132457281D01*
X122642719Y-132573587D01*
X122779479Y-132664967D01*
X122931440Y-132727911D01*
X122982160Y-132738000D01*
X111972140Y-132738000D01*
X111974257Y-130812760D01*
X133980000Y-130812760D01*
X133980000Y-130977240D01*
X134012089Y-131138560D01*
X134075033Y-131290521D01*
X134166413Y-131427281D01*
X134282719Y-131543587D01*
X134419479Y-131634967D01*
X134571440Y-131697911D01*
X134732760Y-131730000D01*
X134897240Y-131730000D01*
X135058560Y-131697911D01*
X135210521Y-131634967D01*
X135347281Y-131543587D01*
X135463587Y-131427281D01*
X135554967Y-131290521D01*
X135617911Y-131138560D01*
X135650000Y-130977240D01*
X135650000Y-130812760D01*
X135617911Y-130651440D01*
X135554967Y-130499479D01*
X135463587Y-130362719D01*
X135347281Y-130246413D01*
X135210521Y-130155033D01*
X135058560Y-130092089D01*
X134897240Y-130060000D01*
X134732760Y-130060000D01*
X134571440Y-130092089D01*
X134419479Y-130155033D01*
X134282719Y-130246413D01*
X134166413Y-130362719D01*
X134075033Y-130499479D01*
X134012089Y-130651440D01*
X133980000Y-130812760D01*
X111974257Y-130812760D01*
X111975489Y-129692760D01*
X120490000Y-129692760D01*
X120490000Y-129857240D01*
X120522089Y-130018560D01*
X120585033Y-130170521D01*
X120676413Y-130307281D01*
X120792719Y-130423587D01*
X120929479Y-130514967D01*
X121081440Y-130577911D01*
X121242760Y-130610000D01*
X121407240Y-130610000D01*
X121568560Y-130577911D01*
X121720521Y-130514967D01*
X121857281Y-130423587D01*
X121973587Y-130307281D01*
X122064967Y-130170521D01*
X122127911Y-130018560D01*
X122160000Y-129857240D01*
X122160000Y-129692760D01*
X122127911Y-129531440D01*
X122064967Y-129379479D01*
X121973587Y-129242719D01*
X121857281Y-129126413D01*
X121720521Y-129035033D01*
X121568560Y-128972089D01*
X121407240Y-128940000D01*
X121242760Y-128940000D01*
X121081440Y-128972089D01*
X120929479Y-129035033D01*
X120792719Y-129126413D01*
X120676413Y-129242719D01*
X120585033Y-129379479D01*
X120522089Y-129531440D01*
X120490000Y-129692760D01*
X111975489Y-129692760D01*
X111977403Y-127952760D01*
X132970000Y-127952760D01*
X132970000Y-128117240D01*
X133002089Y-128278560D01*
X133065033Y-128430521D01*
X133156413Y-128567281D01*
X133272719Y-128683587D01*
X133409479Y-128774967D01*
X133561440Y-128837911D01*
X133722760Y-128870000D01*
X133887240Y-128870000D01*
X134048560Y-128837911D01*
X134200521Y-128774967D01*
X134278654Y-128722760D01*
X142880000Y-128722760D01*
X142880000Y-128887240D01*
X142912089Y-129048560D01*
X142975033Y-129200521D01*
X143066413Y-129337281D01*
X143182719Y-129453587D01*
X143201551Y-129466170D01*
X143162089Y-129561440D01*
X143130000Y-129722760D01*
X143130000Y-129887240D01*
X143162089Y-130048560D01*
X143225033Y-130200521D01*
X143316413Y-130337281D01*
X143432719Y-130453587D01*
X143569479Y-130544967D01*
X143721440Y-130607911D01*
X143882760Y-130640000D01*
X144047240Y-130640000D01*
X144208560Y-130607911D01*
X144360521Y-130544967D01*
X144497281Y-130453587D01*
X144613587Y-130337281D01*
X144704967Y-130200521D01*
X144767911Y-130048560D01*
X144800000Y-129887240D01*
X144800000Y-129722760D01*
X144767911Y-129561440D01*
X144704967Y-129409479D01*
X144613587Y-129272719D01*
X144497281Y-129156413D01*
X144478449Y-129143830D01*
X144517911Y-129048560D01*
X144550000Y-128887240D01*
X144550000Y-128722760D01*
X144517911Y-128561440D01*
X144454967Y-128409479D01*
X144363587Y-128272719D01*
X144247281Y-128156413D01*
X144110521Y-128065033D01*
X143958560Y-128002089D01*
X143797240Y-127970000D01*
X143632760Y-127970000D01*
X143471440Y-128002089D01*
X143319479Y-128065033D01*
X143182719Y-128156413D01*
X143066413Y-128272719D01*
X142975033Y-128409479D01*
X142912089Y-128561440D01*
X142880000Y-128722760D01*
X134278654Y-128722760D01*
X134337281Y-128683587D01*
X134453587Y-128567281D01*
X134544967Y-128430521D01*
X134607911Y-128278560D01*
X134640000Y-128117240D01*
X134640000Y-127952760D01*
X134607911Y-127791440D01*
X134567037Y-127692760D01*
X140365000Y-127692760D01*
X140365000Y-127857240D01*
X140397089Y-128018560D01*
X140460033Y-128170521D01*
X140551413Y-128307281D01*
X140667719Y-128423587D01*
X140804479Y-128514967D01*
X140956440Y-128577911D01*
X141117760Y-128610000D01*
X141282240Y-128610000D01*
X141443560Y-128577911D01*
X141595521Y-128514967D01*
X141732281Y-128423587D01*
X141848587Y-128307281D01*
X141939967Y-128170521D01*
X142002911Y-128018560D01*
X142035000Y-127857240D01*
X142035000Y-127692760D01*
X148390000Y-127692760D01*
X148390000Y-127857240D01*
X148422089Y-128018560D01*
X148485033Y-128170521D01*
X148576413Y-128307281D01*
X148692719Y-128423587D01*
X148829479Y-128514967D01*
X148981440Y-128577911D01*
X149142760Y-128610000D01*
X149307240Y-128610000D01*
X149468560Y-128577911D01*
X149620521Y-128514967D01*
X149757281Y-128423587D01*
X149873587Y-128307281D01*
X149964967Y-128170521D01*
X150027911Y-128018560D01*
X150060000Y-127857240D01*
X150060000Y-127692760D01*
X150027911Y-127531440D01*
X149964967Y-127379479D01*
X149873587Y-127242719D01*
X149757281Y-127126413D01*
X149620521Y-127035033D01*
X149468560Y-126972089D01*
X149307240Y-126940000D01*
X149142760Y-126940000D01*
X148981440Y-126972089D01*
X148829479Y-127035033D01*
X148692719Y-127126413D01*
X148576413Y-127242719D01*
X148485033Y-127379479D01*
X148422089Y-127531440D01*
X148390000Y-127692760D01*
X142035000Y-127692760D01*
X142002911Y-127531440D01*
X141939967Y-127379479D01*
X141848587Y-127242719D01*
X141732281Y-127126413D01*
X141595521Y-127035033D01*
X141443560Y-126972089D01*
X141282240Y-126940000D01*
X141117760Y-126940000D01*
X140956440Y-126972089D01*
X140804479Y-127035033D01*
X140667719Y-127126413D01*
X140551413Y-127242719D01*
X140460033Y-127379479D01*
X140397089Y-127531440D01*
X140365000Y-127692760D01*
X134567037Y-127692760D01*
X134544967Y-127639479D01*
X134453587Y-127502719D01*
X134337281Y-127386413D01*
X134200521Y-127295033D01*
X134048560Y-127232089D01*
X133887240Y-127200000D01*
X133722760Y-127200000D01*
X133561440Y-127232089D01*
X133409479Y-127295033D01*
X133272719Y-127386413D01*
X133156413Y-127502719D01*
X133065033Y-127639479D01*
X133002089Y-127791440D01*
X132970000Y-127952760D01*
X111977403Y-127952760D01*
X111980209Y-125402760D01*
X114090000Y-125402760D01*
X114090000Y-125567240D01*
X114122089Y-125728560D01*
X114185033Y-125880521D01*
X114276413Y-126017281D01*
X114392719Y-126133587D01*
X114529479Y-126224967D01*
X114681440Y-126287911D01*
X114842760Y-126320000D01*
X115007240Y-126320000D01*
X115168560Y-126287911D01*
X115320521Y-126224967D01*
X115457281Y-126133587D01*
X115491276Y-126099592D01*
X115496413Y-126107281D01*
X115612719Y-126223587D01*
X115749479Y-126314967D01*
X115901440Y-126377911D01*
X115924425Y-126382483D01*
X115965033Y-126480521D01*
X116056413Y-126617281D01*
X116172719Y-126733587D01*
X116309479Y-126824967D01*
X116442438Y-126880040D01*
X116452089Y-126928560D01*
X116515033Y-127080521D01*
X116606413Y-127217281D01*
X116722719Y-127333587D01*
X116859479Y-127424967D01*
X117011440Y-127487911D01*
X117172760Y-127520000D01*
X117337240Y-127520000D01*
X117498560Y-127487911D01*
X117650521Y-127424967D01*
X117787281Y-127333587D01*
X117903587Y-127217281D01*
X117994967Y-127080521D01*
X118057911Y-126928560D01*
X118090000Y-126767240D01*
X118090000Y-126602760D01*
X118057911Y-126441440D01*
X117994967Y-126289479D01*
X117903587Y-126152719D01*
X117787281Y-126036413D01*
X117650521Y-125945033D01*
X117517562Y-125889960D01*
X117507911Y-125841440D01*
X117444967Y-125689479D01*
X117353587Y-125552719D01*
X117237281Y-125436413D01*
X117100521Y-125345033D01*
X116948560Y-125282089D01*
X116925575Y-125277517D01*
X116884967Y-125179479D01*
X116793587Y-125042719D01*
X116677281Y-124926413D01*
X116540521Y-124835033D01*
X116388560Y-124772089D01*
X116375675Y-124769526D01*
X116400000Y-124647240D01*
X116400000Y-124482760D01*
X116367911Y-124321440D01*
X116331179Y-124232760D01*
X117000000Y-124232760D01*
X117000000Y-124397240D01*
X117032089Y-124558560D01*
X117095033Y-124710521D01*
X117186413Y-124847281D01*
X117302719Y-124963587D01*
X117439479Y-125054967D01*
X117591440Y-125117911D01*
X117752760Y-125150000D01*
X117891178Y-125150000D01*
X117910033Y-125195521D01*
X118001413Y-125332281D01*
X118117719Y-125448587D01*
X118254479Y-125539967D01*
X118406440Y-125602911D01*
X118567760Y-125635000D01*
X118732240Y-125635000D01*
X118893560Y-125602911D01*
X119045521Y-125539967D01*
X119075732Y-125519781D01*
X119105033Y-125590521D01*
X119196413Y-125727281D01*
X119312719Y-125843587D01*
X119449479Y-125934967D01*
X119601440Y-125997911D01*
X119762760Y-126030000D01*
X119927240Y-126030000D01*
X120088560Y-125997911D01*
X120240521Y-125934967D01*
X120377281Y-125843587D01*
X120381421Y-125839447D01*
X120479479Y-125904967D01*
X120631440Y-125967911D01*
X120792760Y-126000000D01*
X120957240Y-126000000D01*
X121118560Y-125967911D01*
X121270521Y-125904967D01*
X121407281Y-125813587D01*
X121523587Y-125697281D01*
X121614967Y-125560521D01*
X121677911Y-125408560D01*
X121710000Y-125247240D01*
X121710000Y-125082760D01*
X121677911Y-124921440D01*
X121614967Y-124769479D01*
X121523587Y-124632719D01*
X121498480Y-124607612D01*
X121539967Y-124545521D01*
X121599100Y-124402760D01*
X125350000Y-124402760D01*
X125350000Y-124567240D01*
X125382089Y-124728560D01*
X125445033Y-124880521D01*
X125536413Y-125017281D01*
X125652719Y-125133587D01*
X125789479Y-125224967D01*
X125941440Y-125287911D01*
X126102760Y-125320000D01*
X126267240Y-125320000D01*
X126428560Y-125287911D01*
X126580521Y-125224967D01*
X126717281Y-125133587D01*
X126833587Y-125017281D01*
X126924967Y-124880521D01*
X126987911Y-124728560D01*
X127020000Y-124567240D01*
X127020000Y-124532760D01*
X127920000Y-124532760D01*
X127920000Y-124697240D01*
X127952089Y-124858560D01*
X128015033Y-125010521D01*
X128106413Y-125147281D01*
X128222719Y-125263587D01*
X128359479Y-125354967D01*
X128511440Y-125417911D01*
X128672760Y-125450000D01*
X128837240Y-125450000D01*
X128998560Y-125417911D01*
X129150521Y-125354967D01*
X129287281Y-125263587D01*
X129403587Y-125147281D01*
X129494967Y-125010521D01*
X129537929Y-124906801D01*
X129585033Y-125020521D01*
X129676413Y-125157281D01*
X129792719Y-125273587D01*
X129929479Y-125364967D01*
X129986439Y-125388561D01*
X130010033Y-125445521D01*
X130101413Y-125582281D01*
X130217719Y-125698587D01*
X130354479Y-125789967D01*
X130506440Y-125852911D01*
X130667760Y-125885000D01*
X130832240Y-125885000D01*
X130993560Y-125852911D01*
X131145521Y-125789967D01*
X131221374Y-125739284D01*
X131247089Y-125868560D01*
X131310033Y-126020521D01*
X131401413Y-126157281D01*
X131517719Y-126273587D01*
X131654479Y-126364967D01*
X131806440Y-126427911D01*
X131967760Y-126460000D01*
X132132240Y-126460000D01*
X132293560Y-126427911D01*
X132445521Y-126364967D01*
X132582281Y-126273587D01*
X132645239Y-126210629D01*
X132767760Y-126235000D01*
X132932240Y-126235000D01*
X133044046Y-126212760D01*
X138920000Y-126212760D01*
X138920000Y-126377240D01*
X138952089Y-126538560D01*
X139015033Y-126690521D01*
X139106413Y-126827281D01*
X139222719Y-126943587D01*
X139359479Y-127034967D01*
X139511440Y-127097911D01*
X139672760Y-127130000D01*
X139837240Y-127130000D01*
X139998560Y-127097911D01*
X140150521Y-127034967D01*
X140287281Y-126943587D01*
X140403587Y-126827281D01*
X140494967Y-126690521D01*
X140557911Y-126538560D01*
X140590000Y-126377240D01*
X140590000Y-126212760D01*
X140557911Y-126051440D01*
X140494967Y-125899479D01*
X140403587Y-125762719D01*
X140287281Y-125646413D01*
X140150521Y-125555033D01*
X139998560Y-125492089D01*
X139876252Y-125467760D01*
X141765000Y-125467760D01*
X141765000Y-125632240D01*
X141797089Y-125793560D01*
X141860033Y-125945521D01*
X141951413Y-126082281D01*
X142067719Y-126198587D01*
X142204479Y-126289967D01*
X142356440Y-126352911D01*
X142517760Y-126385000D01*
X142682240Y-126385000D01*
X142843560Y-126352911D01*
X142995521Y-126289967D01*
X143132281Y-126198587D01*
X143248587Y-126082281D01*
X143339967Y-125945521D01*
X143402911Y-125793560D01*
X143435000Y-125632240D01*
X143435000Y-125467760D01*
X143402911Y-125306440D01*
X143339967Y-125154479D01*
X143248587Y-125017719D01*
X143132281Y-124901413D01*
X142995521Y-124810033D01*
X142843560Y-124747089D01*
X142682240Y-124715000D01*
X142517760Y-124715000D01*
X142356440Y-124747089D01*
X142204479Y-124810033D01*
X142067719Y-124901413D01*
X141951413Y-125017719D01*
X141860033Y-125154479D01*
X141797089Y-125306440D01*
X141765000Y-125467760D01*
X139876252Y-125467760D01*
X139837240Y-125460000D01*
X139672760Y-125460000D01*
X139511440Y-125492089D01*
X139359479Y-125555033D01*
X139222719Y-125646413D01*
X139106413Y-125762719D01*
X139015033Y-125899479D01*
X138952089Y-126051440D01*
X138920000Y-126212760D01*
X133044046Y-126212760D01*
X133093560Y-126202911D01*
X133245521Y-126139967D01*
X133382281Y-126048587D01*
X133498587Y-125932281D01*
X133589967Y-125795521D01*
X133652911Y-125643560D01*
X133685000Y-125482240D01*
X133685000Y-125317760D01*
X133652911Y-125156440D01*
X133589967Y-125004479D01*
X133498587Y-124867719D01*
X133382281Y-124751413D01*
X133245521Y-124660033D01*
X133093560Y-124597089D01*
X132932240Y-124565000D01*
X132767760Y-124565000D01*
X132606440Y-124597089D01*
X132454479Y-124660033D01*
X132317719Y-124751413D01*
X132254761Y-124814371D01*
X132132240Y-124790000D01*
X131967760Y-124790000D01*
X131806440Y-124822089D01*
X131654479Y-124885033D01*
X131578626Y-124935716D01*
X131552911Y-124806440D01*
X131489967Y-124654479D01*
X131454488Y-124601380D01*
X131523587Y-124532281D01*
X131614967Y-124395521D01*
X131677911Y-124243560D01*
X131710000Y-124082240D01*
X131710000Y-123917760D01*
X131677911Y-123756440D01*
X131614967Y-123604479D01*
X131523587Y-123467719D01*
X131407281Y-123351413D01*
X131357398Y-123318082D01*
X131377911Y-123268560D01*
X131383318Y-123241380D01*
X131385033Y-123245521D01*
X131476413Y-123382281D01*
X131592719Y-123498587D01*
X131729479Y-123589967D01*
X131881440Y-123652911D01*
X132042760Y-123685000D01*
X132207240Y-123685000D01*
X132368560Y-123652911D01*
X132520521Y-123589967D01*
X132596266Y-123539356D01*
X132605033Y-123560521D01*
X132696413Y-123697281D01*
X132812719Y-123813587D01*
X132949479Y-123904967D01*
X133101440Y-123967911D01*
X133262760Y-124000000D01*
X133427240Y-124000000D01*
X133588560Y-123967911D01*
X133740521Y-123904967D01*
X133877281Y-123813587D01*
X133993587Y-123697281D01*
X134084967Y-123560521D01*
X134113555Y-123491501D01*
X149578092Y-123491501D01*
X149649798Y-123694697D01*
X149765486Y-123874908D01*
X149914109Y-124029087D01*
X150089955Y-124151309D01*
X150286267Y-124236876D01*
X150495500Y-124282500D01*
X150895500Y-124282500D01*
X150895500Y-123324500D01*
X151149500Y-123324500D01*
X151149500Y-124282500D01*
X151549500Y-124282500D01*
X151758733Y-124236876D01*
X151955045Y-124151309D01*
X152130891Y-124029087D01*
X152279514Y-123874908D01*
X152395202Y-123694697D01*
X152466908Y-123491501D01*
X152340002Y-123324500D01*
X151149500Y-123324500D01*
X150895500Y-123324500D01*
X149704998Y-123324500D01*
X149578092Y-123491501D01*
X134113555Y-123491501D01*
X134147911Y-123408560D01*
X134180000Y-123247240D01*
X134180000Y-123082760D01*
X134147911Y-122921440D01*
X134084967Y-122769479D01*
X133993587Y-122632719D01*
X133877281Y-122516413D01*
X133740521Y-122425033D01*
X133588560Y-122362089D01*
X133427240Y-122330000D01*
X133262760Y-122330000D01*
X133101440Y-122362089D01*
X132949479Y-122425033D01*
X132873734Y-122475644D01*
X132864967Y-122454479D01*
X132773587Y-122317719D01*
X132698628Y-122242760D01*
X142980000Y-122242760D01*
X142980000Y-122407240D01*
X143012089Y-122568560D01*
X143075033Y-122720521D01*
X143166413Y-122857281D01*
X143282719Y-122973587D01*
X143419479Y-123064967D01*
X143571440Y-123127911D01*
X143732760Y-123160000D01*
X143897240Y-123160000D01*
X144058560Y-123127911D01*
X144210521Y-123064967D01*
X144347281Y-122973587D01*
X144417369Y-122903499D01*
X149578092Y-122903499D01*
X149704998Y-123070500D01*
X150895500Y-123070500D01*
X150895500Y-123050500D01*
X151149500Y-123050500D01*
X151149500Y-123070500D01*
X152340002Y-123070500D01*
X152466908Y-122903499D01*
X152466026Y-122900999D01*
X152618092Y-122900999D01*
X152744998Y-123068000D01*
X154285500Y-123068000D01*
X154285500Y-122110000D01*
X153535500Y-122110000D01*
X153326267Y-122155624D01*
X153129955Y-122241191D01*
X152954109Y-122363413D01*
X152805486Y-122517592D01*
X152689798Y-122697803D01*
X152618092Y-122900999D01*
X152466026Y-122900999D01*
X152395202Y-122700303D01*
X152279514Y-122520092D01*
X152130891Y-122365913D01*
X151955045Y-122243691D01*
X151758733Y-122158124D01*
X151634040Y-122130934D01*
X151757281Y-122048587D01*
X151873587Y-121932281D01*
X151964967Y-121795521D01*
X152027911Y-121643560D01*
X152060000Y-121482240D01*
X152060000Y-121317760D01*
X152027911Y-121156440D01*
X151964967Y-121004479D01*
X151873587Y-120867719D01*
X151757281Y-120751413D01*
X151620521Y-120660033D01*
X151468560Y-120597089D01*
X151307240Y-120565000D01*
X151142760Y-120565000D01*
X150981440Y-120597089D01*
X150829479Y-120660033D01*
X150692719Y-120751413D01*
X150576413Y-120867719D01*
X150485033Y-121004479D01*
X150422089Y-121156440D01*
X150390000Y-121317760D01*
X150390000Y-121482240D01*
X150422089Y-121643560D01*
X150485033Y-121795521D01*
X150576413Y-121932281D01*
X150692719Y-122048587D01*
X150788372Y-122112500D01*
X150495500Y-122112500D01*
X150286267Y-122158124D01*
X150089955Y-122243691D01*
X149914109Y-122365913D01*
X149765486Y-122520092D01*
X149649798Y-122700303D01*
X149578092Y-122903499D01*
X144417369Y-122903499D01*
X144463587Y-122857281D01*
X144554967Y-122720521D01*
X144617911Y-122568560D01*
X144650000Y-122407240D01*
X144650000Y-122242760D01*
X144617911Y-122081440D01*
X144554967Y-121929479D01*
X144463587Y-121792719D01*
X144347281Y-121676413D01*
X144210521Y-121585033D01*
X144058560Y-121522089D01*
X143897240Y-121490000D01*
X143732760Y-121490000D01*
X143571440Y-121522089D01*
X143419479Y-121585033D01*
X143282719Y-121676413D01*
X143166413Y-121792719D01*
X143075033Y-121929479D01*
X143012089Y-122081440D01*
X142980000Y-122242760D01*
X132698628Y-122242760D01*
X132657281Y-122201413D01*
X132520521Y-122110033D01*
X132368560Y-122047089D01*
X132207240Y-122015000D01*
X132042760Y-122015000D01*
X131881440Y-122047089D01*
X131729479Y-122110033D01*
X131592719Y-122201413D01*
X131476413Y-122317719D01*
X131385033Y-122454479D01*
X131322089Y-122606440D01*
X131316682Y-122633620D01*
X131314967Y-122629479D01*
X131223587Y-122492719D01*
X131107281Y-122376413D01*
X130970521Y-122285033D01*
X130818560Y-122222089D01*
X130657240Y-122190000D01*
X130492760Y-122190000D01*
X130331440Y-122222089D01*
X130179479Y-122285033D01*
X130042719Y-122376413D01*
X129926413Y-122492719D01*
X129835033Y-122629479D01*
X129772089Y-122781440D01*
X129740000Y-122942760D01*
X129740000Y-123107240D01*
X129772089Y-123268560D01*
X129835033Y-123420521D01*
X129926413Y-123557281D01*
X130042719Y-123673587D01*
X130092602Y-123706918D01*
X130072089Y-123756440D01*
X130057018Y-123832205D01*
X129929479Y-123885033D01*
X129792719Y-123976413D01*
X129676413Y-124092719D01*
X129585033Y-124229479D01*
X129542071Y-124333199D01*
X129494967Y-124219479D01*
X129403587Y-124082719D01*
X129287281Y-123966413D01*
X129150521Y-123875033D01*
X128998560Y-123812089D01*
X128837240Y-123780000D01*
X128672760Y-123780000D01*
X128511440Y-123812089D01*
X128359479Y-123875033D01*
X128222719Y-123966413D01*
X128106413Y-124082719D01*
X128015033Y-124219479D01*
X127952089Y-124371440D01*
X127920000Y-124532760D01*
X127020000Y-124532760D01*
X127020000Y-124402760D01*
X126987911Y-124241440D01*
X126924967Y-124089479D01*
X126833587Y-123952719D01*
X126717281Y-123836413D01*
X126580521Y-123745033D01*
X126428560Y-123682089D01*
X126267240Y-123650000D01*
X126102760Y-123650000D01*
X125941440Y-123682089D01*
X125789479Y-123745033D01*
X125652719Y-123836413D01*
X125536413Y-123952719D01*
X125445033Y-124089479D01*
X125382089Y-124241440D01*
X125350000Y-124402760D01*
X121599100Y-124402760D01*
X121602911Y-124393560D01*
X121635000Y-124232240D01*
X121635000Y-124067760D01*
X121602911Y-123906440D01*
X121539967Y-123754479D01*
X121448587Y-123617719D01*
X121332281Y-123501413D01*
X121195521Y-123410033D01*
X121043560Y-123347089D01*
X120882240Y-123315000D01*
X120717760Y-123315000D01*
X120556440Y-123347089D01*
X120425601Y-123401284D01*
X120294761Y-123347089D01*
X120133441Y-123315000D01*
X119968961Y-123315000D01*
X119807641Y-123347089D01*
X119655680Y-123410033D01*
X119518920Y-123501413D01*
X119402614Y-123617719D01*
X119361430Y-123679355D01*
X119323587Y-123622719D01*
X119207281Y-123506413D01*
X119070521Y-123415033D01*
X118918560Y-123352089D01*
X118757240Y-123320000D01*
X118592760Y-123320000D01*
X118431440Y-123352089D01*
X118279479Y-123415033D01*
X118142719Y-123506413D01*
X118119914Y-123529218D01*
X118078560Y-123512089D01*
X117917240Y-123480000D01*
X117752760Y-123480000D01*
X117591440Y-123512089D01*
X117439479Y-123575033D01*
X117302719Y-123666413D01*
X117186413Y-123782719D01*
X117095033Y-123919479D01*
X117032089Y-124071440D01*
X117000000Y-124232760D01*
X116331179Y-124232760D01*
X116304967Y-124169479D01*
X116213587Y-124032719D01*
X116097281Y-123916413D01*
X115960521Y-123825033D01*
X115808560Y-123762089D01*
X115647240Y-123730000D01*
X115482760Y-123730000D01*
X115321440Y-123762089D01*
X115169479Y-123825033D01*
X115032719Y-123916413D01*
X114916413Y-124032719D01*
X114825033Y-124169479D01*
X114762089Y-124321440D01*
X114730000Y-124482760D01*
X114730000Y-124647240D01*
X114734820Y-124671471D01*
X114681440Y-124682089D01*
X114529479Y-124745033D01*
X114392719Y-124836413D01*
X114276413Y-124952719D01*
X114185033Y-125089479D01*
X114122089Y-125241440D01*
X114090000Y-125402760D01*
X111980209Y-125402760D01*
X111984207Y-121769149D01*
X112036413Y-121847281D01*
X112152719Y-121963587D01*
X112289479Y-122054967D01*
X112441440Y-122117911D01*
X112602760Y-122150000D01*
X112767240Y-122150000D01*
X112928560Y-122117911D01*
X113080521Y-122054967D01*
X113217281Y-121963587D01*
X113333587Y-121847281D01*
X113424967Y-121710521D01*
X113487911Y-121558560D01*
X113520000Y-121397240D01*
X113520000Y-121232760D01*
X113487911Y-121071440D01*
X113424967Y-120919479D01*
X113333587Y-120782719D01*
X113217281Y-120666413D01*
X113080521Y-120575033D01*
X112928560Y-120512089D01*
X112767240Y-120480000D01*
X112602760Y-120480000D01*
X112441440Y-120512089D01*
X112289479Y-120575033D01*
X112152719Y-120666413D01*
X112036413Y-120782719D01*
X111985208Y-120859353D01*
X111985511Y-120583558D01*
X111992760Y-120585000D01*
X112157240Y-120585000D01*
X112318560Y-120552911D01*
X112470521Y-120489967D01*
X112607281Y-120398587D01*
X112683108Y-120322760D01*
X135950000Y-120322760D01*
X135950000Y-120487240D01*
X135982089Y-120648560D01*
X136045033Y-120800521D01*
X136136413Y-120937281D01*
X136252719Y-121053587D01*
X136389479Y-121144967D01*
X136541440Y-121207911D01*
X136702760Y-121240000D01*
X136867240Y-121240000D01*
X137028560Y-121207911D01*
X137180521Y-121144967D01*
X137317281Y-121053587D01*
X137433587Y-120937281D01*
X137524967Y-120800521D01*
X137572380Y-120686055D01*
X137692760Y-120710000D01*
X137857240Y-120710000D01*
X138018560Y-120677911D01*
X138170521Y-120614967D01*
X138307281Y-120523587D01*
X138423587Y-120407281D01*
X138514967Y-120270521D01*
X138577911Y-120118560D01*
X138591914Y-120048163D01*
X138654479Y-120089967D01*
X138806440Y-120152911D01*
X138967760Y-120185000D01*
X139132240Y-120185000D01*
X139293560Y-120152911D01*
X139445521Y-120089967D01*
X139582281Y-119998587D01*
X139698587Y-119882281D01*
X139789967Y-119745521D01*
X139852911Y-119593560D01*
X139885000Y-119432240D01*
X139885000Y-119267760D01*
X139855163Y-119117760D01*
X144265000Y-119117760D01*
X144265000Y-119282240D01*
X144297089Y-119443560D01*
X144360033Y-119595521D01*
X144451413Y-119732281D01*
X144567719Y-119848587D01*
X144704479Y-119939967D01*
X144856440Y-120002911D01*
X145017760Y-120035000D01*
X145182240Y-120035000D01*
X145343560Y-120002911D01*
X145495521Y-119939967D01*
X145632281Y-119848587D01*
X145748587Y-119732281D01*
X145839967Y-119595521D01*
X145902911Y-119443560D01*
X145913015Y-119392760D01*
X149265000Y-119392760D01*
X149265000Y-119557240D01*
X149297089Y-119718560D01*
X149360033Y-119870521D01*
X149451413Y-120007281D01*
X149567719Y-120123587D01*
X149704479Y-120214967D01*
X149856440Y-120277911D01*
X150017760Y-120310000D01*
X150182240Y-120310000D01*
X150343560Y-120277911D01*
X150495521Y-120214967D01*
X150632281Y-120123587D01*
X150748587Y-120007281D01*
X150839967Y-119870521D01*
X150902911Y-119718560D01*
X150935000Y-119557240D01*
X150935000Y-119392760D01*
X150902911Y-119231440D01*
X150839967Y-119079479D01*
X150748587Y-118942719D01*
X150632281Y-118826413D01*
X150495521Y-118735033D01*
X150343560Y-118672089D01*
X150182240Y-118640000D01*
X150017760Y-118640000D01*
X149856440Y-118672089D01*
X149704479Y-118735033D01*
X149567719Y-118826413D01*
X149451413Y-118942719D01*
X149360033Y-119079479D01*
X149297089Y-119231440D01*
X149265000Y-119392760D01*
X145913015Y-119392760D01*
X145935000Y-119282240D01*
X145935000Y-119117760D01*
X145902911Y-118956440D01*
X145839967Y-118804479D01*
X145748587Y-118667719D01*
X145632281Y-118551413D01*
X145495521Y-118460033D01*
X145343560Y-118397089D01*
X145182240Y-118365000D01*
X145017760Y-118365000D01*
X144856440Y-118397089D01*
X144704479Y-118460033D01*
X144567719Y-118551413D01*
X144451413Y-118667719D01*
X144360033Y-118804479D01*
X144297089Y-118956440D01*
X144265000Y-119117760D01*
X139855163Y-119117760D01*
X139852911Y-119106440D01*
X139806433Y-118994232D01*
X139848133Y-118893560D01*
X139880222Y-118732240D01*
X139880222Y-118567760D01*
X139848133Y-118406440D01*
X139785189Y-118254479D01*
X139693809Y-118117719D01*
X139577503Y-118001413D01*
X139440743Y-117910033D01*
X139288782Y-117847089D01*
X139127462Y-117815000D01*
X138962982Y-117815000D01*
X138801662Y-117847089D01*
X138649701Y-117910033D01*
X138512941Y-118001413D01*
X138396635Y-118117719D01*
X138305255Y-118254479D01*
X138242311Y-118406440D01*
X138210222Y-118567760D01*
X138210222Y-118732240D01*
X138242311Y-118893560D01*
X138288789Y-119005768D01*
X138247089Y-119106440D01*
X138233086Y-119176837D01*
X138170521Y-119135033D01*
X138018560Y-119072089D01*
X137857240Y-119040000D01*
X137692760Y-119040000D01*
X137531440Y-119072089D01*
X137379479Y-119135033D01*
X137242719Y-119226413D01*
X137126413Y-119342719D01*
X137035033Y-119479479D01*
X136987620Y-119593945D01*
X136867240Y-119570000D01*
X136702760Y-119570000D01*
X136541440Y-119602089D01*
X136389479Y-119665033D01*
X136252719Y-119756413D01*
X136136413Y-119872719D01*
X136045033Y-120009479D01*
X135982089Y-120161440D01*
X135950000Y-120322760D01*
X112683108Y-120322760D01*
X112723587Y-120282281D01*
X112814967Y-120145521D01*
X112877911Y-119993560D01*
X112910000Y-119832240D01*
X112910000Y-119667760D01*
X112877911Y-119506440D01*
X112814967Y-119354479D01*
X112723587Y-119217719D01*
X112607281Y-119101413D01*
X112470521Y-119010033D01*
X112318560Y-118947089D01*
X112157240Y-118915000D01*
X111992760Y-118915000D01*
X111987345Y-118916077D01*
X111989682Y-116791559D01*
X139913799Y-116791559D01*
X139913799Y-116956039D01*
X139945888Y-117117359D01*
X140008832Y-117269320D01*
X140100212Y-117406080D01*
X140216518Y-117522386D01*
X140353278Y-117613766D01*
X140505239Y-117676710D01*
X140666559Y-117708799D01*
X140709467Y-117708799D01*
X140735033Y-117770521D01*
X140826413Y-117907281D01*
X140942719Y-118023587D01*
X141079479Y-118114967D01*
X141231440Y-118177911D01*
X141392760Y-118210000D01*
X141557240Y-118210000D01*
X141718560Y-118177911D01*
X141870521Y-118114967D01*
X142007281Y-118023587D01*
X142123587Y-117907281D01*
X142214967Y-117770521D01*
X142277911Y-117618560D01*
X142310000Y-117457240D01*
X142310000Y-117292760D01*
X142277911Y-117131440D01*
X142214967Y-116979479D01*
X142123587Y-116842719D01*
X142023628Y-116742760D01*
X143660000Y-116742760D01*
X143660000Y-116907240D01*
X143692089Y-117068560D01*
X143755033Y-117220521D01*
X143846413Y-117357281D01*
X143962719Y-117473587D01*
X144099479Y-117564967D01*
X144251440Y-117627911D01*
X144412760Y-117660000D01*
X144577240Y-117660000D01*
X144738560Y-117627911D01*
X144890521Y-117564967D01*
X145027281Y-117473587D01*
X145143587Y-117357281D01*
X145234967Y-117220521D01*
X145297911Y-117068560D01*
X145330000Y-116907240D01*
X145330000Y-116742760D01*
X145297911Y-116581440D01*
X145234967Y-116429479D01*
X145143587Y-116292719D01*
X145027281Y-116176413D01*
X144890521Y-116085033D01*
X144738560Y-116022089D01*
X144577240Y-115990000D01*
X144412760Y-115990000D01*
X144251440Y-116022089D01*
X144099479Y-116085033D01*
X143962719Y-116176413D01*
X143846413Y-116292719D01*
X143755033Y-116429479D01*
X143692089Y-116581440D01*
X143660000Y-116742760D01*
X142023628Y-116742760D01*
X142007281Y-116726413D01*
X141870521Y-116635033D01*
X141718560Y-116572089D01*
X141557240Y-116540000D01*
X141514332Y-116540000D01*
X141488766Y-116478278D01*
X141397386Y-116341518D01*
X141281080Y-116225212D01*
X141144320Y-116133832D01*
X140992359Y-116070888D01*
X140831039Y-116038799D01*
X140666559Y-116038799D01*
X140505239Y-116070888D01*
X140353278Y-116133832D01*
X140216518Y-116225212D01*
X140100212Y-116341518D01*
X140008832Y-116478278D01*
X139945888Y-116630239D01*
X139913799Y-116791559D01*
X111989682Y-116791559D01*
X111990698Y-115867760D01*
X146540000Y-115867760D01*
X146540000Y-116032240D01*
X146572089Y-116193560D01*
X146635033Y-116345521D01*
X146726413Y-116482281D01*
X146842719Y-116598587D01*
X146979479Y-116689967D01*
X147131440Y-116752911D01*
X147292760Y-116785000D01*
X147457240Y-116785000D01*
X147618560Y-116752911D01*
X147770521Y-116689967D01*
X147907281Y-116598587D01*
X148023587Y-116482281D01*
X148114967Y-116345521D01*
X148177911Y-116193560D01*
X148210000Y-116032240D01*
X148210000Y-115867760D01*
X148177911Y-115706440D01*
X148114967Y-115554479D01*
X148023587Y-115417719D01*
X147907281Y-115301413D01*
X147770521Y-115210033D01*
X147618560Y-115147089D01*
X147457240Y-115115000D01*
X147292760Y-115115000D01*
X147131440Y-115147089D01*
X146979479Y-115210033D01*
X146842719Y-115301413D01*
X146726413Y-115417719D01*
X146635033Y-115554479D01*
X146572089Y-115706440D01*
X146540000Y-115867760D01*
X111990698Y-115867760D01*
X111992872Y-113892224D01*
X112002089Y-113938560D01*
X112065033Y-114090521D01*
X112156413Y-114227281D01*
X112272719Y-114343587D01*
X112409479Y-114434967D01*
X112561440Y-114497911D01*
X112722760Y-114530000D01*
X112887240Y-114530000D01*
X113048560Y-114497911D01*
X113200521Y-114434967D01*
X113337281Y-114343587D01*
X113453587Y-114227281D01*
X113544967Y-114090521D01*
X113595816Y-113967760D01*
X138215000Y-113967760D01*
X138215000Y-114132240D01*
X138247089Y-114293560D01*
X138310033Y-114445521D01*
X138401413Y-114582281D01*
X138517719Y-114698587D01*
X138654479Y-114789967D01*
X138806440Y-114852911D01*
X138967760Y-114885000D01*
X139132240Y-114885000D01*
X139293560Y-114852911D01*
X139445521Y-114789967D01*
X139582281Y-114698587D01*
X139698587Y-114582281D01*
X139789967Y-114445521D01*
X139852911Y-114293560D01*
X139885000Y-114132240D01*
X139885000Y-113967760D01*
X139852911Y-113806440D01*
X139789967Y-113654479D01*
X139698587Y-113517719D01*
X139582281Y-113401413D01*
X139445521Y-113310033D01*
X139293560Y-113247089D01*
X139132240Y-113215000D01*
X138967760Y-113215000D01*
X138806440Y-113247089D01*
X138654479Y-113310033D01*
X138517719Y-113401413D01*
X138401413Y-113517719D01*
X138310033Y-113654479D01*
X138247089Y-113806440D01*
X138215000Y-113967760D01*
X113595816Y-113967760D01*
X113607911Y-113938560D01*
X113640000Y-113777240D01*
X113640000Y-113612760D01*
X113607911Y-113451440D01*
X113544967Y-113299479D01*
X113453587Y-113162719D01*
X113337281Y-113046413D01*
X113200521Y-112955033D01*
X113048560Y-112892089D01*
X112887240Y-112860000D01*
X112722760Y-112860000D01*
X112561440Y-112892089D01*
X112409479Y-112955033D01*
X112272719Y-113046413D01*
X112156413Y-113162719D01*
X112065033Y-113299479D01*
X112002089Y-113451440D01*
X111993308Y-113495582D01*
X111994191Y-112692760D01*
X116765000Y-112692760D01*
X116765000Y-112857240D01*
X116797089Y-113018560D01*
X116860033Y-113170521D01*
X116951413Y-113307281D01*
X117067719Y-113423587D01*
X117204479Y-113514967D01*
X117356440Y-113577911D01*
X117517760Y-113610000D01*
X117682240Y-113610000D01*
X117843560Y-113577911D01*
X117995521Y-113514967D01*
X118132281Y-113423587D01*
X118248587Y-113307281D01*
X118305239Y-113222496D01*
X118378560Y-113207911D01*
X118530521Y-113144967D01*
X118667281Y-113053587D01*
X118783587Y-112937281D01*
X118874967Y-112800521D01*
X118937911Y-112648560D01*
X118970000Y-112487240D01*
X118970000Y-112367760D01*
X121525000Y-112367760D01*
X121525000Y-112532240D01*
X121557089Y-112693560D01*
X121620033Y-112845521D01*
X121711413Y-112982281D01*
X121827719Y-113098587D01*
X121964479Y-113189967D01*
X122116440Y-113252911D01*
X122277760Y-113285000D01*
X122442240Y-113285000D01*
X122603560Y-113252911D01*
X122755521Y-113189967D01*
X122892281Y-113098587D01*
X123008587Y-112982281D01*
X123099967Y-112845521D01*
X123162911Y-112693560D01*
X123195000Y-112532240D01*
X123195000Y-112367760D01*
X123162911Y-112206440D01*
X123157245Y-112192760D01*
X137830000Y-112192760D01*
X137830000Y-112357240D01*
X137862089Y-112518560D01*
X137925033Y-112670521D01*
X138016413Y-112807281D01*
X138132719Y-112923587D01*
X138269479Y-113014967D01*
X138421440Y-113077911D01*
X138582760Y-113110000D01*
X138747240Y-113110000D01*
X138908560Y-113077911D01*
X139060521Y-113014967D01*
X139197281Y-112923587D01*
X139313587Y-112807281D01*
X139404967Y-112670521D01*
X139467911Y-112518560D01*
X139487928Y-112417928D01*
X139588560Y-112397911D01*
X139740521Y-112334967D01*
X139877281Y-112243587D01*
X139993587Y-112127281D01*
X140084967Y-111990521D01*
X140147911Y-111838560D01*
X140180000Y-111677240D01*
X140180000Y-111512760D01*
X140147911Y-111351440D01*
X140084967Y-111199479D01*
X139993587Y-111062719D01*
X139877281Y-110946413D01*
X139740521Y-110855033D01*
X139588560Y-110792089D01*
X139427240Y-110760000D01*
X139262760Y-110760000D01*
X139101440Y-110792089D01*
X138949479Y-110855033D01*
X138812719Y-110946413D01*
X138696413Y-111062719D01*
X138605033Y-111199479D01*
X138542089Y-111351440D01*
X138522072Y-111452072D01*
X138421440Y-111472089D01*
X138269479Y-111535033D01*
X138132719Y-111626413D01*
X138016413Y-111742719D01*
X137925033Y-111879479D01*
X137862089Y-112031440D01*
X137830000Y-112192760D01*
X123157245Y-112192760D01*
X123099967Y-112054479D01*
X123008587Y-111917719D01*
X122892281Y-111801413D01*
X122755521Y-111710033D01*
X122603560Y-111647089D01*
X122442240Y-111615000D01*
X122277760Y-111615000D01*
X122116440Y-111647089D01*
X121964479Y-111710033D01*
X121827719Y-111801413D01*
X121711413Y-111917719D01*
X121620033Y-112054479D01*
X121557089Y-112206440D01*
X121525000Y-112367760D01*
X118970000Y-112367760D01*
X118970000Y-112322760D01*
X118937911Y-112161440D01*
X118874967Y-112009479D01*
X118783587Y-111872719D01*
X118667281Y-111756413D01*
X118530521Y-111665033D01*
X118378560Y-111602089D01*
X118217240Y-111570000D01*
X118052760Y-111570000D01*
X117891440Y-111602089D01*
X117739479Y-111665033D01*
X117602719Y-111756413D01*
X117486413Y-111872719D01*
X117429761Y-111957504D01*
X117356440Y-111972089D01*
X117204479Y-112035033D01*
X117067719Y-112126413D01*
X116951413Y-112242719D01*
X116860033Y-112379479D01*
X116797089Y-112531440D01*
X116765000Y-112692760D01*
X111994191Y-112692760D01*
X112011860Y-96632000D01*
X112138267Y-96632000D01*
X112158000Y-110465181D01*
M02*
