G04 #@! TF.GenerationSoftware,KiCad,Pcbnew,(5.1.5)-3*
G04 #@! TF.CreationDate,2020-04-03T19:02:15-07:00*
G04 #@! TF.ProjectId,ShadowRunner,53686164-6f77-4527-956e-6e65722e6b69,rev?*
G04 #@! TF.SameCoordinates,Original*
G04 #@! TF.FileFunction,Paste,Top*
G04 #@! TF.FilePolarity,Positive*
%FSLAX46Y46*%
G04 Gerber Fmt 4.6, Leading zero omitted, Abs format (unit mm)*
G04 Created by KiCad (PCBNEW (5.1.5)-3) date 2020-04-03 19:02:15*
%MOMM*%
%LPD*%
G04 APERTURE LIST*
%ADD10R,1.500000X2.000000*%
%ADD11R,3.800000X2.000000*%
%ADD12C,0.100000*%
%ADD13R,0.889000X0.838200*%
%ADD14R,2.057400X0.939800*%
%ADD15R,1.300000X1.524000*%
%ADD16R,1.524000X1.300000*%
%ADD17C,0.240000*%
%ADD18R,2.000000X3.800000*%
%ADD19R,2.000000X1.500000*%
%ADD20R,0.750000X0.800000*%
%ADD21R,0.500000X0.580000*%
%ADD22R,0.900000X0.800000*%
%ADD23R,0.375000X0.350000*%
%ADD24R,0.350000X0.375000*%
%ADD25R,0.300000X0.300000*%
%ADD26R,0.800000X0.800000*%
%ADD27R,0.425000X0.515000*%
%ADD28R,0.425000X0.275000*%
%ADD29R,1.550000X0.745000*%
%ADD30R,1.550000X0.670000*%
%ADD31R,4.000000X9.000000*%
%ADD32R,1.650000X1.500000*%
%ADD33R,1.600000X0.500000*%
%ADD34R,0.500000X0.500000*%
G04 APERTURE END LIST*
D10*
X136105000Y-128245000D03*
X140705000Y-128245000D03*
X138405000Y-128245000D03*
D11*
X138405000Y-121945000D03*
D12*
G36*
X137021958Y-131715710D02*
G01*
X137036276Y-131717834D01*
X137050317Y-131721351D01*
X137063946Y-131726228D01*
X137077031Y-131732417D01*
X137089447Y-131739858D01*
X137101073Y-131748481D01*
X137111798Y-131758202D01*
X137121519Y-131768927D01*
X137130142Y-131780553D01*
X137137583Y-131792969D01*
X137143772Y-131806054D01*
X137148649Y-131819683D01*
X137152166Y-131833724D01*
X137154290Y-131848042D01*
X137155000Y-131862500D01*
X137155000Y-132157500D01*
X137154290Y-132171958D01*
X137152166Y-132186276D01*
X137148649Y-132200317D01*
X137143772Y-132213946D01*
X137137583Y-132227031D01*
X137130142Y-132239447D01*
X137121519Y-132251073D01*
X137111798Y-132261798D01*
X137101073Y-132271519D01*
X137089447Y-132280142D01*
X137077031Y-132287583D01*
X137063946Y-132293772D01*
X137050317Y-132298649D01*
X137036276Y-132302166D01*
X137021958Y-132304290D01*
X137007500Y-132305000D01*
X136662500Y-132305000D01*
X136648042Y-132304290D01*
X136633724Y-132302166D01*
X136619683Y-132298649D01*
X136606054Y-132293772D01*
X136592969Y-132287583D01*
X136580553Y-132280142D01*
X136568927Y-132271519D01*
X136558202Y-132261798D01*
X136548481Y-132251073D01*
X136539858Y-132239447D01*
X136532417Y-132227031D01*
X136526228Y-132213946D01*
X136521351Y-132200317D01*
X136517834Y-132186276D01*
X136515710Y-132171958D01*
X136515000Y-132157500D01*
X136515000Y-131862500D01*
X136515710Y-131848042D01*
X136517834Y-131833724D01*
X136521351Y-131819683D01*
X136526228Y-131806054D01*
X136532417Y-131792969D01*
X136539858Y-131780553D01*
X136548481Y-131768927D01*
X136558202Y-131758202D01*
X136568927Y-131748481D01*
X136580553Y-131739858D01*
X136592969Y-131732417D01*
X136606054Y-131726228D01*
X136619683Y-131721351D01*
X136633724Y-131717834D01*
X136648042Y-131715710D01*
X136662500Y-131715000D01*
X137007500Y-131715000D01*
X137021958Y-131715710D01*
G37*
G36*
X137021958Y-130745710D02*
G01*
X137036276Y-130747834D01*
X137050317Y-130751351D01*
X137063946Y-130756228D01*
X137077031Y-130762417D01*
X137089447Y-130769858D01*
X137101073Y-130778481D01*
X137111798Y-130788202D01*
X137121519Y-130798927D01*
X137130142Y-130810553D01*
X137137583Y-130822969D01*
X137143772Y-130836054D01*
X137148649Y-130849683D01*
X137152166Y-130863724D01*
X137154290Y-130878042D01*
X137155000Y-130892500D01*
X137155000Y-131187500D01*
X137154290Y-131201958D01*
X137152166Y-131216276D01*
X137148649Y-131230317D01*
X137143772Y-131243946D01*
X137137583Y-131257031D01*
X137130142Y-131269447D01*
X137121519Y-131281073D01*
X137111798Y-131291798D01*
X137101073Y-131301519D01*
X137089447Y-131310142D01*
X137077031Y-131317583D01*
X137063946Y-131323772D01*
X137050317Y-131328649D01*
X137036276Y-131332166D01*
X137021958Y-131334290D01*
X137007500Y-131335000D01*
X136662500Y-131335000D01*
X136648042Y-131334290D01*
X136633724Y-131332166D01*
X136619683Y-131328649D01*
X136606054Y-131323772D01*
X136592969Y-131317583D01*
X136580553Y-131310142D01*
X136568927Y-131301519D01*
X136558202Y-131291798D01*
X136548481Y-131281073D01*
X136539858Y-131269447D01*
X136532417Y-131257031D01*
X136526228Y-131243946D01*
X136521351Y-131230317D01*
X136517834Y-131216276D01*
X136515710Y-131201958D01*
X136515000Y-131187500D01*
X136515000Y-130892500D01*
X136515710Y-130878042D01*
X136517834Y-130863724D01*
X136521351Y-130849683D01*
X136526228Y-130836054D01*
X136532417Y-130822969D01*
X136539858Y-130810553D01*
X136548481Y-130798927D01*
X136558202Y-130788202D01*
X136568927Y-130778481D01*
X136580553Y-130769858D01*
X136592969Y-130762417D01*
X136606054Y-130756228D01*
X136619683Y-130751351D01*
X136633724Y-130747834D01*
X136648042Y-130745710D01*
X136662500Y-130745000D01*
X137007500Y-130745000D01*
X137021958Y-130745710D01*
G37*
G36*
X121995142Y-127806174D02*
G01*
X122018803Y-127809684D01*
X122042007Y-127815496D01*
X122064529Y-127823554D01*
X122086153Y-127833782D01*
X122106670Y-127846079D01*
X122125883Y-127860329D01*
X122143607Y-127876393D01*
X122159671Y-127894117D01*
X122173921Y-127913330D01*
X122186218Y-127933847D01*
X122196446Y-127955471D01*
X122204504Y-127977993D01*
X122210316Y-128001197D01*
X122213826Y-128024858D01*
X122215000Y-128048750D01*
X122215000Y-128961250D01*
X122213826Y-128985142D01*
X122210316Y-129008803D01*
X122204504Y-129032007D01*
X122196446Y-129054529D01*
X122186218Y-129076153D01*
X122173921Y-129096670D01*
X122159671Y-129115883D01*
X122143607Y-129133607D01*
X122125883Y-129149671D01*
X122106670Y-129163921D01*
X122086153Y-129176218D01*
X122064529Y-129186446D01*
X122042007Y-129194504D01*
X122018803Y-129200316D01*
X121995142Y-129203826D01*
X121971250Y-129205000D01*
X121483750Y-129205000D01*
X121459858Y-129203826D01*
X121436197Y-129200316D01*
X121412993Y-129194504D01*
X121390471Y-129186446D01*
X121368847Y-129176218D01*
X121348330Y-129163921D01*
X121329117Y-129149671D01*
X121311393Y-129133607D01*
X121295329Y-129115883D01*
X121281079Y-129096670D01*
X121268782Y-129076153D01*
X121258554Y-129054529D01*
X121250496Y-129032007D01*
X121244684Y-129008803D01*
X121241174Y-128985142D01*
X121240000Y-128961250D01*
X121240000Y-128048750D01*
X121241174Y-128024858D01*
X121244684Y-128001197D01*
X121250496Y-127977993D01*
X121258554Y-127955471D01*
X121268782Y-127933847D01*
X121281079Y-127913330D01*
X121295329Y-127894117D01*
X121311393Y-127876393D01*
X121329117Y-127860329D01*
X121348330Y-127846079D01*
X121368847Y-127833782D01*
X121390471Y-127823554D01*
X121412993Y-127815496D01*
X121436197Y-127809684D01*
X121459858Y-127806174D01*
X121483750Y-127805000D01*
X121971250Y-127805000D01*
X121995142Y-127806174D01*
G37*
G36*
X123870142Y-127806174D02*
G01*
X123893803Y-127809684D01*
X123917007Y-127815496D01*
X123939529Y-127823554D01*
X123961153Y-127833782D01*
X123981670Y-127846079D01*
X124000883Y-127860329D01*
X124018607Y-127876393D01*
X124034671Y-127894117D01*
X124048921Y-127913330D01*
X124061218Y-127933847D01*
X124071446Y-127955471D01*
X124079504Y-127977993D01*
X124085316Y-128001197D01*
X124088826Y-128024858D01*
X124090000Y-128048750D01*
X124090000Y-128961250D01*
X124088826Y-128985142D01*
X124085316Y-129008803D01*
X124079504Y-129032007D01*
X124071446Y-129054529D01*
X124061218Y-129076153D01*
X124048921Y-129096670D01*
X124034671Y-129115883D01*
X124018607Y-129133607D01*
X124000883Y-129149671D01*
X123981670Y-129163921D01*
X123961153Y-129176218D01*
X123939529Y-129186446D01*
X123917007Y-129194504D01*
X123893803Y-129200316D01*
X123870142Y-129203826D01*
X123846250Y-129205000D01*
X123358750Y-129205000D01*
X123334858Y-129203826D01*
X123311197Y-129200316D01*
X123287993Y-129194504D01*
X123265471Y-129186446D01*
X123243847Y-129176218D01*
X123223330Y-129163921D01*
X123204117Y-129149671D01*
X123186393Y-129133607D01*
X123170329Y-129115883D01*
X123156079Y-129096670D01*
X123143782Y-129076153D01*
X123133554Y-129054529D01*
X123125496Y-129032007D01*
X123119684Y-129008803D01*
X123116174Y-128985142D01*
X123115000Y-128961250D01*
X123115000Y-128048750D01*
X123116174Y-128024858D01*
X123119684Y-128001197D01*
X123125496Y-127977993D01*
X123133554Y-127955471D01*
X123143782Y-127933847D01*
X123156079Y-127913330D01*
X123170329Y-127894117D01*
X123186393Y-127876393D01*
X123204117Y-127860329D01*
X123223330Y-127846079D01*
X123243847Y-127833782D01*
X123265471Y-127823554D01*
X123287993Y-127815496D01*
X123311197Y-127809684D01*
X123334858Y-127806174D01*
X123358750Y-127805000D01*
X123846250Y-127805000D01*
X123870142Y-127806174D01*
G37*
D13*
X134545000Y-119835000D03*
D14*
X133039999Y-121315000D03*
X133039999Y-118355000D03*
D12*
G36*
X142961958Y-129480710D02*
G01*
X142976276Y-129482834D01*
X142990317Y-129486351D01*
X143003946Y-129491228D01*
X143017031Y-129497417D01*
X143029447Y-129504858D01*
X143041073Y-129513481D01*
X143051798Y-129523202D01*
X143061519Y-129533927D01*
X143070142Y-129545553D01*
X143077583Y-129557969D01*
X143083772Y-129571054D01*
X143088649Y-129584683D01*
X143092166Y-129598724D01*
X143094290Y-129613042D01*
X143095000Y-129627500D01*
X143095000Y-129922500D01*
X143094290Y-129936958D01*
X143092166Y-129951276D01*
X143088649Y-129965317D01*
X143083772Y-129978946D01*
X143077583Y-129992031D01*
X143070142Y-130004447D01*
X143061519Y-130016073D01*
X143051798Y-130026798D01*
X143041073Y-130036519D01*
X143029447Y-130045142D01*
X143017031Y-130052583D01*
X143003946Y-130058772D01*
X142990317Y-130063649D01*
X142976276Y-130067166D01*
X142961958Y-130069290D01*
X142947500Y-130070000D01*
X142602500Y-130070000D01*
X142588042Y-130069290D01*
X142573724Y-130067166D01*
X142559683Y-130063649D01*
X142546054Y-130058772D01*
X142532969Y-130052583D01*
X142520553Y-130045142D01*
X142508927Y-130036519D01*
X142498202Y-130026798D01*
X142488481Y-130016073D01*
X142479858Y-130004447D01*
X142472417Y-129992031D01*
X142466228Y-129978946D01*
X142461351Y-129965317D01*
X142457834Y-129951276D01*
X142455710Y-129936958D01*
X142455000Y-129922500D01*
X142455000Y-129627500D01*
X142455710Y-129613042D01*
X142457834Y-129598724D01*
X142461351Y-129584683D01*
X142466228Y-129571054D01*
X142472417Y-129557969D01*
X142479858Y-129545553D01*
X142488481Y-129533927D01*
X142498202Y-129523202D01*
X142508927Y-129513481D01*
X142520553Y-129504858D01*
X142532969Y-129497417D01*
X142546054Y-129491228D01*
X142559683Y-129486351D01*
X142573724Y-129482834D01*
X142588042Y-129480710D01*
X142602500Y-129480000D01*
X142947500Y-129480000D01*
X142961958Y-129480710D01*
G37*
G36*
X142961958Y-128510710D02*
G01*
X142976276Y-128512834D01*
X142990317Y-128516351D01*
X143003946Y-128521228D01*
X143017031Y-128527417D01*
X143029447Y-128534858D01*
X143041073Y-128543481D01*
X143051798Y-128553202D01*
X143061519Y-128563927D01*
X143070142Y-128575553D01*
X143077583Y-128587969D01*
X143083772Y-128601054D01*
X143088649Y-128614683D01*
X143092166Y-128628724D01*
X143094290Y-128643042D01*
X143095000Y-128657500D01*
X143095000Y-128952500D01*
X143094290Y-128966958D01*
X143092166Y-128981276D01*
X143088649Y-128995317D01*
X143083772Y-129008946D01*
X143077583Y-129022031D01*
X143070142Y-129034447D01*
X143061519Y-129046073D01*
X143051798Y-129056798D01*
X143041073Y-129066519D01*
X143029447Y-129075142D01*
X143017031Y-129082583D01*
X143003946Y-129088772D01*
X142990317Y-129093649D01*
X142976276Y-129097166D01*
X142961958Y-129099290D01*
X142947500Y-129100000D01*
X142602500Y-129100000D01*
X142588042Y-129099290D01*
X142573724Y-129097166D01*
X142559683Y-129093649D01*
X142546054Y-129088772D01*
X142532969Y-129082583D01*
X142520553Y-129075142D01*
X142508927Y-129066519D01*
X142498202Y-129056798D01*
X142488481Y-129046073D01*
X142479858Y-129034447D01*
X142472417Y-129022031D01*
X142466228Y-129008946D01*
X142461351Y-128995317D01*
X142457834Y-128981276D01*
X142455710Y-128966958D01*
X142455000Y-128952500D01*
X142455000Y-128657500D01*
X142455710Y-128643042D01*
X142457834Y-128628724D01*
X142461351Y-128614683D01*
X142466228Y-128601054D01*
X142472417Y-128587969D01*
X142479858Y-128575553D01*
X142488481Y-128563927D01*
X142498202Y-128553202D01*
X142508927Y-128543481D01*
X142520553Y-128534858D01*
X142532969Y-128527417D01*
X142546054Y-128521228D01*
X142559683Y-128516351D01*
X142573724Y-128512834D01*
X142588042Y-128510710D01*
X142602500Y-128510000D01*
X142947500Y-128510000D01*
X142961958Y-128510710D01*
G37*
D15*
X144190000Y-131702500D03*
X144190000Y-123770000D03*
X148695000Y-131702500D03*
X148697500Y-123770000D03*
D16*
X112722500Y-126465000D03*
X120655000Y-126465000D03*
X112722500Y-130970000D03*
X120655000Y-130972500D03*
D17*
X131815000Y-123862500D03*
X132315000Y-123852500D03*
X132815000Y-123862500D03*
X133315000Y-123860000D03*
X133067500Y-124302500D03*
X132065000Y-124302500D03*
X131815000Y-124732500D03*
X132315000Y-124732500D03*
X132815000Y-124732500D03*
X133315000Y-124732500D03*
D12*
G36*
X139921958Y-131715710D02*
G01*
X139936276Y-131717834D01*
X139950317Y-131721351D01*
X139963946Y-131726228D01*
X139977031Y-131732417D01*
X139989447Y-131739858D01*
X140001073Y-131748481D01*
X140011798Y-131758202D01*
X140021519Y-131768927D01*
X140030142Y-131780553D01*
X140037583Y-131792969D01*
X140043772Y-131806054D01*
X140048649Y-131819683D01*
X140052166Y-131833724D01*
X140054290Y-131848042D01*
X140055000Y-131862500D01*
X140055000Y-132157500D01*
X140054290Y-132171958D01*
X140052166Y-132186276D01*
X140048649Y-132200317D01*
X140043772Y-132213946D01*
X140037583Y-132227031D01*
X140030142Y-132239447D01*
X140021519Y-132251073D01*
X140011798Y-132261798D01*
X140001073Y-132271519D01*
X139989447Y-132280142D01*
X139977031Y-132287583D01*
X139963946Y-132293772D01*
X139950317Y-132298649D01*
X139936276Y-132302166D01*
X139921958Y-132304290D01*
X139907500Y-132305000D01*
X139562500Y-132305000D01*
X139548042Y-132304290D01*
X139533724Y-132302166D01*
X139519683Y-132298649D01*
X139506054Y-132293772D01*
X139492969Y-132287583D01*
X139480553Y-132280142D01*
X139468927Y-132271519D01*
X139458202Y-132261798D01*
X139448481Y-132251073D01*
X139439858Y-132239447D01*
X139432417Y-132227031D01*
X139426228Y-132213946D01*
X139421351Y-132200317D01*
X139417834Y-132186276D01*
X139415710Y-132171958D01*
X139415000Y-132157500D01*
X139415000Y-131862500D01*
X139415710Y-131848042D01*
X139417834Y-131833724D01*
X139421351Y-131819683D01*
X139426228Y-131806054D01*
X139432417Y-131792969D01*
X139439858Y-131780553D01*
X139448481Y-131768927D01*
X139458202Y-131758202D01*
X139468927Y-131748481D01*
X139480553Y-131739858D01*
X139492969Y-131732417D01*
X139506054Y-131726228D01*
X139519683Y-131721351D01*
X139533724Y-131717834D01*
X139548042Y-131715710D01*
X139562500Y-131715000D01*
X139907500Y-131715000D01*
X139921958Y-131715710D01*
G37*
G36*
X139921958Y-130745710D02*
G01*
X139936276Y-130747834D01*
X139950317Y-130751351D01*
X139963946Y-130756228D01*
X139977031Y-130762417D01*
X139989447Y-130769858D01*
X140001073Y-130778481D01*
X140011798Y-130788202D01*
X140021519Y-130798927D01*
X140030142Y-130810553D01*
X140037583Y-130822969D01*
X140043772Y-130836054D01*
X140048649Y-130849683D01*
X140052166Y-130863724D01*
X140054290Y-130878042D01*
X140055000Y-130892500D01*
X140055000Y-131187500D01*
X140054290Y-131201958D01*
X140052166Y-131216276D01*
X140048649Y-131230317D01*
X140043772Y-131243946D01*
X140037583Y-131257031D01*
X140030142Y-131269447D01*
X140021519Y-131281073D01*
X140011798Y-131291798D01*
X140001073Y-131301519D01*
X139989447Y-131310142D01*
X139977031Y-131317583D01*
X139963946Y-131323772D01*
X139950317Y-131328649D01*
X139936276Y-131332166D01*
X139921958Y-131334290D01*
X139907500Y-131335000D01*
X139562500Y-131335000D01*
X139548042Y-131334290D01*
X139533724Y-131332166D01*
X139519683Y-131328649D01*
X139506054Y-131323772D01*
X139492969Y-131317583D01*
X139480553Y-131310142D01*
X139468927Y-131301519D01*
X139458202Y-131291798D01*
X139448481Y-131281073D01*
X139439858Y-131269447D01*
X139432417Y-131257031D01*
X139426228Y-131243946D01*
X139421351Y-131230317D01*
X139417834Y-131216276D01*
X139415710Y-131201958D01*
X139415000Y-131187500D01*
X139415000Y-130892500D01*
X139415710Y-130878042D01*
X139417834Y-130863724D01*
X139421351Y-130849683D01*
X139426228Y-130836054D01*
X139432417Y-130822969D01*
X139439858Y-130810553D01*
X139448481Y-130798927D01*
X139458202Y-130788202D01*
X139468927Y-130778481D01*
X139480553Y-130769858D01*
X139492969Y-130762417D01*
X139506054Y-130756228D01*
X139519683Y-130751351D01*
X139533724Y-130747834D01*
X139548042Y-130745710D01*
X139562500Y-130745000D01*
X139907500Y-130745000D01*
X139921958Y-130745710D01*
G37*
G36*
X119096958Y-125305710D02*
G01*
X119111276Y-125307834D01*
X119125317Y-125311351D01*
X119138946Y-125316228D01*
X119152031Y-125322417D01*
X119164447Y-125329858D01*
X119176073Y-125338481D01*
X119186798Y-125348202D01*
X119196519Y-125358927D01*
X119205142Y-125370553D01*
X119212583Y-125382969D01*
X119218772Y-125396054D01*
X119223649Y-125409683D01*
X119227166Y-125423724D01*
X119229290Y-125438042D01*
X119230000Y-125452500D01*
X119230000Y-125797500D01*
X119229290Y-125811958D01*
X119227166Y-125826276D01*
X119223649Y-125840317D01*
X119218772Y-125853946D01*
X119212583Y-125867031D01*
X119205142Y-125879447D01*
X119196519Y-125891073D01*
X119186798Y-125901798D01*
X119176073Y-125911519D01*
X119164447Y-125920142D01*
X119152031Y-125927583D01*
X119138946Y-125933772D01*
X119125317Y-125938649D01*
X119111276Y-125942166D01*
X119096958Y-125944290D01*
X119082500Y-125945000D01*
X118787500Y-125945000D01*
X118773042Y-125944290D01*
X118758724Y-125942166D01*
X118744683Y-125938649D01*
X118731054Y-125933772D01*
X118717969Y-125927583D01*
X118705553Y-125920142D01*
X118693927Y-125911519D01*
X118683202Y-125901798D01*
X118673481Y-125891073D01*
X118664858Y-125879447D01*
X118657417Y-125867031D01*
X118651228Y-125853946D01*
X118646351Y-125840317D01*
X118642834Y-125826276D01*
X118640710Y-125811958D01*
X118640000Y-125797500D01*
X118640000Y-125452500D01*
X118640710Y-125438042D01*
X118642834Y-125423724D01*
X118646351Y-125409683D01*
X118651228Y-125396054D01*
X118657417Y-125382969D01*
X118664858Y-125370553D01*
X118673481Y-125358927D01*
X118683202Y-125348202D01*
X118693927Y-125338481D01*
X118705553Y-125329858D01*
X118717969Y-125322417D01*
X118731054Y-125316228D01*
X118744683Y-125311351D01*
X118758724Y-125307834D01*
X118773042Y-125305710D01*
X118787500Y-125305000D01*
X119082500Y-125305000D01*
X119096958Y-125305710D01*
G37*
G36*
X118126958Y-125305710D02*
G01*
X118141276Y-125307834D01*
X118155317Y-125311351D01*
X118168946Y-125316228D01*
X118182031Y-125322417D01*
X118194447Y-125329858D01*
X118206073Y-125338481D01*
X118216798Y-125348202D01*
X118226519Y-125358927D01*
X118235142Y-125370553D01*
X118242583Y-125382969D01*
X118248772Y-125396054D01*
X118253649Y-125409683D01*
X118257166Y-125423724D01*
X118259290Y-125438042D01*
X118260000Y-125452500D01*
X118260000Y-125797500D01*
X118259290Y-125811958D01*
X118257166Y-125826276D01*
X118253649Y-125840317D01*
X118248772Y-125853946D01*
X118242583Y-125867031D01*
X118235142Y-125879447D01*
X118226519Y-125891073D01*
X118216798Y-125901798D01*
X118206073Y-125911519D01*
X118194447Y-125920142D01*
X118182031Y-125927583D01*
X118168946Y-125933772D01*
X118155317Y-125938649D01*
X118141276Y-125942166D01*
X118126958Y-125944290D01*
X118112500Y-125945000D01*
X117817500Y-125945000D01*
X117803042Y-125944290D01*
X117788724Y-125942166D01*
X117774683Y-125938649D01*
X117761054Y-125933772D01*
X117747969Y-125927583D01*
X117735553Y-125920142D01*
X117723927Y-125911519D01*
X117713202Y-125901798D01*
X117703481Y-125891073D01*
X117694858Y-125879447D01*
X117687417Y-125867031D01*
X117681228Y-125853946D01*
X117676351Y-125840317D01*
X117672834Y-125826276D01*
X117670710Y-125811958D01*
X117670000Y-125797500D01*
X117670000Y-125452500D01*
X117670710Y-125438042D01*
X117672834Y-125423724D01*
X117676351Y-125409683D01*
X117681228Y-125396054D01*
X117687417Y-125382969D01*
X117694858Y-125370553D01*
X117703481Y-125358927D01*
X117713202Y-125348202D01*
X117723927Y-125338481D01*
X117735553Y-125329858D01*
X117747969Y-125322417D01*
X117761054Y-125316228D01*
X117774683Y-125311351D01*
X117788724Y-125307834D01*
X117803042Y-125305710D01*
X117817500Y-125305000D01*
X118112500Y-125305000D01*
X118126958Y-125305710D01*
G37*
D18*
X131915000Y-128715000D03*
D19*
X125615000Y-128715000D03*
X125615000Y-131015000D03*
X125615000Y-126415000D03*
D12*
G36*
X141121958Y-115655710D02*
G01*
X141136276Y-115657834D01*
X141150317Y-115661351D01*
X141163946Y-115666228D01*
X141177031Y-115672417D01*
X141189447Y-115679858D01*
X141201073Y-115688481D01*
X141211798Y-115698202D01*
X141221519Y-115708927D01*
X141230142Y-115720553D01*
X141237583Y-115732969D01*
X141243772Y-115746054D01*
X141248649Y-115759683D01*
X141252166Y-115773724D01*
X141254290Y-115788042D01*
X141255000Y-115802500D01*
X141255000Y-116147500D01*
X141254290Y-116161958D01*
X141252166Y-116176276D01*
X141248649Y-116190317D01*
X141243772Y-116203946D01*
X141237583Y-116217031D01*
X141230142Y-116229447D01*
X141221519Y-116241073D01*
X141211798Y-116251798D01*
X141201073Y-116261519D01*
X141189447Y-116270142D01*
X141177031Y-116277583D01*
X141163946Y-116283772D01*
X141150317Y-116288649D01*
X141136276Y-116292166D01*
X141121958Y-116294290D01*
X141107500Y-116295000D01*
X140812500Y-116295000D01*
X140798042Y-116294290D01*
X140783724Y-116292166D01*
X140769683Y-116288649D01*
X140756054Y-116283772D01*
X140742969Y-116277583D01*
X140730553Y-116270142D01*
X140718927Y-116261519D01*
X140708202Y-116251798D01*
X140698481Y-116241073D01*
X140689858Y-116229447D01*
X140682417Y-116217031D01*
X140676228Y-116203946D01*
X140671351Y-116190317D01*
X140667834Y-116176276D01*
X140665710Y-116161958D01*
X140665000Y-116147500D01*
X140665000Y-115802500D01*
X140665710Y-115788042D01*
X140667834Y-115773724D01*
X140671351Y-115759683D01*
X140676228Y-115746054D01*
X140682417Y-115732969D01*
X140689858Y-115720553D01*
X140698481Y-115708927D01*
X140708202Y-115698202D01*
X140718927Y-115688481D01*
X140730553Y-115679858D01*
X140742969Y-115672417D01*
X140756054Y-115666228D01*
X140769683Y-115661351D01*
X140783724Y-115657834D01*
X140798042Y-115655710D01*
X140812500Y-115655000D01*
X141107500Y-115655000D01*
X141121958Y-115655710D01*
G37*
G36*
X140151958Y-115655710D02*
G01*
X140166276Y-115657834D01*
X140180317Y-115661351D01*
X140193946Y-115666228D01*
X140207031Y-115672417D01*
X140219447Y-115679858D01*
X140231073Y-115688481D01*
X140241798Y-115698202D01*
X140251519Y-115708927D01*
X140260142Y-115720553D01*
X140267583Y-115732969D01*
X140273772Y-115746054D01*
X140278649Y-115759683D01*
X140282166Y-115773724D01*
X140284290Y-115788042D01*
X140285000Y-115802500D01*
X140285000Y-116147500D01*
X140284290Y-116161958D01*
X140282166Y-116176276D01*
X140278649Y-116190317D01*
X140273772Y-116203946D01*
X140267583Y-116217031D01*
X140260142Y-116229447D01*
X140251519Y-116241073D01*
X140241798Y-116251798D01*
X140231073Y-116261519D01*
X140219447Y-116270142D01*
X140207031Y-116277583D01*
X140193946Y-116283772D01*
X140180317Y-116288649D01*
X140166276Y-116292166D01*
X140151958Y-116294290D01*
X140137500Y-116295000D01*
X139842500Y-116295000D01*
X139828042Y-116294290D01*
X139813724Y-116292166D01*
X139799683Y-116288649D01*
X139786054Y-116283772D01*
X139772969Y-116277583D01*
X139760553Y-116270142D01*
X139748927Y-116261519D01*
X139738202Y-116251798D01*
X139728481Y-116241073D01*
X139719858Y-116229447D01*
X139712417Y-116217031D01*
X139706228Y-116203946D01*
X139701351Y-116190317D01*
X139697834Y-116176276D01*
X139695710Y-116161958D01*
X139695000Y-116147500D01*
X139695000Y-115802500D01*
X139695710Y-115788042D01*
X139697834Y-115773724D01*
X139701351Y-115759683D01*
X139706228Y-115746054D01*
X139712417Y-115732969D01*
X139719858Y-115720553D01*
X139728481Y-115708927D01*
X139738202Y-115698202D01*
X139748927Y-115688481D01*
X139760553Y-115679858D01*
X139772969Y-115672417D01*
X139786054Y-115666228D01*
X139799683Y-115661351D01*
X139813724Y-115657834D01*
X139828042Y-115655710D01*
X139842500Y-115655000D01*
X140137500Y-115655000D01*
X140151958Y-115655710D01*
G37*
G36*
X114746958Y-111855710D02*
G01*
X114761276Y-111857834D01*
X114775317Y-111861351D01*
X114788946Y-111866228D01*
X114802031Y-111872417D01*
X114814447Y-111879858D01*
X114826073Y-111888481D01*
X114836798Y-111898202D01*
X114846519Y-111908927D01*
X114855142Y-111920553D01*
X114862583Y-111932969D01*
X114868772Y-111946054D01*
X114873649Y-111959683D01*
X114877166Y-111973724D01*
X114879290Y-111988042D01*
X114880000Y-112002500D01*
X114880000Y-112347500D01*
X114879290Y-112361958D01*
X114877166Y-112376276D01*
X114873649Y-112390317D01*
X114868772Y-112403946D01*
X114862583Y-112417031D01*
X114855142Y-112429447D01*
X114846519Y-112441073D01*
X114836798Y-112451798D01*
X114826073Y-112461519D01*
X114814447Y-112470142D01*
X114802031Y-112477583D01*
X114788946Y-112483772D01*
X114775317Y-112488649D01*
X114761276Y-112492166D01*
X114746958Y-112494290D01*
X114732500Y-112495000D01*
X114437500Y-112495000D01*
X114423042Y-112494290D01*
X114408724Y-112492166D01*
X114394683Y-112488649D01*
X114381054Y-112483772D01*
X114367969Y-112477583D01*
X114355553Y-112470142D01*
X114343927Y-112461519D01*
X114333202Y-112451798D01*
X114323481Y-112441073D01*
X114314858Y-112429447D01*
X114307417Y-112417031D01*
X114301228Y-112403946D01*
X114296351Y-112390317D01*
X114292834Y-112376276D01*
X114290710Y-112361958D01*
X114290000Y-112347500D01*
X114290000Y-112002500D01*
X114290710Y-111988042D01*
X114292834Y-111973724D01*
X114296351Y-111959683D01*
X114301228Y-111946054D01*
X114307417Y-111932969D01*
X114314858Y-111920553D01*
X114323481Y-111908927D01*
X114333202Y-111898202D01*
X114343927Y-111888481D01*
X114355553Y-111879858D01*
X114367969Y-111872417D01*
X114381054Y-111866228D01*
X114394683Y-111861351D01*
X114408724Y-111857834D01*
X114423042Y-111855710D01*
X114437500Y-111855000D01*
X114732500Y-111855000D01*
X114746958Y-111855710D01*
G37*
G36*
X113776958Y-111855710D02*
G01*
X113791276Y-111857834D01*
X113805317Y-111861351D01*
X113818946Y-111866228D01*
X113832031Y-111872417D01*
X113844447Y-111879858D01*
X113856073Y-111888481D01*
X113866798Y-111898202D01*
X113876519Y-111908927D01*
X113885142Y-111920553D01*
X113892583Y-111932969D01*
X113898772Y-111946054D01*
X113903649Y-111959683D01*
X113907166Y-111973724D01*
X113909290Y-111988042D01*
X113910000Y-112002500D01*
X113910000Y-112347500D01*
X113909290Y-112361958D01*
X113907166Y-112376276D01*
X113903649Y-112390317D01*
X113898772Y-112403946D01*
X113892583Y-112417031D01*
X113885142Y-112429447D01*
X113876519Y-112441073D01*
X113866798Y-112451798D01*
X113856073Y-112461519D01*
X113844447Y-112470142D01*
X113832031Y-112477583D01*
X113818946Y-112483772D01*
X113805317Y-112488649D01*
X113791276Y-112492166D01*
X113776958Y-112494290D01*
X113762500Y-112495000D01*
X113467500Y-112495000D01*
X113453042Y-112494290D01*
X113438724Y-112492166D01*
X113424683Y-112488649D01*
X113411054Y-112483772D01*
X113397969Y-112477583D01*
X113385553Y-112470142D01*
X113373927Y-112461519D01*
X113363202Y-112451798D01*
X113353481Y-112441073D01*
X113344858Y-112429447D01*
X113337417Y-112417031D01*
X113331228Y-112403946D01*
X113326351Y-112390317D01*
X113322834Y-112376276D01*
X113320710Y-112361958D01*
X113320000Y-112347500D01*
X113320000Y-112002500D01*
X113320710Y-111988042D01*
X113322834Y-111973724D01*
X113326351Y-111959683D01*
X113331228Y-111946054D01*
X113337417Y-111932969D01*
X113344858Y-111920553D01*
X113353481Y-111908927D01*
X113363202Y-111898202D01*
X113373927Y-111888481D01*
X113385553Y-111879858D01*
X113397969Y-111872417D01*
X113411054Y-111866228D01*
X113424683Y-111861351D01*
X113438724Y-111857834D01*
X113453042Y-111855710D01*
X113467500Y-111855000D01*
X113762500Y-111855000D01*
X113776958Y-111855710D01*
G37*
G36*
X123311958Y-126725710D02*
G01*
X123326276Y-126727834D01*
X123340317Y-126731351D01*
X123353946Y-126736228D01*
X123367031Y-126742417D01*
X123379447Y-126749858D01*
X123391073Y-126758481D01*
X123401798Y-126768202D01*
X123411519Y-126778927D01*
X123420142Y-126790553D01*
X123427583Y-126802969D01*
X123433772Y-126816054D01*
X123438649Y-126829683D01*
X123442166Y-126843724D01*
X123444290Y-126858042D01*
X123445000Y-126872500D01*
X123445000Y-127217500D01*
X123444290Y-127231958D01*
X123442166Y-127246276D01*
X123438649Y-127260317D01*
X123433772Y-127273946D01*
X123427583Y-127287031D01*
X123420142Y-127299447D01*
X123411519Y-127311073D01*
X123401798Y-127321798D01*
X123391073Y-127331519D01*
X123379447Y-127340142D01*
X123367031Y-127347583D01*
X123353946Y-127353772D01*
X123340317Y-127358649D01*
X123326276Y-127362166D01*
X123311958Y-127364290D01*
X123297500Y-127365000D01*
X123002500Y-127365000D01*
X122988042Y-127364290D01*
X122973724Y-127362166D01*
X122959683Y-127358649D01*
X122946054Y-127353772D01*
X122932969Y-127347583D01*
X122920553Y-127340142D01*
X122908927Y-127331519D01*
X122898202Y-127321798D01*
X122888481Y-127311073D01*
X122879858Y-127299447D01*
X122872417Y-127287031D01*
X122866228Y-127273946D01*
X122861351Y-127260317D01*
X122857834Y-127246276D01*
X122855710Y-127231958D01*
X122855000Y-127217500D01*
X122855000Y-126872500D01*
X122855710Y-126858042D01*
X122857834Y-126843724D01*
X122861351Y-126829683D01*
X122866228Y-126816054D01*
X122872417Y-126802969D01*
X122879858Y-126790553D01*
X122888481Y-126778927D01*
X122898202Y-126768202D01*
X122908927Y-126758481D01*
X122920553Y-126749858D01*
X122932969Y-126742417D01*
X122946054Y-126736228D01*
X122959683Y-126731351D01*
X122973724Y-126727834D01*
X122988042Y-126725710D01*
X123002500Y-126725000D01*
X123297500Y-126725000D01*
X123311958Y-126725710D01*
G37*
G36*
X122341958Y-126725710D02*
G01*
X122356276Y-126727834D01*
X122370317Y-126731351D01*
X122383946Y-126736228D01*
X122397031Y-126742417D01*
X122409447Y-126749858D01*
X122421073Y-126758481D01*
X122431798Y-126768202D01*
X122441519Y-126778927D01*
X122450142Y-126790553D01*
X122457583Y-126802969D01*
X122463772Y-126816054D01*
X122468649Y-126829683D01*
X122472166Y-126843724D01*
X122474290Y-126858042D01*
X122475000Y-126872500D01*
X122475000Y-127217500D01*
X122474290Y-127231958D01*
X122472166Y-127246276D01*
X122468649Y-127260317D01*
X122463772Y-127273946D01*
X122457583Y-127287031D01*
X122450142Y-127299447D01*
X122441519Y-127311073D01*
X122431798Y-127321798D01*
X122421073Y-127331519D01*
X122409447Y-127340142D01*
X122397031Y-127347583D01*
X122383946Y-127353772D01*
X122370317Y-127358649D01*
X122356276Y-127362166D01*
X122341958Y-127364290D01*
X122327500Y-127365000D01*
X122032500Y-127365000D01*
X122018042Y-127364290D01*
X122003724Y-127362166D01*
X121989683Y-127358649D01*
X121976054Y-127353772D01*
X121962969Y-127347583D01*
X121950553Y-127340142D01*
X121938927Y-127331519D01*
X121928202Y-127321798D01*
X121918481Y-127311073D01*
X121909858Y-127299447D01*
X121902417Y-127287031D01*
X121896228Y-127273946D01*
X121891351Y-127260317D01*
X121887834Y-127246276D01*
X121885710Y-127231958D01*
X121885000Y-127217500D01*
X121885000Y-126872500D01*
X121885710Y-126858042D01*
X121887834Y-126843724D01*
X121891351Y-126829683D01*
X121896228Y-126816054D01*
X121902417Y-126802969D01*
X121909858Y-126790553D01*
X121918481Y-126778927D01*
X121928202Y-126768202D01*
X121938927Y-126758481D01*
X121950553Y-126749858D01*
X121962969Y-126742417D01*
X121976054Y-126736228D01*
X121989683Y-126731351D01*
X122003724Y-126727834D01*
X122018042Y-126725710D01*
X122032500Y-126725000D01*
X122327500Y-126725000D01*
X122341958Y-126725710D01*
G37*
G36*
X141191958Y-131715710D02*
G01*
X141206276Y-131717834D01*
X141220317Y-131721351D01*
X141233946Y-131726228D01*
X141247031Y-131732417D01*
X141259447Y-131739858D01*
X141271073Y-131748481D01*
X141281798Y-131758202D01*
X141291519Y-131768927D01*
X141300142Y-131780553D01*
X141307583Y-131792969D01*
X141313772Y-131806054D01*
X141318649Y-131819683D01*
X141322166Y-131833724D01*
X141324290Y-131848042D01*
X141325000Y-131862500D01*
X141325000Y-132157500D01*
X141324290Y-132171958D01*
X141322166Y-132186276D01*
X141318649Y-132200317D01*
X141313772Y-132213946D01*
X141307583Y-132227031D01*
X141300142Y-132239447D01*
X141291519Y-132251073D01*
X141281798Y-132261798D01*
X141271073Y-132271519D01*
X141259447Y-132280142D01*
X141247031Y-132287583D01*
X141233946Y-132293772D01*
X141220317Y-132298649D01*
X141206276Y-132302166D01*
X141191958Y-132304290D01*
X141177500Y-132305000D01*
X140832500Y-132305000D01*
X140818042Y-132304290D01*
X140803724Y-132302166D01*
X140789683Y-132298649D01*
X140776054Y-132293772D01*
X140762969Y-132287583D01*
X140750553Y-132280142D01*
X140738927Y-132271519D01*
X140728202Y-132261798D01*
X140718481Y-132251073D01*
X140709858Y-132239447D01*
X140702417Y-132227031D01*
X140696228Y-132213946D01*
X140691351Y-132200317D01*
X140687834Y-132186276D01*
X140685710Y-132171958D01*
X140685000Y-132157500D01*
X140685000Y-131862500D01*
X140685710Y-131848042D01*
X140687834Y-131833724D01*
X140691351Y-131819683D01*
X140696228Y-131806054D01*
X140702417Y-131792969D01*
X140709858Y-131780553D01*
X140718481Y-131768927D01*
X140728202Y-131758202D01*
X140738927Y-131748481D01*
X140750553Y-131739858D01*
X140762969Y-131732417D01*
X140776054Y-131726228D01*
X140789683Y-131721351D01*
X140803724Y-131717834D01*
X140818042Y-131715710D01*
X140832500Y-131715000D01*
X141177500Y-131715000D01*
X141191958Y-131715710D01*
G37*
G36*
X141191958Y-130745710D02*
G01*
X141206276Y-130747834D01*
X141220317Y-130751351D01*
X141233946Y-130756228D01*
X141247031Y-130762417D01*
X141259447Y-130769858D01*
X141271073Y-130778481D01*
X141281798Y-130788202D01*
X141291519Y-130798927D01*
X141300142Y-130810553D01*
X141307583Y-130822969D01*
X141313772Y-130836054D01*
X141318649Y-130849683D01*
X141322166Y-130863724D01*
X141324290Y-130878042D01*
X141325000Y-130892500D01*
X141325000Y-131187500D01*
X141324290Y-131201958D01*
X141322166Y-131216276D01*
X141318649Y-131230317D01*
X141313772Y-131243946D01*
X141307583Y-131257031D01*
X141300142Y-131269447D01*
X141291519Y-131281073D01*
X141281798Y-131291798D01*
X141271073Y-131301519D01*
X141259447Y-131310142D01*
X141247031Y-131317583D01*
X141233946Y-131323772D01*
X141220317Y-131328649D01*
X141206276Y-131332166D01*
X141191958Y-131334290D01*
X141177500Y-131335000D01*
X140832500Y-131335000D01*
X140818042Y-131334290D01*
X140803724Y-131332166D01*
X140789683Y-131328649D01*
X140776054Y-131323772D01*
X140762969Y-131317583D01*
X140750553Y-131310142D01*
X140738927Y-131301519D01*
X140728202Y-131291798D01*
X140718481Y-131281073D01*
X140709858Y-131269447D01*
X140702417Y-131257031D01*
X140696228Y-131243946D01*
X140691351Y-131230317D01*
X140687834Y-131216276D01*
X140685710Y-131201958D01*
X140685000Y-131187500D01*
X140685000Y-130892500D01*
X140685710Y-130878042D01*
X140687834Y-130863724D01*
X140691351Y-130849683D01*
X140696228Y-130836054D01*
X140702417Y-130822969D01*
X140709858Y-130810553D01*
X140718481Y-130798927D01*
X140728202Y-130788202D01*
X140738927Y-130778481D01*
X140750553Y-130769858D01*
X140762969Y-130762417D01*
X140776054Y-130756228D01*
X140789683Y-130751351D01*
X140803724Y-130747834D01*
X140818042Y-130745710D01*
X140832500Y-130745000D01*
X141177500Y-130745000D01*
X141191958Y-130745710D01*
G37*
G36*
X122351958Y-130745710D02*
G01*
X122366276Y-130747834D01*
X122380317Y-130751351D01*
X122393946Y-130756228D01*
X122407031Y-130762417D01*
X122419447Y-130769858D01*
X122431073Y-130778481D01*
X122441798Y-130788202D01*
X122451519Y-130798927D01*
X122460142Y-130810553D01*
X122467583Y-130822969D01*
X122473772Y-130836054D01*
X122478649Y-130849683D01*
X122482166Y-130863724D01*
X122484290Y-130878042D01*
X122485000Y-130892500D01*
X122485000Y-131237500D01*
X122484290Y-131251958D01*
X122482166Y-131266276D01*
X122478649Y-131280317D01*
X122473772Y-131293946D01*
X122467583Y-131307031D01*
X122460142Y-131319447D01*
X122451519Y-131331073D01*
X122441798Y-131341798D01*
X122431073Y-131351519D01*
X122419447Y-131360142D01*
X122407031Y-131367583D01*
X122393946Y-131373772D01*
X122380317Y-131378649D01*
X122366276Y-131382166D01*
X122351958Y-131384290D01*
X122337500Y-131385000D01*
X122042500Y-131385000D01*
X122028042Y-131384290D01*
X122013724Y-131382166D01*
X121999683Y-131378649D01*
X121986054Y-131373772D01*
X121972969Y-131367583D01*
X121960553Y-131360142D01*
X121948927Y-131351519D01*
X121938202Y-131341798D01*
X121928481Y-131331073D01*
X121919858Y-131319447D01*
X121912417Y-131307031D01*
X121906228Y-131293946D01*
X121901351Y-131280317D01*
X121897834Y-131266276D01*
X121895710Y-131251958D01*
X121895000Y-131237500D01*
X121895000Y-130892500D01*
X121895710Y-130878042D01*
X121897834Y-130863724D01*
X121901351Y-130849683D01*
X121906228Y-130836054D01*
X121912417Y-130822969D01*
X121919858Y-130810553D01*
X121928481Y-130798927D01*
X121938202Y-130788202D01*
X121948927Y-130778481D01*
X121960553Y-130769858D01*
X121972969Y-130762417D01*
X121986054Y-130756228D01*
X121999683Y-130751351D01*
X122013724Y-130747834D01*
X122028042Y-130745710D01*
X122042500Y-130745000D01*
X122337500Y-130745000D01*
X122351958Y-130745710D01*
G37*
G36*
X123321958Y-130745710D02*
G01*
X123336276Y-130747834D01*
X123350317Y-130751351D01*
X123363946Y-130756228D01*
X123377031Y-130762417D01*
X123389447Y-130769858D01*
X123401073Y-130778481D01*
X123411798Y-130788202D01*
X123421519Y-130798927D01*
X123430142Y-130810553D01*
X123437583Y-130822969D01*
X123443772Y-130836054D01*
X123448649Y-130849683D01*
X123452166Y-130863724D01*
X123454290Y-130878042D01*
X123455000Y-130892500D01*
X123455000Y-131237500D01*
X123454290Y-131251958D01*
X123452166Y-131266276D01*
X123448649Y-131280317D01*
X123443772Y-131293946D01*
X123437583Y-131307031D01*
X123430142Y-131319447D01*
X123421519Y-131331073D01*
X123411798Y-131341798D01*
X123401073Y-131351519D01*
X123389447Y-131360142D01*
X123377031Y-131367583D01*
X123363946Y-131373772D01*
X123350317Y-131378649D01*
X123336276Y-131382166D01*
X123321958Y-131384290D01*
X123307500Y-131385000D01*
X123012500Y-131385000D01*
X122998042Y-131384290D01*
X122983724Y-131382166D01*
X122969683Y-131378649D01*
X122956054Y-131373772D01*
X122942969Y-131367583D01*
X122930553Y-131360142D01*
X122918927Y-131351519D01*
X122908202Y-131341798D01*
X122898481Y-131331073D01*
X122889858Y-131319447D01*
X122882417Y-131307031D01*
X122876228Y-131293946D01*
X122871351Y-131280317D01*
X122867834Y-131266276D01*
X122865710Y-131251958D01*
X122865000Y-131237500D01*
X122865000Y-130892500D01*
X122865710Y-130878042D01*
X122867834Y-130863724D01*
X122871351Y-130849683D01*
X122876228Y-130836054D01*
X122882417Y-130822969D01*
X122889858Y-130810553D01*
X122898481Y-130798927D01*
X122908202Y-130788202D01*
X122918927Y-130778481D01*
X122930553Y-130769858D01*
X122942969Y-130762417D01*
X122956054Y-130756228D01*
X122969683Y-130751351D01*
X122983724Y-130747834D01*
X122998042Y-130745710D01*
X123012500Y-130745000D01*
X123307500Y-130745000D01*
X123321958Y-130745710D01*
G37*
G36*
X144511958Y-118920710D02*
G01*
X144526276Y-118922834D01*
X144540317Y-118926351D01*
X144553946Y-118931228D01*
X144567031Y-118937417D01*
X144579447Y-118944858D01*
X144591073Y-118953481D01*
X144601798Y-118963202D01*
X144611519Y-118973927D01*
X144620142Y-118985553D01*
X144627583Y-118997969D01*
X144633772Y-119011054D01*
X144638649Y-119024683D01*
X144642166Y-119038724D01*
X144644290Y-119053042D01*
X144645000Y-119067500D01*
X144645000Y-119362500D01*
X144644290Y-119376958D01*
X144642166Y-119391276D01*
X144638649Y-119405317D01*
X144633772Y-119418946D01*
X144627583Y-119432031D01*
X144620142Y-119444447D01*
X144611519Y-119456073D01*
X144601798Y-119466798D01*
X144591073Y-119476519D01*
X144579447Y-119485142D01*
X144567031Y-119492583D01*
X144553946Y-119498772D01*
X144540317Y-119503649D01*
X144526276Y-119507166D01*
X144511958Y-119509290D01*
X144497500Y-119510000D01*
X144152500Y-119510000D01*
X144138042Y-119509290D01*
X144123724Y-119507166D01*
X144109683Y-119503649D01*
X144096054Y-119498772D01*
X144082969Y-119492583D01*
X144070553Y-119485142D01*
X144058927Y-119476519D01*
X144048202Y-119466798D01*
X144038481Y-119456073D01*
X144029858Y-119444447D01*
X144022417Y-119432031D01*
X144016228Y-119418946D01*
X144011351Y-119405317D01*
X144007834Y-119391276D01*
X144005710Y-119376958D01*
X144005000Y-119362500D01*
X144005000Y-119067500D01*
X144005710Y-119053042D01*
X144007834Y-119038724D01*
X144011351Y-119024683D01*
X144016228Y-119011054D01*
X144022417Y-118997969D01*
X144029858Y-118985553D01*
X144038481Y-118973927D01*
X144048202Y-118963202D01*
X144058927Y-118953481D01*
X144070553Y-118944858D01*
X144082969Y-118937417D01*
X144096054Y-118931228D01*
X144109683Y-118926351D01*
X144123724Y-118922834D01*
X144138042Y-118920710D01*
X144152500Y-118920000D01*
X144497500Y-118920000D01*
X144511958Y-118920710D01*
G37*
G36*
X144511958Y-119890710D02*
G01*
X144526276Y-119892834D01*
X144540317Y-119896351D01*
X144553946Y-119901228D01*
X144567031Y-119907417D01*
X144579447Y-119914858D01*
X144591073Y-119923481D01*
X144601798Y-119933202D01*
X144611519Y-119943927D01*
X144620142Y-119955553D01*
X144627583Y-119967969D01*
X144633772Y-119981054D01*
X144638649Y-119994683D01*
X144642166Y-120008724D01*
X144644290Y-120023042D01*
X144645000Y-120037500D01*
X144645000Y-120332500D01*
X144644290Y-120346958D01*
X144642166Y-120361276D01*
X144638649Y-120375317D01*
X144633772Y-120388946D01*
X144627583Y-120402031D01*
X144620142Y-120414447D01*
X144611519Y-120426073D01*
X144601798Y-120436798D01*
X144591073Y-120446519D01*
X144579447Y-120455142D01*
X144567031Y-120462583D01*
X144553946Y-120468772D01*
X144540317Y-120473649D01*
X144526276Y-120477166D01*
X144511958Y-120479290D01*
X144497500Y-120480000D01*
X144152500Y-120480000D01*
X144138042Y-120479290D01*
X144123724Y-120477166D01*
X144109683Y-120473649D01*
X144096054Y-120468772D01*
X144082969Y-120462583D01*
X144070553Y-120455142D01*
X144058927Y-120446519D01*
X144048202Y-120436798D01*
X144038481Y-120426073D01*
X144029858Y-120414447D01*
X144022417Y-120402031D01*
X144016228Y-120388946D01*
X144011351Y-120375317D01*
X144007834Y-120361276D01*
X144005710Y-120346958D01*
X144005000Y-120332500D01*
X144005000Y-120037500D01*
X144005710Y-120023042D01*
X144007834Y-120008724D01*
X144011351Y-119994683D01*
X144016228Y-119981054D01*
X144022417Y-119967969D01*
X144029858Y-119955553D01*
X144038481Y-119943927D01*
X144048202Y-119933202D01*
X144058927Y-119923481D01*
X144070553Y-119914858D01*
X144082969Y-119907417D01*
X144096054Y-119901228D01*
X144109683Y-119896351D01*
X144123724Y-119892834D01*
X144138042Y-119890710D01*
X144152500Y-119890000D01*
X144497500Y-119890000D01*
X144511958Y-119890710D01*
G37*
G36*
X143511958Y-118920710D02*
G01*
X143526276Y-118922834D01*
X143540317Y-118926351D01*
X143553946Y-118931228D01*
X143567031Y-118937417D01*
X143579447Y-118944858D01*
X143591073Y-118953481D01*
X143601798Y-118963202D01*
X143611519Y-118973927D01*
X143620142Y-118985553D01*
X143627583Y-118997969D01*
X143633772Y-119011054D01*
X143638649Y-119024683D01*
X143642166Y-119038724D01*
X143644290Y-119053042D01*
X143645000Y-119067500D01*
X143645000Y-119362500D01*
X143644290Y-119376958D01*
X143642166Y-119391276D01*
X143638649Y-119405317D01*
X143633772Y-119418946D01*
X143627583Y-119432031D01*
X143620142Y-119444447D01*
X143611519Y-119456073D01*
X143601798Y-119466798D01*
X143591073Y-119476519D01*
X143579447Y-119485142D01*
X143567031Y-119492583D01*
X143553946Y-119498772D01*
X143540317Y-119503649D01*
X143526276Y-119507166D01*
X143511958Y-119509290D01*
X143497500Y-119510000D01*
X143152500Y-119510000D01*
X143138042Y-119509290D01*
X143123724Y-119507166D01*
X143109683Y-119503649D01*
X143096054Y-119498772D01*
X143082969Y-119492583D01*
X143070553Y-119485142D01*
X143058927Y-119476519D01*
X143048202Y-119466798D01*
X143038481Y-119456073D01*
X143029858Y-119444447D01*
X143022417Y-119432031D01*
X143016228Y-119418946D01*
X143011351Y-119405317D01*
X143007834Y-119391276D01*
X143005710Y-119376958D01*
X143005000Y-119362500D01*
X143005000Y-119067500D01*
X143005710Y-119053042D01*
X143007834Y-119038724D01*
X143011351Y-119024683D01*
X143016228Y-119011054D01*
X143022417Y-118997969D01*
X143029858Y-118985553D01*
X143038481Y-118973927D01*
X143048202Y-118963202D01*
X143058927Y-118953481D01*
X143070553Y-118944858D01*
X143082969Y-118937417D01*
X143096054Y-118931228D01*
X143109683Y-118926351D01*
X143123724Y-118922834D01*
X143138042Y-118920710D01*
X143152500Y-118920000D01*
X143497500Y-118920000D01*
X143511958Y-118920710D01*
G37*
G36*
X143511958Y-119890710D02*
G01*
X143526276Y-119892834D01*
X143540317Y-119896351D01*
X143553946Y-119901228D01*
X143567031Y-119907417D01*
X143579447Y-119914858D01*
X143591073Y-119923481D01*
X143601798Y-119933202D01*
X143611519Y-119943927D01*
X143620142Y-119955553D01*
X143627583Y-119967969D01*
X143633772Y-119981054D01*
X143638649Y-119994683D01*
X143642166Y-120008724D01*
X143644290Y-120023042D01*
X143645000Y-120037500D01*
X143645000Y-120332500D01*
X143644290Y-120346958D01*
X143642166Y-120361276D01*
X143638649Y-120375317D01*
X143633772Y-120388946D01*
X143627583Y-120402031D01*
X143620142Y-120414447D01*
X143611519Y-120426073D01*
X143601798Y-120436798D01*
X143591073Y-120446519D01*
X143579447Y-120455142D01*
X143567031Y-120462583D01*
X143553946Y-120468772D01*
X143540317Y-120473649D01*
X143526276Y-120477166D01*
X143511958Y-120479290D01*
X143497500Y-120480000D01*
X143152500Y-120480000D01*
X143138042Y-120479290D01*
X143123724Y-120477166D01*
X143109683Y-120473649D01*
X143096054Y-120468772D01*
X143082969Y-120462583D01*
X143070553Y-120455142D01*
X143058927Y-120446519D01*
X143048202Y-120436798D01*
X143038481Y-120426073D01*
X143029858Y-120414447D01*
X143022417Y-120402031D01*
X143016228Y-120388946D01*
X143011351Y-120375317D01*
X143007834Y-120361276D01*
X143005710Y-120346958D01*
X143005000Y-120332500D01*
X143005000Y-120037500D01*
X143005710Y-120023042D01*
X143007834Y-120008724D01*
X143011351Y-119994683D01*
X143016228Y-119981054D01*
X143022417Y-119967969D01*
X143029858Y-119955553D01*
X143038481Y-119943927D01*
X143048202Y-119933202D01*
X143058927Y-119923481D01*
X143070553Y-119914858D01*
X143082969Y-119907417D01*
X143096054Y-119901228D01*
X143109683Y-119896351D01*
X143123724Y-119892834D01*
X143138042Y-119890710D01*
X143152500Y-119890000D01*
X143497500Y-119890000D01*
X143511958Y-119890710D01*
G37*
G36*
X143501958Y-117880710D02*
G01*
X143516276Y-117882834D01*
X143530317Y-117886351D01*
X143543946Y-117891228D01*
X143557031Y-117897417D01*
X143569447Y-117904858D01*
X143581073Y-117913481D01*
X143591798Y-117923202D01*
X143601519Y-117933927D01*
X143610142Y-117945553D01*
X143617583Y-117957969D01*
X143623772Y-117971054D01*
X143628649Y-117984683D01*
X143632166Y-117998724D01*
X143634290Y-118013042D01*
X143635000Y-118027500D01*
X143635000Y-118372500D01*
X143634290Y-118386958D01*
X143632166Y-118401276D01*
X143628649Y-118415317D01*
X143623772Y-118428946D01*
X143617583Y-118442031D01*
X143610142Y-118454447D01*
X143601519Y-118466073D01*
X143591798Y-118476798D01*
X143581073Y-118486519D01*
X143569447Y-118495142D01*
X143557031Y-118502583D01*
X143543946Y-118508772D01*
X143530317Y-118513649D01*
X143516276Y-118517166D01*
X143501958Y-118519290D01*
X143487500Y-118520000D01*
X143192500Y-118520000D01*
X143178042Y-118519290D01*
X143163724Y-118517166D01*
X143149683Y-118513649D01*
X143136054Y-118508772D01*
X143122969Y-118502583D01*
X143110553Y-118495142D01*
X143098927Y-118486519D01*
X143088202Y-118476798D01*
X143078481Y-118466073D01*
X143069858Y-118454447D01*
X143062417Y-118442031D01*
X143056228Y-118428946D01*
X143051351Y-118415317D01*
X143047834Y-118401276D01*
X143045710Y-118386958D01*
X143045000Y-118372500D01*
X143045000Y-118027500D01*
X143045710Y-118013042D01*
X143047834Y-117998724D01*
X143051351Y-117984683D01*
X143056228Y-117971054D01*
X143062417Y-117957969D01*
X143069858Y-117945553D01*
X143078481Y-117933927D01*
X143088202Y-117923202D01*
X143098927Y-117913481D01*
X143110553Y-117904858D01*
X143122969Y-117897417D01*
X143136054Y-117891228D01*
X143149683Y-117886351D01*
X143163724Y-117882834D01*
X143178042Y-117880710D01*
X143192500Y-117880000D01*
X143487500Y-117880000D01*
X143501958Y-117880710D01*
G37*
G36*
X144471958Y-117880710D02*
G01*
X144486276Y-117882834D01*
X144500317Y-117886351D01*
X144513946Y-117891228D01*
X144527031Y-117897417D01*
X144539447Y-117904858D01*
X144551073Y-117913481D01*
X144561798Y-117923202D01*
X144571519Y-117933927D01*
X144580142Y-117945553D01*
X144587583Y-117957969D01*
X144593772Y-117971054D01*
X144598649Y-117984683D01*
X144602166Y-117998724D01*
X144604290Y-118013042D01*
X144605000Y-118027500D01*
X144605000Y-118372500D01*
X144604290Y-118386958D01*
X144602166Y-118401276D01*
X144598649Y-118415317D01*
X144593772Y-118428946D01*
X144587583Y-118442031D01*
X144580142Y-118454447D01*
X144571519Y-118466073D01*
X144561798Y-118476798D01*
X144551073Y-118486519D01*
X144539447Y-118495142D01*
X144527031Y-118502583D01*
X144513946Y-118508772D01*
X144500317Y-118513649D01*
X144486276Y-118517166D01*
X144471958Y-118519290D01*
X144457500Y-118520000D01*
X144162500Y-118520000D01*
X144148042Y-118519290D01*
X144133724Y-118517166D01*
X144119683Y-118513649D01*
X144106054Y-118508772D01*
X144092969Y-118502583D01*
X144080553Y-118495142D01*
X144068927Y-118486519D01*
X144058202Y-118476798D01*
X144048481Y-118466073D01*
X144039858Y-118454447D01*
X144032417Y-118442031D01*
X144026228Y-118428946D01*
X144021351Y-118415317D01*
X144017834Y-118401276D01*
X144015710Y-118386958D01*
X144015000Y-118372500D01*
X144015000Y-118027500D01*
X144015710Y-118013042D01*
X144017834Y-117998724D01*
X144021351Y-117984683D01*
X144026228Y-117971054D01*
X144032417Y-117957969D01*
X144039858Y-117945553D01*
X144048481Y-117933927D01*
X144058202Y-117923202D01*
X144068927Y-117913481D01*
X144080553Y-117904858D01*
X144092969Y-117897417D01*
X144106054Y-117891228D01*
X144119683Y-117886351D01*
X144133724Y-117882834D01*
X144148042Y-117880710D01*
X144162500Y-117880000D01*
X144457500Y-117880000D01*
X144471958Y-117880710D01*
G37*
G36*
X134386958Y-123445710D02*
G01*
X134401276Y-123447834D01*
X134415317Y-123451351D01*
X134428946Y-123456228D01*
X134442031Y-123462417D01*
X134454447Y-123469858D01*
X134466073Y-123478481D01*
X134476798Y-123488202D01*
X134486519Y-123498927D01*
X134495142Y-123510553D01*
X134502583Y-123522969D01*
X134508772Y-123536054D01*
X134513649Y-123549683D01*
X134517166Y-123563724D01*
X134519290Y-123578042D01*
X134520000Y-123592500D01*
X134520000Y-123887500D01*
X134519290Y-123901958D01*
X134517166Y-123916276D01*
X134513649Y-123930317D01*
X134508772Y-123943946D01*
X134502583Y-123957031D01*
X134495142Y-123969447D01*
X134486519Y-123981073D01*
X134476798Y-123991798D01*
X134466073Y-124001519D01*
X134454447Y-124010142D01*
X134442031Y-124017583D01*
X134428946Y-124023772D01*
X134415317Y-124028649D01*
X134401276Y-124032166D01*
X134386958Y-124034290D01*
X134372500Y-124035000D01*
X134027500Y-124035000D01*
X134013042Y-124034290D01*
X133998724Y-124032166D01*
X133984683Y-124028649D01*
X133971054Y-124023772D01*
X133957969Y-124017583D01*
X133945553Y-124010142D01*
X133933927Y-124001519D01*
X133923202Y-123991798D01*
X133913481Y-123981073D01*
X133904858Y-123969447D01*
X133897417Y-123957031D01*
X133891228Y-123943946D01*
X133886351Y-123930317D01*
X133882834Y-123916276D01*
X133880710Y-123901958D01*
X133880000Y-123887500D01*
X133880000Y-123592500D01*
X133880710Y-123578042D01*
X133882834Y-123563724D01*
X133886351Y-123549683D01*
X133891228Y-123536054D01*
X133897417Y-123522969D01*
X133904858Y-123510553D01*
X133913481Y-123498927D01*
X133923202Y-123488202D01*
X133933927Y-123478481D01*
X133945553Y-123469858D01*
X133957969Y-123462417D01*
X133971054Y-123456228D01*
X133984683Y-123451351D01*
X133998724Y-123447834D01*
X134013042Y-123445710D01*
X134027500Y-123445000D01*
X134372500Y-123445000D01*
X134386958Y-123445710D01*
G37*
G36*
X134386958Y-124415710D02*
G01*
X134401276Y-124417834D01*
X134415317Y-124421351D01*
X134428946Y-124426228D01*
X134442031Y-124432417D01*
X134454447Y-124439858D01*
X134466073Y-124448481D01*
X134476798Y-124458202D01*
X134486519Y-124468927D01*
X134495142Y-124480553D01*
X134502583Y-124492969D01*
X134508772Y-124506054D01*
X134513649Y-124519683D01*
X134517166Y-124533724D01*
X134519290Y-124548042D01*
X134520000Y-124562500D01*
X134520000Y-124857500D01*
X134519290Y-124871958D01*
X134517166Y-124886276D01*
X134513649Y-124900317D01*
X134508772Y-124913946D01*
X134502583Y-124927031D01*
X134495142Y-124939447D01*
X134486519Y-124951073D01*
X134476798Y-124961798D01*
X134466073Y-124971519D01*
X134454447Y-124980142D01*
X134442031Y-124987583D01*
X134428946Y-124993772D01*
X134415317Y-124998649D01*
X134401276Y-125002166D01*
X134386958Y-125004290D01*
X134372500Y-125005000D01*
X134027500Y-125005000D01*
X134013042Y-125004290D01*
X133998724Y-125002166D01*
X133984683Y-124998649D01*
X133971054Y-124993772D01*
X133957969Y-124987583D01*
X133945553Y-124980142D01*
X133933927Y-124971519D01*
X133923202Y-124961798D01*
X133913481Y-124951073D01*
X133904858Y-124939447D01*
X133897417Y-124927031D01*
X133891228Y-124913946D01*
X133886351Y-124900317D01*
X133882834Y-124886276D01*
X133880710Y-124871958D01*
X133880000Y-124857500D01*
X133880000Y-124562500D01*
X133880710Y-124548042D01*
X133882834Y-124533724D01*
X133886351Y-124519683D01*
X133891228Y-124506054D01*
X133897417Y-124492969D01*
X133904858Y-124480553D01*
X133913481Y-124468927D01*
X133923202Y-124458202D01*
X133933927Y-124448481D01*
X133945553Y-124439858D01*
X133957969Y-124432417D01*
X133971054Y-124426228D01*
X133984683Y-124421351D01*
X133998724Y-124417834D01*
X134013042Y-124415710D01*
X134027500Y-124415000D01*
X134372500Y-124415000D01*
X134386958Y-124415710D01*
G37*
G36*
X140811958Y-110190710D02*
G01*
X140826276Y-110192834D01*
X140840317Y-110196351D01*
X140853946Y-110201228D01*
X140867031Y-110207417D01*
X140879447Y-110214858D01*
X140891073Y-110223481D01*
X140901798Y-110233202D01*
X140911519Y-110243927D01*
X140920142Y-110255553D01*
X140927583Y-110267969D01*
X140933772Y-110281054D01*
X140938649Y-110294683D01*
X140942166Y-110308724D01*
X140944290Y-110323042D01*
X140945000Y-110337500D01*
X140945000Y-110632500D01*
X140944290Y-110646958D01*
X140942166Y-110661276D01*
X140938649Y-110675317D01*
X140933772Y-110688946D01*
X140927583Y-110702031D01*
X140920142Y-110714447D01*
X140911519Y-110726073D01*
X140901798Y-110736798D01*
X140891073Y-110746519D01*
X140879447Y-110755142D01*
X140867031Y-110762583D01*
X140853946Y-110768772D01*
X140840317Y-110773649D01*
X140826276Y-110777166D01*
X140811958Y-110779290D01*
X140797500Y-110780000D01*
X140452500Y-110780000D01*
X140438042Y-110779290D01*
X140423724Y-110777166D01*
X140409683Y-110773649D01*
X140396054Y-110768772D01*
X140382969Y-110762583D01*
X140370553Y-110755142D01*
X140358927Y-110746519D01*
X140348202Y-110736798D01*
X140338481Y-110726073D01*
X140329858Y-110714447D01*
X140322417Y-110702031D01*
X140316228Y-110688946D01*
X140311351Y-110675317D01*
X140307834Y-110661276D01*
X140305710Y-110646958D01*
X140305000Y-110632500D01*
X140305000Y-110337500D01*
X140305710Y-110323042D01*
X140307834Y-110308724D01*
X140311351Y-110294683D01*
X140316228Y-110281054D01*
X140322417Y-110267969D01*
X140329858Y-110255553D01*
X140338481Y-110243927D01*
X140348202Y-110233202D01*
X140358927Y-110223481D01*
X140370553Y-110214858D01*
X140382969Y-110207417D01*
X140396054Y-110201228D01*
X140409683Y-110196351D01*
X140423724Y-110192834D01*
X140438042Y-110190710D01*
X140452500Y-110190000D01*
X140797500Y-110190000D01*
X140811958Y-110190710D01*
G37*
G36*
X140811958Y-109220710D02*
G01*
X140826276Y-109222834D01*
X140840317Y-109226351D01*
X140853946Y-109231228D01*
X140867031Y-109237417D01*
X140879447Y-109244858D01*
X140891073Y-109253481D01*
X140901798Y-109263202D01*
X140911519Y-109273927D01*
X140920142Y-109285553D01*
X140927583Y-109297969D01*
X140933772Y-109311054D01*
X140938649Y-109324683D01*
X140942166Y-109338724D01*
X140944290Y-109353042D01*
X140945000Y-109367500D01*
X140945000Y-109662500D01*
X140944290Y-109676958D01*
X140942166Y-109691276D01*
X140938649Y-109705317D01*
X140933772Y-109718946D01*
X140927583Y-109732031D01*
X140920142Y-109744447D01*
X140911519Y-109756073D01*
X140901798Y-109766798D01*
X140891073Y-109776519D01*
X140879447Y-109785142D01*
X140867031Y-109792583D01*
X140853946Y-109798772D01*
X140840317Y-109803649D01*
X140826276Y-109807166D01*
X140811958Y-109809290D01*
X140797500Y-109810000D01*
X140452500Y-109810000D01*
X140438042Y-109809290D01*
X140423724Y-109807166D01*
X140409683Y-109803649D01*
X140396054Y-109798772D01*
X140382969Y-109792583D01*
X140370553Y-109785142D01*
X140358927Y-109776519D01*
X140348202Y-109766798D01*
X140338481Y-109756073D01*
X140329858Y-109744447D01*
X140322417Y-109732031D01*
X140316228Y-109718946D01*
X140311351Y-109705317D01*
X140307834Y-109691276D01*
X140305710Y-109676958D01*
X140305000Y-109662500D01*
X140305000Y-109367500D01*
X140305710Y-109353042D01*
X140307834Y-109338724D01*
X140311351Y-109324683D01*
X140316228Y-109311054D01*
X140322417Y-109297969D01*
X140329858Y-109285553D01*
X140338481Y-109273927D01*
X140348202Y-109263202D01*
X140358927Y-109253481D01*
X140370553Y-109244858D01*
X140382969Y-109237417D01*
X140396054Y-109231228D01*
X140409683Y-109226351D01*
X140423724Y-109222834D01*
X140438042Y-109220710D01*
X140452500Y-109220000D01*
X140797500Y-109220000D01*
X140811958Y-109220710D01*
G37*
G36*
X136161958Y-114240710D02*
G01*
X136176276Y-114242834D01*
X136190317Y-114246351D01*
X136203946Y-114251228D01*
X136217031Y-114257417D01*
X136229447Y-114264858D01*
X136241073Y-114273481D01*
X136251798Y-114283202D01*
X136261519Y-114293927D01*
X136270142Y-114305553D01*
X136277583Y-114317969D01*
X136283772Y-114331054D01*
X136288649Y-114344683D01*
X136292166Y-114358724D01*
X136294290Y-114373042D01*
X136295000Y-114387500D01*
X136295000Y-114682500D01*
X136294290Y-114696958D01*
X136292166Y-114711276D01*
X136288649Y-114725317D01*
X136283772Y-114738946D01*
X136277583Y-114752031D01*
X136270142Y-114764447D01*
X136261519Y-114776073D01*
X136251798Y-114786798D01*
X136241073Y-114796519D01*
X136229447Y-114805142D01*
X136217031Y-114812583D01*
X136203946Y-114818772D01*
X136190317Y-114823649D01*
X136176276Y-114827166D01*
X136161958Y-114829290D01*
X136147500Y-114830000D01*
X135802500Y-114830000D01*
X135788042Y-114829290D01*
X135773724Y-114827166D01*
X135759683Y-114823649D01*
X135746054Y-114818772D01*
X135732969Y-114812583D01*
X135720553Y-114805142D01*
X135708927Y-114796519D01*
X135698202Y-114786798D01*
X135688481Y-114776073D01*
X135679858Y-114764447D01*
X135672417Y-114752031D01*
X135666228Y-114738946D01*
X135661351Y-114725317D01*
X135657834Y-114711276D01*
X135655710Y-114696958D01*
X135655000Y-114682500D01*
X135655000Y-114387500D01*
X135655710Y-114373042D01*
X135657834Y-114358724D01*
X135661351Y-114344683D01*
X135666228Y-114331054D01*
X135672417Y-114317969D01*
X135679858Y-114305553D01*
X135688481Y-114293927D01*
X135698202Y-114283202D01*
X135708927Y-114273481D01*
X135720553Y-114264858D01*
X135732969Y-114257417D01*
X135746054Y-114251228D01*
X135759683Y-114246351D01*
X135773724Y-114242834D01*
X135788042Y-114240710D01*
X135802500Y-114240000D01*
X136147500Y-114240000D01*
X136161958Y-114240710D01*
G37*
G36*
X136161958Y-113270710D02*
G01*
X136176276Y-113272834D01*
X136190317Y-113276351D01*
X136203946Y-113281228D01*
X136217031Y-113287417D01*
X136229447Y-113294858D01*
X136241073Y-113303481D01*
X136251798Y-113313202D01*
X136261519Y-113323927D01*
X136270142Y-113335553D01*
X136277583Y-113347969D01*
X136283772Y-113361054D01*
X136288649Y-113374683D01*
X136292166Y-113388724D01*
X136294290Y-113403042D01*
X136295000Y-113417500D01*
X136295000Y-113712500D01*
X136294290Y-113726958D01*
X136292166Y-113741276D01*
X136288649Y-113755317D01*
X136283772Y-113768946D01*
X136277583Y-113782031D01*
X136270142Y-113794447D01*
X136261519Y-113806073D01*
X136251798Y-113816798D01*
X136241073Y-113826519D01*
X136229447Y-113835142D01*
X136217031Y-113842583D01*
X136203946Y-113848772D01*
X136190317Y-113853649D01*
X136176276Y-113857166D01*
X136161958Y-113859290D01*
X136147500Y-113860000D01*
X135802500Y-113860000D01*
X135788042Y-113859290D01*
X135773724Y-113857166D01*
X135759683Y-113853649D01*
X135746054Y-113848772D01*
X135732969Y-113842583D01*
X135720553Y-113835142D01*
X135708927Y-113826519D01*
X135698202Y-113816798D01*
X135688481Y-113806073D01*
X135679858Y-113794447D01*
X135672417Y-113782031D01*
X135666228Y-113768946D01*
X135661351Y-113755317D01*
X135657834Y-113741276D01*
X135655710Y-113726958D01*
X135655000Y-113712500D01*
X135655000Y-113417500D01*
X135655710Y-113403042D01*
X135657834Y-113388724D01*
X135661351Y-113374683D01*
X135666228Y-113361054D01*
X135672417Y-113347969D01*
X135679858Y-113335553D01*
X135688481Y-113323927D01*
X135698202Y-113313202D01*
X135708927Y-113303481D01*
X135720553Y-113294858D01*
X135732969Y-113287417D01*
X135746054Y-113281228D01*
X135759683Y-113276351D01*
X135773724Y-113272834D01*
X135788042Y-113270710D01*
X135802500Y-113270000D01*
X136147500Y-113270000D01*
X136161958Y-113270710D01*
G37*
G36*
X135111958Y-113295710D02*
G01*
X135126276Y-113297834D01*
X135140317Y-113301351D01*
X135153946Y-113306228D01*
X135167031Y-113312417D01*
X135179447Y-113319858D01*
X135191073Y-113328481D01*
X135201798Y-113338202D01*
X135211519Y-113348927D01*
X135220142Y-113360553D01*
X135227583Y-113372969D01*
X135233772Y-113386054D01*
X135238649Y-113399683D01*
X135242166Y-113413724D01*
X135244290Y-113428042D01*
X135245000Y-113442500D01*
X135245000Y-113737500D01*
X135244290Y-113751958D01*
X135242166Y-113766276D01*
X135238649Y-113780317D01*
X135233772Y-113793946D01*
X135227583Y-113807031D01*
X135220142Y-113819447D01*
X135211519Y-113831073D01*
X135201798Y-113841798D01*
X135191073Y-113851519D01*
X135179447Y-113860142D01*
X135167031Y-113867583D01*
X135153946Y-113873772D01*
X135140317Y-113878649D01*
X135126276Y-113882166D01*
X135111958Y-113884290D01*
X135097500Y-113885000D01*
X134752500Y-113885000D01*
X134738042Y-113884290D01*
X134723724Y-113882166D01*
X134709683Y-113878649D01*
X134696054Y-113873772D01*
X134682969Y-113867583D01*
X134670553Y-113860142D01*
X134658927Y-113851519D01*
X134648202Y-113841798D01*
X134638481Y-113831073D01*
X134629858Y-113819447D01*
X134622417Y-113807031D01*
X134616228Y-113793946D01*
X134611351Y-113780317D01*
X134607834Y-113766276D01*
X134605710Y-113751958D01*
X134605000Y-113737500D01*
X134605000Y-113442500D01*
X134605710Y-113428042D01*
X134607834Y-113413724D01*
X134611351Y-113399683D01*
X134616228Y-113386054D01*
X134622417Y-113372969D01*
X134629858Y-113360553D01*
X134638481Y-113348927D01*
X134648202Y-113338202D01*
X134658927Y-113328481D01*
X134670553Y-113319858D01*
X134682969Y-113312417D01*
X134696054Y-113306228D01*
X134709683Y-113301351D01*
X134723724Y-113297834D01*
X134738042Y-113295710D01*
X134752500Y-113295000D01*
X135097500Y-113295000D01*
X135111958Y-113295710D01*
G37*
G36*
X135111958Y-114265710D02*
G01*
X135126276Y-114267834D01*
X135140317Y-114271351D01*
X135153946Y-114276228D01*
X135167031Y-114282417D01*
X135179447Y-114289858D01*
X135191073Y-114298481D01*
X135201798Y-114308202D01*
X135211519Y-114318927D01*
X135220142Y-114330553D01*
X135227583Y-114342969D01*
X135233772Y-114356054D01*
X135238649Y-114369683D01*
X135242166Y-114383724D01*
X135244290Y-114398042D01*
X135245000Y-114412500D01*
X135245000Y-114707500D01*
X135244290Y-114721958D01*
X135242166Y-114736276D01*
X135238649Y-114750317D01*
X135233772Y-114763946D01*
X135227583Y-114777031D01*
X135220142Y-114789447D01*
X135211519Y-114801073D01*
X135201798Y-114811798D01*
X135191073Y-114821519D01*
X135179447Y-114830142D01*
X135167031Y-114837583D01*
X135153946Y-114843772D01*
X135140317Y-114848649D01*
X135126276Y-114852166D01*
X135111958Y-114854290D01*
X135097500Y-114855000D01*
X134752500Y-114855000D01*
X134738042Y-114854290D01*
X134723724Y-114852166D01*
X134709683Y-114848649D01*
X134696054Y-114843772D01*
X134682969Y-114837583D01*
X134670553Y-114830142D01*
X134658927Y-114821519D01*
X134648202Y-114811798D01*
X134638481Y-114801073D01*
X134629858Y-114789447D01*
X134622417Y-114777031D01*
X134616228Y-114763946D01*
X134611351Y-114750317D01*
X134607834Y-114736276D01*
X134605710Y-114721958D01*
X134605000Y-114707500D01*
X134605000Y-114412500D01*
X134605710Y-114398042D01*
X134607834Y-114383724D01*
X134611351Y-114369683D01*
X134616228Y-114356054D01*
X134622417Y-114342969D01*
X134629858Y-114330553D01*
X134638481Y-114318927D01*
X134648202Y-114308202D01*
X134658927Y-114298481D01*
X134670553Y-114289858D01*
X134682969Y-114282417D01*
X134696054Y-114276228D01*
X134709683Y-114271351D01*
X134723724Y-114267834D01*
X134738042Y-114265710D01*
X134752500Y-114265000D01*
X135097500Y-114265000D01*
X135111958Y-114265710D01*
G37*
G36*
X131126958Y-113255710D02*
G01*
X131141276Y-113257834D01*
X131155317Y-113261351D01*
X131168946Y-113266228D01*
X131182031Y-113272417D01*
X131194447Y-113279858D01*
X131206073Y-113288481D01*
X131216798Y-113298202D01*
X131226519Y-113308927D01*
X131235142Y-113320553D01*
X131242583Y-113332969D01*
X131248772Y-113346054D01*
X131253649Y-113359683D01*
X131257166Y-113373724D01*
X131259290Y-113388042D01*
X131260000Y-113402500D01*
X131260000Y-113747500D01*
X131259290Y-113761958D01*
X131257166Y-113776276D01*
X131253649Y-113790317D01*
X131248772Y-113803946D01*
X131242583Y-113817031D01*
X131235142Y-113829447D01*
X131226519Y-113841073D01*
X131216798Y-113851798D01*
X131206073Y-113861519D01*
X131194447Y-113870142D01*
X131182031Y-113877583D01*
X131168946Y-113883772D01*
X131155317Y-113888649D01*
X131141276Y-113892166D01*
X131126958Y-113894290D01*
X131112500Y-113895000D01*
X130817500Y-113895000D01*
X130803042Y-113894290D01*
X130788724Y-113892166D01*
X130774683Y-113888649D01*
X130761054Y-113883772D01*
X130747969Y-113877583D01*
X130735553Y-113870142D01*
X130723927Y-113861519D01*
X130713202Y-113851798D01*
X130703481Y-113841073D01*
X130694858Y-113829447D01*
X130687417Y-113817031D01*
X130681228Y-113803946D01*
X130676351Y-113790317D01*
X130672834Y-113776276D01*
X130670710Y-113761958D01*
X130670000Y-113747500D01*
X130670000Y-113402500D01*
X130670710Y-113388042D01*
X130672834Y-113373724D01*
X130676351Y-113359683D01*
X130681228Y-113346054D01*
X130687417Y-113332969D01*
X130694858Y-113320553D01*
X130703481Y-113308927D01*
X130713202Y-113298202D01*
X130723927Y-113288481D01*
X130735553Y-113279858D01*
X130747969Y-113272417D01*
X130761054Y-113266228D01*
X130774683Y-113261351D01*
X130788724Y-113257834D01*
X130803042Y-113255710D01*
X130817500Y-113255000D01*
X131112500Y-113255000D01*
X131126958Y-113255710D01*
G37*
G36*
X132096958Y-113255710D02*
G01*
X132111276Y-113257834D01*
X132125317Y-113261351D01*
X132138946Y-113266228D01*
X132152031Y-113272417D01*
X132164447Y-113279858D01*
X132176073Y-113288481D01*
X132186798Y-113298202D01*
X132196519Y-113308927D01*
X132205142Y-113320553D01*
X132212583Y-113332969D01*
X132218772Y-113346054D01*
X132223649Y-113359683D01*
X132227166Y-113373724D01*
X132229290Y-113388042D01*
X132230000Y-113402500D01*
X132230000Y-113747500D01*
X132229290Y-113761958D01*
X132227166Y-113776276D01*
X132223649Y-113790317D01*
X132218772Y-113803946D01*
X132212583Y-113817031D01*
X132205142Y-113829447D01*
X132196519Y-113841073D01*
X132186798Y-113851798D01*
X132176073Y-113861519D01*
X132164447Y-113870142D01*
X132152031Y-113877583D01*
X132138946Y-113883772D01*
X132125317Y-113888649D01*
X132111276Y-113892166D01*
X132096958Y-113894290D01*
X132082500Y-113895000D01*
X131787500Y-113895000D01*
X131773042Y-113894290D01*
X131758724Y-113892166D01*
X131744683Y-113888649D01*
X131731054Y-113883772D01*
X131717969Y-113877583D01*
X131705553Y-113870142D01*
X131693927Y-113861519D01*
X131683202Y-113851798D01*
X131673481Y-113841073D01*
X131664858Y-113829447D01*
X131657417Y-113817031D01*
X131651228Y-113803946D01*
X131646351Y-113790317D01*
X131642834Y-113776276D01*
X131640710Y-113761958D01*
X131640000Y-113747500D01*
X131640000Y-113402500D01*
X131640710Y-113388042D01*
X131642834Y-113373724D01*
X131646351Y-113359683D01*
X131651228Y-113346054D01*
X131657417Y-113332969D01*
X131664858Y-113320553D01*
X131673481Y-113308927D01*
X131683202Y-113298202D01*
X131693927Y-113288481D01*
X131705553Y-113279858D01*
X131717969Y-113272417D01*
X131731054Y-113266228D01*
X131744683Y-113261351D01*
X131758724Y-113257834D01*
X131773042Y-113255710D01*
X131787500Y-113255000D01*
X132082500Y-113255000D01*
X132096958Y-113255710D01*
G37*
G36*
X137136958Y-118565710D02*
G01*
X137151276Y-118567834D01*
X137165317Y-118571351D01*
X137178946Y-118576228D01*
X137192031Y-118582417D01*
X137204447Y-118589858D01*
X137216073Y-118598481D01*
X137226798Y-118608202D01*
X137236519Y-118618927D01*
X137245142Y-118630553D01*
X137252583Y-118642969D01*
X137258772Y-118656054D01*
X137263649Y-118669683D01*
X137267166Y-118683724D01*
X137269290Y-118698042D01*
X137270000Y-118712500D01*
X137270000Y-119007500D01*
X137269290Y-119021958D01*
X137267166Y-119036276D01*
X137263649Y-119050317D01*
X137258772Y-119063946D01*
X137252583Y-119077031D01*
X137245142Y-119089447D01*
X137236519Y-119101073D01*
X137226798Y-119111798D01*
X137216073Y-119121519D01*
X137204447Y-119130142D01*
X137192031Y-119137583D01*
X137178946Y-119143772D01*
X137165317Y-119148649D01*
X137151276Y-119152166D01*
X137136958Y-119154290D01*
X137122500Y-119155000D01*
X136777500Y-119155000D01*
X136763042Y-119154290D01*
X136748724Y-119152166D01*
X136734683Y-119148649D01*
X136721054Y-119143772D01*
X136707969Y-119137583D01*
X136695553Y-119130142D01*
X136683927Y-119121519D01*
X136673202Y-119111798D01*
X136663481Y-119101073D01*
X136654858Y-119089447D01*
X136647417Y-119077031D01*
X136641228Y-119063946D01*
X136636351Y-119050317D01*
X136632834Y-119036276D01*
X136630710Y-119021958D01*
X136630000Y-119007500D01*
X136630000Y-118712500D01*
X136630710Y-118698042D01*
X136632834Y-118683724D01*
X136636351Y-118669683D01*
X136641228Y-118656054D01*
X136647417Y-118642969D01*
X136654858Y-118630553D01*
X136663481Y-118618927D01*
X136673202Y-118608202D01*
X136683927Y-118598481D01*
X136695553Y-118589858D01*
X136707969Y-118582417D01*
X136721054Y-118576228D01*
X136734683Y-118571351D01*
X136748724Y-118567834D01*
X136763042Y-118565710D01*
X136777500Y-118565000D01*
X137122500Y-118565000D01*
X137136958Y-118565710D01*
G37*
G36*
X137136958Y-117595710D02*
G01*
X137151276Y-117597834D01*
X137165317Y-117601351D01*
X137178946Y-117606228D01*
X137192031Y-117612417D01*
X137204447Y-117619858D01*
X137216073Y-117628481D01*
X137226798Y-117638202D01*
X137236519Y-117648927D01*
X137245142Y-117660553D01*
X137252583Y-117672969D01*
X137258772Y-117686054D01*
X137263649Y-117699683D01*
X137267166Y-117713724D01*
X137269290Y-117728042D01*
X137270000Y-117742500D01*
X137270000Y-118037500D01*
X137269290Y-118051958D01*
X137267166Y-118066276D01*
X137263649Y-118080317D01*
X137258772Y-118093946D01*
X137252583Y-118107031D01*
X137245142Y-118119447D01*
X137236519Y-118131073D01*
X137226798Y-118141798D01*
X137216073Y-118151519D01*
X137204447Y-118160142D01*
X137192031Y-118167583D01*
X137178946Y-118173772D01*
X137165317Y-118178649D01*
X137151276Y-118182166D01*
X137136958Y-118184290D01*
X137122500Y-118185000D01*
X136777500Y-118185000D01*
X136763042Y-118184290D01*
X136748724Y-118182166D01*
X136734683Y-118178649D01*
X136721054Y-118173772D01*
X136707969Y-118167583D01*
X136695553Y-118160142D01*
X136683927Y-118151519D01*
X136673202Y-118141798D01*
X136663481Y-118131073D01*
X136654858Y-118119447D01*
X136647417Y-118107031D01*
X136641228Y-118093946D01*
X136636351Y-118080317D01*
X136632834Y-118066276D01*
X136630710Y-118051958D01*
X136630000Y-118037500D01*
X136630000Y-117742500D01*
X136630710Y-117728042D01*
X136632834Y-117713724D01*
X136636351Y-117699683D01*
X136641228Y-117686054D01*
X136647417Y-117672969D01*
X136654858Y-117660553D01*
X136663481Y-117648927D01*
X136673202Y-117638202D01*
X136683927Y-117628481D01*
X136695553Y-117619858D01*
X136707969Y-117612417D01*
X136721054Y-117606228D01*
X136734683Y-117601351D01*
X136748724Y-117597834D01*
X136763042Y-117595710D01*
X136777500Y-117595000D01*
X137122500Y-117595000D01*
X137136958Y-117595710D01*
G37*
G36*
X136096958Y-115630710D02*
G01*
X136111276Y-115632834D01*
X136125317Y-115636351D01*
X136138946Y-115641228D01*
X136152031Y-115647417D01*
X136164447Y-115654858D01*
X136176073Y-115663481D01*
X136186798Y-115673202D01*
X136196519Y-115683927D01*
X136205142Y-115695553D01*
X136212583Y-115707969D01*
X136218772Y-115721054D01*
X136223649Y-115734683D01*
X136227166Y-115748724D01*
X136229290Y-115763042D01*
X136230000Y-115777500D01*
X136230000Y-116122500D01*
X136229290Y-116136958D01*
X136227166Y-116151276D01*
X136223649Y-116165317D01*
X136218772Y-116178946D01*
X136212583Y-116192031D01*
X136205142Y-116204447D01*
X136196519Y-116216073D01*
X136186798Y-116226798D01*
X136176073Y-116236519D01*
X136164447Y-116245142D01*
X136152031Y-116252583D01*
X136138946Y-116258772D01*
X136125317Y-116263649D01*
X136111276Y-116267166D01*
X136096958Y-116269290D01*
X136082500Y-116270000D01*
X135787500Y-116270000D01*
X135773042Y-116269290D01*
X135758724Y-116267166D01*
X135744683Y-116263649D01*
X135731054Y-116258772D01*
X135717969Y-116252583D01*
X135705553Y-116245142D01*
X135693927Y-116236519D01*
X135683202Y-116226798D01*
X135673481Y-116216073D01*
X135664858Y-116204447D01*
X135657417Y-116192031D01*
X135651228Y-116178946D01*
X135646351Y-116165317D01*
X135642834Y-116151276D01*
X135640710Y-116136958D01*
X135640000Y-116122500D01*
X135640000Y-115777500D01*
X135640710Y-115763042D01*
X135642834Y-115748724D01*
X135646351Y-115734683D01*
X135651228Y-115721054D01*
X135657417Y-115707969D01*
X135664858Y-115695553D01*
X135673481Y-115683927D01*
X135683202Y-115673202D01*
X135693927Y-115663481D01*
X135705553Y-115654858D01*
X135717969Y-115647417D01*
X135731054Y-115641228D01*
X135744683Y-115636351D01*
X135758724Y-115632834D01*
X135773042Y-115630710D01*
X135787500Y-115630000D01*
X136082500Y-115630000D01*
X136096958Y-115630710D01*
G37*
G36*
X135126958Y-115630710D02*
G01*
X135141276Y-115632834D01*
X135155317Y-115636351D01*
X135168946Y-115641228D01*
X135182031Y-115647417D01*
X135194447Y-115654858D01*
X135206073Y-115663481D01*
X135216798Y-115673202D01*
X135226519Y-115683927D01*
X135235142Y-115695553D01*
X135242583Y-115707969D01*
X135248772Y-115721054D01*
X135253649Y-115734683D01*
X135257166Y-115748724D01*
X135259290Y-115763042D01*
X135260000Y-115777500D01*
X135260000Y-116122500D01*
X135259290Y-116136958D01*
X135257166Y-116151276D01*
X135253649Y-116165317D01*
X135248772Y-116178946D01*
X135242583Y-116192031D01*
X135235142Y-116204447D01*
X135226519Y-116216073D01*
X135216798Y-116226798D01*
X135206073Y-116236519D01*
X135194447Y-116245142D01*
X135182031Y-116252583D01*
X135168946Y-116258772D01*
X135155317Y-116263649D01*
X135141276Y-116267166D01*
X135126958Y-116269290D01*
X135112500Y-116270000D01*
X134817500Y-116270000D01*
X134803042Y-116269290D01*
X134788724Y-116267166D01*
X134774683Y-116263649D01*
X134761054Y-116258772D01*
X134747969Y-116252583D01*
X134735553Y-116245142D01*
X134723927Y-116236519D01*
X134713202Y-116226798D01*
X134703481Y-116216073D01*
X134694858Y-116204447D01*
X134687417Y-116192031D01*
X134681228Y-116178946D01*
X134676351Y-116165317D01*
X134672834Y-116151276D01*
X134670710Y-116136958D01*
X134670000Y-116122500D01*
X134670000Y-115777500D01*
X134670710Y-115763042D01*
X134672834Y-115748724D01*
X134676351Y-115734683D01*
X134681228Y-115721054D01*
X134687417Y-115707969D01*
X134694858Y-115695553D01*
X134703481Y-115683927D01*
X134713202Y-115673202D01*
X134723927Y-115663481D01*
X134735553Y-115654858D01*
X134747969Y-115647417D01*
X134761054Y-115641228D01*
X134774683Y-115636351D01*
X134788724Y-115632834D01*
X134803042Y-115630710D01*
X134817500Y-115630000D01*
X135112500Y-115630000D01*
X135126958Y-115630710D01*
G37*
G36*
X113791958Y-124355710D02*
G01*
X113806276Y-124357834D01*
X113820317Y-124361351D01*
X113833946Y-124366228D01*
X113847031Y-124372417D01*
X113859447Y-124379858D01*
X113871073Y-124388481D01*
X113881798Y-124398202D01*
X113891519Y-124408927D01*
X113900142Y-124420553D01*
X113907583Y-124432969D01*
X113913772Y-124446054D01*
X113918649Y-124459683D01*
X113922166Y-124473724D01*
X113924290Y-124488042D01*
X113925000Y-124502500D01*
X113925000Y-124847500D01*
X113924290Y-124861958D01*
X113922166Y-124876276D01*
X113918649Y-124890317D01*
X113913772Y-124903946D01*
X113907583Y-124917031D01*
X113900142Y-124929447D01*
X113891519Y-124941073D01*
X113881798Y-124951798D01*
X113871073Y-124961519D01*
X113859447Y-124970142D01*
X113847031Y-124977583D01*
X113833946Y-124983772D01*
X113820317Y-124988649D01*
X113806276Y-124992166D01*
X113791958Y-124994290D01*
X113777500Y-124995000D01*
X113482500Y-124995000D01*
X113468042Y-124994290D01*
X113453724Y-124992166D01*
X113439683Y-124988649D01*
X113426054Y-124983772D01*
X113412969Y-124977583D01*
X113400553Y-124970142D01*
X113388927Y-124961519D01*
X113378202Y-124951798D01*
X113368481Y-124941073D01*
X113359858Y-124929447D01*
X113352417Y-124917031D01*
X113346228Y-124903946D01*
X113341351Y-124890317D01*
X113337834Y-124876276D01*
X113335710Y-124861958D01*
X113335000Y-124847500D01*
X113335000Y-124502500D01*
X113335710Y-124488042D01*
X113337834Y-124473724D01*
X113341351Y-124459683D01*
X113346228Y-124446054D01*
X113352417Y-124432969D01*
X113359858Y-124420553D01*
X113368481Y-124408927D01*
X113378202Y-124398202D01*
X113388927Y-124388481D01*
X113400553Y-124379858D01*
X113412969Y-124372417D01*
X113426054Y-124366228D01*
X113439683Y-124361351D01*
X113453724Y-124357834D01*
X113468042Y-124355710D01*
X113482500Y-124355000D01*
X113777500Y-124355000D01*
X113791958Y-124355710D01*
G37*
G36*
X114761958Y-124355710D02*
G01*
X114776276Y-124357834D01*
X114790317Y-124361351D01*
X114803946Y-124366228D01*
X114817031Y-124372417D01*
X114829447Y-124379858D01*
X114841073Y-124388481D01*
X114851798Y-124398202D01*
X114861519Y-124408927D01*
X114870142Y-124420553D01*
X114877583Y-124432969D01*
X114883772Y-124446054D01*
X114888649Y-124459683D01*
X114892166Y-124473724D01*
X114894290Y-124488042D01*
X114895000Y-124502500D01*
X114895000Y-124847500D01*
X114894290Y-124861958D01*
X114892166Y-124876276D01*
X114888649Y-124890317D01*
X114883772Y-124903946D01*
X114877583Y-124917031D01*
X114870142Y-124929447D01*
X114861519Y-124941073D01*
X114851798Y-124951798D01*
X114841073Y-124961519D01*
X114829447Y-124970142D01*
X114817031Y-124977583D01*
X114803946Y-124983772D01*
X114790317Y-124988649D01*
X114776276Y-124992166D01*
X114761958Y-124994290D01*
X114747500Y-124995000D01*
X114452500Y-124995000D01*
X114438042Y-124994290D01*
X114423724Y-124992166D01*
X114409683Y-124988649D01*
X114396054Y-124983772D01*
X114382969Y-124977583D01*
X114370553Y-124970142D01*
X114358927Y-124961519D01*
X114348202Y-124951798D01*
X114338481Y-124941073D01*
X114329858Y-124929447D01*
X114322417Y-124917031D01*
X114316228Y-124903946D01*
X114311351Y-124890317D01*
X114307834Y-124876276D01*
X114305710Y-124861958D01*
X114305000Y-124847500D01*
X114305000Y-124502500D01*
X114305710Y-124488042D01*
X114307834Y-124473724D01*
X114311351Y-124459683D01*
X114316228Y-124446054D01*
X114322417Y-124432969D01*
X114329858Y-124420553D01*
X114338481Y-124408927D01*
X114348202Y-124398202D01*
X114358927Y-124388481D01*
X114370553Y-124379858D01*
X114382969Y-124372417D01*
X114396054Y-124366228D01*
X114409683Y-124361351D01*
X114423724Y-124357834D01*
X114438042Y-124355710D01*
X114452500Y-124355000D01*
X114747500Y-124355000D01*
X114761958Y-124355710D01*
G37*
G36*
X113036958Y-117660710D02*
G01*
X113051276Y-117662834D01*
X113065317Y-117666351D01*
X113078946Y-117671228D01*
X113092031Y-117677417D01*
X113104447Y-117684858D01*
X113116073Y-117693481D01*
X113126798Y-117703202D01*
X113136519Y-117713927D01*
X113145142Y-117725553D01*
X113152583Y-117737969D01*
X113158772Y-117751054D01*
X113163649Y-117764683D01*
X113167166Y-117778724D01*
X113169290Y-117793042D01*
X113170000Y-117807500D01*
X113170000Y-118102500D01*
X113169290Y-118116958D01*
X113167166Y-118131276D01*
X113163649Y-118145317D01*
X113158772Y-118158946D01*
X113152583Y-118172031D01*
X113145142Y-118184447D01*
X113136519Y-118196073D01*
X113126798Y-118206798D01*
X113116073Y-118216519D01*
X113104447Y-118225142D01*
X113092031Y-118232583D01*
X113078946Y-118238772D01*
X113065317Y-118243649D01*
X113051276Y-118247166D01*
X113036958Y-118249290D01*
X113022500Y-118250000D01*
X112677500Y-118250000D01*
X112663042Y-118249290D01*
X112648724Y-118247166D01*
X112634683Y-118243649D01*
X112621054Y-118238772D01*
X112607969Y-118232583D01*
X112595553Y-118225142D01*
X112583927Y-118216519D01*
X112573202Y-118206798D01*
X112563481Y-118196073D01*
X112554858Y-118184447D01*
X112547417Y-118172031D01*
X112541228Y-118158946D01*
X112536351Y-118145317D01*
X112532834Y-118131276D01*
X112530710Y-118116958D01*
X112530000Y-118102500D01*
X112530000Y-117807500D01*
X112530710Y-117793042D01*
X112532834Y-117778724D01*
X112536351Y-117764683D01*
X112541228Y-117751054D01*
X112547417Y-117737969D01*
X112554858Y-117725553D01*
X112563481Y-117713927D01*
X112573202Y-117703202D01*
X112583927Y-117693481D01*
X112595553Y-117684858D01*
X112607969Y-117677417D01*
X112621054Y-117671228D01*
X112634683Y-117666351D01*
X112648724Y-117662834D01*
X112663042Y-117660710D01*
X112677500Y-117660000D01*
X113022500Y-117660000D01*
X113036958Y-117660710D01*
G37*
G36*
X113036958Y-118630710D02*
G01*
X113051276Y-118632834D01*
X113065317Y-118636351D01*
X113078946Y-118641228D01*
X113092031Y-118647417D01*
X113104447Y-118654858D01*
X113116073Y-118663481D01*
X113126798Y-118673202D01*
X113136519Y-118683927D01*
X113145142Y-118695553D01*
X113152583Y-118707969D01*
X113158772Y-118721054D01*
X113163649Y-118734683D01*
X113167166Y-118748724D01*
X113169290Y-118763042D01*
X113170000Y-118777500D01*
X113170000Y-119072500D01*
X113169290Y-119086958D01*
X113167166Y-119101276D01*
X113163649Y-119115317D01*
X113158772Y-119128946D01*
X113152583Y-119142031D01*
X113145142Y-119154447D01*
X113136519Y-119166073D01*
X113126798Y-119176798D01*
X113116073Y-119186519D01*
X113104447Y-119195142D01*
X113092031Y-119202583D01*
X113078946Y-119208772D01*
X113065317Y-119213649D01*
X113051276Y-119217166D01*
X113036958Y-119219290D01*
X113022500Y-119220000D01*
X112677500Y-119220000D01*
X112663042Y-119219290D01*
X112648724Y-119217166D01*
X112634683Y-119213649D01*
X112621054Y-119208772D01*
X112607969Y-119202583D01*
X112595553Y-119195142D01*
X112583927Y-119186519D01*
X112573202Y-119176798D01*
X112563481Y-119166073D01*
X112554858Y-119154447D01*
X112547417Y-119142031D01*
X112541228Y-119128946D01*
X112536351Y-119115317D01*
X112532834Y-119101276D01*
X112530710Y-119086958D01*
X112530000Y-119072500D01*
X112530000Y-118777500D01*
X112530710Y-118763042D01*
X112532834Y-118748724D01*
X112536351Y-118734683D01*
X112541228Y-118721054D01*
X112547417Y-118707969D01*
X112554858Y-118695553D01*
X112563481Y-118683927D01*
X112573202Y-118673202D01*
X112583927Y-118663481D01*
X112595553Y-118654858D01*
X112607969Y-118647417D01*
X112621054Y-118641228D01*
X112634683Y-118636351D01*
X112648724Y-118632834D01*
X112663042Y-118630710D01*
X112677500Y-118630000D01*
X113022500Y-118630000D01*
X113036958Y-118630710D01*
G37*
G36*
X133986958Y-131615710D02*
G01*
X134001276Y-131617834D01*
X134015317Y-131621351D01*
X134028946Y-131626228D01*
X134042031Y-131632417D01*
X134054447Y-131639858D01*
X134066073Y-131648481D01*
X134076798Y-131658202D01*
X134086519Y-131668927D01*
X134095142Y-131680553D01*
X134102583Y-131692969D01*
X134108772Y-131706054D01*
X134113649Y-131719683D01*
X134117166Y-131733724D01*
X134119290Y-131748042D01*
X134120000Y-131762500D01*
X134120000Y-132057500D01*
X134119290Y-132071958D01*
X134117166Y-132086276D01*
X134113649Y-132100317D01*
X134108772Y-132113946D01*
X134102583Y-132127031D01*
X134095142Y-132139447D01*
X134086519Y-132151073D01*
X134076798Y-132161798D01*
X134066073Y-132171519D01*
X134054447Y-132180142D01*
X134042031Y-132187583D01*
X134028946Y-132193772D01*
X134015317Y-132198649D01*
X134001276Y-132202166D01*
X133986958Y-132204290D01*
X133972500Y-132205000D01*
X133627500Y-132205000D01*
X133613042Y-132204290D01*
X133598724Y-132202166D01*
X133584683Y-132198649D01*
X133571054Y-132193772D01*
X133557969Y-132187583D01*
X133545553Y-132180142D01*
X133533927Y-132171519D01*
X133523202Y-132161798D01*
X133513481Y-132151073D01*
X133504858Y-132139447D01*
X133497417Y-132127031D01*
X133491228Y-132113946D01*
X133486351Y-132100317D01*
X133482834Y-132086276D01*
X133480710Y-132071958D01*
X133480000Y-132057500D01*
X133480000Y-131762500D01*
X133480710Y-131748042D01*
X133482834Y-131733724D01*
X133486351Y-131719683D01*
X133491228Y-131706054D01*
X133497417Y-131692969D01*
X133504858Y-131680553D01*
X133513481Y-131668927D01*
X133523202Y-131658202D01*
X133533927Y-131648481D01*
X133545553Y-131639858D01*
X133557969Y-131632417D01*
X133571054Y-131626228D01*
X133584683Y-131621351D01*
X133598724Y-131617834D01*
X133613042Y-131615710D01*
X133627500Y-131615000D01*
X133972500Y-131615000D01*
X133986958Y-131615710D01*
G37*
G36*
X133986958Y-130645710D02*
G01*
X134001276Y-130647834D01*
X134015317Y-130651351D01*
X134028946Y-130656228D01*
X134042031Y-130662417D01*
X134054447Y-130669858D01*
X134066073Y-130678481D01*
X134076798Y-130688202D01*
X134086519Y-130698927D01*
X134095142Y-130710553D01*
X134102583Y-130722969D01*
X134108772Y-130736054D01*
X134113649Y-130749683D01*
X134117166Y-130763724D01*
X134119290Y-130778042D01*
X134120000Y-130792500D01*
X134120000Y-131087500D01*
X134119290Y-131101958D01*
X134117166Y-131116276D01*
X134113649Y-131130317D01*
X134108772Y-131143946D01*
X134102583Y-131157031D01*
X134095142Y-131169447D01*
X134086519Y-131181073D01*
X134076798Y-131191798D01*
X134066073Y-131201519D01*
X134054447Y-131210142D01*
X134042031Y-131217583D01*
X134028946Y-131223772D01*
X134015317Y-131228649D01*
X134001276Y-131232166D01*
X133986958Y-131234290D01*
X133972500Y-131235000D01*
X133627500Y-131235000D01*
X133613042Y-131234290D01*
X133598724Y-131232166D01*
X133584683Y-131228649D01*
X133571054Y-131223772D01*
X133557969Y-131217583D01*
X133545553Y-131210142D01*
X133533927Y-131201519D01*
X133523202Y-131191798D01*
X133513481Y-131181073D01*
X133504858Y-131169447D01*
X133497417Y-131157031D01*
X133491228Y-131143946D01*
X133486351Y-131130317D01*
X133482834Y-131116276D01*
X133480710Y-131101958D01*
X133480000Y-131087500D01*
X133480000Y-130792500D01*
X133480710Y-130778042D01*
X133482834Y-130763724D01*
X133486351Y-130749683D01*
X133491228Y-130736054D01*
X133497417Y-130722969D01*
X133504858Y-130710553D01*
X133513481Y-130698927D01*
X133523202Y-130688202D01*
X133533927Y-130678481D01*
X133545553Y-130669858D01*
X133557969Y-130662417D01*
X133571054Y-130656228D01*
X133584683Y-130651351D01*
X133598724Y-130647834D01*
X133613042Y-130645710D01*
X133627500Y-130645000D01*
X133972500Y-130645000D01*
X133986958Y-130645710D01*
G37*
G36*
X142961958Y-130510710D02*
G01*
X142976276Y-130512834D01*
X142990317Y-130516351D01*
X143003946Y-130521228D01*
X143017031Y-130527417D01*
X143029447Y-130534858D01*
X143041073Y-130543481D01*
X143051798Y-130553202D01*
X143061519Y-130563927D01*
X143070142Y-130575553D01*
X143077583Y-130587969D01*
X143083772Y-130601054D01*
X143088649Y-130614683D01*
X143092166Y-130628724D01*
X143094290Y-130643042D01*
X143095000Y-130657500D01*
X143095000Y-130952500D01*
X143094290Y-130966958D01*
X143092166Y-130981276D01*
X143088649Y-130995317D01*
X143083772Y-131008946D01*
X143077583Y-131022031D01*
X143070142Y-131034447D01*
X143061519Y-131046073D01*
X143051798Y-131056798D01*
X143041073Y-131066519D01*
X143029447Y-131075142D01*
X143017031Y-131082583D01*
X143003946Y-131088772D01*
X142990317Y-131093649D01*
X142976276Y-131097166D01*
X142961958Y-131099290D01*
X142947500Y-131100000D01*
X142602500Y-131100000D01*
X142588042Y-131099290D01*
X142573724Y-131097166D01*
X142559683Y-131093649D01*
X142546054Y-131088772D01*
X142532969Y-131082583D01*
X142520553Y-131075142D01*
X142508927Y-131066519D01*
X142498202Y-131056798D01*
X142488481Y-131046073D01*
X142479858Y-131034447D01*
X142472417Y-131022031D01*
X142466228Y-131008946D01*
X142461351Y-130995317D01*
X142457834Y-130981276D01*
X142455710Y-130966958D01*
X142455000Y-130952500D01*
X142455000Y-130657500D01*
X142455710Y-130643042D01*
X142457834Y-130628724D01*
X142461351Y-130614683D01*
X142466228Y-130601054D01*
X142472417Y-130587969D01*
X142479858Y-130575553D01*
X142488481Y-130563927D01*
X142498202Y-130553202D01*
X142508927Y-130543481D01*
X142520553Y-130534858D01*
X142532969Y-130527417D01*
X142546054Y-130521228D01*
X142559683Y-130516351D01*
X142573724Y-130512834D01*
X142588042Y-130510710D01*
X142602500Y-130510000D01*
X142947500Y-130510000D01*
X142961958Y-130510710D01*
G37*
G36*
X142961958Y-131480710D02*
G01*
X142976276Y-131482834D01*
X142990317Y-131486351D01*
X143003946Y-131491228D01*
X143017031Y-131497417D01*
X143029447Y-131504858D01*
X143041073Y-131513481D01*
X143051798Y-131523202D01*
X143061519Y-131533927D01*
X143070142Y-131545553D01*
X143077583Y-131557969D01*
X143083772Y-131571054D01*
X143088649Y-131584683D01*
X143092166Y-131598724D01*
X143094290Y-131613042D01*
X143095000Y-131627500D01*
X143095000Y-131922500D01*
X143094290Y-131936958D01*
X143092166Y-131951276D01*
X143088649Y-131965317D01*
X143083772Y-131978946D01*
X143077583Y-131992031D01*
X143070142Y-132004447D01*
X143061519Y-132016073D01*
X143051798Y-132026798D01*
X143041073Y-132036519D01*
X143029447Y-132045142D01*
X143017031Y-132052583D01*
X143003946Y-132058772D01*
X142990317Y-132063649D01*
X142976276Y-132067166D01*
X142961958Y-132069290D01*
X142947500Y-132070000D01*
X142602500Y-132070000D01*
X142588042Y-132069290D01*
X142573724Y-132067166D01*
X142559683Y-132063649D01*
X142546054Y-132058772D01*
X142532969Y-132052583D01*
X142520553Y-132045142D01*
X142508927Y-132036519D01*
X142498202Y-132026798D01*
X142488481Y-132016073D01*
X142479858Y-132004447D01*
X142472417Y-131992031D01*
X142466228Y-131978946D01*
X142461351Y-131965317D01*
X142457834Y-131951276D01*
X142455710Y-131936958D01*
X142455000Y-131922500D01*
X142455000Y-131627500D01*
X142455710Y-131613042D01*
X142457834Y-131598724D01*
X142461351Y-131584683D01*
X142466228Y-131571054D01*
X142472417Y-131557969D01*
X142479858Y-131545553D01*
X142488481Y-131533927D01*
X142498202Y-131523202D01*
X142508927Y-131513481D01*
X142520553Y-131504858D01*
X142532969Y-131497417D01*
X142546054Y-131491228D01*
X142559683Y-131486351D01*
X142573724Y-131482834D01*
X142588042Y-131480710D01*
X142602500Y-131480000D01*
X142947500Y-131480000D01*
X142961958Y-131480710D01*
G37*
D20*
X130902500Y-114980000D03*
X132957500Y-114977500D03*
X130902500Y-116877500D03*
X132957500Y-116877500D03*
D21*
X131927500Y-114802500D03*
X131930000Y-117025000D03*
D12*
G36*
X140446958Y-107305710D02*
G01*
X140461276Y-107307834D01*
X140475317Y-107311351D01*
X140488946Y-107316228D01*
X140502031Y-107322417D01*
X140514447Y-107329858D01*
X140526073Y-107338481D01*
X140536798Y-107348202D01*
X140546519Y-107358927D01*
X140555142Y-107370553D01*
X140562583Y-107382969D01*
X140568772Y-107396054D01*
X140573649Y-107409683D01*
X140577166Y-107423724D01*
X140579290Y-107438042D01*
X140580000Y-107452500D01*
X140580000Y-107797500D01*
X140579290Y-107811958D01*
X140577166Y-107826276D01*
X140573649Y-107840317D01*
X140568772Y-107853946D01*
X140562583Y-107867031D01*
X140555142Y-107879447D01*
X140546519Y-107891073D01*
X140536798Y-107901798D01*
X140526073Y-107911519D01*
X140514447Y-107920142D01*
X140502031Y-107927583D01*
X140488946Y-107933772D01*
X140475317Y-107938649D01*
X140461276Y-107942166D01*
X140446958Y-107944290D01*
X140432500Y-107945000D01*
X140137500Y-107945000D01*
X140123042Y-107944290D01*
X140108724Y-107942166D01*
X140094683Y-107938649D01*
X140081054Y-107933772D01*
X140067969Y-107927583D01*
X140055553Y-107920142D01*
X140043927Y-107911519D01*
X140033202Y-107901798D01*
X140023481Y-107891073D01*
X140014858Y-107879447D01*
X140007417Y-107867031D01*
X140001228Y-107853946D01*
X139996351Y-107840317D01*
X139992834Y-107826276D01*
X139990710Y-107811958D01*
X139990000Y-107797500D01*
X139990000Y-107452500D01*
X139990710Y-107438042D01*
X139992834Y-107423724D01*
X139996351Y-107409683D01*
X140001228Y-107396054D01*
X140007417Y-107382969D01*
X140014858Y-107370553D01*
X140023481Y-107358927D01*
X140033202Y-107348202D01*
X140043927Y-107338481D01*
X140055553Y-107329858D01*
X140067969Y-107322417D01*
X140081054Y-107316228D01*
X140094683Y-107311351D01*
X140108724Y-107307834D01*
X140123042Y-107305710D01*
X140137500Y-107305000D01*
X140432500Y-107305000D01*
X140446958Y-107305710D01*
G37*
G36*
X139476958Y-107305710D02*
G01*
X139491276Y-107307834D01*
X139505317Y-107311351D01*
X139518946Y-107316228D01*
X139532031Y-107322417D01*
X139544447Y-107329858D01*
X139556073Y-107338481D01*
X139566798Y-107348202D01*
X139576519Y-107358927D01*
X139585142Y-107370553D01*
X139592583Y-107382969D01*
X139598772Y-107396054D01*
X139603649Y-107409683D01*
X139607166Y-107423724D01*
X139609290Y-107438042D01*
X139610000Y-107452500D01*
X139610000Y-107797500D01*
X139609290Y-107811958D01*
X139607166Y-107826276D01*
X139603649Y-107840317D01*
X139598772Y-107853946D01*
X139592583Y-107867031D01*
X139585142Y-107879447D01*
X139576519Y-107891073D01*
X139566798Y-107901798D01*
X139556073Y-107911519D01*
X139544447Y-107920142D01*
X139532031Y-107927583D01*
X139518946Y-107933772D01*
X139505317Y-107938649D01*
X139491276Y-107942166D01*
X139476958Y-107944290D01*
X139462500Y-107945000D01*
X139167500Y-107945000D01*
X139153042Y-107944290D01*
X139138724Y-107942166D01*
X139124683Y-107938649D01*
X139111054Y-107933772D01*
X139097969Y-107927583D01*
X139085553Y-107920142D01*
X139073927Y-107911519D01*
X139063202Y-107901798D01*
X139053481Y-107891073D01*
X139044858Y-107879447D01*
X139037417Y-107867031D01*
X139031228Y-107853946D01*
X139026351Y-107840317D01*
X139022834Y-107826276D01*
X139020710Y-107811958D01*
X139020000Y-107797500D01*
X139020000Y-107452500D01*
X139020710Y-107438042D01*
X139022834Y-107423724D01*
X139026351Y-107409683D01*
X139031228Y-107396054D01*
X139037417Y-107382969D01*
X139044858Y-107370553D01*
X139053481Y-107358927D01*
X139063202Y-107348202D01*
X139073927Y-107338481D01*
X139085553Y-107329858D01*
X139097969Y-107322417D01*
X139111054Y-107316228D01*
X139124683Y-107311351D01*
X139138724Y-107307834D01*
X139153042Y-107305710D01*
X139167500Y-107305000D01*
X139462500Y-107305000D01*
X139476958Y-107305710D01*
G37*
G36*
X133101958Y-113280710D02*
G01*
X133116276Y-113282834D01*
X133130317Y-113286351D01*
X133143946Y-113291228D01*
X133157031Y-113297417D01*
X133169447Y-113304858D01*
X133181073Y-113313481D01*
X133191798Y-113323202D01*
X133201519Y-113333927D01*
X133210142Y-113345553D01*
X133217583Y-113357969D01*
X133223772Y-113371054D01*
X133228649Y-113384683D01*
X133232166Y-113398724D01*
X133234290Y-113413042D01*
X133235000Y-113427500D01*
X133235000Y-113772500D01*
X133234290Y-113786958D01*
X133232166Y-113801276D01*
X133228649Y-113815317D01*
X133223772Y-113828946D01*
X133217583Y-113842031D01*
X133210142Y-113854447D01*
X133201519Y-113866073D01*
X133191798Y-113876798D01*
X133181073Y-113886519D01*
X133169447Y-113895142D01*
X133157031Y-113902583D01*
X133143946Y-113908772D01*
X133130317Y-113913649D01*
X133116276Y-113917166D01*
X133101958Y-113919290D01*
X133087500Y-113920000D01*
X132792500Y-113920000D01*
X132778042Y-113919290D01*
X132763724Y-113917166D01*
X132749683Y-113913649D01*
X132736054Y-113908772D01*
X132722969Y-113902583D01*
X132710553Y-113895142D01*
X132698927Y-113886519D01*
X132688202Y-113876798D01*
X132678481Y-113866073D01*
X132669858Y-113854447D01*
X132662417Y-113842031D01*
X132656228Y-113828946D01*
X132651351Y-113815317D01*
X132647834Y-113801276D01*
X132645710Y-113786958D01*
X132645000Y-113772500D01*
X132645000Y-113427500D01*
X132645710Y-113413042D01*
X132647834Y-113398724D01*
X132651351Y-113384683D01*
X132656228Y-113371054D01*
X132662417Y-113357969D01*
X132669858Y-113345553D01*
X132678481Y-113333927D01*
X132688202Y-113323202D01*
X132698927Y-113313481D01*
X132710553Y-113304858D01*
X132722969Y-113297417D01*
X132736054Y-113291228D01*
X132749683Y-113286351D01*
X132763724Y-113282834D01*
X132778042Y-113280710D01*
X132792500Y-113280000D01*
X133087500Y-113280000D01*
X133101958Y-113280710D01*
G37*
G36*
X134071958Y-113280710D02*
G01*
X134086276Y-113282834D01*
X134100317Y-113286351D01*
X134113946Y-113291228D01*
X134127031Y-113297417D01*
X134139447Y-113304858D01*
X134151073Y-113313481D01*
X134161798Y-113323202D01*
X134171519Y-113333927D01*
X134180142Y-113345553D01*
X134187583Y-113357969D01*
X134193772Y-113371054D01*
X134198649Y-113384683D01*
X134202166Y-113398724D01*
X134204290Y-113413042D01*
X134205000Y-113427500D01*
X134205000Y-113772500D01*
X134204290Y-113786958D01*
X134202166Y-113801276D01*
X134198649Y-113815317D01*
X134193772Y-113828946D01*
X134187583Y-113842031D01*
X134180142Y-113854447D01*
X134171519Y-113866073D01*
X134161798Y-113876798D01*
X134151073Y-113886519D01*
X134139447Y-113895142D01*
X134127031Y-113902583D01*
X134113946Y-113908772D01*
X134100317Y-113913649D01*
X134086276Y-113917166D01*
X134071958Y-113919290D01*
X134057500Y-113920000D01*
X133762500Y-113920000D01*
X133748042Y-113919290D01*
X133733724Y-113917166D01*
X133719683Y-113913649D01*
X133706054Y-113908772D01*
X133692969Y-113902583D01*
X133680553Y-113895142D01*
X133668927Y-113886519D01*
X133658202Y-113876798D01*
X133648481Y-113866073D01*
X133639858Y-113854447D01*
X133632417Y-113842031D01*
X133626228Y-113828946D01*
X133621351Y-113815317D01*
X133617834Y-113801276D01*
X133615710Y-113786958D01*
X133615000Y-113772500D01*
X133615000Y-113427500D01*
X133615710Y-113413042D01*
X133617834Y-113398724D01*
X133621351Y-113384683D01*
X133626228Y-113371054D01*
X133632417Y-113357969D01*
X133639858Y-113345553D01*
X133648481Y-113333927D01*
X133658202Y-113323202D01*
X133668927Y-113313481D01*
X133680553Y-113304858D01*
X133692969Y-113297417D01*
X133706054Y-113291228D01*
X133719683Y-113286351D01*
X133733724Y-113282834D01*
X133748042Y-113280710D01*
X133762500Y-113280000D01*
X134057500Y-113280000D01*
X134071958Y-113280710D01*
G37*
G36*
X138186958Y-115615710D02*
G01*
X138201276Y-115617834D01*
X138215317Y-115621351D01*
X138228946Y-115626228D01*
X138242031Y-115632417D01*
X138254447Y-115639858D01*
X138266073Y-115648481D01*
X138276798Y-115658202D01*
X138286519Y-115668927D01*
X138295142Y-115680553D01*
X138302583Y-115692969D01*
X138308772Y-115706054D01*
X138313649Y-115719683D01*
X138317166Y-115733724D01*
X138319290Y-115748042D01*
X138320000Y-115762500D01*
X138320000Y-116057500D01*
X138319290Y-116071958D01*
X138317166Y-116086276D01*
X138313649Y-116100317D01*
X138308772Y-116113946D01*
X138302583Y-116127031D01*
X138295142Y-116139447D01*
X138286519Y-116151073D01*
X138276798Y-116161798D01*
X138266073Y-116171519D01*
X138254447Y-116180142D01*
X138242031Y-116187583D01*
X138228946Y-116193772D01*
X138215317Y-116198649D01*
X138201276Y-116202166D01*
X138186958Y-116204290D01*
X138172500Y-116205000D01*
X137827500Y-116205000D01*
X137813042Y-116204290D01*
X137798724Y-116202166D01*
X137784683Y-116198649D01*
X137771054Y-116193772D01*
X137757969Y-116187583D01*
X137745553Y-116180142D01*
X137733927Y-116171519D01*
X137723202Y-116161798D01*
X137713481Y-116151073D01*
X137704858Y-116139447D01*
X137697417Y-116127031D01*
X137691228Y-116113946D01*
X137686351Y-116100317D01*
X137682834Y-116086276D01*
X137680710Y-116071958D01*
X137680000Y-116057500D01*
X137680000Y-115762500D01*
X137680710Y-115748042D01*
X137682834Y-115733724D01*
X137686351Y-115719683D01*
X137691228Y-115706054D01*
X137697417Y-115692969D01*
X137704858Y-115680553D01*
X137713481Y-115668927D01*
X137723202Y-115658202D01*
X137733927Y-115648481D01*
X137745553Y-115639858D01*
X137757969Y-115632417D01*
X137771054Y-115626228D01*
X137784683Y-115621351D01*
X137798724Y-115617834D01*
X137813042Y-115615710D01*
X137827500Y-115615000D01*
X138172500Y-115615000D01*
X138186958Y-115615710D01*
G37*
G36*
X138186958Y-114645710D02*
G01*
X138201276Y-114647834D01*
X138215317Y-114651351D01*
X138228946Y-114656228D01*
X138242031Y-114662417D01*
X138254447Y-114669858D01*
X138266073Y-114678481D01*
X138276798Y-114688202D01*
X138286519Y-114698927D01*
X138295142Y-114710553D01*
X138302583Y-114722969D01*
X138308772Y-114736054D01*
X138313649Y-114749683D01*
X138317166Y-114763724D01*
X138319290Y-114778042D01*
X138320000Y-114792500D01*
X138320000Y-115087500D01*
X138319290Y-115101958D01*
X138317166Y-115116276D01*
X138313649Y-115130317D01*
X138308772Y-115143946D01*
X138302583Y-115157031D01*
X138295142Y-115169447D01*
X138286519Y-115181073D01*
X138276798Y-115191798D01*
X138266073Y-115201519D01*
X138254447Y-115210142D01*
X138242031Y-115217583D01*
X138228946Y-115223772D01*
X138215317Y-115228649D01*
X138201276Y-115232166D01*
X138186958Y-115234290D01*
X138172500Y-115235000D01*
X137827500Y-115235000D01*
X137813042Y-115234290D01*
X137798724Y-115232166D01*
X137784683Y-115228649D01*
X137771054Y-115223772D01*
X137757969Y-115217583D01*
X137745553Y-115210142D01*
X137733927Y-115201519D01*
X137723202Y-115191798D01*
X137713481Y-115181073D01*
X137704858Y-115169447D01*
X137697417Y-115157031D01*
X137691228Y-115143946D01*
X137686351Y-115130317D01*
X137682834Y-115116276D01*
X137680710Y-115101958D01*
X137680000Y-115087500D01*
X137680000Y-114792500D01*
X137680710Y-114778042D01*
X137682834Y-114763724D01*
X137686351Y-114749683D01*
X137691228Y-114736054D01*
X137697417Y-114722969D01*
X137704858Y-114710553D01*
X137713481Y-114698927D01*
X137723202Y-114688202D01*
X137733927Y-114678481D01*
X137745553Y-114669858D01*
X137757969Y-114662417D01*
X137771054Y-114656228D01*
X137784683Y-114651351D01*
X137798724Y-114647834D01*
X137813042Y-114645710D01*
X137827500Y-114645000D01*
X138172500Y-114645000D01*
X138186958Y-114645710D01*
G37*
G36*
X137161958Y-116590710D02*
G01*
X137176276Y-116592834D01*
X137190317Y-116596351D01*
X137203946Y-116601228D01*
X137217031Y-116607417D01*
X137229447Y-116614858D01*
X137241073Y-116623481D01*
X137251798Y-116633202D01*
X137261519Y-116643927D01*
X137270142Y-116655553D01*
X137277583Y-116667969D01*
X137283772Y-116681054D01*
X137288649Y-116694683D01*
X137292166Y-116708724D01*
X137294290Y-116723042D01*
X137295000Y-116737500D01*
X137295000Y-117032500D01*
X137294290Y-117046958D01*
X137292166Y-117061276D01*
X137288649Y-117075317D01*
X137283772Y-117088946D01*
X137277583Y-117102031D01*
X137270142Y-117114447D01*
X137261519Y-117126073D01*
X137251798Y-117136798D01*
X137241073Y-117146519D01*
X137229447Y-117155142D01*
X137217031Y-117162583D01*
X137203946Y-117168772D01*
X137190317Y-117173649D01*
X137176276Y-117177166D01*
X137161958Y-117179290D01*
X137147500Y-117180000D01*
X136802500Y-117180000D01*
X136788042Y-117179290D01*
X136773724Y-117177166D01*
X136759683Y-117173649D01*
X136746054Y-117168772D01*
X136732969Y-117162583D01*
X136720553Y-117155142D01*
X136708927Y-117146519D01*
X136698202Y-117136798D01*
X136688481Y-117126073D01*
X136679858Y-117114447D01*
X136672417Y-117102031D01*
X136666228Y-117088946D01*
X136661351Y-117075317D01*
X136657834Y-117061276D01*
X136655710Y-117046958D01*
X136655000Y-117032500D01*
X136655000Y-116737500D01*
X136655710Y-116723042D01*
X136657834Y-116708724D01*
X136661351Y-116694683D01*
X136666228Y-116681054D01*
X136672417Y-116667969D01*
X136679858Y-116655553D01*
X136688481Y-116643927D01*
X136698202Y-116633202D01*
X136708927Y-116623481D01*
X136720553Y-116614858D01*
X136732969Y-116607417D01*
X136746054Y-116601228D01*
X136759683Y-116596351D01*
X136773724Y-116592834D01*
X136788042Y-116590710D01*
X136802500Y-116590000D01*
X137147500Y-116590000D01*
X137161958Y-116590710D01*
G37*
G36*
X137161958Y-115620710D02*
G01*
X137176276Y-115622834D01*
X137190317Y-115626351D01*
X137203946Y-115631228D01*
X137217031Y-115637417D01*
X137229447Y-115644858D01*
X137241073Y-115653481D01*
X137251798Y-115663202D01*
X137261519Y-115673927D01*
X137270142Y-115685553D01*
X137277583Y-115697969D01*
X137283772Y-115711054D01*
X137288649Y-115724683D01*
X137292166Y-115738724D01*
X137294290Y-115753042D01*
X137295000Y-115767500D01*
X137295000Y-116062500D01*
X137294290Y-116076958D01*
X137292166Y-116091276D01*
X137288649Y-116105317D01*
X137283772Y-116118946D01*
X137277583Y-116132031D01*
X137270142Y-116144447D01*
X137261519Y-116156073D01*
X137251798Y-116166798D01*
X137241073Y-116176519D01*
X137229447Y-116185142D01*
X137217031Y-116192583D01*
X137203946Y-116198772D01*
X137190317Y-116203649D01*
X137176276Y-116207166D01*
X137161958Y-116209290D01*
X137147500Y-116210000D01*
X136802500Y-116210000D01*
X136788042Y-116209290D01*
X136773724Y-116207166D01*
X136759683Y-116203649D01*
X136746054Y-116198772D01*
X136732969Y-116192583D01*
X136720553Y-116185142D01*
X136708927Y-116176519D01*
X136698202Y-116166798D01*
X136688481Y-116156073D01*
X136679858Y-116144447D01*
X136672417Y-116132031D01*
X136666228Y-116118946D01*
X136661351Y-116105317D01*
X136657834Y-116091276D01*
X136655710Y-116076958D01*
X136655000Y-116062500D01*
X136655000Y-115767500D01*
X136655710Y-115753042D01*
X136657834Y-115738724D01*
X136661351Y-115724683D01*
X136666228Y-115711054D01*
X136672417Y-115697969D01*
X136679858Y-115685553D01*
X136688481Y-115673927D01*
X136698202Y-115663202D01*
X136708927Y-115653481D01*
X136720553Y-115644858D01*
X136732969Y-115637417D01*
X136746054Y-115631228D01*
X136759683Y-115626351D01*
X136773724Y-115622834D01*
X136788042Y-115620710D01*
X136802500Y-115620000D01*
X137147500Y-115620000D01*
X137161958Y-115620710D01*
G37*
D22*
X151390000Y-120460000D03*
X153390000Y-119510000D03*
X153390000Y-121410000D03*
X147790000Y-121305000D03*
X147790000Y-119405000D03*
X145790000Y-120355000D03*
D12*
G36*
X135871958Y-130745710D02*
G01*
X135886276Y-130747834D01*
X135900317Y-130751351D01*
X135913946Y-130756228D01*
X135927031Y-130762417D01*
X135939447Y-130769858D01*
X135951073Y-130778481D01*
X135961798Y-130788202D01*
X135971519Y-130798927D01*
X135980142Y-130810553D01*
X135987583Y-130822969D01*
X135993772Y-130836054D01*
X135998649Y-130849683D01*
X136002166Y-130863724D01*
X136004290Y-130878042D01*
X136005000Y-130892500D01*
X136005000Y-131187500D01*
X136004290Y-131201958D01*
X136002166Y-131216276D01*
X135998649Y-131230317D01*
X135993772Y-131243946D01*
X135987583Y-131257031D01*
X135980142Y-131269447D01*
X135971519Y-131281073D01*
X135961798Y-131291798D01*
X135951073Y-131301519D01*
X135939447Y-131310142D01*
X135927031Y-131317583D01*
X135913946Y-131323772D01*
X135900317Y-131328649D01*
X135886276Y-131332166D01*
X135871958Y-131334290D01*
X135857500Y-131335000D01*
X135512500Y-131335000D01*
X135498042Y-131334290D01*
X135483724Y-131332166D01*
X135469683Y-131328649D01*
X135456054Y-131323772D01*
X135442969Y-131317583D01*
X135430553Y-131310142D01*
X135418927Y-131301519D01*
X135408202Y-131291798D01*
X135398481Y-131281073D01*
X135389858Y-131269447D01*
X135382417Y-131257031D01*
X135376228Y-131243946D01*
X135371351Y-131230317D01*
X135367834Y-131216276D01*
X135365710Y-131201958D01*
X135365000Y-131187500D01*
X135365000Y-130892500D01*
X135365710Y-130878042D01*
X135367834Y-130863724D01*
X135371351Y-130849683D01*
X135376228Y-130836054D01*
X135382417Y-130822969D01*
X135389858Y-130810553D01*
X135398481Y-130798927D01*
X135408202Y-130788202D01*
X135418927Y-130778481D01*
X135430553Y-130769858D01*
X135442969Y-130762417D01*
X135456054Y-130756228D01*
X135469683Y-130751351D01*
X135483724Y-130747834D01*
X135498042Y-130745710D01*
X135512500Y-130745000D01*
X135857500Y-130745000D01*
X135871958Y-130745710D01*
G37*
G36*
X135871958Y-131715710D02*
G01*
X135886276Y-131717834D01*
X135900317Y-131721351D01*
X135913946Y-131726228D01*
X135927031Y-131732417D01*
X135939447Y-131739858D01*
X135951073Y-131748481D01*
X135961798Y-131758202D01*
X135971519Y-131768927D01*
X135980142Y-131780553D01*
X135987583Y-131792969D01*
X135993772Y-131806054D01*
X135998649Y-131819683D01*
X136002166Y-131833724D01*
X136004290Y-131848042D01*
X136005000Y-131862500D01*
X136005000Y-132157500D01*
X136004290Y-132171958D01*
X136002166Y-132186276D01*
X135998649Y-132200317D01*
X135993772Y-132213946D01*
X135987583Y-132227031D01*
X135980142Y-132239447D01*
X135971519Y-132251073D01*
X135961798Y-132261798D01*
X135951073Y-132271519D01*
X135939447Y-132280142D01*
X135927031Y-132287583D01*
X135913946Y-132293772D01*
X135900317Y-132298649D01*
X135886276Y-132302166D01*
X135871958Y-132304290D01*
X135857500Y-132305000D01*
X135512500Y-132305000D01*
X135498042Y-132304290D01*
X135483724Y-132302166D01*
X135469683Y-132298649D01*
X135456054Y-132293772D01*
X135442969Y-132287583D01*
X135430553Y-132280142D01*
X135418927Y-132271519D01*
X135408202Y-132261798D01*
X135398481Y-132251073D01*
X135389858Y-132239447D01*
X135382417Y-132227031D01*
X135376228Y-132213946D01*
X135371351Y-132200317D01*
X135367834Y-132186276D01*
X135365710Y-132171958D01*
X135365000Y-132157500D01*
X135365000Y-131862500D01*
X135365710Y-131848042D01*
X135367834Y-131833724D01*
X135371351Y-131819683D01*
X135376228Y-131806054D01*
X135382417Y-131792969D01*
X135389858Y-131780553D01*
X135398481Y-131768927D01*
X135408202Y-131758202D01*
X135418927Y-131748481D01*
X135430553Y-131739858D01*
X135442969Y-131732417D01*
X135456054Y-131726228D01*
X135469683Y-131721351D01*
X135483724Y-131717834D01*
X135498042Y-131715710D01*
X135512500Y-131715000D01*
X135857500Y-131715000D01*
X135871958Y-131715710D01*
G37*
G36*
X123291958Y-125635710D02*
G01*
X123306276Y-125637834D01*
X123320317Y-125641351D01*
X123333946Y-125646228D01*
X123347031Y-125652417D01*
X123359447Y-125659858D01*
X123371073Y-125668481D01*
X123381798Y-125678202D01*
X123391519Y-125688927D01*
X123400142Y-125700553D01*
X123407583Y-125712969D01*
X123413772Y-125726054D01*
X123418649Y-125739683D01*
X123422166Y-125753724D01*
X123424290Y-125768042D01*
X123425000Y-125782500D01*
X123425000Y-126127500D01*
X123424290Y-126141958D01*
X123422166Y-126156276D01*
X123418649Y-126170317D01*
X123413772Y-126183946D01*
X123407583Y-126197031D01*
X123400142Y-126209447D01*
X123391519Y-126221073D01*
X123381798Y-126231798D01*
X123371073Y-126241519D01*
X123359447Y-126250142D01*
X123347031Y-126257583D01*
X123333946Y-126263772D01*
X123320317Y-126268649D01*
X123306276Y-126272166D01*
X123291958Y-126274290D01*
X123277500Y-126275000D01*
X122982500Y-126275000D01*
X122968042Y-126274290D01*
X122953724Y-126272166D01*
X122939683Y-126268649D01*
X122926054Y-126263772D01*
X122912969Y-126257583D01*
X122900553Y-126250142D01*
X122888927Y-126241519D01*
X122878202Y-126231798D01*
X122868481Y-126221073D01*
X122859858Y-126209447D01*
X122852417Y-126197031D01*
X122846228Y-126183946D01*
X122841351Y-126170317D01*
X122837834Y-126156276D01*
X122835710Y-126141958D01*
X122835000Y-126127500D01*
X122835000Y-125782500D01*
X122835710Y-125768042D01*
X122837834Y-125753724D01*
X122841351Y-125739683D01*
X122846228Y-125726054D01*
X122852417Y-125712969D01*
X122859858Y-125700553D01*
X122868481Y-125688927D01*
X122878202Y-125678202D01*
X122888927Y-125668481D01*
X122900553Y-125659858D01*
X122912969Y-125652417D01*
X122926054Y-125646228D01*
X122939683Y-125641351D01*
X122953724Y-125637834D01*
X122968042Y-125635710D01*
X122982500Y-125635000D01*
X123277500Y-125635000D01*
X123291958Y-125635710D01*
G37*
G36*
X122321958Y-125635710D02*
G01*
X122336276Y-125637834D01*
X122350317Y-125641351D01*
X122363946Y-125646228D01*
X122377031Y-125652417D01*
X122389447Y-125659858D01*
X122401073Y-125668481D01*
X122411798Y-125678202D01*
X122421519Y-125688927D01*
X122430142Y-125700553D01*
X122437583Y-125712969D01*
X122443772Y-125726054D01*
X122448649Y-125739683D01*
X122452166Y-125753724D01*
X122454290Y-125768042D01*
X122455000Y-125782500D01*
X122455000Y-126127500D01*
X122454290Y-126141958D01*
X122452166Y-126156276D01*
X122448649Y-126170317D01*
X122443772Y-126183946D01*
X122437583Y-126197031D01*
X122430142Y-126209447D01*
X122421519Y-126221073D01*
X122411798Y-126231798D01*
X122401073Y-126241519D01*
X122389447Y-126250142D01*
X122377031Y-126257583D01*
X122363946Y-126263772D01*
X122350317Y-126268649D01*
X122336276Y-126272166D01*
X122321958Y-126274290D01*
X122307500Y-126275000D01*
X122012500Y-126275000D01*
X121998042Y-126274290D01*
X121983724Y-126272166D01*
X121969683Y-126268649D01*
X121956054Y-126263772D01*
X121942969Y-126257583D01*
X121930553Y-126250142D01*
X121918927Y-126241519D01*
X121908202Y-126231798D01*
X121898481Y-126221073D01*
X121889858Y-126209447D01*
X121882417Y-126197031D01*
X121876228Y-126183946D01*
X121871351Y-126170317D01*
X121867834Y-126156276D01*
X121865710Y-126141958D01*
X121865000Y-126127500D01*
X121865000Y-125782500D01*
X121865710Y-125768042D01*
X121867834Y-125753724D01*
X121871351Y-125739683D01*
X121876228Y-125726054D01*
X121882417Y-125712969D01*
X121889858Y-125700553D01*
X121898481Y-125688927D01*
X121908202Y-125678202D01*
X121918927Y-125668481D01*
X121930553Y-125659858D01*
X121942969Y-125652417D01*
X121956054Y-125646228D01*
X121969683Y-125641351D01*
X121983724Y-125637834D01*
X121998042Y-125635710D01*
X122012500Y-125635000D01*
X122307500Y-125635000D01*
X122321958Y-125635710D01*
G37*
G36*
X152471958Y-124805710D02*
G01*
X152486276Y-124807834D01*
X152500317Y-124811351D01*
X152513946Y-124816228D01*
X152527031Y-124822417D01*
X152539447Y-124829858D01*
X152551073Y-124838481D01*
X152561798Y-124848202D01*
X152571519Y-124858927D01*
X152580142Y-124870553D01*
X152587583Y-124882969D01*
X152593772Y-124896054D01*
X152598649Y-124909683D01*
X152602166Y-124923724D01*
X152604290Y-124938042D01*
X152605000Y-124952500D01*
X152605000Y-125297500D01*
X152604290Y-125311958D01*
X152602166Y-125326276D01*
X152598649Y-125340317D01*
X152593772Y-125353946D01*
X152587583Y-125367031D01*
X152580142Y-125379447D01*
X152571519Y-125391073D01*
X152561798Y-125401798D01*
X152551073Y-125411519D01*
X152539447Y-125420142D01*
X152527031Y-125427583D01*
X152513946Y-125433772D01*
X152500317Y-125438649D01*
X152486276Y-125442166D01*
X152471958Y-125444290D01*
X152457500Y-125445000D01*
X152162500Y-125445000D01*
X152148042Y-125444290D01*
X152133724Y-125442166D01*
X152119683Y-125438649D01*
X152106054Y-125433772D01*
X152092969Y-125427583D01*
X152080553Y-125420142D01*
X152068927Y-125411519D01*
X152058202Y-125401798D01*
X152048481Y-125391073D01*
X152039858Y-125379447D01*
X152032417Y-125367031D01*
X152026228Y-125353946D01*
X152021351Y-125340317D01*
X152017834Y-125326276D01*
X152015710Y-125311958D01*
X152015000Y-125297500D01*
X152015000Y-124952500D01*
X152015710Y-124938042D01*
X152017834Y-124923724D01*
X152021351Y-124909683D01*
X152026228Y-124896054D01*
X152032417Y-124882969D01*
X152039858Y-124870553D01*
X152048481Y-124858927D01*
X152058202Y-124848202D01*
X152068927Y-124838481D01*
X152080553Y-124829858D01*
X152092969Y-124822417D01*
X152106054Y-124816228D01*
X152119683Y-124811351D01*
X152133724Y-124807834D01*
X152148042Y-124805710D01*
X152162500Y-124805000D01*
X152457500Y-124805000D01*
X152471958Y-124805710D01*
G37*
G36*
X151501958Y-124805710D02*
G01*
X151516276Y-124807834D01*
X151530317Y-124811351D01*
X151543946Y-124816228D01*
X151557031Y-124822417D01*
X151569447Y-124829858D01*
X151581073Y-124838481D01*
X151591798Y-124848202D01*
X151601519Y-124858927D01*
X151610142Y-124870553D01*
X151617583Y-124882969D01*
X151623772Y-124896054D01*
X151628649Y-124909683D01*
X151632166Y-124923724D01*
X151634290Y-124938042D01*
X151635000Y-124952500D01*
X151635000Y-125297500D01*
X151634290Y-125311958D01*
X151632166Y-125326276D01*
X151628649Y-125340317D01*
X151623772Y-125353946D01*
X151617583Y-125367031D01*
X151610142Y-125379447D01*
X151601519Y-125391073D01*
X151591798Y-125401798D01*
X151581073Y-125411519D01*
X151569447Y-125420142D01*
X151557031Y-125427583D01*
X151543946Y-125433772D01*
X151530317Y-125438649D01*
X151516276Y-125442166D01*
X151501958Y-125444290D01*
X151487500Y-125445000D01*
X151192500Y-125445000D01*
X151178042Y-125444290D01*
X151163724Y-125442166D01*
X151149683Y-125438649D01*
X151136054Y-125433772D01*
X151122969Y-125427583D01*
X151110553Y-125420142D01*
X151098927Y-125411519D01*
X151088202Y-125401798D01*
X151078481Y-125391073D01*
X151069858Y-125379447D01*
X151062417Y-125367031D01*
X151056228Y-125353946D01*
X151051351Y-125340317D01*
X151047834Y-125326276D01*
X151045710Y-125311958D01*
X151045000Y-125297500D01*
X151045000Y-124952500D01*
X151045710Y-124938042D01*
X151047834Y-124923724D01*
X151051351Y-124909683D01*
X151056228Y-124896054D01*
X151062417Y-124882969D01*
X151069858Y-124870553D01*
X151078481Y-124858927D01*
X151088202Y-124848202D01*
X151098927Y-124838481D01*
X151110553Y-124829858D01*
X151122969Y-124822417D01*
X151136054Y-124816228D01*
X151149683Y-124811351D01*
X151163724Y-124807834D01*
X151178042Y-124805710D01*
X151192500Y-124805000D01*
X151487500Y-124805000D01*
X151501958Y-124805710D01*
G37*
G36*
X151501958Y-125855710D02*
G01*
X151516276Y-125857834D01*
X151530317Y-125861351D01*
X151543946Y-125866228D01*
X151557031Y-125872417D01*
X151569447Y-125879858D01*
X151581073Y-125888481D01*
X151591798Y-125898202D01*
X151601519Y-125908927D01*
X151610142Y-125920553D01*
X151617583Y-125932969D01*
X151623772Y-125946054D01*
X151628649Y-125959683D01*
X151632166Y-125973724D01*
X151634290Y-125988042D01*
X151635000Y-126002500D01*
X151635000Y-126347500D01*
X151634290Y-126361958D01*
X151632166Y-126376276D01*
X151628649Y-126390317D01*
X151623772Y-126403946D01*
X151617583Y-126417031D01*
X151610142Y-126429447D01*
X151601519Y-126441073D01*
X151591798Y-126451798D01*
X151581073Y-126461519D01*
X151569447Y-126470142D01*
X151557031Y-126477583D01*
X151543946Y-126483772D01*
X151530317Y-126488649D01*
X151516276Y-126492166D01*
X151501958Y-126494290D01*
X151487500Y-126495000D01*
X151192500Y-126495000D01*
X151178042Y-126494290D01*
X151163724Y-126492166D01*
X151149683Y-126488649D01*
X151136054Y-126483772D01*
X151122969Y-126477583D01*
X151110553Y-126470142D01*
X151098927Y-126461519D01*
X151088202Y-126451798D01*
X151078481Y-126441073D01*
X151069858Y-126429447D01*
X151062417Y-126417031D01*
X151056228Y-126403946D01*
X151051351Y-126390317D01*
X151047834Y-126376276D01*
X151045710Y-126361958D01*
X151045000Y-126347500D01*
X151045000Y-126002500D01*
X151045710Y-125988042D01*
X151047834Y-125973724D01*
X151051351Y-125959683D01*
X151056228Y-125946054D01*
X151062417Y-125932969D01*
X151069858Y-125920553D01*
X151078481Y-125908927D01*
X151088202Y-125898202D01*
X151098927Y-125888481D01*
X151110553Y-125879858D01*
X151122969Y-125872417D01*
X151136054Y-125866228D01*
X151149683Y-125861351D01*
X151163724Y-125857834D01*
X151178042Y-125855710D01*
X151192500Y-125855000D01*
X151487500Y-125855000D01*
X151501958Y-125855710D01*
G37*
G36*
X152471958Y-125855710D02*
G01*
X152486276Y-125857834D01*
X152500317Y-125861351D01*
X152513946Y-125866228D01*
X152527031Y-125872417D01*
X152539447Y-125879858D01*
X152551073Y-125888481D01*
X152561798Y-125898202D01*
X152571519Y-125908927D01*
X152580142Y-125920553D01*
X152587583Y-125932969D01*
X152593772Y-125946054D01*
X152598649Y-125959683D01*
X152602166Y-125973724D01*
X152604290Y-125988042D01*
X152605000Y-126002500D01*
X152605000Y-126347500D01*
X152604290Y-126361958D01*
X152602166Y-126376276D01*
X152598649Y-126390317D01*
X152593772Y-126403946D01*
X152587583Y-126417031D01*
X152580142Y-126429447D01*
X152571519Y-126441073D01*
X152561798Y-126451798D01*
X152551073Y-126461519D01*
X152539447Y-126470142D01*
X152527031Y-126477583D01*
X152513946Y-126483772D01*
X152500317Y-126488649D01*
X152486276Y-126492166D01*
X152471958Y-126494290D01*
X152457500Y-126495000D01*
X152162500Y-126495000D01*
X152148042Y-126494290D01*
X152133724Y-126492166D01*
X152119683Y-126488649D01*
X152106054Y-126483772D01*
X152092969Y-126477583D01*
X152080553Y-126470142D01*
X152068927Y-126461519D01*
X152058202Y-126451798D01*
X152048481Y-126441073D01*
X152039858Y-126429447D01*
X152032417Y-126417031D01*
X152026228Y-126403946D01*
X152021351Y-126390317D01*
X152017834Y-126376276D01*
X152015710Y-126361958D01*
X152015000Y-126347500D01*
X152015000Y-126002500D01*
X152015710Y-125988042D01*
X152017834Y-125973724D01*
X152021351Y-125959683D01*
X152026228Y-125946054D01*
X152032417Y-125932969D01*
X152039858Y-125920553D01*
X152048481Y-125908927D01*
X152058202Y-125898202D01*
X152068927Y-125888481D01*
X152080553Y-125879858D01*
X152092969Y-125872417D01*
X152106054Y-125866228D01*
X152119683Y-125861351D01*
X152133724Y-125857834D01*
X152148042Y-125855710D01*
X152162500Y-125855000D01*
X152457500Y-125855000D01*
X152471958Y-125855710D01*
G37*
G36*
X123311958Y-129645710D02*
G01*
X123326276Y-129647834D01*
X123340317Y-129651351D01*
X123353946Y-129656228D01*
X123367031Y-129662417D01*
X123379447Y-129669858D01*
X123391073Y-129678481D01*
X123401798Y-129688202D01*
X123411519Y-129698927D01*
X123420142Y-129710553D01*
X123427583Y-129722969D01*
X123433772Y-129736054D01*
X123438649Y-129749683D01*
X123442166Y-129763724D01*
X123444290Y-129778042D01*
X123445000Y-129792500D01*
X123445000Y-130137500D01*
X123444290Y-130151958D01*
X123442166Y-130166276D01*
X123438649Y-130180317D01*
X123433772Y-130193946D01*
X123427583Y-130207031D01*
X123420142Y-130219447D01*
X123411519Y-130231073D01*
X123401798Y-130241798D01*
X123391073Y-130251519D01*
X123379447Y-130260142D01*
X123367031Y-130267583D01*
X123353946Y-130273772D01*
X123340317Y-130278649D01*
X123326276Y-130282166D01*
X123311958Y-130284290D01*
X123297500Y-130285000D01*
X123002500Y-130285000D01*
X122988042Y-130284290D01*
X122973724Y-130282166D01*
X122959683Y-130278649D01*
X122946054Y-130273772D01*
X122932969Y-130267583D01*
X122920553Y-130260142D01*
X122908927Y-130251519D01*
X122898202Y-130241798D01*
X122888481Y-130231073D01*
X122879858Y-130219447D01*
X122872417Y-130207031D01*
X122866228Y-130193946D01*
X122861351Y-130180317D01*
X122857834Y-130166276D01*
X122855710Y-130151958D01*
X122855000Y-130137500D01*
X122855000Y-129792500D01*
X122855710Y-129778042D01*
X122857834Y-129763724D01*
X122861351Y-129749683D01*
X122866228Y-129736054D01*
X122872417Y-129722969D01*
X122879858Y-129710553D01*
X122888481Y-129698927D01*
X122898202Y-129688202D01*
X122908927Y-129678481D01*
X122920553Y-129669858D01*
X122932969Y-129662417D01*
X122946054Y-129656228D01*
X122959683Y-129651351D01*
X122973724Y-129647834D01*
X122988042Y-129645710D01*
X123002500Y-129645000D01*
X123297500Y-129645000D01*
X123311958Y-129645710D01*
G37*
G36*
X122341958Y-129645710D02*
G01*
X122356276Y-129647834D01*
X122370317Y-129651351D01*
X122383946Y-129656228D01*
X122397031Y-129662417D01*
X122409447Y-129669858D01*
X122421073Y-129678481D01*
X122431798Y-129688202D01*
X122441519Y-129698927D01*
X122450142Y-129710553D01*
X122457583Y-129722969D01*
X122463772Y-129736054D01*
X122468649Y-129749683D01*
X122472166Y-129763724D01*
X122474290Y-129778042D01*
X122475000Y-129792500D01*
X122475000Y-130137500D01*
X122474290Y-130151958D01*
X122472166Y-130166276D01*
X122468649Y-130180317D01*
X122463772Y-130193946D01*
X122457583Y-130207031D01*
X122450142Y-130219447D01*
X122441519Y-130231073D01*
X122431798Y-130241798D01*
X122421073Y-130251519D01*
X122409447Y-130260142D01*
X122397031Y-130267583D01*
X122383946Y-130273772D01*
X122370317Y-130278649D01*
X122356276Y-130282166D01*
X122341958Y-130284290D01*
X122327500Y-130285000D01*
X122032500Y-130285000D01*
X122018042Y-130284290D01*
X122003724Y-130282166D01*
X121989683Y-130278649D01*
X121976054Y-130273772D01*
X121962969Y-130267583D01*
X121950553Y-130260142D01*
X121938927Y-130251519D01*
X121928202Y-130241798D01*
X121918481Y-130231073D01*
X121909858Y-130219447D01*
X121902417Y-130207031D01*
X121896228Y-130193946D01*
X121891351Y-130180317D01*
X121887834Y-130166276D01*
X121885710Y-130151958D01*
X121885000Y-130137500D01*
X121885000Y-129792500D01*
X121885710Y-129778042D01*
X121887834Y-129763724D01*
X121891351Y-129749683D01*
X121896228Y-129736054D01*
X121902417Y-129722969D01*
X121909858Y-129710553D01*
X121918481Y-129698927D01*
X121928202Y-129688202D01*
X121938927Y-129678481D01*
X121950553Y-129669858D01*
X121962969Y-129662417D01*
X121976054Y-129656228D01*
X121989683Y-129651351D01*
X122003724Y-129647834D01*
X122018042Y-129645710D01*
X122032500Y-129645000D01*
X122327500Y-129645000D01*
X122341958Y-129645710D01*
G37*
G36*
X133986958Y-128645710D02*
G01*
X134001276Y-128647834D01*
X134015317Y-128651351D01*
X134028946Y-128656228D01*
X134042031Y-128662417D01*
X134054447Y-128669858D01*
X134066073Y-128678481D01*
X134076798Y-128688202D01*
X134086519Y-128698927D01*
X134095142Y-128710553D01*
X134102583Y-128722969D01*
X134108772Y-128736054D01*
X134113649Y-128749683D01*
X134117166Y-128763724D01*
X134119290Y-128778042D01*
X134120000Y-128792500D01*
X134120000Y-129087500D01*
X134119290Y-129101958D01*
X134117166Y-129116276D01*
X134113649Y-129130317D01*
X134108772Y-129143946D01*
X134102583Y-129157031D01*
X134095142Y-129169447D01*
X134086519Y-129181073D01*
X134076798Y-129191798D01*
X134066073Y-129201519D01*
X134054447Y-129210142D01*
X134042031Y-129217583D01*
X134028946Y-129223772D01*
X134015317Y-129228649D01*
X134001276Y-129232166D01*
X133986958Y-129234290D01*
X133972500Y-129235000D01*
X133627500Y-129235000D01*
X133613042Y-129234290D01*
X133598724Y-129232166D01*
X133584683Y-129228649D01*
X133571054Y-129223772D01*
X133557969Y-129217583D01*
X133545553Y-129210142D01*
X133533927Y-129201519D01*
X133523202Y-129191798D01*
X133513481Y-129181073D01*
X133504858Y-129169447D01*
X133497417Y-129157031D01*
X133491228Y-129143946D01*
X133486351Y-129130317D01*
X133482834Y-129116276D01*
X133480710Y-129101958D01*
X133480000Y-129087500D01*
X133480000Y-128792500D01*
X133480710Y-128778042D01*
X133482834Y-128763724D01*
X133486351Y-128749683D01*
X133491228Y-128736054D01*
X133497417Y-128722969D01*
X133504858Y-128710553D01*
X133513481Y-128698927D01*
X133523202Y-128688202D01*
X133533927Y-128678481D01*
X133545553Y-128669858D01*
X133557969Y-128662417D01*
X133571054Y-128656228D01*
X133584683Y-128651351D01*
X133598724Y-128647834D01*
X133613042Y-128645710D01*
X133627500Y-128645000D01*
X133972500Y-128645000D01*
X133986958Y-128645710D01*
G37*
G36*
X133986958Y-129615710D02*
G01*
X134001276Y-129617834D01*
X134015317Y-129621351D01*
X134028946Y-129626228D01*
X134042031Y-129632417D01*
X134054447Y-129639858D01*
X134066073Y-129648481D01*
X134076798Y-129658202D01*
X134086519Y-129668927D01*
X134095142Y-129680553D01*
X134102583Y-129692969D01*
X134108772Y-129706054D01*
X134113649Y-129719683D01*
X134117166Y-129733724D01*
X134119290Y-129748042D01*
X134120000Y-129762500D01*
X134120000Y-130057500D01*
X134119290Y-130071958D01*
X134117166Y-130086276D01*
X134113649Y-130100317D01*
X134108772Y-130113946D01*
X134102583Y-130127031D01*
X134095142Y-130139447D01*
X134086519Y-130151073D01*
X134076798Y-130161798D01*
X134066073Y-130171519D01*
X134054447Y-130180142D01*
X134042031Y-130187583D01*
X134028946Y-130193772D01*
X134015317Y-130198649D01*
X134001276Y-130202166D01*
X133986958Y-130204290D01*
X133972500Y-130205000D01*
X133627500Y-130205000D01*
X133613042Y-130204290D01*
X133598724Y-130202166D01*
X133584683Y-130198649D01*
X133571054Y-130193772D01*
X133557969Y-130187583D01*
X133545553Y-130180142D01*
X133533927Y-130171519D01*
X133523202Y-130161798D01*
X133513481Y-130151073D01*
X133504858Y-130139447D01*
X133497417Y-130127031D01*
X133491228Y-130113946D01*
X133486351Y-130100317D01*
X133482834Y-130086276D01*
X133480710Y-130071958D01*
X133480000Y-130057500D01*
X133480000Y-129762500D01*
X133480710Y-129748042D01*
X133482834Y-129733724D01*
X133486351Y-129719683D01*
X133491228Y-129706054D01*
X133497417Y-129692969D01*
X133504858Y-129680553D01*
X133513481Y-129668927D01*
X133523202Y-129658202D01*
X133533927Y-129648481D01*
X133545553Y-129639858D01*
X133557969Y-129632417D01*
X133571054Y-129626228D01*
X133584683Y-129621351D01*
X133598724Y-129617834D01*
X133613042Y-129615710D01*
X133627500Y-129615000D01*
X133972500Y-129615000D01*
X133986958Y-129615710D01*
G37*
G36*
X154876958Y-121410710D02*
G01*
X154891276Y-121412834D01*
X154905317Y-121416351D01*
X154918946Y-121421228D01*
X154932031Y-121427417D01*
X154944447Y-121434858D01*
X154956073Y-121443481D01*
X154966798Y-121453202D01*
X154976519Y-121463927D01*
X154985142Y-121475553D01*
X154992583Y-121487969D01*
X154998772Y-121501054D01*
X155003649Y-121514683D01*
X155007166Y-121528724D01*
X155009290Y-121543042D01*
X155010000Y-121557500D01*
X155010000Y-121902500D01*
X155009290Y-121916958D01*
X155007166Y-121931276D01*
X155003649Y-121945317D01*
X154998772Y-121958946D01*
X154992583Y-121972031D01*
X154985142Y-121984447D01*
X154976519Y-121996073D01*
X154966798Y-122006798D01*
X154956073Y-122016519D01*
X154944447Y-122025142D01*
X154932031Y-122032583D01*
X154918946Y-122038772D01*
X154905317Y-122043649D01*
X154891276Y-122047166D01*
X154876958Y-122049290D01*
X154862500Y-122050000D01*
X154567500Y-122050000D01*
X154553042Y-122049290D01*
X154538724Y-122047166D01*
X154524683Y-122043649D01*
X154511054Y-122038772D01*
X154497969Y-122032583D01*
X154485553Y-122025142D01*
X154473927Y-122016519D01*
X154463202Y-122006798D01*
X154453481Y-121996073D01*
X154444858Y-121984447D01*
X154437417Y-121972031D01*
X154431228Y-121958946D01*
X154426351Y-121945317D01*
X154422834Y-121931276D01*
X154420710Y-121916958D01*
X154420000Y-121902500D01*
X154420000Y-121557500D01*
X154420710Y-121543042D01*
X154422834Y-121528724D01*
X154426351Y-121514683D01*
X154431228Y-121501054D01*
X154437417Y-121487969D01*
X154444858Y-121475553D01*
X154453481Y-121463927D01*
X154463202Y-121453202D01*
X154473927Y-121443481D01*
X154485553Y-121434858D01*
X154497969Y-121427417D01*
X154511054Y-121421228D01*
X154524683Y-121416351D01*
X154538724Y-121412834D01*
X154553042Y-121410710D01*
X154567500Y-121410000D01*
X154862500Y-121410000D01*
X154876958Y-121410710D01*
G37*
G36*
X155846958Y-121410710D02*
G01*
X155861276Y-121412834D01*
X155875317Y-121416351D01*
X155888946Y-121421228D01*
X155902031Y-121427417D01*
X155914447Y-121434858D01*
X155926073Y-121443481D01*
X155936798Y-121453202D01*
X155946519Y-121463927D01*
X155955142Y-121475553D01*
X155962583Y-121487969D01*
X155968772Y-121501054D01*
X155973649Y-121514683D01*
X155977166Y-121528724D01*
X155979290Y-121543042D01*
X155980000Y-121557500D01*
X155980000Y-121902500D01*
X155979290Y-121916958D01*
X155977166Y-121931276D01*
X155973649Y-121945317D01*
X155968772Y-121958946D01*
X155962583Y-121972031D01*
X155955142Y-121984447D01*
X155946519Y-121996073D01*
X155936798Y-122006798D01*
X155926073Y-122016519D01*
X155914447Y-122025142D01*
X155902031Y-122032583D01*
X155888946Y-122038772D01*
X155875317Y-122043649D01*
X155861276Y-122047166D01*
X155846958Y-122049290D01*
X155832500Y-122050000D01*
X155537500Y-122050000D01*
X155523042Y-122049290D01*
X155508724Y-122047166D01*
X155494683Y-122043649D01*
X155481054Y-122038772D01*
X155467969Y-122032583D01*
X155455553Y-122025142D01*
X155443927Y-122016519D01*
X155433202Y-122006798D01*
X155423481Y-121996073D01*
X155414858Y-121984447D01*
X155407417Y-121972031D01*
X155401228Y-121958946D01*
X155396351Y-121945317D01*
X155392834Y-121931276D01*
X155390710Y-121916958D01*
X155390000Y-121902500D01*
X155390000Y-121557500D01*
X155390710Y-121543042D01*
X155392834Y-121528724D01*
X155396351Y-121514683D01*
X155401228Y-121501054D01*
X155407417Y-121487969D01*
X155414858Y-121475553D01*
X155423481Y-121463927D01*
X155433202Y-121453202D01*
X155443927Y-121443481D01*
X155455553Y-121434858D01*
X155467969Y-121427417D01*
X155481054Y-121421228D01*
X155494683Y-121416351D01*
X155508724Y-121412834D01*
X155523042Y-121410710D01*
X155537500Y-121410000D01*
X155832500Y-121410000D01*
X155846958Y-121410710D01*
G37*
G36*
X149276958Y-121305710D02*
G01*
X149291276Y-121307834D01*
X149305317Y-121311351D01*
X149318946Y-121316228D01*
X149332031Y-121322417D01*
X149344447Y-121329858D01*
X149356073Y-121338481D01*
X149366798Y-121348202D01*
X149376519Y-121358927D01*
X149385142Y-121370553D01*
X149392583Y-121382969D01*
X149398772Y-121396054D01*
X149403649Y-121409683D01*
X149407166Y-121423724D01*
X149409290Y-121438042D01*
X149410000Y-121452500D01*
X149410000Y-121797500D01*
X149409290Y-121811958D01*
X149407166Y-121826276D01*
X149403649Y-121840317D01*
X149398772Y-121853946D01*
X149392583Y-121867031D01*
X149385142Y-121879447D01*
X149376519Y-121891073D01*
X149366798Y-121901798D01*
X149356073Y-121911519D01*
X149344447Y-121920142D01*
X149332031Y-121927583D01*
X149318946Y-121933772D01*
X149305317Y-121938649D01*
X149291276Y-121942166D01*
X149276958Y-121944290D01*
X149262500Y-121945000D01*
X148967500Y-121945000D01*
X148953042Y-121944290D01*
X148938724Y-121942166D01*
X148924683Y-121938649D01*
X148911054Y-121933772D01*
X148897969Y-121927583D01*
X148885553Y-121920142D01*
X148873927Y-121911519D01*
X148863202Y-121901798D01*
X148853481Y-121891073D01*
X148844858Y-121879447D01*
X148837417Y-121867031D01*
X148831228Y-121853946D01*
X148826351Y-121840317D01*
X148822834Y-121826276D01*
X148820710Y-121811958D01*
X148820000Y-121797500D01*
X148820000Y-121452500D01*
X148820710Y-121438042D01*
X148822834Y-121423724D01*
X148826351Y-121409683D01*
X148831228Y-121396054D01*
X148837417Y-121382969D01*
X148844858Y-121370553D01*
X148853481Y-121358927D01*
X148863202Y-121348202D01*
X148873927Y-121338481D01*
X148885553Y-121329858D01*
X148897969Y-121322417D01*
X148911054Y-121316228D01*
X148924683Y-121311351D01*
X148938724Y-121307834D01*
X148953042Y-121305710D01*
X148967500Y-121305000D01*
X149262500Y-121305000D01*
X149276958Y-121305710D01*
G37*
G36*
X150246958Y-121305710D02*
G01*
X150261276Y-121307834D01*
X150275317Y-121311351D01*
X150288946Y-121316228D01*
X150302031Y-121322417D01*
X150314447Y-121329858D01*
X150326073Y-121338481D01*
X150336798Y-121348202D01*
X150346519Y-121358927D01*
X150355142Y-121370553D01*
X150362583Y-121382969D01*
X150368772Y-121396054D01*
X150373649Y-121409683D01*
X150377166Y-121423724D01*
X150379290Y-121438042D01*
X150380000Y-121452500D01*
X150380000Y-121797500D01*
X150379290Y-121811958D01*
X150377166Y-121826276D01*
X150373649Y-121840317D01*
X150368772Y-121853946D01*
X150362583Y-121867031D01*
X150355142Y-121879447D01*
X150346519Y-121891073D01*
X150336798Y-121901798D01*
X150326073Y-121911519D01*
X150314447Y-121920142D01*
X150302031Y-121927583D01*
X150288946Y-121933772D01*
X150275317Y-121938649D01*
X150261276Y-121942166D01*
X150246958Y-121944290D01*
X150232500Y-121945000D01*
X149937500Y-121945000D01*
X149923042Y-121944290D01*
X149908724Y-121942166D01*
X149894683Y-121938649D01*
X149881054Y-121933772D01*
X149867969Y-121927583D01*
X149855553Y-121920142D01*
X149843927Y-121911519D01*
X149833202Y-121901798D01*
X149823481Y-121891073D01*
X149814858Y-121879447D01*
X149807417Y-121867031D01*
X149801228Y-121853946D01*
X149796351Y-121840317D01*
X149792834Y-121826276D01*
X149790710Y-121811958D01*
X149790000Y-121797500D01*
X149790000Y-121452500D01*
X149790710Y-121438042D01*
X149792834Y-121423724D01*
X149796351Y-121409683D01*
X149801228Y-121396054D01*
X149807417Y-121382969D01*
X149814858Y-121370553D01*
X149823481Y-121358927D01*
X149833202Y-121348202D01*
X149843927Y-121338481D01*
X149855553Y-121329858D01*
X149867969Y-121322417D01*
X149881054Y-121316228D01*
X149894683Y-121311351D01*
X149908724Y-121307834D01*
X149923042Y-121305710D01*
X149937500Y-121305000D01*
X150232500Y-121305000D01*
X150246958Y-121305710D01*
G37*
G36*
X155846958Y-120140710D02*
G01*
X155861276Y-120142834D01*
X155875317Y-120146351D01*
X155888946Y-120151228D01*
X155902031Y-120157417D01*
X155914447Y-120164858D01*
X155926073Y-120173481D01*
X155936798Y-120183202D01*
X155946519Y-120193927D01*
X155955142Y-120205553D01*
X155962583Y-120217969D01*
X155968772Y-120231054D01*
X155973649Y-120244683D01*
X155977166Y-120258724D01*
X155979290Y-120273042D01*
X155980000Y-120287500D01*
X155980000Y-120632500D01*
X155979290Y-120646958D01*
X155977166Y-120661276D01*
X155973649Y-120675317D01*
X155968772Y-120688946D01*
X155962583Y-120702031D01*
X155955142Y-120714447D01*
X155946519Y-120726073D01*
X155936798Y-120736798D01*
X155926073Y-120746519D01*
X155914447Y-120755142D01*
X155902031Y-120762583D01*
X155888946Y-120768772D01*
X155875317Y-120773649D01*
X155861276Y-120777166D01*
X155846958Y-120779290D01*
X155832500Y-120780000D01*
X155537500Y-120780000D01*
X155523042Y-120779290D01*
X155508724Y-120777166D01*
X155494683Y-120773649D01*
X155481054Y-120768772D01*
X155467969Y-120762583D01*
X155455553Y-120755142D01*
X155443927Y-120746519D01*
X155433202Y-120736798D01*
X155423481Y-120726073D01*
X155414858Y-120714447D01*
X155407417Y-120702031D01*
X155401228Y-120688946D01*
X155396351Y-120675317D01*
X155392834Y-120661276D01*
X155390710Y-120646958D01*
X155390000Y-120632500D01*
X155390000Y-120287500D01*
X155390710Y-120273042D01*
X155392834Y-120258724D01*
X155396351Y-120244683D01*
X155401228Y-120231054D01*
X155407417Y-120217969D01*
X155414858Y-120205553D01*
X155423481Y-120193927D01*
X155433202Y-120183202D01*
X155443927Y-120173481D01*
X155455553Y-120164858D01*
X155467969Y-120157417D01*
X155481054Y-120151228D01*
X155494683Y-120146351D01*
X155508724Y-120142834D01*
X155523042Y-120140710D01*
X155537500Y-120140000D01*
X155832500Y-120140000D01*
X155846958Y-120140710D01*
G37*
G36*
X154876958Y-120140710D02*
G01*
X154891276Y-120142834D01*
X154905317Y-120146351D01*
X154918946Y-120151228D01*
X154932031Y-120157417D01*
X154944447Y-120164858D01*
X154956073Y-120173481D01*
X154966798Y-120183202D01*
X154976519Y-120193927D01*
X154985142Y-120205553D01*
X154992583Y-120217969D01*
X154998772Y-120231054D01*
X155003649Y-120244683D01*
X155007166Y-120258724D01*
X155009290Y-120273042D01*
X155010000Y-120287500D01*
X155010000Y-120632500D01*
X155009290Y-120646958D01*
X155007166Y-120661276D01*
X155003649Y-120675317D01*
X154998772Y-120688946D01*
X154992583Y-120702031D01*
X154985142Y-120714447D01*
X154976519Y-120726073D01*
X154966798Y-120736798D01*
X154956073Y-120746519D01*
X154944447Y-120755142D01*
X154932031Y-120762583D01*
X154918946Y-120768772D01*
X154905317Y-120773649D01*
X154891276Y-120777166D01*
X154876958Y-120779290D01*
X154862500Y-120780000D01*
X154567500Y-120780000D01*
X154553042Y-120779290D01*
X154538724Y-120777166D01*
X154524683Y-120773649D01*
X154511054Y-120768772D01*
X154497969Y-120762583D01*
X154485553Y-120755142D01*
X154473927Y-120746519D01*
X154463202Y-120736798D01*
X154453481Y-120726073D01*
X154444858Y-120714447D01*
X154437417Y-120702031D01*
X154431228Y-120688946D01*
X154426351Y-120675317D01*
X154422834Y-120661276D01*
X154420710Y-120646958D01*
X154420000Y-120632500D01*
X154420000Y-120287500D01*
X154420710Y-120273042D01*
X154422834Y-120258724D01*
X154426351Y-120244683D01*
X154431228Y-120231054D01*
X154437417Y-120217969D01*
X154444858Y-120205553D01*
X154453481Y-120193927D01*
X154463202Y-120183202D01*
X154473927Y-120173481D01*
X154485553Y-120164858D01*
X154497969Y-120157417D01*
X154511054Y-120151228D01*
X154524683Y-120146351D01*
X154538724Y-120142834D01*
X154553042Y-120140710D01*
X154567500Y-120140000D01*
X154862500Y-120140000D01*
X154876958Y-120140710D01*
G37*
G36*
X150246958Y-120035710D02*
G01*
X150261276Y-120037834D01*
X150275317Y-120041351D01*
X150288946Y-120046228D01*
X150302031Y-120052417D01*
X150314447Y-120059858D01*
X150326073Y-120068481D01*
X150336798Y-120078202D01*
X150346519Y-120088927D01*
X150355142Y-120100553D01*
X150362583Y-120112969D01*
X150368772Y-120126054D01*
X150373649Y-120139683D01*
X150377166Y-120153724D01*
X150379290Y-120168042D01*
X150380000Y-120182500D01*
X150380000Y-120527500D01*
X150379290Y-120541958D01*
X150377166Y-120556276D01*
X150373649Y-120570317D01*
X150368772Y-120583946D01*
X150362583Y-120597031D01*
X150355142Y-120609447D01*
X150346519Y-120621073D01*
X150336798Y-120631798D01*
X150326073Y-120641519D01*
X150314447Y-120650142D01*
X150302031Y-120657583D01*
X150288946Y-120663772D01*
X150275317Y-120668649D01*
X150261276Y-120672166D01*
X150246958Y-120674290D01*
X150232500Y-120675000D01*
X149937500Y-120675000D01*
X149923042Y-120674290D01*
X149908724Y-120672166D01*
X149894683Y-120668649D01*
X149881054Y-120663772D01*
X149867969Y-120657583D01*
X149855553Y-120650142D01*
X149843927Y-120641519D01*
X149833202Y-120631798D01*
X149823481Y-120621073D01*
X149814858Y-120609447D01*
X149807417Y-120597031D01*
X149801228Y-120583946D01*
X149796351Y-120570317D01*
X149792834Y-120556276D01*
X149790710Y-120541958D01*
X149790000Y-120527500D01*
X149790000Y-120182500D01*
X149790710Y-120168042D01*
X149792834Y-120153724D01*
X149796351Y-120139683D01*
X149801228Y-120126054D01*
X149807417Y-120112969D01*
X149814858Y-120100553D01*
X149823481Y-120088927D01*
X149833202Y-120078202D01*
X149843927Y-120068481D01*
X149855553Y-120059858D01*
X149867969Y-120052417D01*
X149881054Y-120046228D01*
X149894683Y-120041351D01*
X149908724Y-120037834D01*
X149923042Y-120035710D01*
X149937500Y-120035000D01*
X150232500Y-120035000D01*
X150246958Y-120035710D01*
G37*
G36*
X149276958Y-120035710D02*
G01*
X149291276Y-120037834D01*
X149305317Y-120041351D01*
X149318946Y-120046228D01*
X149332031Y-120052417D01*
X149344447Y-120059858D01*
X149356073Y-120068481D01*
X149366798Y-120078202D01*
X149376519Y-120088927D01*
X149385142Y-120100553D01*
X149392583Y-120112969D01*
X149398772Y-120126054D01*
X149403649Y-120139683D01*
X149407166Y-120153724D01*
X149409290Y-120168042D01*
X149410000Y-120182500D01*
X149410000Y-120527500D01*
X149409290Y-120541958D01*
X149407166Y-120556276D01*
X149403649Y-120570317D01*
X149398772Y-120583946D01*
X149392583Y-120597031D01*
X149385142Y-120609447D01*
X149376519Y-120621073D01*
X149366798Y-120631798D01*
X149356073Y-120641519D01*
X149344447Y-120650142D01*
X149332031Y-120657583D01*
X149318946Y-120663772D01*
X149305317Y-120668649D01*
X149291276Y-120672166D01*
X149276958Y-120674290D01*
X149262500Y-120675000D01*
X148967500Y-120675000D01*
X148953042Y-120674290D01*
X148938724Y-120672166D01*
X148924683Y-120668649D01*
X148911054Y-120663772D01*
X148897969Y-120657583D01*
X148885553Y-120650142D01*
X148873927Y-120641519D01*
X148863202Y-120631798D01*
X148853481Y-120621073D01*
X148844858Y-120609447D01*
X148837417Y-120597031D01*
X148831228Y-120583946D01*
X148826351Y-120570317D01*
X148822834Y-120556276D01*
X148820710Y-120541958D01*
X148820000Y-120527500D01*
X148820000Y-120182500D01*
X148820710Y-120168042D01*
X148822834Y-120153724D01*
X148826351Y-120139683D01*
X148831228Y-120126054D01*
X148837417Y-120112969D01*
X148844858Y-120100553D01*
X148853481Y-120088927D01*
X148863202Y-120078202D01*
X148873927Y-120068481D01*
X148885553Y-120059858D01*
X148897969Y-120052417D01*
X148911054Y-120046228D01*
X148924683Y-120041351D01*
X148938724Y-120037834D01*
X148953042Y-120035710D01*
X148967500Y-120035000D01*
X149262500Y-120035000D01*
X149276958Y-120035710D01*
G37*
G36*
X116721958Y-111880710D02*
G01*
X116736276Y-111882834D01*
X116750317Y-111886351D01*
X116763946Y-111891228D01*
X116777031Y-111897417D01*
X116789447Y-111904858D01*
X116801073Y-111913481D01*
X116811798Y-111923202D01*
X116821519Y-111933927D01*
X116830142Y-111945553D01*
X116837583Y-111957969D01*
X116843772Y-111971054D01*
X116848649Y-111984683D01*
X116852166Y-111998724D01*
X116854290Y-112013042D01*
X116855000Y-112027500D01*
X116855000Y-112372500D01*
X116854290Y-112386958D01*
X116852166Y-112401276D01*
X116848649Y-112415317D01*
X116843772Y-112428946D01*
X116837583Y-112442031D01*
X116830142Y-112454447D01*
X116821519Y-112466073D01*
X116811798Y-112476798D01*
X116801073Y-112486519D01*
X116789447Y-112495142D01*
X116777031Y-112502583D01*
X116763946Y-112508772D01*
X116750317Y-112513649D01*
X116736276Y-112517166D01*
X116721958Y-112519290D01*
X116707500Y-112520000D01*
X116412500Y-112520000D01*
X116398042Y-112519290D01*
X116383724Y-112517166D01*
X116369683Y-112513649D01*
X116356054Y-112508772D01*
X116342969Y-112502583D01*
X116330553Y-112495142D01*
X116318927Y-112486519D01*
X116308202Y-112476798D01*
X116298481Y-112466073D01*
X116289858Y-112454447D01*
X116282417Y-112442031D01*
X116276228Y-112428946D01*
X116271351Y-112415317D01*
X116267834Y-112401276D01*
X116265710Y-112386958D01*
X116265000Y-112372500D01*
X116265000Y-112027500D01*
X116265710Y-112013042D01*
X116267834Y-111998724D01*
X116271351Y-111984683D01*
X116276228Y-111971054D01*
X116282417Y-111957969D01*
X116289858Y-111945553D01*
X116298481Y-111933927D01*
X116308202Y-111923202D01*
X116318927Y-111913481D01*
X116330553Y-111904858D01*
X116342969Y-111897417D01*
X116356054Y-111891228D01*
X116369683Y-111886351D01*
X116383724Y-111882834D01*
X116398042Y-111880710D01*
X116412500Y-111880000D01*
X116707500Y-111880000D01*
X116721958Y-111880710D01*
G37*
G36*
X115751958Y-111880710D02*
G01*
X115766276Y-111882834D01*
X115780317Y-111886351D01*
X115793946Y-111891228D01*
X115807031Y-111897417D01*
X115819447Y-111904858D01*
X115831073Y-111913481D01*
X115841798Y-111923202D01*
X115851519Y-111933927D01*
X115860142Y-111945553D01*
X115867583Y-111957969D01*
X115873772Y-111971054D01*
X115878649Y-111984683D01*
X115882166Y-111998724D01*
X115884290Y-112013042D01*
X115885000Y-112027500D01*
X115885000Y-112372500D01*
X115884290Y-112386958D01*
X115882166Y-112401276D01*
X115878649Y-112415317D01*
X115873772Y-112428946D01*
X115867583Y-112442031D01*
X115860142Y-112454447D01*
X115851519Y-112466073D01*
X115841798Y-112476798D01*
X115831073Y-112486519D01*
X115819447Y-112495142D01*
X115807031Y-112502583D01*
X115793946Y-112508772D01*
X115780317Y-112513649D01*
X115766276Y-112517166D01*
X115751958Y-112519290D01*
X115737500Y-112520000D01*
X115442500Y-112520000D01*
X115428042Y-112519290D01*
X115413724Y-112517166D01*
X115399683Y-112513649D01*
X115386054Y-112508772D01*
X115372969Y-112502583D01*
X115360553Y-112495142D01*
X115348927Y-112486519D01*
X115338202Y-112476798D01*
X115328481Y-112466073D01*
X115319858Y-112454447D01*
X115312417Y-112442031D01*
X115306228Y-112428946D01*
X115301351Y-112415317D01*
X115297834Y-112401276D01*
X115295710Y-112386958D01*
X115295000Y-112372500D01*
X115295000Y-112027500D01*
X115295710Y-112013042D01*
X115297834Y-111998724D01*
X115301351Y-111984683D01*
X115306228Y-111971054D01*
X115312417Y-111957969D01*
X115319858Y-111945553D01*
X115328481Y-111933927D01*
X115338202Y-111923202D01*
X115348927Y-111913481D01*
X115360553Y-111904858D01*
X115372969Y-111897417D01*
X115386054Y-111891228D01*
X115399683Y-111886351D01*
X115413724Y-111882834D01*
X115428042Y-111880710D01*
X115442500Y-111880000D01*
X115737500Y-111880000D01*
X115751958Y-111880710D01*
G37*
D23*
X140462500Y-119150000D03*
X140462500Y-119650000D03*
X141987500Y-119150000D03*
X141987500Y-119650000D03*
X140462500Y-120150000D03*
X141987500Y-120150000D03*
X140462500Y-118650000D03*
X141987500Y-118650000D03*
D24*
X140975000Y-120162500D03*
X141475000Y-120162500D03*
X141475000Y-118637500D03*
X140975000Y-118637500D03*
D25*
X114125000Y-113455000D03*
X114125000Y-113955000D03*
X114122500Y-114455000D03*
X114122500Y-114955000D03*
X114125000Y-115455000D03*
X114125000Y-115955000D03*
X114125000Y-116455500D03*
X114125000Y-116955500D03*
X114125000Y-117455500D03*
X114125000Y-117955500D03*
X114125000Y-118455500D03*
X114125000Y-118955500D03*
X114125000Y-119455500D03*
X114125000Y-119955500D03*
X114125000Y-120455500D03*
X114125000Y-120955500D03*
X114125000Y-121455500D03*
X114125000Y-121955500D03*
X114125000Y-122455500D03*
X114125000Y-122955500D03*
X114125000Y-123455500D03*
X114625000Y-123456000D03*
X115125000Y-123456000D03*
X115625000Y-123456000D03*
X116125000Y-123456000D03*
X116625000Y-123456000D03*
X117125000Y-123456000D03*
X117625000Y-123456000D03*
X118125000Y-123456000D03*
X118625000Y-123456000D03*
X119120000Y-123456000D03*
X119620000Y-123456000D03*
X120120000Y-123456000D03*
X120620000Y-123456000D03*
X121120000Y-123456000D03*
X121620000Y-123456000D03*
X122120000Y-123456000D03*
X122620000Y-123456000D03*
X123120000Y-123456000D03*
X123620000Y-123456000D03*
X124120000Y-123456000D03*
X124620000Y-123456000D03*
X125120000Y-123456000D03*
X125620000Y-123456000D03*
X126120000Y-123456000D03*
X126620000Y-123456000D03*
X127120000Y-123456000D03*
X127620000Y-123456000D03*
X128120000Y-123456000D03*
X128620000Y-123456000D03*
X129120000Y-123456000D03*
X129620000Y-123456000D03*
X129620000Y-122956000D03*
X129620000Y-122456000D03*
X129620000Y-121956000D03*
X129620000Y-121456000D03*
X129620000Y-120956000D03*
X129620000Y-120456000D03*
X129620000Y-119956000D03*
X129620000Y-119456000D03*
X129620000Y-118956000D03*
X129620000Y-118456000D03*
X129620000Y-117956000D03*
X129620000Y-117456000D03*
X129620000Y-116956000D03*
X129620000Y-116456000D03*
X129620000Y-115956000D03*
X129620000Y-115456000D03*
X129620000Y-114956000D03*
X129620000Y-114456000D03*
X129620000Y-113956000D03*
X129620000Y-113456000D03*
X129120000Y-113456000D03*
X128620000Y-113456000D03*
X128120000Y-113456000D03*
X127620000Y-113456000D03*
X127120000Y-113456000D03*
X126620000Y-113456000D03*
X126120000Y-113456000D03*
X125620000Y-113456000D03*
X125120000Y-113456000D03*
X124620000Y-113456000D03*
X124120000Y-113456000D03*
X123620000Y-113456000D03*
X123120000Y-113456000D03*
X122620000Y-113456000D03*
X122120000Y-113456000D03*
X121620000Y-113456000D03*
X121120000Y-113456000D03*
X120620000Y-113456000D03*
X120120000Y-113456000D03*
X119620000Y-113456000D03*
X119120000Y-113456000D03*
X118620000Y-113456000D03*
X118120000Y-113456000D03*
X117620000Y-113456000D03*
X117120000Y-113456000D03*
X116620000Y-113456000D03*
X116120000Y-113456000D03*
X115620000Y-113456000D03*
X115120000Y-113456000D03*
X114620000Y-113456000D03*
D26*
X115875000Y-115255000D03*
X115875000Y-116855000D03*
X115875000Y-118455000D03*
X115875000Y-121655000D03*
X115875000Y-120055000D03*
X117875000Y-115255000D03*
X117875000Y-116855000D03*
X117875000Y-118455000D03*
X117875000Y-120055000D03*
X117875000Y-121655000D03*
X119875000Y-115255000D03*
X119875000Y-116855000D03*
X119875000Y-118455000D03*
X119875000Y-120055000D03*
X119875000Y-121655000D03*
X121875000Y-115255000D03*
X121875000Y-116855000D03*
X121875000Y-118455000D03*
X121875000Y-120055000D03*
X121875000Y-121655000D03*
X123875000Y-115255000D03*
X123875000Y-116855000D03*
X123875000Y-118455000D03*
X123875000Y-120055000D03*
X123875000Y-121655000D03*
X125875000Y-115255000D03*
X125875000Y-116855000D03*
X125875000Y-118455000D03*
X125875000Y-120055000D03*
X125875000Y-121655000D03*
X127875000Y-115255000D03*
X127875000Y-116855000D03*
X127875000Y-118455000D03*
X127875000Y-120055000D03*
X127875000Y-121655000D03*
D25*
X117125000Y-122956000D03*
X117625000Y-122956000D03*
X118125000Y-122956000D03*
X118625000Y-122956000D03*
X122120000Y-122956000D03*
X122620000Y-122956000D03*
X123120000Y-122956000D03*
X123620000Y-122956000D03*
X126120000Y-122956000D03*
X126620000Y-122956000D03*
X127120000Y-122956000D03*
X127620000Y-122956000D03*
X127620000Y-113956000D03*
X127120000Y-113956000D03*
X126620000Y-113956000D03*
X126120000Y-113956000D03*
X123620000Y-113956000D03*
X123120000Y-113956000D03*
X122620000Y-113956000D03*
X122120000Y-113956000D03*
X118620000Y-113956000D03*
X118120000Y-113956000D03*
X117620000Y-113956000D03*
X117120000Y-113956000D03*
D12*
G36*
X152511958Y-129320710D02*
G01*
X152526276Y-129322834D01*
X152540317Y-129326351D01*
X152553946Y-129331228D01*
X152567031Y-129337417D01*
X152579447Y-129344858D01*
X152591073Y-129353481D01*
X152601798Y-129363202D01*
X152611519Y-129373927D01*
X152620142Y-129385553D01*
X152627583Y-129397969D01*
X152633772Y-129411054D01*
X152638649Y-129424683D01*
X152642166Y-129438724D01*
X152644290Y-129453042D01*
X152645000Y-129467500D01*
X152645000Y-129762500D01*
X152644290Y-129776958D01*
X152642166Y-129791276D01*
X152638649Y-129805317D01*
X152633772Y-129818946D01*
X152627583Y-129832031D01*
X152620142Y-129844447D01*
X152611519Y-129856073D01*
X152601798Y-129866798D01*
X152591073Y-129876519D01*
X152579447Y-129885142D01*
X152567031Y-129892583D01*
X152553946Y-129898772D01*
X152540317Y-129903649D01*
X152526276Y-129907166D01*
X152511958Y-129909290D01*
X152497500Y-129910000D01*
X152152500Y-129910000D01*
X152138042Y-129909290D01*
X152123724Y-129907166D01*
X152109683Y-129903649D01*
X152096054Y-129898772D01*
X152082969Y-129892583D01*
X152070553Y-129885142D01*
X152058927Y-129876519D01*
X152048202Y-129866798D01*
X152038481Y-129856073D01*
X152029858Y-129844447D01*
X152022417Y-129832031D01*
X152016228Y-129818946D01*
X152011351Y-129805317D01*
X152007834Y-129791276D01*
X152005710Y-129776958D01*
X152005000Y-129762500D01*
X152005000Y-129467500D01*
X152005710Y-129453042D01*
X152007834Y-129438724D01*
X152011351Y-129424683D01*
X152016228Y-129411054D01*
X152022417Y-129397969D01*
X152029858Y-129385553D01*
X152038481Y-129373927D01*
X152048202Y-129363202D01*
X152058927Y-129353481D01*
X152070553Y-129344858D01*
X152082969Y-129337417D01*
X152096054Y-129331228D01*
X152109683Y-129326351D01*
X152123724Y-129322834D01*
X152138042Y-129320710D01*
X152152500Y-129320000D01*
X152497500Y-129320000D01*
X152511958Y-129320710D01*
G37*
G36*
X152511958Y-130290710D02*
G01*
X152526276Y-130292834D01*
X152540317Y-130296351D01*
X152553946Y-130301228D01*
X152567031Y-130307417D01*
X152579447Y-130314858D01*
X152591073Y-130323481D01*
X152601798Y-130333202D01*
X152611519Y-130343927D01*
X152620142Y-130355553D01*
X152627583Y-130367969D01*
X152633772Y-130381054D01*
X152638649Y-130394683D01*
X152642166Y-130408724D01*
X152644290Y-130423042D01*
X152645000Y-130437500D01*
X152645000Y-130732500D01*
X152644290Y-130746958D01*
X152642166Y-130761276D01*
X152638649Y-130775317D01*
X152633772Y-130788946D01*
X152627583Y-130802031D01*
X152620142Y-130814447D01*
X152611519Y-130826073D01*
X152601798Y-130836798D01*
X152591073Y-130846519D01*
X152579447Y-130855142D01*
X152567031Y-130862583D01*
X152553946Y-130868772D01*
X152540317Y-130873649D01*
X152526276Y-130877166D01*
X152511958Y-130879290D01*
X152497500Y-130880000D01*
X152152500Y-130880000D01*
X152138042Y-130879290D01*
X152123724Y-130877166D01*
X152109683Y-130873649D01*
X152096054Y-130868772D01*
X152082969Y-130862583D01*
X152070553Y-130855142D01*
X152058927Y-130846519D01*
X152048202Y-130836798D01*
X152038481Y-130826073D01*
X152029858Y-130814447D01*
X152022417Y-130802031D01*
X152016228Y-130788946D01*
X152011351Y-130775317D01*
X152007834Y-130761276D01*
X152005710Y-130746958D01*
X152005000Y-130732500D01*
X152005000Y-130437500D01*
X152005710Y-130423042D01*
X152007834Y-130408724D01*
X152011351Y-130394683D01*
X152016228Y-130381054D01*
X152022417Y-130367969D01*
X152029858Y-130355553D01*
X152038481Y-130343927D01*
X152048202Y-130333202D01*
X152058927Y-130323481D01*
X152070553Y-130314858D01*
X152082969Y-130307417D01*
X152096054Y-130301228D01*
X152109683Y-130296351D01*
X152123724Y-130292834D01*
X152138042Y-130290710D01*
X152152500Y-130290000D01*
X152497500Y-130290000D01*
X152511958Y-130290710D01*
G37*
G36*
X151436958Y-129295710D02*
G01*
X151451276Y-129297834D01*
X151465317Y-129301351D01*
X151478946Y-129306228D01*
X151492031Y-129312417D01*
X151504447Y-129319858D01*
X151516073Y-129328481D01*
X151526798Y-129338202D01*
X151536519Y-129348927D01*
X151545142Y-129360553D01*
X151552583Y-129372969D01*
X151558772Y-129386054D01*
X151563649Y-129399683D01*
X151567166Y-129413724D01*
X151569290Y-129428042D01*
X151570000Y-129442500D01*
X151570000Y-129737500D01*
X151569290Y-129751958D01*
X151567166Y-129766276D01*
X151563649Y-129780317D01*
X151558772Y-129793946D01*
X151552583Y-129807031D01*
X151545142Y-129819447D01*
X151536519Y-129831073D01*
X151526798Y-129841798D01*
X151516073Y-129851519D01*
X151504447Y-129860142D01*
X151492031Y-129867583D01*
X151478946Y-129873772D01*
X151465317Y-129878649D01*
X151451276Y-129882166D01*
X151436958Y-129884290D01*
X151422500Y-129885000D01*
X151077500Y-129885000D01*
X151063042Y-129884290D01*
X151048724Y-129882166D01*
X151034683Y-129878649D01*
X151021054Y-129873772D01*
X151007969Y-129867583D01*
X150995553Y-129860142D01*
X150983927Y-129851519D01*
X150973202Y-129841798D01*
X150963481Y-129831073D01*
X150954858Y-129819447D01*
X150947417Y-129807031D01*
X150941228Y-129793946D01*
X150936351Y-129780317D01*
X150932834Y-129766276D01*
X150930710Y-129751958D01*
X150930000Y-129737500D01*
X150930000Y-129442500D01*
X150930710Y-129428042D01*
X150932834Y-129413724D01*
X150936351Y-129399683D01*
X150941228Y-129386054D01*
X150947417Y-129372969D01*
X150954858Y-129360553D01*
X150963481Y-129348927D01*
X150973202Y-129338202D01*
X150983927Y-129328481D01*
X150995553Y-129319858D01*
X151007969Y-129312417D01*
X151021054Y-129306228D01*
X151034683Y-129301351D01*
X151048724Y-129297834D01*
X151063042Y-129295710D01*
X151077500Y-129295000D01*
X151422500Y-129295000D01*
X151436958Y-129295710D01*
G37*
G36*
X151436958Y-130265710D02*
G01*
X151451276Y-130267834D01*
X151465317Y-130271351D01*
X151478946Y-130276228D01*
X151492031Y-130282417D01*
X151504447Y-130289858D01*
X151516073Y-130298481D01*
X151526798Y-130308202D01*
X151536519Y-130318927D01*
X151545142Y-130330553D01*
X151552583Y-130342969D01*
X151558772Y-130356054D01*
X151563649Y-130369683D01*
X151567166Y-130383724D01*
X151569290Y-130398042D01*
X151570000Y-130412500D01*
X151570000Y-130707500D01*
X151569290Y-130721958D01*
X151567166Y-130736276D01*
X151563649Y-130750317D01*
X151558772Y-130763946D01*
X151552583Y-130777031D01*
X151545142Y-130789447D01*
X151536519Y-130801073D01*
X151526798Y-130811798D01*
X151516073Y-130821519D01*
X151504447Y-130830142D01*
X151492031Y-130837583D01*
X151478946Y-130843772D01*
X151465317Y-130848649D01*
X151451276Y-130852166D01*
X151436958Y-130854290D01*
X151422500Y-130855000D01*
X151077500Y-130855000D01*
X151063042Y-130854290D01*
X151048724Y-130852166D01*
X151034683Y-130848649D01*
X151021054Y-130843772D01*
X151007969Y-130837583D01*
X150995553Y-130830142D01*
X150983927Y-130821519D01*
X150973202Y-130811798D01*
X150963481Y-130801073D01*
X150954858Y-130789447D01*
X150947417Y-130777031D01*
X150941228Y-130763946D01*
X150936351Y-130750317D01*
X150932834Y-130736276D01*
X150930710Y-130721958D01*
X150930000Y-130707500D01*
X150930000Y-130412500D01*
X150930710Y-130398042D01*
X150932834Y-130383724D01*
X150936351Y-130369683D01*
X150941228Y-130356054D01*
X150947417Y-130342969D01*
X150954858Y-130330553D01*
X150963481Y-130318927D01*
X150973202Y-130308202D01*
X150983927Y-130298481D01*
X150995553Y-130289858D01*
X151007969Y-130282417D01*
X151021054Y-130276228D01*
X151034683Y-130271351D01*
X151048724Y-130267834D01*
X151063042Y-130265710D01*
X151077500Y-130265000D01*
X151422500Y-130265000D01*
X151436958Y-130265710D01*
G37*
G36*
X143511958Y-125245710D02*
G01*
X143526276Y-125247834D01*
X143540317Y-125251351D01*
X143553946Y-125256228D01*
X143567031Y-125262417D01*
X143579447Y-125269858D01*
X143591073Y-125278481D01*
X143601798Y-125288202D01*
X143611519Y-125298927D01*
X143620142Y-125310553D01*
X143627583Y-125322969D01*
X143633772Y-125336054D01*
X143638649Y-125349683D01*
X143642166Y-125363724D01*
X143644290Y-125378042D01*
X143645000Y-125392500D01*
X143645000Y-125687500D01*
X143644290Y-125701958D01*
X143642166Y-125716276D01*
X143638649Y-125730317D01*
X143633772Y-125743946D01*
X143627583Y-125757031D01*
X143620142Y-125769447D01*
X143611519Y-125781073D01*
X143601798Y-125791798D01*
X143591073Y-125801519D01*
X143579447Y-125810142D01*
X143567031Y-125817583D01*
X143553946Y-125823772D01*
X143540317Y-125828649D01*
X143526276Y-125832166D01*
X143511958Y-125834290D01*
X143497500Y-125835000D01*
X143152500Y-125835000D01*
X143138042Y-125834290D01*
X143123724Y-125832166D01*
X143109683Y-125828649D01*
X143096054Y-125823772D01*
X143082969Y-125817583D01*
X143070553Y-125810142D01*
X143058927Y-125801519D01*
X143048202Y-125791798D01*
X143038481Y-125781073D01*
X143029858Y-125769447D01*
X143022417Y-125757031D01*
X143016228Y-125743946D01*
X143011351Y-125730317D01*
X143007834Y-125716276D01*
X143005710Y-125701958D01*
X143005000Y-125687500D01*
X143005000Y-125392500D01*
X143005710Y-125378042D01*
X143007834Y-125363724D01*
X143011351Y-125349683D01*
X143016228Y-125336054D01*
X143022417Y-125322969D01*
X143029858Y-125310553D01*
X143038481Y-125298927D01*
X143048202Y-125288202D01*
X143058927Y-125278481D01*
X143070553Y-125269858D01*
X143082969Y-125262417D01*
X143096054Y-125256228D01*
X143109683Y-125251351D01*
X143123724Y-125247834D01*
X143138042Y-125245710D01*
X143152500Y-125245000D01*
X143497500Y-125245000D01*
X143511958Y-125245710D01*
G37*
G36*
X143511958Y-126215710D02*
G01*
X143526276Y-126217834D01*
X143540317Y-126221351D01*
X143553946Y-126226228D01*
X143567031Y-126232417D01*
X143579447Y-126239858D01*
X143591073Y-126248481D01*
X143601798Y-126258202D01*
X143611519Y-126268927D01*
X143620142Y-126280553D01*
X143627583Y-126292969D01*
X143633772Y-126306054D01*
X143638649Y-126319683D01*
X143642166Y-126333724D01*
X143644290Y-126348042D01*
X143645000Y-126362500D01*
X143645000Y-126657500D01*
X143644290Y-126671958D01*
X143642166Y-126686276D01*
X143638649Y-126700317D01*
X143633772Y-126713946D01*
X143627583Y-126727031D01*
X143620142Y-126739447D01*
X143611519Y-126751073D01*
X143601798Y-126761798D01*
X143591073Y-126771519D01*
X143579447Y-126780142D01*
X143567031Y-126787583D01*
X143553946Y-126793772D01*
X143540317Y-126798649D01*
X143526276Y-126802166D01*
X143511958Y-126804290D01*
X143497500Y-126805000D01*
X143152500Y-126805000D01*
X143138042Y-126804290D01*
X143123724Y-126802166D01*
X143109683Y-126798649D01*
X143096054Y-126793772D01*
X143082969Y-126787583D01*
X143070553Y-126780142D01*
X143058927Y-126771519D01*
X143048202Y-126761798D01*
X143038481Y-126751073D01*
X143029858Y-126739447D01*
X143022417Y-126727031D01*
X143016228Y-126713946D01*
X143011351Y-126700317D01*
X143007834Y-126686276D01*
X143005710Y-126671958D01*
X143005000Y-126657500D01*
X143005000Y-126362500D01*
X143005710Y-126348042D01*
X143007834Y-126333724D01*
X143011351Y-126319683D01*
X143016228Y-126306054D01*
X143022417Y-126292969D01*
X143029858Y-126280553D01*
X143038481Y-126268927D01*
X143048202Y-126258202D01*
X143058927Y-126248481D01*
X143070553Y-126239858D01*
X143082969Y-126232417D01*
X143096054Y-126226228D01*
X143109683Y-126221351D01*
X143123724Y-126217834D01*
X143138042Y-126215710D01*
X143152500Y-126215000D01*
X143497500Y-126215000D01*
X143511958Y-126215710D01*
G37*
G36*
X147486958Y-113045710D02*
G01*
X147501276Y-113047834D01*
X147515317Y-113051351D01*
X147528946Y-113056228D01*
X147542031Y-113062417D01*
X147554447Y-113069858D01*
X147566073Y-113078481D01*
X147576798Y-113088202D01*
X147586519Y-113098927D01*
X147595142Y-113110553D01*
X147602583Y-113122969D01*
X147608772Y-113136054D01*
X147613649Y-113149683D01*
X147617166Y-113163724D01*
X147619290Y-113178042D01*
X147620000Y-113192500D01*
X147620000Y-113487500D01*
X147619290Y-113501958D01*
X147617166Y-113516276D01*
X147613649Y-113530317D01*
X147608772Y-113543946D01*
X147602583Y-113557031D01*
X147595142Y-113569447D01*
X147586519Y-113581073D01*
X147576798Y-113591798D01*
X147566073Y-113601519D01*
X147554447Y-113610142D01*
X147542031Y-113617583D01*
X147528946Y-113623772D01*
X147515317Y-113628649D01*
X147501276Y-113632166D01*
X147486958Y-113634290D01*
X147472500Y-113635000D01*
X147127500Y-113635000D01*
X147113042Y-113634290D01*
X147098724Y-113632166D01*
X147084683Y-113628649D01*
X147071054Y-113623772D01*
X147057969Y-113617583D01*
X147045553Y-113610142D01*
X147033927Y-113601519D01*
X147023202Y-113591798D01*
X147013481Y-113581073D01*
X147004858Y-113569447D01*
X146997417Y-113557031D01*
X146991228Y-113543946D01*
X146986351Y-113530317D01*
X146982834Y-113516276D01*
X146980710Y-113501958D01*
X146980000Y-113487500D01*
X146980000Y-113192500D01*
X146980710Y-113178042D01*
X146982834Y-113163724D01*
X146986351Y-113149683D01*
X146991228Y-113136054D01*
X146997417Y-113122969D01*
X147004858Y-113110553D01*
X147013481Y-113098927D01*
X147023202Y-113088202D01*
X147033927Y-113078481D01*
X147045553Y-113069858D01*
X147057969Y-113062417D01*
X147071054Y-113056228D01*
X147084683Y-113051351D01*
X147098724Y-113047834D01*
X147113042Y-113045710D01*
X147127500Y-113045000D01*
X147472500Y-113045000D01*
X147486958Y-113045710D01*
G37*
G36*
X147486958Y-114015710D02*
G01*
X147501276Y-114017834D01*
X147515317Y-114021351D01*
X147528946Y-114026228D01*
X147542031Y-114032417D01*
X147554447Y-114039858D01*
X147566073Y-114048481D01*
X147576798Y-114058202D01*
X147586519Y-114068927D01*
X147595142Y-114080553D01*
X147602583Y-114092969D01*
X147608772Y-114106054D01*
X147613649Y-114119683D01*
X147617166Y-114133724D01*
X147619290Y-114148042D01*
X147620000Y-114162500D01*
X147620000Y-114457500D01*
X147619290Y-114471958D01*
X147617166Y-114486276D01*
X147613649Y-114500317D01*
X147608772Y-114513946D01*
X147602583Y-114527031D01*
X147595142Y-114539447D01*
X147586519Y-114551073D01*
X147576798Y-114561798D01*
X147566073Y-114571519D01*
X147554447Y-114580142D01*
X147542031Y-114587583D01*
X147528946Y-114593772D01*
X147515317Y-114598649D01*
X147501276Y-114602166D01*
X147486958Y-114604290D01*
X147472500Y-114605000D01*
X147127500Y-114605000D01*
X147113042Y-114604290D01*
X147098724Y-114602166D01*
X147084683Y-114598649D01*
X147071054Y-114593772D01*
X147057969Y-114587583D01*
X147045553Y-114580142D01*
X147033927Y-114571519D01*
X147023202Y-114561798D01*
X147013481Y-114551073D01*
X147004858Y-114539447D01*
X146997417Y-114527031D01*
X146991228Y-114513946D01*
X146986351Y-114500317D01*
X146982834Y-114486276D01*
X146980710Y-114471958D01*
X146980000Y-114457500D01*
X146980000Y-114162500D01*
X146980710Y-114148042D01*
X146982834Y-114133724D01*
X146986351Y-114119683D01*
X146991228Y-114106054D01*
X146997417Y-114092969D01*
X147004858Y-114080553D01*
X147013481Y-114068927D01*
X147023202Y-114058202D01*
X147033927Y-114048481D01*
X147045553Y-114039858D01*
X147057969Y-114032417D01*
X147071054Y-114026228D01*
X147084683Y-114021351D01*
X147098724Y-114017834D01*
X147113042Y-114015710D01*
X147127500Y-114015000D01*
X147472500Y-114015000D01*
X147486958Y-114015710D01*
G37*
G36*
X147511958Y-116520710D02*
G01*
X147526276Y-116522834D01*
X147540317Y-116526351D01*
X147553946Y-116531228D01*
X147567031Y-116537417D01*
X147579447Y-116544858D01*
X147591073Y-116553481D01*
X147601798Y-116563202D01*
X147611519Y-116573927D01*
X147620142Y-116585553D01*
X147627583Y-116597969D01*
X147633772Y-116611054D01*
X147638649Y-116624683D01*
X147642166Y-116638724D01*
X147644290Y-116653042D01*
X147645000Y-116667500D01*
X147645000Y-116962500D01*
X147644290Y-116976958D01*
X147642166Y-116991276D01*
X147638649Y-117005317D01*
X147633772Y-117018946D01*
X147627583Y-117032031D01*
X147620142Y-117044447D01*
X147611519Y-117056073D01*
X147601798Y-117066798D01*
X147591073Y-117076519D01*
X147579447Y-117085142D01*
X147567031Y-117092583D01*
X147553946Y-117098772D01*
X147540317Y-117103649D01*
X147526276Y-117107166D01*
X147511958Y-117109290D01*
X147497500Y-117110000D01*
X147152500Y-117110000D01*
X147138042Y-117109290D01*
X147123724Y-117107166D01*
X147109683Y-117103649D01*
X147096054Y-117098772D01*
X147082969Y-117092583D01*
X147070553Y-117085142D01*
X147058927Y-117076519D01*
X147048202Y-117066798D01*
X147038481Y-117056073D01*
X147029858Y-117044447D01*
X147022417Y-117032031D01*
X147016228Y-117018946D01*
X147011351Y-117005317D01*
X147007834Y-116991276D01*
X147005710Y-116976958D01*
X147005000Y-116962500D01*
X147005000Y-116667500D01*
X147005710Y-116653042D01*
X147007834Y-116638724D01*
X147011351Y-116624683D01*
X147016228Y-116611054D01*
X147022417Y-116597969D01*
X147029858Y-116585553D01*
X147038481Y-116573927D01*
X147048202Y-116563202D01*
X147058927Y-116553481D01*
X147070553Y-116544858D01*
X147082969Y-116537417D01*
X147096054Y-116531228D01*
X147109683Y-116526351D01*
X147123724Y-116522834D01*
X147138042Y-116520710D01*
X147152500Y-116520000D01*
X147497500Y-116520000D01*
X147511958Y-116520710D01*
G37*
G36*
X147511958Y-117490710D02*
G01*
X147526276Y-117492834D01*
X147540317Y-117496351D01*
X147553946Y-117501228D01*
X147567031Y-117507417D01*
X147579447Y-117514858D01*
X147591073Y-117523481D01*
X147601798Y-117533202D01*
X147611519Y-117543927D01*
X147620142Y-117555553D01*
X147627583Y-117567969D01*
X147633772Y-117581054D01*
X147638649Y-117594683D01*
X147642166Y-117608724D01*
X147644290Y-117623042D01*
X147645000Y-117637500D01*
X147645000Y-117932500D01*
X147644290Y-117946958D01*
X147642166Y-117961276D01*
X147638649Y-117975317D01*
X147633772Y-117988946D01*
X147627583Y-118002031D01*
X147620142Y-118014447D01*
X147611519Y-118026073D01*
X147601798Y-118036798D01*
X147591073Y-118046519D01*
X147579447Y-118055142D01*
X147567031Y-118062583D01*
X147553946Y-118068772D01*
X147540317Y-118073649D01*
X147526276Y-118077166D01*
X147511958Y-118079290D01*
X147497500Y-118080000D01*
X147152500Y-118080000D01*
X147138042Y-118079290D01*
X147123724Y-118077166D01*
X147109683Y-118073649D01*
X147096054Y-118068772D01*
X147082969Y-118062583D01*
X147070553Y-118055142D01*
X147058927Y-118046519D01*
X147048202Y-118036798D01*
X147038481Y-118026073D01*
X147029858Y-118014447D01*
X147022417Y-118002031D01*
X147016228Y-117988946D01*
X147011351Y-117975317D01*
X147007834Y-117961276D01*
X147005710Y-117946958D01*
X147005000Y-117932500D01*
X147005000Y-117637500D01*
X147005710Y-117623042D01*
X147007834Y-117608724D01*
X147011351Y-117594683D01*
X147016228Y-117581054D01*
X147022417Y-117567969D01*
X147029858Y-117555553D01*
X147038481Y-117543927D01*
X147048202Y-117533202D01*
X147058927Y-117523481D01*
X147070553Y-117514858D01*
X147082969Y-117507417D01*
X147096054Y-117501228D01*
X147109683Y-117496351D01*
X147123724Y-117492834D01*
X147138042Y-117490710D01*
X147152500Y-117490000D01*
X147497500Y-117490000D01*
X147511958Y-117490710D01*
G37*
G36*
X148561958Y-116545710D02*
G01*
X148576276Y-116547834D01*
X148590317Y-116551351D01*
X148603946Y-116556228D01*
X148617031Y-116562417D01*
X148629447Y-116569858D01*
X148641073Y-116578481D01*
X148651798Y-116588202D01*
X148661519Y-116598927D01*
X148670142Y-116610553D01*
X148677583Y-116622969D01*
X148683772Y-116636054D01*
X148688649Y-116649683D01*
X148692166Y-116663724D01*
X148694290Y-116678042D01*
X148695000Y-116692500D01*
X148695000Y-116987500D01*
X148694290Y-117001958D01*
X148692166Y-117016276D01*
X148688649Y-117030317D01*
X148683772Y-117043946D01*
X148677583Y-117057031D01*
X148670142Y-117069447D01*
X148661519Y-117081073D01*
X148651798Y-117091798D01*
X148641073Y-117101519D01*
X148629447Y-117110142D01*
X148617031Y-117117583D01*
X148603946Y-117123772D01*
X148590317Y-117128649D01*
X148576276Y-117132166D01*
X148561958Y-117134290D01*
X148547500Y-117135000D01*
X148202500Y-117135000D01*
X148188042Y-117134290D01*
X148173724Y-117132166D01*
X148159683Y-117128649D01*
X148146054Y-117123772D01*
X148132969Y-117117583D01*
X148120553Y-117110142D01*
X148108927Y-117101519D01*
X148098202Y-117091798D01*
X148088481Y-117081073D01*
X148079858Y-117069447D01*
X148072417Y-117057031D01*
X148066228Y-117043946D01*
X148061351Y-117030317D01*
X148057834Y-117016276D01*
X148055710Y-117001958D01*
X148055000Y-116987500D01*
X148055000Y-116692500D01*
X148055710Y-116678042D01*
X148057834Y-116663724D01*
X148061351Y-116649683D01*
X148066228Y-116636054D01*
X148072417Y-116622969D01*
X148079858Y-116610553D01*
X148088481Y-116598927D01*
X148098202Y-116588202D01*
X148108927Y-116578481D01*
X148120553Y-116569858D01*
X148132969Y-116562417D01*
X148146054Y-116556228D01*
X148159683Y-116551351D01*
X148173724Y-116547834D01*
X148188042Y-116545710D01*
X148202500Y-116545000D01*
X148547500Y-116545000D01*
X148561958Y-116545710D01*
G37*
G36*
X148561958Y-117515710D02*
G01*
X148576276Y-117517834D01*
X148590317Y-117521351D01*
X148603946Y-117526228D01*
X148617031Y-117532417D01*
X148629447Y-117539858D01*
X148641073Y-117548481D01*
X148651798Y-117558202D01*
X148661519Y-117568927D01*
X148670142Y-117580553D01*
X148677583Y-117592969D01*
X148683772Y-117606054D01*
X148688649Y-117619683D01*
X148692166Y-117633724D01*
X148694290Y-117648042D01*
X148695000Y-117662500D01*
X148695000Y-117957500D01*
X148694290Y-117971958D01*
X148692166Y-117986276D01*
X148688649Y-118000317D01*
X148683772Y-118013946D01*
X148677583Y-118027031D01*
X148670142Y-118039447D01*
X148661519Y-118051073D01*
X148651798Y-118061798D01*
X148641073Y-118071519D01*
X148629447Y-118080142D01*
X148617031Y-118087583D01*
X148603946Y-118093772D01*
X148590317Y-118098649D01*
X148576276Y-118102166D01*
X148561958Y-118104290D01*
X148547500Y-118105000D01*
X148202500Y-118105000D01*
X148188042Y-118104290D01*
X148173724Y-118102166D01*
X148159683Y-118098649D01*
X148146054Y-118093772D01*
X148132969Y-118087583D01*
X148120553Y-118080142D01*
X148108927Y-118071519D01*
X148098202Y-118061798D01*
X148088481Y-118051073D01*
X148079858Y-118039447D01*
X148072417Y-118027031D01*
X148066228Y-118013946D01*
X148061351Y-118000317D01*
X148057834Y-117986276D01*
X148055710Y-117971958D01*
X148055000Y-117957500D01*
X148055000Y-117662500D01*
X148055710Y-117648042D01*
X148057834Y-117633724D01*
X148061351Y-117619683D01*
X148066228Y-117606054D01*
X148072417Y-117592969D01*
X148079858Y-117580553D01*
X148088481Y-117568927D01*
X148098202Y-117558202D01*
X148108927Y-117548481D01*
X148120553Y-117539858D01*
X148132969Y-117532417D01*
X148146054Y-117526228D01*
X148159683Y-117521351D01*
X148173724Y-117517834D01*
X148188042Y-117515710D01*
X148202500Y-117515000D01*
X148547500Y-117515000D01*
X148561958Y-117515710D01*
G37*
G36*
X140146958Y-114605710D02*
G01*
X140161276Y-114607834D01*
X140175317Y-114611351D01*
X140188946Y-114616228D01*
X140202031Y-114622417D01*
X140214447Y-114629858D01*
X140226073Y-114638481D01*
X140236798Y-114648202D01*
X140246519Y-114658927D01*
X140255142Y-114670553D01*
X140262583Y-114682969D01*
X140268772Y-114696054D01*
X140273649Y-114709683D01*
X140277166Y-114723724D01*
X140279290Y-114738042D01*
X140280000Y-114752500D01*
X140280000Y-115097500D01*
X140279290Y-115111958D01*
X140277166Y-115126276D01*
X140273649Y-115140317D01*
X140268772Y-115153946D01*
X140262583Y-115167031D01*
X140255142Y-115179447D01*
X140246519Y-115191073D01*
X140236798Y-115201798D01*
X140226073Y-115211519D01*
X140214447Y-115220142D01*
X140202031Y-115227583D01*
X140188946Y-115233772D01*
X140175317Y-115238649D01*
X140161276Y-115242166D01*
X140146958Y-115244290D01*
X140132500Y-115245000D01*
X139837500Y-115245000D01*
X139823042Y-115244290D01*
X139808724Y-115242166D01*
X139794683Y-115238649D01*
X139781054Y-115233772D01*
X139767969Y-115227583D01*
X139755553Y-115220142D01*
X139743927Y-115211519D01*
X139733202Y-115201798D01*
X139723481Y-115191073D01*
X139714858Y-115179447D01*
X139707417Y-115167031D01*
X139701228Y-115153946D01*
X139696351Y-115140317D01*
X139692834Y-115126276D01*
X139690710Y-115111958D01*
X139690000Y-115097500D01*
X139690000Y-114752500D01*
X139690710Y-114738042D01*
X139692834Y-114723724D01*
X139696351Y-114709683D01*
X139701228Y-114696054D01*
X139707417Y-114682969D01*
X139714858Y-114670553D01*
X139723481Y-114658927D01*
X139733202Y-114648202D01*
X139743927Y-114638481D01*
X139755553Y-114629858D01*
X139767969Y-114622417D01*
X139781054Y-114616228D01*
X139794683Y-114611351D01*
X139808724Y-114607834D01*
X139823042Y-114605710D01*
X139837500Y-114605000D01*
X140132500Y-114605000D01*
X140146958Y-114605710D01*
G37*
G36*
X139176958Y-114605710D02*
G01*
X139191276Y-114607834D01*
X139205317Y-114611351D01*
X139218946Y-114616228D01*
X139232031Y-114622417D01*
X139244447Y-114629858D01*
X139256073Y-114638481D01*
X139266798Y-114648202D01*
X139276519Y-114658927D01*
X139285142Y-114670553D01*
X139292583Y-114682969D01*
X139298772Y-114696054D01*
X139303649Y-114709683D01*
X139307166Y-114723724D01*
X139309290Y-114738042D01*
X139310000Y-114752500D01*
X139310000Y-115097500D01*
X139309290Y-115111958D01*
X139307166Y-115126276D01*
X139303649Y-115140317D01*
X139298772Y-115153946D01*
X139292583Y-115167031D01*
X139285142Y-115179447D01*
X139276519Y-115191073D01*
X139266798Y-115201798D01*
X139256073Y-115211519D01*
X139244447Y-115220142D01*
X139232031Y-115227583D01*
X139218946Y-115233772D01*
X139205317Y-115238649D01*
X139191276Y-115242166D01*
X139176958Y-115244290D01*
X139162500Y-115245000D01*
X138867500Y-115245000D01*
X138853042Y-115244290D01*
X138838724Y-115242166D01*
X138824683Y-115238649D01*
X138811054Y-115233772D01*
X138797969Y-115227583D01*
X138785553Y-115220142D01*
X138773927Y-115211519D01*
X138763202Y-115201798D01*
X138753481Y-115191073D01*
X138744858Y-115179447D01*
X138737417Y-115167031D01*
X138731228Y-115153946D01*
X138726351Y-115140317D01*
X138722834Y-115126276D01*
X138720710Y-115111958D01*
X138720000Y-115097500D01*
X138720000Y-114752500D01*
X138720710Y-114738042D01*
X138722834Y-114723724D01*
X138726351Y-114709683D01*
X138731228Y-114696054D01*
X138737417Y-114682969D01*
X138744858Y-114670553D01*
X138753481Y-114658927D01*
X138763202Y-114648202D01*
X138773927Y-114638481D01*
X138785553Y-114629858D01*
X138797969Y-114622417D01*
X138811054Y-114616228D01*
X138824683Y-114611351D01*
X138838724Y-114607834D01*
X138853042Y-114605710D01*
X138867500Y-114605000D01*
X139162500Y-114605000D01*
X139176958Y-114605710D01*
G37*
G36*
X148451958Y-112130710D02*
G01*
X148466276Y-112132834D01*
X148480317Y-112136351D01*
X148493946Y-112141228D01*
X148507031Y-112147417D01*
X148519447Y-112154858D01*
X148531073Y-112163481D01*
X148541798Y-112173202D01*
X148551519Y-112183927D01*
X148560142Y-112195553D01*
X148567583Y-112207969D01*
X148573772Y-112221054D01*
X148578649Y-112234683D01*
X148582166Y-112248724D01*
X148584290Y-112263042D01*
X148585000Y-112277500D01*
X148585000Y-112622500D01*
X148584290Y-112636958D01*
X148582166Y-112651276D01*
X148578649Y-112665317D01*
X148573772Y-112678946D01*
X148567583Y-112692031D01*
X148560142Y-112704447D01*
X148551519Y-112716073D01*
X148541798Y-112726798D01*
X148531073Y-112736519D01*
X148519447Y-112745142D01*
X148507031Y-112752583D01*
X148493946Y-112758772D01*
X148480317Y-112763649D01*
X148466276Y-112767166D01*
X148451958Y-112769290D01*
X148437500Y-112770000D01*
X148142500Y-112770000D01*
X148128042Y-112769290D01*
X148113724Y-112767166D01*
X148099683Y-112763649D01*
X148086054Y-112758772D01*
X148072969Y-112752583D01*
X148060553Y-112745142D01*
X148048927Y-112736519D01*
X148038202Y-112726798D01*
X148028481Y-112716073D01*
X148019858Y-112704447D01*
X148012417Y-112692031D01*
X148006228Y-112678946D01*
X148001351Y-112665317D01*
X147997834Y-112651276D01*
X147995710Y-112636958D01*
X147995000Y-112622500D01*
X147995000Y-112277500D01*
X147995710Y-112263042D01*
X147997834Y-112248724D01*
X148001351Y-112234683D01*
X148006228Y-112221054D01*
X148012417Y-112207969D01*
X148019858Y-112195553D01*
X148028481Y-112183927D01*
X148038202Y-112173202D01*
X148048927Y-112163481D01*
X148060553Y-112154858D01*
X148072969Y-112147417D01*
X148086054Y-112141228D01*
X148099683Y-112136351D01*
X148113724Y-112132834D01*
X148128042Y-112130710D01*
X148142500Y-112130000D01*
X148437500Y-112130000D01*
X148451958Y-112130710D01*
G37*
G36*
X149421958Y-112130710D02*
G01*
X149436276Y-112132834D01*
X149450317Y-112136351D01*
X149463946Y-112141228D01*
X149477031Y-112147417D01*
X149489447Y-112154858D01*
X149501073Y-112163481D01*
X149511798Y-112173202D01*
X149521519Y-112183927D01*
X149530142Y-112195553D01*
X149537583Y-112207969D01*
X149543772Y-112221054D01*
X149548649Y-112234683D01*
X149552166Y-112248724D01*
X149554290Y-112263042D01*
X149555000Y-112277500D01*
X149555000Y-112622500D01*
X149554290Y-112636958D01*
X149552166Y-112651276D01*
X149548649Y-112665317D01*
X149543772Y-112678946D01*
X149537583Y-112692031D01*
X149530142Y-112704447D01*
X149521519Y-112716073D01*
X149511798Y-112726798D01*
X149501073Y-112736519D01*
X149489447Y-112745142D01*
X149477031Y-112752583D01*
X149463946Y-112758772D01*
X149450317Y-112763649D01*
X149436276Y-112767166D01*
X149421958Y-112769290D01*
X149407500Y-112770000D01*
X149112500Y-112770000D01*
X149098042Y-112769290D01*
X149083724Y-112767166D01*
X149069683Y-112763649D01*
X149056054Y-112758772D01*
X149042969Y-112752583D01*
X149030553Y-112745142D01*
X149018927Y-112736519D01*
X149008202Y-112726798D01*
X148998481Y-112716073D01*
X148989858Y-112704447D01*
X148982417Y-112692031D01*
X148976228Y-112678946D01*
X148971351Y-112665317D01*
X148967834Y-112651276D01*
X148965710Y-112636958D01*
X148965000Y-112622500D01*
X148965000Y-112277500D01*
X148965710Y-112263042D01*
X148967834Y-112248724D01*
X148971351Y-112234683D01*
X148976228Y-112221054D01*
X148982417Y-112207969D01*
X148989858Y-112195553D01*
X148998481Y-112183927D01*
X149008202Y-112173202D01*
X149018927Y-112163481D01*
X149030553Y-112154858D01*
X149042969Y-112147417D01*
X149056054Y-112141228D01*
X149069683Y-112136351D01*
X149083724Y-112132834D01*
X149098042Y-112130710D01*
X149112500Y-112130000D01*
X149407500Y-112130000D01*
X149421958Y-112130710D01*
G37*
G36*
X141786958Y-112695710D02*
G01*
X141801276Y-112697834D01*
X141815317Y-112701351D01*
X141828946Y-112706228D01*
X141842031Y-112712417D01*
X141854447Y-112719858D01*
X141866073Y-112728481D01*
X141876798Y-112738202D01*
X141886519Y-112748927D01*
X141895142Y-112760553D01*
X141902583Y-112772969D01*
X141908772Y-112786054D01*
X141913649Y-112799683D01*
X141917166Y-112813724D01*
X141919290Y-112828042D01*
X141920000Y-112842500D01*
X141920000Y-113137500D01*
X141919290Y-113151958D01*
X141917166Y-113166276D01*
X141913649Y-113180317D01*
X141908772Y-113193946D01*
X141902583Y-113207031D01*
X141895142Y-113219447D01*
X141886519Y-113231073D01*
X141876798Y-113241798D01*
X141866073Y-113251519D01*
X141854447Y-113260142D01*
X141842031Y-113267583D01*
X141828946Y-113273772D01*
X141815317Y-113278649D01*
X141801276Y-113282166D01*
X141786958Y-113284290D01*
X141772500Y-113285000D01*
X141427500Y-113285000D01*
X141413042Y-113284290D01*
X141398724Y-113282166D01*
X141384683Y-113278649D01*
X141371054Y-113273772D01*
X141357969Y-113267583D01*
X141345553Y-113260142D01*
X141333927Y-113251519D01*
X141323202Y-113241798D01*
X141313481Y-113231073D01*
X141304858Y-113219447D01*
X141297417Y-113207031D01*
X141291228Y-113193946D01*
X141286351Y-113180317D01*
X141282834Y-113166276D01*
X141280710Y-113151958D01*
X141280000Y-113137500D01*
X141280000Y-112842500D01*
X141280710Y-112828042D01*
X141282834Y-112813724D01*
X141286351Y-112799683D01*
X141291228Y-112786054D01*
X141297417Y-112772969D01*
X141304858Y-112760553D01*
X141313481Y-112748927D01*
X141323202Y-112738202D01*
X141333927Y-112728481D01*
X141345553Y-112719858D01*
X141357969Y-112712417D01*
X141371054Y-112706228D01*
X141384683Y-112701351D01*
X141398724Y-112697834D01*
X141413042Y-112695710D01*
X141427500Y-112695000D01*
X141772500Y-112695000D01*
X141786958Y-112695710D01*
G37*
G36*
X141786958Y-113665710D02*
G01*
X141801276Y-113667834D01*
X141815317Y-113671351D01*
X141828946Y-113676228D01*
X141842031Y-113682417D01*
X141854447Y-113689858D01*
X141866073Y-113698481D01*
X141876798Y-113708202D01*
X141886519Y-113718927D01*
X141895142Y-113730553D01*
X141902583Y-113742969D01*
X141908772Y-113756054D01*
X141913649Y-113769683D01*
X141917166Y-113783724D01*
X141919290Y-113798042D01*
X141920000Y-113812500D01*
X141920000Y-114107500D01*
X141919290Y-114121958D01*
X141917166Y-114136276D01*
X141913649Y-114150317D01*
X141908772Y-114163946D01*
X141902583Y-114177031D01*
X141895142Y-114189447D01*
X141886519Y-114201073D01*
X141876798Y-114211798D01*
X141866073Y-114221519D01*
X141854447Y-114230142D01*
X141842031Y-114237583D01*
X141828946Y-114243772D01*
X141815317Y-114248649D01*
X141801276Y-114252166D01*
X141786958Y-114254290D01*
X141772500Y-114255000D01*
X141427500Y-114255000D01*
X141413042Y-114254290D01*
X141398724Y-114252166D01*
X141384683Y-114248649D01*
X141371054Y-114243772D01*
X141357969Y-114237583D01*
X141345553Y-114230142D01*
X141333927Y-114221519D01*
X141323202Y-114211798D01*
X141313481Y-114201073D01*
X141304858Y-114189447D01*
X141297417Y-114177031D01*
X141291228Y-114163946D01*
X141286351Y-114150317D01*
X141282834Y-114136276D01*
X141280710Y-114121958D01*
X141280000Y-114107500D01*
X141280000Y-113812500D01*
X141280710Y-113798042D01*
X141282834Y-113783724D01*
X141286351Y-113769683D01*
X141291228Y-113756054D01*
X141297417Y-113742969D01*
X141304858Y-113730553D01*
X141313481Y-113718927D01*
X141323202Y-113708202D01*
X141333927Y-113698481D01*
X141345553Y-113689858D01*
X141357969Y-113682417D01*
X141371054Y-113676228D01*
X141384683Y-113671351D01*
X141398724Y-113667834D01*
X141413042Y-113665710D01*
X141427500Y-113665000D01*
X141772500Y-113665000D01*
X141786958Y-113665710D01*
G37*
G36*
X146461958Y-116520710D02*
G01*
X146476276Y-116522834D01*
X146490317Y-116526351D01*
X146503946Y-116531228D01*
X146517031Y-116537417D01*
X146529447Y-116544858D01*
X146541073Y-116553481D01*
X146551798Y-116563202D01*
X146561519Y-116573927D01*
X146570142Y-116585553D01*
X146577583Y-116597969D01*
X146583772Y-116611054D01*
X146588649Y-116624683D01*
X146592166Y-116638724D01*
X146594290Y-116653042D01*
X146595000Y-116667500D01*
X146595000Y-116962500D01*
X146594290Y-116976958D01*
X146592166Y-116991276D01*
X146588649Y-117005317D01*
X146583772Y-117018946D01*
X146577583Y-117032031D01*
X146570142Y-117044447D01*
X146561519Y-117056073D01*
X146551798Y-117066798D01*
X146541073Y-117076519D01*
X146529447Y-117085142D01*
X146517031Y-117092583D01*
X146503946Y-117098772D01*
X146490317Y-117103649D01*
X146476276Y-117107166D01*
X146461958Y-117109290D01*
X146447500Y-117110000D01*
X146102500Y-117110000D01*
X146088042Y-117109290D01*
X146073724Y-117107166D01*
X146059683Y-117103649D01*
X146046054Y-117098772D01*
X146032969Y-117092583D01*
X146020553Y-117085142D01*
X146008927Y-117076519D01*
X145998202Y-117066798D01*
X145988481Y-117056073D01*
X145979858Y-117044447D01*
X145972417Y-117032031D01*
X145966228Y-117018946D01*
X145961351Y-117005317D01*
X145957834Y-116991276D01*
X145955710Y-116976958D01*
X145955000Y-116962500D01*
X145955000Y-116667500D01*
X145955710Y-116653042D01*
X145957834Y-116638724D01*
X145961351Y-116624683D01*
X145966228Y-116611054D01*
X145972417Y-116597969D01*
X145979858Y-116585553D01*
X145988481Y-116573927D01*
X145998202Y-116563202D01*
X146008927Y-116553481D01*
X146020553Y-116544858D01*
X146032969Y-116537417D01*
X146046054Y-116531228D01*
X146059683Y-116526351D01*
X146073724Y-116522834D01*
X146088042Y-116520710D01*
X146102500Y-116520000D01*
X146447500Y-116520000D01*
X146461958Y-116520710D01*
G37*
G36*
X146461958Y-117490710D02*
G01*
X146476276Y-117492834D01*
X146490317Y-117496351D01*
X146503946Y-117501228D01*
X146517031Y-117507417D01*
X146529447Y-117514858D01*
X146541073Y-117523481D01*
X146551798Y-117533202D01*
X146561519Y-117543927D01*
X146570142Y-117555553D01*
X146577583Y-117567969D01*
X146583772Y-117581054D01*
X146588649Y-117594683D01*
X146592166Y-117608724D01*
X146594290Y-117623042D01*
X146595000Y-117637500D01*
X146595000Y-117932500D01*
X146594290Y-117946958D01*
X146592166Y-117961276D01*
X146588649Y-117975317D01*
X146583772Y-117988946D01*
X146577583Y-118002031D01*
X146570142Y-118014447D01*
X146561519Y-118026073D01*
X146551798Y-118036798D01*
X146541073Y-118046519D01*
X146529447Y-118055142D01*
X146517031Y-118062583D01*
X146503946Y-118068772D01*
X146490317Y-118073649D01*
X146476276Y-118077166D01*
X146461958Y-118079290D01*
X146447500Y-118080000D01*
X146102500Y-118080000D01*
X146088042Y-118079290D01*
X146073724Y-118077166D01*
X146059683Y-118073649D01*
X146046054Y-118068772D01*
X146032969Y-118062583D01*
X146020553Y-118055142D01*
X146008927Y-118046519D01*
X145998202Y-118036798D01*
X145988481Y-118026073D01*
X145979858Y-118014447D01*
X145972417Y-118002031D01*
X145966228Y-117988946D01*
X145961351Y-117975317D01*
X145957834Y-117961276D01*
X145955710Y-117946958D01*
X145955000Y-117932500D01*
X145955000Y-117637500D01*
X145955710Y-117623042D01*
X145957834Y-117608724D01*
X145961351Y-117594683D01*
X145966228Y-117581054D01*
X145972417Y-117567969D01*
X145979858Y-117555553D01*
X145988481Y-117543927D01*
X145998202Y-117533202D01*
X146008927Y-117523481D01*
X146020553Y-117514858D01*
X146032969Y-117507417D01*
X146046054Y-117501228D01*
X146059683Y-117496351D01*
X146073724Y-117492834D01*
X146088042Y-117490710D01*
X146102500Y-117490000D01*
X146447500Y-117490000D01*
X146461958Y-117490710D01*
G37*
D27*
X145485000Y-115892500D03*
D28*
X145487500Y-115237500D03*
X145490000Y-114737500D03*
X145490000Y-114237500D03*
D27*
X145485000Y-113605000D03*
X143112500Y-113610000D03*
D28*
X143112500Y-114237500D03*
X143112500Y-114737500D03*
X143112500Y-115237500D03*
D27*
X143110000Y-115892500D03*
D29*
X144295000Y-115705000D03*
D30*
X144295000Y-114827500D03*
D29*
X144295000Y-113952500D03*
D31*
X114692500Y-101410000D03*
X153707500Y-101402500D03*
D32*
X138682500Y-105150000D03*
X140830000Y-105150000D03*
D12*
G36*
X152535779Y-127451144D02*
G01*
X152558834Y-127454563D01*
X152581443Y-127460227D01*
X152603387Y-127468079D01*
X152624457Y-127478044D01*
X152644448Y-127490026D01*
X152663168Y-127503910D01*
X152680438Y-127519562D01*
X152696090Y-127536832D01*
X152709974Y-127555552D01*
X152721956Y-127575543D01*
X152731921Y-127596613D01*
X152739773Y-127618557D01*
X152745437Y-127641166D01*
X152748856Y-127664221D01*
X152750000Y-127687500D01*
X152750000Y-128162500D01*
X152748856Y-128185779D01*
X152745437Y-128208834D01*
X152739773Y-128231443D01*
X152731921Y-128253387D01*
X152721956Y-128274457D01*
X152709974Y-128294448D01*
X152696090Y-128313168D01*
X152680438Y-128330438D01*
X152663168Y-128346090D01*
X152644448Y-128359974D01*
X152624457Y-128371956D01*
X152603387Y-128381921D01*
X152581443Y-128389773D01*
X152558834Y-128395437D01*
X152535779Y-128398856D01*
X152512500Y-128400000D01*
X151937500Y-128400000D01*
X151914221Y-128398856D01*
X151891166Y-128395437D01*
X151868557Y-128389773D01*
X151846613Y-128381921D01*
X151825543Y-128371956D01*
X151805552Y-128359974D01*
X151786832Y-128346090D01*
X151769562Y-128330438D01*
X151753910Y-128313168D01*
X151740026Y-128294448D01*
X151728044Y-128274457D01*
X151718079Y-128253387D01*
X151710227Y-128231443D01*
X151704563Y-128208834D01*
X151701144Y-128185779D01*
X151700000Y-128162500D01*
X151700000Y-127687500D01*
X151701144Y-127664221D01*
X151704563Y-127641166D01*
X151710227Y-127618557D01*
X151718079Y-127596613D01*
X151728044Y-127575543D01*
X151740026Y-127555552D01*
X151753910Y-127536832D01*
X151769562Y-127519562D01*
X151786832Y-127503910D01*
X151805552Y-127490026D01*
X151825543Y-127478044D01*
X151846613Y-127468079D01*
X151868557Y-127460227D01*
X151891166Y-127454563D01*
X151914221Y-127451144D01*
X151937500Y-127450000D01*
X152512500Y-127450000D01*
X152535779Y-127451144D01*
G37*
G36*
X150785779Y-127451144D02*
G01*
X150808834Y-127454563D01*
X150831443Y-127460227D01*
X150853387Y-127468079D01*
X150874457Y-127478044D01*
X150894448Y-127490026D01*
X150913168Y-127503910D01*
X150930438Y-127519562D01*
X150946090Y-127536832D01*
X150959974Y-127555552D01*
X150971956Y-127575543D01*
X150981921Y-127596613D01*
X150989773Y-127618557D01*
X150995437Y-127641166D01*
X150998856Y-127664221D01*
X151000000Y-127687500D01*
X151000000Y-128162500D01*
X150998856Y-128185779D01*
X150995437Y-128208834D01*
X150989773Y-128231443D01*
X150981921Y-128253387D01*
X150971956Y-128274457D01*
X150959974Y-128294448D01*
X150946090Y-128313168D01*
X150930438Y-128330438D01*
X150913168Y-128346090D01*
X150894448Y-128359974D01*
X150874457Y-128371956D01*
X150853387Y-128381921D01*
X150831443Y-128389773D01*
X150808834Y-128395437D01*
X150785779Y-128398856D01*
X150762500Y-128400000D01*
X150187500Y-128400000D01*
X150164221Y-128398856D01*
X150141166Y-128395437D01*
X150118557Y-128389773D01*
X150096613Y-128381921D01*
X150075543Y-128371956D01*
X150055552Y-128359974D01*
X150036832Y-128346090D01*
X150019562Y-128330438D01*
X150003910Y-128313168D01*
X149990026Y-128294448D01*
X149978044Y-128274457D01*
X149968079Y-128253387D01*
X149960227Y-128231443D01*
X149954563Y-128208834D01*
X149951144Y-128185779D01*
X149950000Y-128162500D01*
X149950000Y-127687500D01*
X149951144Y-127664221D01*
X149954563Y-127641166D01*
X149960227Y-127618557D01*
X149968079Y-127596613D01*
X149978044Y-127575543D01*
X149990026Y-127555552D01*
X150003910Y-127536832D01*
X150019562Y-127519562D01*
X150036832Y-127503910D01*
X150055552Y-127490026D01*
X150075543Y-127478044D01*
X150096613Y-127468079D01*
X150118557Y-127460227D01*
X150141166Y-127454563D01*
X150164221Y-127451144D01*
X150187500Y-127450000D01*
X150762500Y-127450000D01*
X150785779Y-127451144D01*
G37*
D33*
X155410000Y-117382500D03*
D34*
X154917500Y-114765000D03*
X155905000Y-114765000D03*
D12*
G36*
X138765142Y-129761174D02*
G01*
X138788803Y-129764684D01*
X138812007Y-129770496D01*
X138834529Y-129778554D01*
X138856153Y-129788782D01*
X138876670Y-129801079D01*
X138895883Y-129815329D01*
X138913607Y-129831393D01*
X138929671Y-129849117D01*
X138943921Y-129868330D01*
X138956218Y-129888847D01*
X138966446Y-129910471D01*
X138974504Y-129932993D01*
X138980316Y-129956197D01*
X138983826Y-129979858D01*
X138985000Y-130003750D01*
X138985000Y-130491250D01*
X138983826Y-130515142D01*
X138980316Y-130538803D01*
X138974504Y-130562007D01*
X138966446Y-130584529D01*
X138956218Y-130606153D01*
X138943921Y-130626670D01*
X138929671Y-130645883D01*
X138913607Y-130663607D01*
X138895883Y-130679671D01*
X138876670Y-130693921D01*
X138856153Y-130706218D01*
X138834529Y-130716446D01*
X138812007Y-130724504D01*
X138788803Y-130730316D01*
X138765142Y-130733826D01*
X138741250Y-130735000D01*
X137828750Y-130735000D01*
X137804858Y-130733826D01*
X137781197Y-130730316D01*
X137757993Y-130724504D01*
X137735471Y-130716446D01*
X137713847Y-130706218D01*
X137693330Y-130693921D01*
X137674117Y-130679671D01*
X137656393Y-130663607D01*
X137640329Y-130645883D01*
X137626079Y-130626670D01*
X137613782Y-130606153D01*
X137603554Y-130584529D01*
X137595496Y-130562007D01*
X137589684Y-130538803D01*
X137586174Y-130515142D01*
X137585000Y-130491250D01*
X137585000Y-130003750D01*
X137586174Y-129979858D01*
X137589684Y-129956197D01*
X137595496Y-129932993D01*
X137603554Y-129910471D01*
X137613782Y-129888847D01*
X137626079Y-129868330D01*
X137640329Y-129849117D01*
X137656393Y-129831393D01*
X137674117Y-129815329D01*
X137693330Y-129801079D01*
X137713847Y-129788782D01*
X137735471Y-129778554D01*
X137757993Y-129770496D01*
X137781197Y-129764684D01*
X137804858Y-129761174D01*
X137828750Y-129760000D01*
X138741250Y-129760000D01*
X138765142Y-129761174D01*
G37*
G36*
X138765142Y-131636174D02*
G01*
X138788803Y-131639684D01*
X138812007Y-131645496D01*
X138834529Y-131653554D01*
X138856153Y-131663782D01*
X138876670Y-131676079D01*
X138895883Y-131690329D01*
X138913607Y-131706393D01*
X138929671Y-131724117D01*
X138943921Y-131743330D01*
X138956218Y-131763847D01*
X138966446Y-131785471D01*
X138974504Y-131807993D01*
X138980316Y-131831197D01*
X138983826Y-131854858D01*
X138985000Y-131878750D01*
X138985000Y-132366250D01*
X138983826Y-132390142D01*
X138980316Y-132413803D01*
X138974504Y-132437007D01*
X138966446Y-132459529D01*
X138956218Y-132481153D01*
X138943921Y-132501670D01*
X138929671Y-132520883D01*
X138913607Y-132538607D01*
X138895883Y-132554671D01*
X138876670Y-132568921D01*
X138856153Y-132581218D01*
X138834529Y-132591446D01*
X138812007Y-132599504D01*
X138788803Y-132605316D01*
X138765142Y-132608826D01*
X138741250Y-132610000D01*
X137828750Y-132610000D01*
X137804858Y-132608826D01*
X137781197Y-132605316D01*
X137757993Y-132599504D01*
X137735471Y-132591446D01*
X137713847Y-132581218D01*
X137693330Y-132568921D01*
X137674117Y-132554671D01*
X137656393Y-132538607D01*
X137640329Y-132520883D01*
X137626079Y-132501670D01*
X137613782Y-132481153D01*
X137603554Y-132459529D01*
X137595496Y-132437007D01*
X137589684Y-132413803D01*
X137586174Y-132390142D01*
X137585000Y-132366250D01*
X137585000Y-131878750D01*
X137586174Y-131854858D01*
X137589684Y-131831197D01*
X137595496Y-131807993D01*
X137603554Y-131785471D01*
X137613782Y-131763847D01*
X137626079Y-131743330D01*
X137640329Y-131724117D01*
X137656393Y-131706393D01*
X137674117Y-131690329D01*
X137693330Y-131676079D01*
X137713847Y-131663782D01*
X137735471Y-131653554D01*
X137757993Y-131645496D01*
X137781197Y-131639684D01*
X137804858Y-131636174D01*
X137828750Y-131635000D01*
X138741250Y-131635000D01*
X138765142Y-131636174D01*
G37*
M02*
