G04 #@! TF.GenerationSoftware,KiCad,Pcbnew,(5.1.5)-3*
G04 #@! TF.CreationDate,2020-04-03T19:02:15-07:00*
G04 #@! TF.ProjectId,ShadowRunner,53686164-6f77-4527-956e-6e65722e6b69,rev?*
G04 #@! TF.SameCoordinates,Original*
G04 #@! TF.FileFunction,Copper,L4,Bot*
G04 #@! TF.FilePolarity,Positive*
%FSLAX46Y46*%
G04 Gerber Fmt 4.6, Leading zero omitted, Abs format (unit mm)*
G04 Created by KiCad (PCBNEW (5.1.5)-3) date 2020-04-03 19:02:15*
%MOMM*%
%LPD*%
G04 APERTURE LIST*
%ADD10R,0.740000X2.400000*%
%ADD11R,0.750000X0.600000*%
%ADD12R,1.500000X0.700000*%
%ADD13R,2.000000X0.500000*%
%ADD14R,1.950000X0.500000*%
%ADD15R,1.600000X0.500000*%
%ADD16C,0.650000*%
%ADD17O,2.400000X0.900000*%
%ADD18O,1.700000X0.900000*%
%ADD19R,2.006600X1.193800*%
%ADD20R,3.505200X0.711200*%
%ADD21C,0.400000*%
%ADD22C,0.800000*%
%ADD23C,0.152400*%
%ADD24C,0.254000*%
G04 APERTURE END LIST*
D10*
X132610000Y-114225000D03*
X132610000Y-118125000D03*
X133880000Y-114225000D03*
X133880000Y-118125000D03*
X135150000Y-114225000D03*
X135150000Y-118125000D03*
X136420000Y-114225000D03*
X136420000Y-118125000D03*
X137690000Y-114225000D03*
X137690000Y-118125000D03*
D11*
X112830000Y-129100000D03*
X112830000Y-128000000D03*
X112830000Y-126900000D03*
X112830000Y-125800000D03*
X112830000Y-124700000D03*
X112830000Y-123600000D03*
X112830000Y-122500000D03*
D12*
X125107500Y-120420000D03*
D13*
X119752500Y-120092500D03*
D14*
X113632500Y-120087500D03*
D15*
X115360000Y-131490000D03*
X119560000Y-131490000D03*
D13*
X124860000Y-131490000D03*
D16*
X155402500Y-130487500D03*
X155402500Y-129637500D03*
X155402500Y-128787500D03*
X155402500Y-127937500D03*
X155402500Y-127087500D03*
X155402500Y-126237500D03*
X155402500Y-125387500D03*
X155402500Y-124537500D03*
X154052500Y-124537500D03*
X154052500Y-125387500D03*
X154052500Y-126237500D03*
X154052500Y-127087500D03*
X154052500Y-127937500D03*
X154052500Y-128787500D03*
X154052500Y-129637500D03*
X154052500Y-130487500D03*
D17*
X154427500Y-131850000D03*
X154412500Y-123195000D03*
D18*
X151022500Y-131850000D03*
X151022500Y-123197500D03*
D19*
X119772600Y-118100000D03*
X119772600Y-112700000D03*
D20*
X123772599Y-114650700D03*
X123772599Y-116149300D03*
D21*
X126365000Y-120445000D03*
X118945000Y-120865000D03*
D22*
X121725000Y-111075000D03*
X117650000Y-111225000D03*
X115550000Y-111175000D03*
X112650000Y-111150000D03*
X155650000Y-111100000D03*
X153650000Y-111100000D03*
X151650000Y-111100000D03*
X149650000Y-111100000D03*
X147650000Y-111100000D03*
X145650000Y-111100000D03*
X143650000Y-111100000D03*
X142250000Y-111100000D03*
X137750000Y-111100000D03*
X135750000Y-111100000D03*
X133725000Y-111100000D03*
X131925000Y-111100000D03*
X129850000Y-111100000D03*
X128050000Y-111100000D03*
X126475000Y-111100000D03*
X123775000Y-111100000D03*
D21*
X131325000Y-118115000D03*
X155905000Y-112545000D03*
X154965000Y-112505000D03*
X153975000Y-112515000D03*
X152965000Y-112485000D03*
X149995000Y-113465000D03*
X149945000Y-114435000D03*
X149965000Y-115245000D03*
X149915000Y-116105000D03*
X149885000Y-116965000D03*
X150425000Y-118165000D03*
X151085000Y-118195000D03*
X151925000Y-118145000D03*
X152755000Y-118185000D03*
X153875000Y-118155000D03*
X156025000Y-118465000D03*
X154845000Y-118545000D03*
X121200000Y-116050000D03*
X142750000Y-127775000D03*
X141200000Y-127775000D03*
X131775000Y-119100000D03*
X128755000Y-124615000D03*
X151225000Y-121400000D03*
X134815000Y-130895000D03*
X143965000Y-129805000D03*
X141925000Y-132205000D03*
X120800000Y-124150000D03*
X120051201Y-124150000D03*
X120875000Y-125165000D03*
X126605000Y-124885000D03*
X130875000Y-124000000D03*
X130575000Y-123025000D03*
X132125000Y-122850000D03*
X152325000Y-127000000D03*
X116865000Y-129885000D03*
X155650000Y-119475000D03*
X116345000Y-130365000D03*
X150100000Y-119475000D03*
X138665000Y-112275000D03*
X144495000Y-116825000D03*
X119845000Y-125195000D03*
X122360000Y-112450000D03*
X132050000Y-125625000D03*
X130750000Y-125050000D03*
X132850000Y-125400000D03*
X130325000Y-124625000D03*
X115565000Y-124565000D03*
X139050000Y-119350000D03*
X116145000Y-125575000D03*
X139045222Y-118650000D03*
X136785000Y-120405000D03*
X116705000Y-126085000D03*
X117255000Y-126685000D03*
X137775000Y-119875000D03*
X141475000Y-117375000D03*
X117835000Y-124315000D03*
X118675000Y-124155000D03*
X140748799Y-116873799D03*
X153150000Y-126950000D03*
X139345000Y-111595000D03*
X143815000Y-122325000D03*
D23*
X118945000Y-120865000D02*
X119615000Y-120865000D01*
X119752500Y-120727500D02*
X119752500Y-120092500D01*
X119615000Y-120865000D02*
X119752500Y-120727500D01*
X126340000Y-120420000D02*
X126365000Y-120445000D01*
X125107500Y-120420000D02*
X126340000Y-120420000D01*
X112302600Y-128000000D02*
X112075000Y-128227600D01*
X112830000Y-128000000D02*
X112302600Y-128000000D01*
X112075000Y-128227600D02*
X112075000Y-130035000D01*
X123673299Y-116050000D02*
X123772599Y-116149300D01*
X121200000Y-116050000D02*
X123673299Y-116050000D01*
X142750000Y-127775000D02*
X141200000Y-127775000D01*
X141200000Y-127775000D02*
X141200000Y-127775000D01*
X131775000Y-118960000D02*
X132610000Y-118125000D01*
X131775000Y-119100000D02*
X131775000Y-118960000D01*
X112830000Y-129100000D02*
X114050000Y-129100000D01*
X114050000Y-129100000D02*
X114125000Y-129100000D01*
X115059018Y-129100000D02*
X114050000Y-129100000D01*
X115354027Y-129395010D02*
X115059018Y-129100000D01*
X128755000Y-124615000D02*
X128755000Y-125455000D01*
X128295000Y-125915000D02*
X126808383Y-125915000D01*
X128755000Y-125455000D02*
X128295000Y-125915000D01*
X126808383Y-125915000D02*
X123328373Y-129395010D01*
X123328373Y-129395010D02*
X115354027Y-129395010D01*
X151225000Y-121400000D02*
X149652410Y-119827410D01*
X149652410Y-119827410D02*
X148147590Y-119827410D01*
X137130000Y-130845000D02*
X148147590Y-119827410D01*
X134755000Y-130845000D02*
X137130000Y-130845000D01*
X143965000Y-130087842D02*
X143965000Y-129805000D01*
X143965000Y-130447842D02*
X143965000Y-130087842D01*
X142207842Y-132205000D02*
X143965000Y-130447842D01*
X141925000Y-132205000D02*
X142207842Y-132205000D01*
X129299025Y-114225000D02*
X131150000Y-114225000D01*
X131150000Y-114225000D02*
X132610000Y-114225000D01*
X120600000Y-121988926D02*
X120600001Y-123950001D01*
X123616944Y-117829820D02*
X121904820Y-119541944D01*
X129296764Y-114225000D02*
X128600000Y-114921764D01*
X128600000Y-114921764D02*
X128600000Y-114924027D01*
X120600001Y-123950001D02*
X120800000Y-124150000D01*
X131150000Y-114225000D02*
X129296764Y-114225000D01*
X128600000Y-114924027D02*
X125694207Y-117829820D01*
X121904820Y-120684108D02*
X120600000Y-121988926D01*
X121904820Y-119541944D02*
X121904820Y-120684108D01*
X125694207Y-117829820D02*
X123616944Y-117829820D01*
X120075000Y-122015544D02*
X121552410Y-120538135D01*
X120075000Y-123843359D02*
X120075000Y-122015544D01*
X130545972Y-112477410D02*
X133484810Y-112477410D01*
X120051201Y-123867158D02*
X120075000Y-123843359D01*
X120051201Y-124150000D02*
X120051201Y-123867158D01*
X133484810Y-112477410D02*
X133880000Y-112872600D01*
X121552410Y-119395972D02*
X123470972Y-117477410D01*
X121552410Y-120538135D02*
X121552410Y-119395972D01*
X123470972Y-117477410D02*
X125548234Y-117477410D01*
X133880000Y-112872600D02*
X133880000Y-114225000D01*
X125548234Y-117477410D02*
X127352409Y-115673234D01*
X127352409Y-115673234D02*
X127352409Y-115670973D01*
X127352409Y-115670973D02*
X130545972Y-112477410D01*
X137690000Y-112872600D02*
X137690000Y-114225000D01*
X136942400Y-112125000D02*
X137690000Y-112872600D01*
X130399999Y-112125000D02*
X136942400Y-112125000D01*
X125801400Y-116723600D02*
X130399999Y-112125000D01*
X125801400Y-116725861D02*
X125801400Y-116723600D01*
X119575000Y-123844976D02*
X119722590Y-123697386D01*
X119575000Y-124378577D02*
X119575000Y-123844976D01*
X120875000Y-125165000D02*
X120336201Y-124626201D01*
X119822624Y-124626201D02*
X119575000Y-124378577D01*
X123325000Y-117125000D02*
X125402261Y-117125000D01*
X119722590Y-121869571D02*
X121200000Y-120392162D01*
X121200000Y-120392162D02*
X121200000Y-119250000D01*
X119722590Y-123697386D02*
X119722590Y-121869571D01*
X120336201Y-124626201D02*
X119822624Y-124626201D01*
X121200000Y-119250000D02*
X123325000Y-117125000D01*
X125402261Y-117125000D02*
X125801400Y-116725861D01*
X112830000Y-126900000D02*
X113357400Y-126900000D01*
X113357400Y-126900000D02*
X115500000Y-129042600D01*
X115500000Y-129042600D02*
X123182400Y-129042600D01*
X123182400Y-129042600D02*
X126550000Y-125675000D01*
X126550000Y-125675000D02*
X126550000Y-125370000D01*
X126525000Y-125345000D02*
X126525000Y-124865000D01*
X126550000Y-125370000D02*
X126525000Y-125345000D01*
X123049146Y-128677409D02*
X115633190Y-128677408D01*
X126073799Y-125652756D02*
X123049146Y-128677409D01*
X130592158Y-124000000D02*
X129819569Y-123227411D01*
X126073799Y-124171422D02*
X126073799Y-125652756D01*
X130875000Y-124000000D02*
X130592158Y-124000000D01*
X129819569Y-123227411D02*
X127017810Y-123227411D01*
X127017810Y-123227411D02*
X126073799Y-124171422D01*
X114647591Y-127691809D02*
X114647591Y-127687591D01*
X115372891Y-128417109D02*
X114647591Y-127691809D01*
X115372891Y-128417109D02*
X114647590Y-127691809D01*
X115633190Y-128677408D02*
X115372891Y-128417109D01*
X113357400Y-124700000D02*
X112830000Y-124700000D01*
X113645000Y-124987600D02*
X113357400Y-124700000D01*
X113645000Y-126685000D02*
X113645000Y-124987600D01*
X114647590Y-127687590D02*
X113645000Y-126685000D01*
X114647590Y-127691809D02*
X114647590Y-127687590D01*
X113357400Y-123600000D02*
X112830000Y-123600000D01*
X122903174Y-128325000D02*
X115779163Y-128324999D01*
X125721389Y-124025450D02*
X125721389Y-125505272D01*
X125721389Y-125505272D02*
X122903174Y-128325000D01*
X126871838Y-122875001D02*
X125721389Y-124025450D01*
X130292158Y-123025000D02*
X130575000Y-123025000D01*
X130142159Y-122875001D02*
X130292158Y-123025000D01*
X126871838Y-122875001D02*
X130142159Y-122875001D01*
X115000001Y-127541619D02*
X113997410Y-126539028D01*
X115372082Y-127917918D02*
X115000001Y-127545837D01*
X115000001Y-127545837D02*
X115000001Y-127541619D01*
X115372082Y-127917918D02*
X115000000Y-127545836D01*
X115779163Y-128324999D02*
X115372082Y-127917918D01*
X113997410Y-124240010D02*
X113357400Y-123600000D01*
X113997410Y-126539028D02*
X113997410Y-124240010D01*
X112830000Y-122500000D02*
X113357400Y-122500000D01*
X132125000Y-122850000D02*
X132125000Y-122850000D01*
X115925136Y-127972590D02*
X122325000Y-127972590D01*
X122325000Y-127972590D02*
X122757147Y-127972590D01*
X122757147Y-127972590D02*
X125176698Y-125551739D01*
X131925001Y-122650001D02*
X132125000Y-122850000D01*
X131775000Y-122500000D02*
X131925001Y-122650001D01*
X126748456Y-122500000D02*
X131775000Y-122500000D01*
X125368979Y-123879477D02*
X126748456Y-122500000D01*
X125368979Y-125359355D02*
X125368979Y-123879477D01*
X125176698Y-125551739D02*
X125368979Y-125359355D01*
X115726273Y-127773727D02*
X115438773Y-127486227D01*
X115726273Y-127773727D02*
X115925136Y-127972590D01*
X115425000Y-127472454D02*
X115726273Y-127773727D01*
X113357400Y-122500000D02*
X113600000Y-122742600D01*
X113600000Y-122742600D02*
X113600000Y-123344217D01*
X115352410Y-127399864D02*
X115425000Y-127472454D01*
X113600000Y-123344217D02*
X113600000Y-123330000D01*
X113955000Y-123699218D02*
X114349820Y-124094037D01*
X113600000Y-123330000D02*
X113955000Y-123685000D01*
X113955000Y-123685000D02*
X113955000Y-123699218D01*
X114349820Y-126393056D02*
X115352410Y-127395646D01*
X114349820Y-124094037D02*
X114349820Y-126393056D01*
X154341077Y-123936299D02*
X154675000Y-124270222D01*
X152325000Y-127000000D02*
X152325000Y-125375222D01*
X153763923Y-123936299D02*
X154341077Y-123936299D01*
X152325000Y-125375222D02*
X153763923Y-123936299D01*
X154942881Y-128787500D02*
X155402500Y-128787500D01*
X154937500Y-128787500D02*
X154942881Y-128787500D01*
X154675000Y-128525000D02*
X154937500Y-128787500D01*
X154675000Y-124270222D02*
X154675000Y-128525000D01*
X150804778Y-119475000D02*
X155650000Y-119475000D01*
X150328577Y-118998799D02*
X150804778Y-119475000D01*
X136954028Y-130022590D02*
X147977819Y-118998799D01*
X117072590Y-130022590D02*
X136954028Y-130022590D01*
X147977819Y-118998799D02*
X150328577Y-118998799D01*
X117072590Y-130002590D02*
X116885000Y-129815000D01*
X117072590Y-130022590D02*
X117072590Y-130002590D01*
X116945000Y-130365000D02*
X116345000Y-130365000D01*
X116955000Y-130375000D02*
X116945000Y-130365000D01*
X150100000Y-119475000D02*
X148000000Y-119475000D01*
X137100000Y-130375000D02*
X116955000Y-130375000D01*
X148000000Y-119475000D02*
X137100000Y-130375000D01*
X139573577Y-111118799D02*
X144495000Y-116040222D01*
X139116423Y-111118799D02*
X139573577Y-111118799D01*
X138725000Y-112355000D02*
X138725000Y-111510222D01*
X138725000Y-111510222D02*
X139116423Y-111118799D01*
X144495000Y-116040222D02*
X144495000Y-116825000D01*
X144495000Y-116825000D02*
X144495000Y-116825000D01*
X122360000Y-112450000D02*
X118095000Y-116715000D01*
X118095000Y-116715000D02*
X118095000Y-121725000D01*
X118095000Y-122875000D02*
X119195000Y-123975000D01*
X118095000Y-121725000D02*
X118095000Y-122875000D01*
X119195000Y-124757842D02*
X119195000Y-124275000D01*
X119542158Y-125105000D02*
X119195000Y-124757842D01*
X119195000Y-123975000D02*
X119195000Y-124275000D01*
X119825000Y-125105000D02*
X119542158Y-125105000D01*
X131100000Y-125400000D02*
X130750000Y-125050000D01*
X131325000Y-125625000D02*
X131100000Y-125400000D01*
X132050000Y-125625000D02*
X131325000Y-125625000D01*
X130125001Y-124824999D02*
X130325000Y-124625000D01*
X130125001Y-125129779D02*
X130125001Y-124824999D01*
X130871423Y-125876201D02*
X130125001Y-125129779D01*
X132850000Y-125400000D02*
X132850000Y-125554778D01*
X130871423Y-125876201D02*
X130876201Y-125876201D01*
X132850000Y-125682842D02*
X132850000Y-125400000D01*
X131101201Y-126101201D02*
X132431641Y-126101201D01*
X132431641Y-126101201D02*
X132850000Y-125682842D01*
X130876201Y-125876201D02*
X131101201Y-126101201D01*
X139050000Y-119350000D02*
X139050000Y-119350000D01*
X139050000Y-119950000D02*
X139050000Y-119350000D01*
X136850000Y-122150000D02*
X139050000Y-119950000D01*
X116071108Y-127620180D02*
X122611120Y-127620180D01*
X126602483Y-122147590D02*
X135922590Y-122147590D01*
X135925000Y-122150000D02*
X136850000Y-122150000D01*
X115585000Y-124485000D02*
X115585000Y-124515000D01*
X125016569Y-123733504D02*
X126602483Y-122147590D01*
X122611120Y-127620180D02*
X125016569Y-125213438D01*
X135922590Y-122147590D02*
X135925000Y-122150000D01*
X125016569Y-125213438D02*
X125016569Y-123733504D01*
X115825000Y-127369854D02*
X115825000Y-127374072D01*
X115565000Y-124565000D02*
X115565000Y-127109854D01*
X115565000Y-127109854D02*
X115825000Y-127369854D01*
X115825000Y-127374072D02*
X116005464Y-127554536D01*
X115704820Y-127253892D02*
X116005464Y-127554536D01*
X116005464Y-127554536D02*
X116071108Y-127620180D01*
X139045222Y-118650000D02*
X139045222Y-118650000D01*
X116138799Y-126397181D02*
X117009387Y-127267769D01*
X117009387Y-127267769D02*
X117075000Y-127267769D01*
X116145000Y-126390980D02*
X116145000Y-125575000D01*
X116138799Y-126397181D02*
X116145000Y-126390980D01*
X138845223Y-118849999D02*
X139045222Y-118650000D01*
X138573799Y-119927820D02*
X138573799Y-119121423D01*
X136706439Y-121795180D02*
X138573799Y-119927820D01*
X138573799Y-119121423D02*
X138845223Y-118849999D01*
X122465092Y-127267770D02*
X124664159Y-125067521D01*
X124664159Y-123587531D02*
X126456510Y-121795180D01*
X126456510Y-121795180D02*
X136706439Y-121795180D01*
X117009387Y-127267769D02*
X122465092Y-127267770D01*
X124664159Y-125067521D02*
X124664159Y-123587531D01*
X136414494Y-121090360D02*
X136785000Y-120719854D01*
X126164564Y-121090360D02*
X136414494Y-121090360D01*
X136785000Y-120719854D02*
X136785000Y-120405000D01*
X123959339Y-123295585D02*
X126164564Y-121090360D01*
X117455000Y-126085000D02*
X117932950Y-126562950D01*
X117932950Y-126562950D02*
X122173037Y-126562950D01*
X116705000Y-126085000D02*
X117455000Y-126085000D01*
X122173037Y-126562950D02*
X123959339Y-124775688D01*
X123959339Y-124775688D02*
X123959339Y-123295585D01*
X137775000Y-119875000D02*
X137775000Y-120228236D01*
X124311749Y-124921604D02*
X122319064Y-126915360D01*
X136560466Y-121442770D02*
X126310537Y-121442770D01*
X124311749Y-123441558D02*
X124311749Y-124921604D01*
X126310537Y-121442770D02*
X124311749Y-123441558D01*
X137775000Y-120228236D02*
X136560466Y-121442770D01*
X122319064Y-126915360D02*
X117642518Y-126915360D01*
X117454999Y-126884999D02*
X117612157Y-126884999D01*
X117612157Y-126884999D02*
X117642518Y-126915360D01*
X117255000Y-126685000D02*
X117454999Y-126884999D01*
X139550000Y-117350000D02*
X139550000Y-117350000D01*
X117725000Y-124606617D02*
X117945808Y-124385809D01*
X123606929Y-120323409D02*
X123606929Y-124629771D01*
X138848799Y-116648799D02*
X131626201Y-116648799D01*
X141475000Y-117375000D02*
X139575000Y-117375000D01*
X139575000Y-117375000D02*
X138848799Y-116648799D01*
X124205338Y-119725000D02*
X123606929Y-120323409D01*
X123606929Y-124629771D02*
X122027009Y-126210540D01*
X128550000Y-119725000D02*
X124205338Y-119725000D01*
X118360540Y-126210540D02*
X117725000Y-125575000D01*
X122027009Y-126210540D02*
X118360540Y-126210540D01*
X131626201Y-116648799D02*
X128550000Y-119725000D01*
X117725000Y-125575000D02*
X117725000Y-124606617D01*
X140748799Y-116873799D02*
X140748799Y-116873799D01*
X118250000Y-124580000D02*
X118675000Y-124155000D01*
X131480228Y-116296389D02*
X128404028Y-119372590D01*
X138994772Y-116296389D02*
X131480228Y-116296389D01*
X140748799Y-116873799D02*
X139572182Y-116873799D01*
X118250000Y-125600000D02*
X118250000Y-124580000D01*
X128404028Y-119372590D02*
X124059365Y-119372590D01*
X139572182Y-116873799D02*
X138994772Y-116296389D01*
X124059365Y-119372590D02*
X123254519Y-120177436D01*
X123254519Y-120177436D02*
X123254519Y-124483854D01*
X123254519Y-124483854D02*
X121880981Y-125858130D01*
X121880981Y-125858130D02*
X118508130Y-125858130D01*
X118508130Y-125858130D02*
X118250000Y-125600000D01*
X153592881Y-125387500D02*
X153150000Y-125830381D01*
X154052500Y-125387500D02*
X153592881Y-125387500D01*
X153150000Y-125830381D02*
X153150000Y-126950000D01*
X153150000Y-126950000D02*
X153150000Y-126950000D01*
X139345000Y-111595000D02*
X143815000Y-116065000D01*
X143815000Y-116065000D02*
X143815000Y-122325000D01*
X143815000Y-122325000D02*
X143815000Y-122335000D01*
D24*
G36*
X155254479Y-120214967D02*
G01*
X155406440Y-120277911D01*
X155567760Y-120310000D01*
X155732240Y-120310000D01*
X155893560Y-120277911D01*
X156045521Y-120214967D01*
X156088447Y-120186285D01*
X156086439Y-122621843D01*
X156019514Y-122517592D01*
X155870891Y-122363413D01*
X155695045Y-122241191D01*
X155498733Y-122155624D01*
X155289500Y-122110000D01*
X154539500Y-122110000D01*
X154539500Y-123068000D01*
X154559500Y-123068000D01*
X154559500Y-123259355D01*
X154480497Y-123235390D01*
X154376013Y-123225099D01*
X154376003Y-123225099D01*
X154341077Y-123221659D01*
X154306151Y-123225099D01*
X153798840Y-123225099D01*
X153763922Y-123221660D01*
X153729004Y-123225099D01*
X153728987Y-123225099D01*
X153624503Y-123235390D01*
X153490442Y-123276057D01*
X153404489Y-123322000D01*
X152744998Y-123322000D01*
X152618092Y-123489001D01*
X152689798Y-123692197D01*
X152805486Y-123872408D01*
X152813604Y-123880830D01*
X151846810Y-124847625D01*
X151819674Y-124869895D01*
X151797404Y-124897031D01*
X151797403Y-124897032D01*
X151730798Y-124978190D01*
X151673532Y-125085327D01*
X151664759Y-125101741D01*
X151624092Y-125235802D01*
X151618403Y-125293560D01*
X151610360Y-125375222D01*
X151613801Y-125410158D01*
X151613800Y-126561426D01*
X151585033Y-126604479D01*
X151522089Y-126756440D01*
X151490000Y-126917760D01*
X151490000Y-127082240D01*
X151522089Y-127243560D01*
X151585033Y-127395521D01*
X151676413Y-127532281D01*
X151792719Y-127648587D01*
X151929479Y-127739967D01*
X152081440Y-127802911D01*
X152242760Y-127835000D01*
X152407240Y-127835000D01*
X152568560Y-127802911D01*
X152720521Y-127739967D01*
X152779710Y-127700418D01*
X152906440Y-127752911D01*
X153067760Y-127785000D01*
X153104026Y-127785000D01*
X153092500Y-127842948D01*
X153092500Y-128032052D01*
X153129392Y-128217522D01*
X153189444Y-128362500D01*
X153129392Y-128507478D01*
X153092500Y-128692948D01*
X153092500Y-128882052D01*
X153129392Y-129067522D01*
X153189444Y-129212500D01*
X153129392Y-129357478D01*
X153092500Y-129542948D01*
X153092500Y-129732052D01*
X153129392Y-129917522D01*
X153189618Y-130062920D01*
X153130919Y-130202492D01*
X153093025Y-130387760D01*
X153092003Y-130576861D01*
X153127892Y-130762528D01*
X153176758Y-130882329D01*
X153144955Y-130896191D01*
X152969109Y-131018413D01*
X152820486Y-131172592D01*
X152704798Y-131352803D01*
X152633092Y-131555999D01*
X152759998Y-131723000D01*
X154300500Y-131723000D01*
X154300500Y-131417332D01*
X154327528Y-131412108D01*
X154502626Y-131340687D01*
X154511823Y-131335770D01*
X154525431Y-131140039D01*
X154554500Y-131169108D01*
X154554500Y-131723000D01*
X154574500Y-131723000D01*
X154574500Y-131977000D01*
X154554500Y-131977000D01*
X154554500Y-131997000D01*
X154300500Y-131997000D01*
X154300500Y-131977000D01*
X152759998Y-131977000D01*
X152633092Y-132144001D01*
X152704798Y-132347197D01*
X152820486Y-132527408D01*
X152969109Y-132681587D01*
X153030732Y-132724418D01*
X152070826Y-132723335D01*
X152130891Y-132681587D01*
X152279514Y-132527408D01*
X152395202Y-132347197D01*
X152466908Y-132144001D01*
X152340002Y-131977000D01*
X151149500Y-131977000D01*
X151149500Y-131997000D01*
X150895500Y-131997000D01*
X150895500Y-131977000D01*
X149704998Y-131977000D01*
X149578092Y-132144001D01*
X149649798Y-132347197D01*
X149765486Y-132527408D01*
X149914109Y-132681587D01*
X149970764Y-132720965D01*
X142710189Y-132712772D01*
X142713169Y-132710327D01*
X142735444Y-132683185D01*
X143862631Y-131555999D01*
X149578092Y-131555999D01*
X149704998Y-131723000D01*
X150895500Y-131723000D01*
X150895500Y-130765000D01*
X151149500Y-130765000D01*
X151149500Y-131723000D01*
X152340002Y-131723000D01*
X152466908Y-131555999D01*
X152395202Y-131352803D01*
X152279514Y-131172592D01*
X152130891Y-131018413D01*
X151955045Y-130896191D01*
X151758733Y-130810624D01*
X151549500Y-130765000D01*
X151149500Y-130765000D01*
X150895500Y-130765000D01*
X150495500Y-130765000D01*
X150286267Y-130810624D01*
X150089955Y-130896191D01*
X149914109Y-131018413D01*
X149765486Y-131172592D01*
X149649798Y-131352803D01*
X149578092Y-131555999D01*
X143862631Y-131555999D01*
X144443201Y-130975430D01*
X144470326Y-130953169D01*
X144492588Y-130926043D01*
X144492598Y-130926033D01*
X144559202Y-130844875D01*
X144625242Y-130721324D01*
X144665909Y-130587262D01*
X144666933Y-130576861D01*
X144676200Y-130482778D01*
X144676200Y-130482771D01*
X144679640Y-130447842D01*
X144676200Y-130412914D01*
X144676200Y-130243574D01*
X144704967Y-130200521D01*
X144767911Y-130048560D01*
X144800000Y-129887240D01*
X144800000Y-129722760D01*
X144767911Y-129561440D01*
X144704967Y-129409479D01*
X144613587Y-129272719D01*
X144497281Y-129156413D01*
X144360521Y-129065033D01*
X144208560Y-129002089D01*
X144047240Y-128970000D01*
X143882760Y-128970000D01*
X143721440Y-129002089D01*
X143569479Y-129065033D01*
X143432719Y-129156413D01*
X143316413Y-129272719D01*
X143225033Y-129409479D01*
X143162089Y-129561440D01*
X143130000Y-129722760D01*
X143130000Y-129887240D01*
X143162089Y-130048560D01*
X143219614Y-130187439D01*
X142032108Y-131374947D01*
X142007240Y-131370000D01*
X141842760Y-131370000D01*
X141681440Y-131402089D01*
X141529479Y-131465033D01*
X141392719Y-131556413D01*
X141276413Y-131672719D01*
X141185033Y-131809479D01*
X141122089Y-131961440D01*
X141090000Y-132122760D01*
X141090000Y-132287240D01*
X141122089Y-132448560D01*
X141185033Y-132600521D01*
X141258943Y-132711135D01*
X112022105Y-132678143D01*
X112022855Y-131771750D01*
X113925000Y-131771750D01*
X113936020Y-131873358D01*
X113974026Y-131992528D01*
X114034551Y-132101994D01*
X114115269Y-132197548D01*
X114213078Y-132275519D01*
X114324219Y-132332911D01*
X114444420Y-132367517D01*
X114569063Y-132378008D01*
X115074250Y-132375000D01*
X115233000Y-132216250D01*
X115233000Y-131613000D01*
X115487000Y-131613000D01*
X115487000Y-132216250D01*
X115645750Y-132375000D01*
X116150937Y-132378008D01*
X116275580Y-132367517D01*
X116395781Y-132332911D01*
X116506922Y-132275519D01*
X116604731Y-132197548D01*
X116685449Y-132101994D01*
X116745974Y-131992528D01*
X116783980Y-131873358D01*
X116795000Y-131771750D01*
X118125000Y-131771750D01*
X118136020Y-131873358D01*
X118174026Y-131992528D01*
X118234551Y-132101994D01*
X118315269Y-132197548D01*
X118413078Y-132275519D01*
X118524219Y-132332911D01*
X118644420Y-132367517D01*
X118769063Y-132378008D01*
X119274250Y-132375000D01*
X119433000Y-132216250D01*
X119433000Y-131613000D01*
X119687000Y-131613000D01*
X119687000Y-132216250D01*
X119845750Y-132375000D01*
X120350937Y-132378008D01*
X120475580Y-132367517D01*
X120595781Y-132332911D01*
X120706922Y-132275519D01*
X120804731Y-132197548D01*
X120885449Y-132101994D01*
X120945974Y-131992528D01*
X120983980Y-131873358D01*
X120995000Y-131771750D01*
X123225000Y-131771750D01*
X123235734Y-131872013D01*
X123273483Y-131991264D01*
X123333772Y-132100860D01*
X123414284Y-132196588D01*
X123511924Y-132274770D01*
X123622941Y-132332401D01*
X123743067Y-132367266D01*
X123867688Y-132378026D01*
X124574250Y-132375000D01*
X124733000Y-132216250D01*
X124733000Y-131613000D01*
X124987000Y-131613000D01*
X124987000Y-132216250D01*
X125145750Y-132375000D01*
X125852312Y-132378026D01*
X125976933Y-132367266D01*
X126097059Y-132332401D01*
X126208076Y-132274770D01*
X126305716Y-132196588D01*
X126386228Y-132100860D01*
X126446517Y-131991264D01*
X126484266Y-131872013D01*
X126495000Y-131771750D01*
X126336250Y-131613000D01*
X124987000Y-131613000D01*
X124733000Y-131613000D01*
X123383750Y-131613000D01*
X123225000Y-131771750D01*
X120995000Y-131771750D01*
X120836250Y-131613000D01*
X119687000Y-131613000D01*
X119433000Y-131613000D01*
X118283750Y-131613000D01*
X118125000Y-131771750D01*
X116795000Y-131771750D01*
X116636250Y-131613000D01*
X115487000Y-131613000D01*
X115233000Y-131613000D01*
X114083750Y-131613000D01*
X113925000Y-131771750D01*
X112022855Y-131771750D01*
X112023321Y-131208250D01*
X113925000Y-131208250D01*
X114083750Y-131367000D01*
X115233000Y-131367000D01*
X115233000Y-130763750D01*
X115074250Y-130605000D01*
X114569063Y-130601992D01*
X114444420Y-130612483D01*
X114324219Y-130647089D01*
X114213078Y-130704481D01*
X114115269Y-130782452D01*
X114034551Y-130878006D01*
X113974026Y-130987472D01*
X113936020Y-131106642D01*
X113925000Y-131208250D01*
X112023321Y-131208250D01*
X112024431Y-129868104D01*
X112100506Y-129930537D01*
X112210820Y-129989502D01*
X112330518Y-130025812D01*
X112455000Y-130038072D01*
X113205000Y-130038072D01*
X113329482Y-130025812D01*
X113449180Y-129989502D01*
X113559494Y-129930537D01*
X113656185Y-129851185D01*
X113689000Y-129811200D01*
X114764430Y-129811200D01*
X114826428Y-129873199D01*
X114848700Y-129900337D01*
X114956994Y-129989212D01*
X115080546Y-130055252D01*
X115214607Y-130095919D01*
X115319091Y-130106210D01*
X115319107Y-130106210D01*
X115354025Y-130109649D01*
X115388943Y-130106210D01*
X115548397Y-130106210D01*
X115542089Y-130121440D01*
X115510000Y-130282760D01*
X115510000Y-130447240D01*
X115542089Y-130608560D01*
X115571408Y-130679342D01*
X115487000Y-130763750D01*
X115487000Y-131367000D01*
X116636250Y-131367000D01*
X116795000Y-131208250D01*
X116783980Y-131106642D01*
X116775905Y-131081324D01*
X116783574Y-131076200D01*
X116818535Y-131076200D01*
X116920064Y-131086200D01*
X116920073Y-131086200D01*
X116954999Y-131089640D01*
X116989925Y-131086200D01*
X118142539Y-131086200D01*
X118136020Y-131106642D01*
X118125000Y-131208250D01*
X118283750Y-131367000D01*
X119433000Y-131367000D01*
X119433000Y-131343000D01*
X119687000Y-131343000D01*
X119687000Y-131367000D01*
X120836250Y-131367000D01*
X120995000Y-131208250D01*
X120983980Y-131106642D01*
X120977461Y-131086200D01*
X123242631Y-131086200D01*
X123235734Y-131107987D01*
X123225000Y-131208250D01*
X123383750Y-131367000D01*
X124733000Y-131367000D01*
X124733000Y-131343000D01*
X124987000Y-131343000D01*
X124987000Y-131367000D01*
X126336250Y-131367000D01*
X126495000Y-131208250D01*
X126484266Y-131107987D01*
X126477369Y-131086200D01*
X134001674Y-131086200D01*
X134012089Y-131138560D01*
X134075033Y-131290521D01*
X134166413Y-131427281D01*
X134282719Y-131543587D01*
X134419479Y-131634967D01*
X134571440Y-131697911D01*
X134732760Y-131730000D01*
X134897240Y-131730000D01*
X135058560Y-131697911D01*
X135210521Y-131634967D01*
X135328404Y-131556200D01*
X137095074Y-131556200D01*
X137130000Y-131559640D01*
X137164926Y-131556200D01*
X137164936Y-131556200D01*
X137269420Y-131545909D01*
X137403481Y-131505242D01*
X137527033Y-131439202D01*
X137635327Y-131350327D01*
X137657602Y-131323185D01*
X140612460Y-128368328D01*
X140667719Y-128423587D01*
X140804479Y-128514967D01*
X140956440Y-128577911D01*
X141117760Y-128610000D01*
X141282240Y-128610000D01*
X141443560Y-128577911D01*
X141595521Y-128514967D01*
X141638574Y-128486200D01*
X142311426Y-128486200D01*
X142354479Y-128514967D01*
X142506440Y-128577911D01*
X142667760Y-128610000D01*
X142832240Y-128610000D01*
X142993560Y-128577911D01*
X143145521Y-128514967D01*
X143282281Y-128423587D01*
X143398587Y-128307281D01*
X143489967Y-128170521D01*
X143552911Y-128018560D01*
X143585000Y-127857240D01*
X143585000Y-127692760D01*
X143552911Y-127531440D01*
X143489967Y-127379479D01*
X143398587Y-127242719D01*
X143282281Y-127126413D01*
X143145521Y-127035033D01*
X142993560Y-126972089D01*
X142832240Y-126940000D01*
X142667760Y-126940000D01*
X142506440Y-126972089D01*
X142354479Y-127035033D01*
X142311426Y-127063800D01*
X141916988Y-127063800D01*
X145489287Y-123491501D01*
X149578092Y-123491501D01*
X149649798Y-123694697D01*
X149765486Y-123874908D01*
X149914109Y-124029087D01*
X150089955Y-124151309D01*
X150286267Y-124236876D01*
X150495500Y-124282500D01*
X150895500Y-124282500D01*
X150895500Y-123324500D01*
X151149500Y-123324500D01*
X151149500Y-124282500D01*
X151549500Y-124282500D01*
X151758733Y-124236876D01*
X151955045Y-124151309D01*
X152130891Y-124029087D01*
X152279514Y-123874908D01*
X152395202Y-123694697D01*
X152466908Y-123491501D01*
X152340002Y-123324500D01*
X151149500Y-123324500D01*
X150895500Y-123324500D01*
X149704998Y-123324500D01*
X149578092Y-123491501D01*
X145489287Y-123491501D01*
X148442179Y-120538610D01*
X149357823Y-120538610D01*
X150411987Y-121592775D01*
X150422089Y-121643560D01*
X150485033Y-121795521D01*
X150576413Y-121932281D01*
X150692719Y-122048587D01*
X150788372Y-122112500D01*
X150495500Y-122112500D01*
X150286267Y-122158124D01*
X150089955Y-122243691D01*
X149914109Y-122365913D01*
X149765486Y-122520092D01*
X149649798Y-122700303D01*
X149578092Y-122903499D01*
X149704998Y-123070500D01*
X150895500Y-123070500D01*
X150895500Y-123050500D01*
X151149500Y-123050500D01*
X151149500Y-123070500D01*
X152340002Y-123070500D01*
X152466908Y-122903499D01*
X152466026Y-122900999D01*
X152618092Y-122900999D01*
X152744998Y-123068000D01*
X154285500Y-123068000D01*
X154285500Y-122110000D01*
X153535500Y-122110000D01*
X153326267Y-122155624D01*
X153129955Y-122241191D01*
X152954109Y-122363413D01*
X152805486Y-122517592D01*
X152689798Y-122697803D01*
X152618092Y-122900999D01*
X152466026Y-122900999D01*
X152395202Y-122700303D01*
X152279514Y-122520092D01*
X152130891Y-122365913D01*
X151955045Y-122243691D01*
X151758733Y-122158124D01*
X151634040Y-122130934D01*
X151757281Y-122048587D01*
X151873587Y-121932281D01*
X151964967Y-121795521D01*
X152027911Y-121643560D01*
X152060000Y-121482240D01*
X152060000Y-121317760D01*
X152027911Y-121156440D01*
X151964967Y-121004479D01*
X151873587Y-120867719D01*
X151757281Y-120751413D01*
X151620521Y-120660033D01*
X151468560Y-120597089D01*
X151417775Y-120586987D01*
X151016988Y-120186200D01*
X155211426Y-120186200D01*
X155254479Y-120214967D01*
G37*
X155254479Y-120214967D02*
X155406440Y-120277911D01*
X155567760Y-120310000D01*
X155732240Y-120310000D01*
X155893560Y-120277911D01*
X156045521Y-120214967D01*
X156088447Y-120186285D01*
X156086439Y-122621843D01*
X156019514Y-122517592D01*
X155870891Y-122363413D01*
X155695045Y-122241191D01*
X155498733Y-122155624D01*
X155289500Y-122110000D01*
X154539500Y-122110000D01*
X154539500Y-123068000D01*
X154559500Y-123068000D01*
X154559500Y-123259355D01*
X154480497Y-123235390D01*
X154376013Y-123225099D01*
X154376003Y-123225099D01*
X154341077Y-123221659D01*
X154306151Y-123225099D01*
X153798840Y-123225099D01*
X153763922Y-123221660D01*
X153729004Y-123225099D01*
X153728987Y-123225099D01*
X153624503Y-123235390D01*
X153490442Y-123276057D01*
X153404489Y-123322000D01*
X152744998Y-123322000D01*
X152618092Y-123489001D01*
X152689798Y-123692197D01*
X152805486Y-123872408D01*
X152813604Y-123880830D01*
X151846810Y-124847625D01*
X151819674Y-124869895D01*
X151797404Y-124897031D01*
X151797403Y-124897032D01*
X151730798Y-124978190D01*
X151673532Y-125085327D01*
X151664759Y-125101741D01*
X151624092Y-125235802D01*
X151618403Y-125293560D01*
X151610360Y-125375222D01*
X151613801Y-125410158D01*
X151613800Y-126561426D01*
X151585033Y-126604479D01*
X151522089Y-126756440D01*
X151490000Y-126917760D01*
X151490000Y-127082240D01*
X151522089Y-127243560D01*
X151585033Y-127395521D01*
X151676413Y-127532281D01*
X151792719Y-127648587D01*
X151929479Y-127739967D01*
X152081440Y-127802911D01*
X152242760Y-127835000D01*
X152407240Y-127835000D01*
X152568560Y-127802911D01*
X152720521Y-127739967D01*
X152779710Y-127700418D01*
X152906440Y-127752911D01*
X153067760Y-127785000D01*
X153104026Y-127785000D01*
X153092500Y-127842948D01*
X153092500Y-128032052D01*
X153129392Y-128217522D01*
X153189444Y-128362500D01*
X153129392Y-128507478D01*
X153092500Y-128692948D01*
X153092500Y-128882052D01*
X153129392Y-129067522D01*
X153189444Y-129212500D01*
X153129392Y-129357478D01*
X153092500Y-129542948D01*
X153092500Y-129732052D01*
X153129392Y-129917522D01*
X153189618Y-130062920D01*
X153130919Y-130202492D01*
X153093025Y-130387760D01*
X153092003Y-130576861D01*
X153127892Y-130762528D01*
X153176758Y-130882329D01*
X153144955Y-130896191D01*
X152969109Y-131018413D01*
X152820486Y-131172592D01*
X152704798Y-131352803D01*
X152633092Y-131555999D01*
X152759998Y-131723000D01*
X154300500Y-131723000D01*
X154300500Y-131417332D01*
X154327528Y-131412108D01*
X154502626Y-131340687D01*
X154511823Y-131335770D01*
X154525431Y-131140039D01*
X154554500Y-131169108D01*
X154554500Y-131723000D01*
X154574500Y-131723000D01*
X154574500Y-131977000D01*
X154554500Y-131977000D01*
X154554500Y-131997000D01*
X154300500Y-131997000D01*
X154300500Y-131977000D01*
X152759998Y-131977000D01*
X152633092Y-132144001D01*
X152704798Y-132347197D01*
X152820486Y-132527408D01*
X152969109Y-132681587D01*
X153030732Y-132724418D01*
X152070826Y-132723335D01*
X152130891Y-132681587D01*
X152279514Y-132527408D01*
X152395202Y-132347197D01*
X152466908Y-132144001D01*
X152340002Y-131977000D01*
X151149500Y-131977000D01*
X151149500Y-131997000D01*
X150895500Y-131997000D01*
X150895500Y-131977000D01*
X149704998Y-131977000D01*
X149578092Y-132144001D01*
X149649798Y-132347197D01*
X149765486Y-132527408D01*
X149914109Y-132681587D01*
X149970764Y-132720965D01*
X142710189Y-132712772D01*
X142713169Y-132710327D01*
X142735444Y-132683185D01*
X143862631Y-131555999D01*
X149578092Y-131555999D01*
X149704998Y-131723000D01*
X150895500Y-131723000D01*
X150895500Y-130765000D01*
X151149500Y-130765000D01*
X151149500Y-131723000D01*
X152340002Y-131723000D01*
X152466908Y-131555999D01*
X152395202Y-131352803D01*
X152279514Y-131172592D01*
X152130891Y-131018413D01*
X151955045Y-130896191D01*
X151758733Y-130810624D01*
X151549500Y-130765000D01*
X151149500Y-130765000D01*
X150895500Y-130765000D01*
X150495500Y-130765000D01*
X150286267Y-130810624D01*
X150089955Y-130896191D01*
X149914109Y-131018413D01*
X149765486Y-131172592D01*
X149649798Y-131352803D01*
X149578092Y-131555999D01*
X143862631Y-131555999D01*
X144443201Y-130975430D01*
X144470326Y-130953169D01*
X144492588Y-130926043D01*
X144492598Y-130926033D01*
X144559202Y-130844875D01*
X144625242Y-130721324D01*
X144665909Y-130587262D01*
X144666933Y-130576861D01*
X144676200Y-130482778D01*
X144676200Y-130482771D01*
X144679640Y-130447842D01*
X144676200Y-130412914D01*
X144676200Y-130243574D01*
X144704967Y-130200521D01*
X144767911Y-130048560D01*
X144800000Y-129887240D01*
X144800000Y-129722760D01*
X144767911Y-129561440D01*
X144704967Y-129409479D01*
X144613587Y-129272719D01*
X144497281Y-129156413D01*
X144360521Y-129065033D01*
X144208560Y-129002089D01*
X144047240Y-128970000D01*
X143882760Y-128970000D01*
X143721440Y-129002089D01*
X143569479Y-129065033D01*
X143432719Y-129156413D01*
X143316413Y-129272719D01*
X143225033Y-129409479D01*
X143162089Y-129561440D01*
X143130000Y-129722760D01*
X143130000Y-129887240D01*
X143162089Y-130048560D01*
X143219614Y-130187439D01*
X142032108Y-131374947D01*
X142007240Y-131370000D01*
X141842760Y-131370000D01*
X141681440Y-131402089D01*
X141529479Y-131465033D01*
X141392719Y-131556413D01*
X141276413Y-131672719D01*
X141185033Y-131809479D01*
X141122089Y-131961440D01*
X141090000Y-132122760D01*
X141090000Y-132287240D01*
X141122089Y-132448560D01*
X141185033Y-132600521D01*
X141258943Y-132711135D01*
X112022105Y-132678143D01*
X112022855Y-131771750D01*
X113925000Y-131771750D01*
X113936020Y-131873358D01*
X113974026Y-131992528D01*
X114034551Y-132101994D01*
X114115269Y-132197548D01*
X114213078Y-132275519D01*
X114324219Y-132332911D01*
X114444420Y-132367517D01*
X114569063Y-132378008D01*
X115074250Y-132375000D01*
X115233000Y-132216250D01*
X115233000Y-131613000D01*
X115487000Y-131613000D01*
X115487000Y-132216250D01*
X115645750Y-132375000D01*
X116150937Y-132378008D01*
X116275580Y-132367517D01*
X116395781Y-132332911D01*
X116506922Y-132275519D01*
X116604731Y-132197548D01*
X116685449Y-132101994D01*
X116745974Y-131992528D01*
X116783980Y-131873358D01*
X116795000Y-131771750D01*
X118125000Y-131771750D01*
X118136020Y-131873358D01*
X118174026Y-131992528D01*
X118234551Y-132101994D01*
X118315269Y-132197548D01*
X118413078Y-132275519D01*
X118524219Y-132332911D01*
X118644420Y-132367517D01*
X118769063Y-132378008D01*
X119274250Y-132375000D01*
X119433000Y-132216250D01*
X119433000Y-131613000D01*
X119687000Y-131613000D01*
X119687000Y-132216250D01*
X119845750Y-132375000D01*
X120350937Y-132378008D01*
X120475580Y-132367517D01*
X120595781Y-132332911D01*
X120706922Y-132275519D01*
X120804731Y-132197548D01*
X120885449Y-132101994D01*
X120945974Y-131992528D01*
X120983980Y-131873358D01*
X120995000Y-131771750D01*
X123225000Y-131771750D01*
X123235734Y-131872013D01*
X123273483Y-131991264D01*
X123333772Y-132100860D01*
X123414284Y-132196588D01*
X123511924Y-132274770D01*
X123622941Y-132332401D01*
X123743067Y-132367266D01*
X123867688Y-132378026D01*
X124574250Y-132375000D01*
X124733000Y-132216250D01*
X124733000Y-131613000D01*
X124987000Y-131613000D01*
X124987000Y-132216250D01*
X125145750Y-132375000D01*
X125852312Y-132378026D01*
X125976933Y-132367266D01*
X126097059Y-132332401D01*
X126208076Y-132274770D01*
X126305716Y-132196588D01*
X126386228Y-132100860D01*
X126446517Y-131991264D01*
X126484266Y-131872013D01*
X126495000Y-131771750D01*
X126336250Y-131613000D01*
X124987000Y-131613000D01*
X124733000Y-131613000D01*
X123383750Y-131613000D01*
X123225000Y-131771750D01*
X120995000Y-131771750D01*
X120836250Y-131613000D01*
X119687000Y-131613000D01*
X119433000Y-131613000D01*
X118283750Y-131613000D01*
X118125000Y-131771750D01*
X116795000Y-131771750D01*
X116636250Y-131613000D01*
X115487000Y-131613000D01*
X115233000Y-131613000D01*
X114083750Y-131613000D01*
X113925000Y-131771750D01*
X112022855Y-131771750D01*
X112023321Y-131208250D01*
X113925000Y-131208250D01*
X114083750Y-131367000D01*
X115233000Y-131367000D01*
X115233000Y-130763750D01*
X115074250Y-130605000D01*
X114569063Y-130601992D01*
X114444420Y-130612483D01*
X114324219Y-130647089D01*
X114213078Y-130704481D01*
X114115269Y-130782452D01*
X114034551Y-130878006D01*
X113974026Y-130987472D01*
X113936020Y-131106642D01*
X113925000Y-131208250D01*
X112023321Y-131208250D01*
X112024431Y-129868104D01*
X112100506Y-129930537D01*
X112210820Y-129989502D01*
X112330518Y-130025812D01*
X112455000Y-130038072D01*
X113205000Y-130038072D01*
X113329482Y-130025812D01*
X113449180Y-129989502D01*
X113559494Y-129930537D01*
X113656185Y-129851185D01*
X113689000Y-129811200D01*
X114764430Y-129811200D01*
X114826428Y-129873199D01*
X114848700Y-129900337D01*
X114956994Y-129989212D01*
X115080546Y-130055252D01*
X115214607Y-130095919D01*
X115319091Y-130106210D01*
X115319107Y-130106210D01*
X115354025Y-130109649D01*
X115388943Y-130106210D01*
X115548397Y-130106210D01*
X115542089Y-130121440D01*
X115510000Y-130282760D01*
X115510000Y-130447240D01*
X115542089Y-130608560D01*
X115571408Y-130679342D01*
X115487000Y-130763750D01*
X115487000Y-131367000D01*
X116636250Y-131367000D01*
X116795000Y-131208250D01*
X116783980Y-131106642D01*
X116775905Y-131081324D01*
X116783574Y-131076200D01*
X116818535Y-131076200D01*
X116920064Y-131086200D01*
X116920073Y-131086200D01*
X116954999Y-131089640D01*
X116989925Y-131086200D01*
X118142539Y-131086200D01*
X118136020Y-131106642D01*
X118125000Y-131208250D01*
X118283750Y-131367000D01*
X119433000Y-131367000D01*
X119433000Y-131343000D01*
X119687000Y-131343000D01*
X119687000Y-131367000D01*
X120836250Y-131367000D01*
X120995000Y-131208250D01*
X120983980Y-131106642D01*
X120977461Y-131086200D01*
X123242631Y-131086200D01*
X123235734Y-131107987D01*
X123225000Y-131208250D01*
X123383750Y-131367000D01*
X124733000Y-131367000D01*
X124733000Y-131343000D01*
X124987000Y-131343000D01*
X124987000Y-131367000D01*
X126336250Y-131367000D01*
X126495000Y-131208250D01*
X126484266Y-131107987D01*
X126477369Y-131086200D01*
X134001674Y-131086200D01*
X134012089Y-131138560D01*
X134075033Y-131290521D01*
X134166413Y-131427281D01*
X134282719Y-131543587D01*
X134419479Y-131634967D01*
X134571440Y-131697911D01*
X134732760Y-131730000D01*
X134897240Y-131730000D01*
X135058560Y-131697911D01*
X135210521Y-131634967D01*
X135328404Y-131556200D01*
X137095074Y-131556200D01*
X137130000Y-131559640D01*
X137164926Y-131556200D01*
X137164936Y-131556200D01*
X137269420Y-131545909D01*
X137403481Y-131505242D01*
X137527033Y-131439202D01*
X137635327Y-131350327D01*
X137657602Y-131323185D01*
X140612460Y-128368328D01*
X140667719Y-128423587D01*
X140804479Y-128514967D01*
X140956440Y-128577911D01*
X141117760Y-128610000D01*
X141282240Y-128610000D01*
X141443560Y-128577911D01*
X141595521Y-128514967D01*
X141638574Y-128486200D01*
X142311426Y-128486200D01*
X142354479Y-128514967D01*
X142506440Y-128577911D01*
X142667760Y-128610000D01*
X142832240Y-128610000D01*
X142993560Y-128577911D01*
X143145521Y-128514967D01*
X143282281Y-128423587D01*
X143398587Y-128307281D01*
X143489967Y-128170521D01*
X143552911Y-128018560D01*
X143585000Y-127857240D01*
X143585000Y-127692760D01*
X143552911Y-127531440D01*
X143489967Y-127379479D01*
X143398587Y-127242719D01*
X143282281Y-127126413D01*
X143145521Y-127035033D01*
X142993560Y-126972089D01*
X142832240Y-126940000D01*
X142667760Y-126940000D01*
X142506440Y-126972089D01*
X142354479Y-127035033D01*
X142311426Y-127063800D01*
X141916988Y-127063800D01*
X145489287Y-123491501D01*
X149578092Y-123491501D01*
X149649798Y-123694697D01*
X149765486Y-123874908D01*
X149914109Y-124029087D01*
X150089955Y-124151309D01*
X150286267Y-124236876D01*
X150495500Y-124282500D01*
X150895500Y-124282500D01*
X150895500Y-123324500D01*
X151149500Y-123324500D01*
X151149500Y-124282500D01*
X151549500Y-124282500D01*
X151758733Y-124236876D01*
X151955045Y-124151309D01*
X152130891Y-124029087D01*
X152279514Y-123874908D01*
X152395202Y-123694697D01*
X152466908Y-123491501D01*
X152340002Y-123324500D01*
X151149500Y-123324500D01*
X150895500Y-123324500D01*
X149704998Y-123324500D01*
X149578092Y-123491501D01*
X145489287Y-123491501D01*
X148442179Y-120538610D01*
X149357823Y-120538610D01*
X150411987Y-121592775D01*
X150422089Y-121643560D01*
X150485033Y-121795521D01*
X150576413Y-121932281D01*
X150692719Y-122048587D01*
X150788372Y-122112500D01*
X150495500Y-122112500D01*
X150286267Y-122158124D01*
X150089955Y-122243691D01*
X149914109Y-122365913D01*
X149765486Y-122520092D01*
X149649798Y-122700303D01*
X149578092Y-122903499D01*
X149704998Y-123070500D01*
X150895500Y-123070500D01*
X150895500Y-123050500D01*
X151149500Y-123050500D01*
X151149500Y-123070500D01*
X152340002Y-123070500D01*
X152466908Y-122903499D01*
X152466026Y-122900999D01*
X152618092Y-122900999D01*
X152744998Y-123068000D01*
X154285500Y-123068000D01*
X154285500Y-122110000D01*
X153535500Y-122110000D01*
X153326267Y-122155624D01*
X153129955Y-122241191D01*
X152954109Y-122363413D01*
X152805486Y-122517592D01*
X152689798Y-122697803D01*
X152618092Y-122900999D01*
X152466026Y-122900999D01*
X152395202Y-122700303D01*
X152279514Y-122520092D01*
X152130891Y-122365913D01*
X151955045Y-122243691D01*
X151758733Y-122158124D01*
X151634040Y-122130934D01*
X151757281Y-122048587D01*
X151873587Y-121932281D01*
X151964967Y-121795521D01*
X152027911Y-121643560D01*
X152060000Y-121482240D01*
X152060000Y-121317760D01*
X152027911Y-121156440D01*
X151964967Y-121004479D01*
X151873587Y-120867719D01*
X151757281Y-120751413D01*
X151620521Y-120660033D01*
X151468560Y-120597089D01*
X151417775Y-120586987D01*
X151016988Y-120186200D01*
X155211426Y-120186200D01*
X155254479Y-120214967D01*
G36*
X112957000Y-127873000D02*
G01*
X112977000Y-127873000D01*
X112977000Y-128127000D01*
X112957000Y-128127000D01*
X112957000Y-128147000D01*
X112703000Y-128147000D01*
X112703000Y-128127000D01*
X112683000Y-128127000D01*
X112683000Y-127873000D01*
X112703000Y-127873000D01*
X112703000Y-127853000D01*
X112957000Y-127853000D01*
X112957000Y-127873000D01*
G37*
X112957000Y-127873000D02*
X112977000Y-127873000D01*
X112977000Y-128127000D01*
X112957000Y-128127000D01*
X112957000Y-128147000D01*
X112703000Y-128147000D01*
X112703000Y-128127000D01*
X112683000Y-128127000D01*
X112683000Y-127873000D01*
X112703000Y-127873000D01*
X112703000Y-127853000D01*
X112957000Y-127853000D01*
X112957000Y-127873000D01*
G36*
X112118000Y-110475182D02*
G01*
X112120412Y-110499635D01*
X112127612Y-110523467D01*
X112139323Y-110545437D01*
X112155095Y-110564700D01*
X112174323Y-110580516D01*
X112196266Y-110592277D01*
X112220082Y-110599531D01*
X112244856Y-110602000D01*
X138595930Y-110631951D01*
X138588825Y-110640609D01*
X138246810Y-110982625D01*
X138219674Y-111004895D01*
X138197404Y-111032031D01*
X138197403Y-111032032D01*
X138130798Y-111113190D01*
X138084676Y-111199479D01*
X138064759Y-111236741D01*
X138024092Y-111370802D01*
X138013800Y-111475286D01*
X138013800Y-111475296D01*
X138010360Y-111510222D01*
X138013800Y-111545148D01*
X138013800Y-111746630D01*
X137925033Y-111879479D01*
X137862089Y-112031440D01*
X137860851Y-112037663D01*
X137470002Y-111646814D01*
X137447727Y-111619673D01*
X137339433Y-111530798D01*
X137215881Y-111464758D01*
X137081820Y-111424091D01*
X136977336Y-111413800D01*
X136977326Y-111413800D01*
X136942400Y-111410360D01*
X136907474Y-111413800D01*
X130434927Y-111413800D01*
X130399999Y-111410360D01*
X130365070Y-111413800D01*
X130365063Y-111413800D01*
X130260579Y-111424091D01*
X130126518Y-111464758D01*
X130002966Y-111530798D01*
X129894672Y-111619673D01*
X129872402Y-111646809D01*
X126064190Y-115455022D01*
X126055736Y-115439206D01*
X126023561Y-115400000D01*
X126055736Y-115360794D01*
X126114701Y-115250480D01*
X126151011Y-115130782D01*
X126163271Y-115006300D01*
X126160199Y-114936450D01*
X126001449Y-114777700D01*
X123899599Y-114777700D01*
X123899599Y-114797700D01*
X123645599Y-114797700D01*
X123645599Y-114777700D01*
X121543749Y-114777700D01*
X121384999Y-114936450D01*
X121381927Y-115006300D01*
X121394187Y-115130782D01*
X121428563Y-115244106D01*
X121282240Y-115215000D01*
X121117760Y-115215000D01*
X120956440Y-115247089D01*
X120804479Y-115310033D01*
X120667719Y-115401413D01*
X120551413Y-115517719D01*
X120460033Y-115654479D01*
X120397089Y-115806440D01*
X120365000Y-115967760D01*
X120365000Y-116132240D01*
X120397089Y-116293560D01*
X120460033Y-116445521D01*
X120551413Y-116582281D01*
X120667719Y-116698587D01*
X120804479Y-116789967D01*
X120956440Y-116852911D01*
X121117760Y-116885000D01*
X121282240Y-116885000D01*
X121443560Y-116852911D01*
X121478304Y-116838520D01*
X121489462Y-116859394D01*
X121568814Y-116956085D01*
X121665505Y-117035437D01*
X121775819Y-117094402D01*
X121895517Y-117130712D01*
X122019999Y-117142972D01*
X122301240Y-117142972D01*
X121413972Y-118030241D01*
X121413972Y-117503100D01*
X121401712Y-117378618D01*
X121365402Y-117258920D01*
X121306437Y-117148606D01*
X121227085Y-117051915D01*
X121130394Y-116972563D01*
X121020080Y-116913598D01*
X120900382Y-116877288D01*
X120775900Y-116865028D01*
X118950759Y-116865028D01*
X121417918Y-114397869D01*
X121543749Y-114523700D01*
X123645599Y-114523700D01*
X123645599Y-113818850D01*
X123899599Y-113818850D01*
X123899599Y-114523700D01*
X126001449Y-114523700D01*
X126160199Y-114364950D01*
X126163271Y-114295100D01*
X126151011Y-114170618D01*
X126114701Y-114050920D01*
X126055736Y-113940606D01*
X125976384Y-113843915D01*
X125879693Y-113764563D01*
X125769379Y-113705598D01*
X125649681Y-113669288D01*
X125525199Y-113657028D01*
X124058349Y-113660100D01*
X123899599Y-113818850D01*
X123645599Y-113818850D01*
X123486849Y-113660100D01*
X122158470Y-113657318D01*
X122552775Y-113263013D01*
X122603560Y-113252911D01*
X122755521Y-113189967D01*
X122892281Y-113098587D01*
X123008587Y-112982281D01*
X123099967Y-112845521D01*
X123162911Y-112693560D01*
X123195000Y-112532240D01*
X123195000Y-112367760D01*
X123162911Y-112206440D01*
X123099967Y-112054479D01*
X123008587Y-111917719D01*
X122892281Y-111801413D01*
X122755521Y-111710033D01*
X122603560Y-111647089D01*
X122442240Y-111615000D01*
X122277760Y-111615000D01*
X122116440Y-111647089D01*
X121964479Y-111710033D01*
X121827719Y-111801413D01*
X121711413Y-111917719D01*
X121620033Y-112054479D01*
X121557089Y-112206440D01*
X121546987Y-112257225D01*
X121413972Y-112390240D01*
X121413972Y-112103100D01*
X121401712Y-111978618D01*
X121365402Y-111858920D01*
X121306437Y-111748606D01*
X121227085Y-111651915D01*
X121130394Y-111572563D01*
X121020080Y-111513598D01*
X120900382Y-111477288D01*
X120775900Y-111465028D01*
X118769300Y-111465028D01*
X118644818Y-111477288D01*
X118525120Y-111513598D01*
X118414806Y-111572563D01*
X118318115Y-111651915D01*
X118238763Y-111748606D01*
X118179798Y-111858920D01*
X118143488Y-111978618D01*
X118131228Y-112103100D01*
X118131228Y-113296900D01*
X118143488Y-113421382D01*
X118179798Y-113541080D01*
X118238763Y-113651394D01*
X118318115Y-113748085D01*
X118414806Y-113827437D01*
X118525120Y-113886402D01*
X118644818Y-113922712D01*
X118769300Y-113934972D01*
X119869240Y-113934972D01*
X117616811Y-116187402D01*
X117589673Y-116209674D01*
X117500798Y-116317968D01*
X117434758Y-116441520D01*
X117394091Y-116575581D01*
X117383800Y-116680065D01*
X117383800Y-116680074D01*
X117380360Y-116715000D01*
X117383800Y-116749926D01*
X117383801Y-121690055D01*
X117383800Y-121690065D01*
X117383801Y-122840065D01*
X117380360Y-122875000D01*
X117383801Y-122909936D01*
X117394092Y-123014420D01*
X117431975Y-123139302D01*
X117434759Y-123148481D01*
X117500798Y-123272032D01*
X117567403Y-123353190D01*
X117589674Y-123380327D01*
X117616810Y-123402597D01*
X117703927Y-123489714D01*
X117591440Y-123512089D01*
X117439479Y-123575033D01*
X117302719Y-123666413D01*
X117186413Y-123782719D01*
X117095033Y-123919479D01*
X117032089Y-124071440D01*
X117000000Y-124232760D01*
X117000000Y-124397240D01*
X117020722Y-124501414D01*
X117015093Y-124558560D01*
X117010360Y-124606617D01*
X117013801Y-124641552D01*
X117013800Y-125309112D01*
X116948560Y-125282089D01*
X116925575Y-125277517D01*
X116884967Y-125179479D01*
X116793587Y-125042719D01*
X116677281Y-124926413D01*
X116540521Y-124835033D01*
X116388560Y-124772089D01*
X116375675Y-124769526D01*
X116400000Y-124647240D01*
X116400000Y-124482760D01*
X116367911Y-124321440D01*
X116304967Y-124169479D01*
X116213587Y-124032719D01*
X116097281Y-123916413D01*
X115960521Y-123825033D01*
X115808560Y-123762089D01*
X115647240Y-123730000D01*
X115482760Y-123730000D01*
X115321440Y-123762089D01*
X115169479Y-123825033D01*
X115038058Y-123912846D01*
X115010062Y-123820556D01*
X114944022Y-123697004D01*
X114887734Y-123628418D01*
X114877417Y-123615846D01*
X114877413Y-123615842D01*
X114855146Y-123588710D01*
X114828015Y-123566444D01*
X114547668Y-123286097D01*
X114460326Y-123179673D01*
X114433190Y-123157403D01*
X114311200Y-123035413D01*
X114311200Y-122777525D01*
X114314640Y-122742599D01*
X114311200Y-122707673D01*
X114311200Y-122707664D01*
X114300909Y-122603180D01*
X114260242Y-122469119D01*
X114194202Y-122345567D01*
X114148122Y-122289419D01*
X114127597Y-122264409D01*
X114127593Y-122264405D01*
X114105326Y-122237273D01*
X114078194Y-122215007D01*
X113885001Y-122021814D01*
X113862727Y-121994673D01*
X113778182Y-121925289D01*
X113735537Y-121845506D01*
X113656185Y-121748815D01*
X113559494Y-121669463D01*
X113449180Y-121610498D01*
X113329482Y-121574188D01*
X113205000Y-121561928D01*
X112455000Y-121561928D01*
X112330518Y-121574188D01*
X112210820Y-121610498D01*
X112100506Y-121669463D01*
X112031171Y-121726365D01*
X112032219Y-120459914D01*
X112033264Y-120469658D01*
X112071042Y-120588901D01*
X112131356Y-120698483D01*
X112211890Y-120794192D01*
X112309549Y-120872351D01*
X112420579Y-120929956D01*
X112540714Y-120964793D01*
X112665336Y-120975524D01*
X113346750Y-120972500D01*
X113505500Y-120813750D01*
X113505500Y-120210500D01*
X113759500Y-120210500D01*
X113759500Y-120813750D01*
X113918250Y-120972500D01*
X114599664Y-120975524D01*
X114724286Y-120964793D01*
X114844421Y-120929956D01*
X114955451Y-120872351D01*
X115053110Y-120794192D01*
X115133644Y-120698483D01*
X115193958Y-120588901D01*
X115231736Y-120469658D01*
X115242500Y-120369250D01*
X115083750Y-120210500D01*
X113759500Y-120210500D01*
X113505500Y-120210500D01*
X113485500Y-120210500D01*
X113485500Y-119964500D01*
X113505500Y-119964500D01*
X113505500Y-119361250D01*
X113759500Y-119361250D01*
X113759500Y-119964500D01*
X115083750Y-119964500D01*
X115242500Y-119805750D01*
X115231736Y-119705342D01*
X115193958Y-119586099D01*
X115133644Y-119476517D01*
X115053110Y-119380808D01*
X114955451Y-119302649D01*
X114844421Y-119245044D01*
X114724286Y-119210207D01*
X114599664Y-119199476D01*
X113918250Y-119202500D01*
X113759500Y-119361250D01*
X113505500Y-119361250D01*
X113346750Y-119202500D01*
X112665336Y-119199476D01*
X112540714Y-119210207D01*
X112420579Y-119245044D01*
X112309549Y-119302649D01*
X112211890Y-119380808D01*
X112131356Y-119476517D01*
X112071042Y-119586099D01*
X112033264Y-119705342D01*
X112032841Y-119709290D01*
X112051895Y-96691743D01*
X112098224Y-96691649D01*
X112118000Y-110475182D01*
G37*
X112118000Y-110475182D02*
X112120412Y-110499635D01*
X112127612Y-110523467D01*
X112139323Y-110545437D01*
X112155095Y-110564700D01*
X112174323Y-110580516D01*
X112196266Y-110592277D01*
X112220082Y-110599531D01*
X112244856Y-110602000D01*
X138595930Y-110631951D01*
X138588825Y-110640609D01*
X138246810Y-110982625D01*
X138219674Y-111004895D01*
X138197404Y-111032031D01*
X138197403Y-111032032D01*
X138130798Y-111113190D01*
X138084676Y-111199479D01*
X138064759Y-111236741D01*
X138024092Y-111370802D01*
X138013800Y-111475286D01*
X138013800Y-111475296D01*
X138010360Y-111510222D01*
X138013800Y-111545148D01*
X138013800Y-111746630D01*
X137925033Y-111879479D01*
X137862089Y-112031440D01*
X137860851Y-112037663D01*
X137470002Y-111646814D01*
X137447727Y-111619673D01*
X137339433Y-111530798D01*
X137215881Y-111464758D01*
X137081820Y-111424091D01*
X136977336Y-111413800D01*
X136977326Y-111413800D01*
X136942400Y-111410360D01*
X136907474Y-111413800D01*
X130434927Y-111413800D01*
X130399999Y-111410360D01*
X130365070Y-111413800D01*
X130365063Y-111413800D01*
X130260579Y-111424091D01*
X130126518Y-111464758D01*
X130002966Y-111530798D01*
X129894672Y-111619673D01*
X129872402Y-111646809D01*
X126064190Y-115455022D01*
X126055736Y-115439206D01*
X126023561Y-115400000D01*
X126055736Y-115360794D01*
X126114701Y-115250480D01*
X126151011Y-115130782D01*
X126163271Y-115006300D01*
X126160199Y-114936450D01*
X126001449Y-114777700D01*
X123899599Y-114777700D01*
X123899599Y-114797700D01*
X123645599Y-114797700D01*
X123645599Y-114777700D01*
X121543749Y-114777700D01*
X121384999Y-114936450D01*
X121381927Y-115006300D01*
X121394187Y-115130782D01*
X121428563Y-115244106D01*
X121282240Y-115215000D01*
X121117760Y-115215000D01*
X120956440Y-115247089D01*
X120804479Y-115310033D01*
X120667719Y-115401413D01*
X120551413Y-115517719D01*
X120460033Y-115654479D01*
X120397089Y-115806440D01*
X120365000Y-115967760D01*
X120365000Y-116132240D01*
X120397089Y-116293560D01*
X120460033Y-116445521D01*
X120551413Y-116582281D01*
X120667719Y-116698587D01*
X120804479Y-116789967D01*
X120956440Y-116852911D01*
X121117760Y-116885000D01*
X121282240Y-116885000D01*
X121443560Y-116852911D01*
X121478304Y-116838520D01*
X121489462Y-116859394D01*
X121568814Y-116956085D01*
X121665505Y-117035437D01*
X121775819Y-117094402D01*
X121895517Y-117130712D01*
X122019999Y-117142972D01*
X122301240Y-117142972D01*
X121413972Y-118030241D01*
X121413972Y-117503100D01*
X121401712Y-117378618D01*
X121365402Y-117258920D01*
X121306437Y-117148606D01*
X121227085Y-117051915D01*
X121130394Y-116972563D01*
X121020080Y-116913598D01*
X120900382Y-116877288D01*
X120775900Y-116865028D01*
X118950759Y-116865028D01*
X121417918Y-114397869D01*
X121543749Y-114523700D01*
X123645599Y-114523700D01*
X123645599Y-113818850D01*
X123899599Y-113818850D01*
X123899599Y-114523700D01*
X126001449Y-114523700D01*
X126160199Y-114364950D01*
X126163271Y-114295100D01*
X126151011Y-114170618D01*
X126114701Y-114050920D01*
X126055736Y-113940606D01*
X125976384Y-113843915D01*
X125879693Y-113764563D01*
X125769379Y-113705598D01*
X125649681Y-113669288D01*
X125525199Y-113657028D01*
X124058349Y-113660100D01*
X123899599Y-113818850D01*
X123645599Y-113818850D01*
X123486849Y-113660100D01*
X122158470Y-113657318D01*
X122552775Y-113263013D01*
X122603560Y-113252911D01*
X122755521Y-113189967D01*
X122892281Y-113098587D01*
X123008587Y-112982281D01*
X123099967Y-112845521D01*
X123162911Y-112693560D01*
X123195000Y-112532240D01*
X123195000Y-112367760D01*
X123162911Y-112206440D01*
X123099967Y-112054479D01*
X123008587Y-111917719D01*
X122892281Y-111801413D01*
X122755521Y-111710033D01*
X122603560Y-111647089D01*
X122442240Y-111615000D01*
X122277760Y-111615000D01*
X122116440Y-111647089D01*
X121964479Y-111710033D01*
X121827719Y-111801413D01*
X121711413Y-111917719D01*
X121620033Y-112054479D01*
X121557089Y-112206440D01*
X121546987Y-112257225D01*
X121413972Y-112390240D01*
X121413972Y-112103100D01*
X121401712Y-111978618D01*
X121365402Y-111858920D01*
X121306437Y-111748606D01*
X121227085Y-111651915D01*
X121130394Y-111572563D01*
X121020080Y-111513598D01*
X120900382Y-111477288D01*
X120775900Y-111465028D01*
X118769300Y-111465028D01*
X118644818Y-111477288D01*
X118525120Y-111513598D01*
X118414806Y-111572563D01*
X118318115Y-111651915D01*
X118238763Y-111748606D01*
X118179798Y-111858920D01*
X118143488Y-111978618D01*
X118131228Y-112103100D01*
X118131228Y-113296900D01*
X118143488Y-113421382D01*
X118179798Y-113541080D01*
X118238763Y-113651394D01*
X118318115Y-113748085D01*
X118414806Y-113827437D01*
X118525120Y-113886402D01*
X118644818Y-113922712D01*
X118769300Y-113934972D01*
X119869240Y-113934972D01*
X117616811Y-116187402D01*
X117589673Y-116209674D01*
X117500798Y-116317968D01*
X117434758Y-116441520D01*
X117394091Y-116575581D01*
X117383800Y-116680065D01*
X117383800Y-116680074D01*
X117380360Y-116715000D01*
X117383800Y-116749926D01*
X117383801Y-121690055D01*
X117383800Y-121690065D01*
X117383801Y-122840065D01*
X117380360Y-122875000D01*
X117383801Y-122909936D01*
X117394092Y-123014420D01*
X117431975Y-123139302D01*
X117434759Y-123148481D01*
X117500798Y-123272032D01*
X117567403Y-123353190D01*
X117589674Y-123380327D01*
X117616810Y-123402597D01*
X117703927Y-123489714D01*
X117591440Y-123512089D01*
X117439479Y-123575033D01*
X117302719Y-123666413D01*
X117186413Y-123782719D01*
X117095033Y-123919479D01*
X117032089Y-124071440D01*
X117000000Y-124232760D01*
X117000000Y-124397240D01*
X117020722Y-124501414D01*
X117015093Y-124558560D01*
X117010360Y-124606617D01*
X117013801Y-124641552D01*
X117013800Y-125309112D01*
X116948560Y-125282089D01*
X116925575Y-125277517D01*
X116884967Y-125179479D01*
X116793587Y-125042719D01*
X116677281Y-124926413D01*
X116540521Y-124835033D01*
X116388560Y-124772089D01*
X116375675Y-124769526D01*
X116400000Y-124647240D01*
X116400000Y-124482760D01*
X116367911Y-124321440D01*
X116304967Y-124169479D01*
X116213587Y-124032719D01*
X116097281Y-123916413D01*
X115960521Y-123825033D01*
X115808560Y-123762089D01*
X115647240Y-123730000D01*
X115482760Y-123730000D01*
X115321440Y-123762089D01*
X115169479Y-123825033D01*
X115038058Y-123912846D01*
X115010062Y-123820556D01*
X114944022Y-123697004D01*
X114887734Y-123628418D01*
X114877417Y-123615846D01*
X114877413Y-123615842D01*
X114855146Y-123588710D01*
X114828015Y-123566444D01*
X114547668Y-123286097D01*
X114460326Y-123179673D01*
X114433190Y-123157403D01*
X114311200Y-123035413D01*
X114311200Y-122777525D01*
X114314640Y-122742599D01*
X114311200Y-122707673D01*
X114311200Y-122707664D01*
X114300909Y-122603180D01*
X114260242Y-122469119D01*
X114194202Y-122345567D01*
X114148122Y-122289419D01*
X114127597Y-122264409D01*
X114127593Y-122264405D01*
X114105326Y-122237273D01*
X114078194Y-122215007D01*
X113885001Y-122021814D01*
X113862727Y-121994673D01*
X113778182Y-121925289D01*
X113735537Y-121845506D01*
X113656185Y-121748815D01*
X113559494Y-121669463D01*
X113449180Y-121610498D01*
X113329482Y-121574188D01*
X113205000Y-121561928D01*
X112455000Y-121561928D01*
X112330518Y-121574188D01*
X112210820Y-121610498D01*
X112100506Y-121669463D01*
X112031171Y-121726365D01*
X112032219Y-120459914D01*
X112033264Y-120469658D01*
X112071042Y-120588901D01*
X112131356Y-120698483D01*
X112211890Y-120794192D01*
X112309549Y-120872351D01*
X112420579Y-120929956D01*
X112540714Y-120964793D01*
X112665336Y-120975524D01*
X113346750Y-120972500D01*
X113505500Y-120813750D01*
X113505500Y-120210500D01*
X113759500Y-120210500D01*
X113759500Y-120813750D01*
X113918250Y-120972500D01*
X114599664Y-120975524D01*
X114724286Y-120964793D01*
X114844421Y-120929956D01*
X114955451Y-120872351D01*
X115053110Y-120794192D01*
X115133644Y-120698483D01*
X115193958Y-120588901D01*
X115231736Y-120469658D01*
X115242500Y-120369250D01*
X115083750Y-120210500D01*
X113759500Y-120210500D01*
X113505500Y-120210500D01*
X113485500Y-120210500D01*
X113485500Y-119964500D01*
X113505500Y-119964500D01*
X113505500Y-119361250D01*
X113759500Y-119361250D01*
X113759500Y-119964500D01*
X115083750Y-119964500D01*
X115242500Y-119805750D01*
X115231736Y-119705342D01*
X115193958Y-119586099D01*
X115133644Y-119476517D01*
X115053110Y-119380808D01*
X114955451Y-119302649D01*
X114844421Y-119245044D01*
X114724286Y-119210207D01*
X114599664Y-119199476D01*
X113918250Y-119202500D01*
X113759500Y-119361250D01*
X113505500Y-119361250D01*
X113346750Y-119202500D01*
X112665336Y-119199476D01*
X112540714Y-119210207D01*
X112420579Y-119245044D01*
X112309549Y-119302649D01*
X112211890Y-119380808D01*
X112131356Y-119476517D01*
X112071042Y-119586099D01*
X112033264Y-119705342D01*
X112032841Y-119709290D01*
X112051895Y-96691743D01*
X112098224Y-96691649D01*
X112118000Y-110475182D01*
G36*
X156085247Y-124066669D02*
G01*
X156055036Y-124064569D01*
X155659744Y-124459861D01*
X155497052Y-124427500D01*
X155386200Y-124427500D01*
X155386200Y-124345910D01*
X155388358Y-124343753D01*
X155402500Y-124357895D01*
X155547101Y-124213294D01*
X155695045Y-124148809D01*
X155870891Y-124026587D01*
X156019514Y-123872408D01*
X156085492Y-123769632D01*
X156085247Y-124066669D01*
G37*
X156085247Y-124066669D02*
X156055036Y-124064569D01*
X155659744Y-124459861D01*
X155497052Y-124427500D01*
X155386200Y-124427500D01*
X155386200Y-124345910D01*
X155388358Y-124343753D01*
X155402500Y-124357895D01*
X155547101Y-124213294D01*
X155695045Y-124148809D01*
X155870891Y-124026587D01*
X156019514Y-123872408D01*
X156085492Y-123769632D01*
X156085247Y-124066669D01*
G36*
X119625498Y-120960875D02*
G01*
X119244395Y-121341978D01*
X119217264Y-121364244D01*
X119194998Y-121391375D01*
X119194993Y-121391380D01*
X119128388Y-121472539D01*
X119080609Y-121561928D01*
X119062349Y-121596090D01*
X119021682Y-121730151D01*
X119015095Y-121797032D01*
X119007950Y-121869571D01*
X119011391Y-121904509D01*
X119011390Y-122785603D01*
X118806200Y-122580413D01*
X118806200Y-120980329D01*
X119466750Y-120977500D01*
X119625498Y-120818752D01*
X119625498Y-120960875D01*
G37*
X119625498Y-120960875D02*
X119244395Y-121341978D01*
X119217264Y-121364244D01*
X119194998Y-121391375D01*
X119194993Y-121391380D01*
X119128388Y-121472539D01*
X119080609Y-121561928D01*
X119062349Y-121596090D01*
X119021682Y-121730151D01*
X119015095Y-121797032D01*
X119007950Y-121869571D01*
X119011391Y-121904509D01*
X119011390Y-122785603D01*
X118806200Y-122580413D01*
X118806200Y-120980329D01*
X119466750Y-120977500D01*
X119625498Y-120818752D01*
X119625498Y-120960875D01*
G36*
X156096309Y-110651843D02*
G01*
X156094613Y-112708429D01*
X150284791Y-112718000D01*
X150260224Y-112720440D01*
X150236399Y-112727667D01*
X150214443Y-112739403D01*
X150195197Y-112755197D01*
X150179403Y-112774443D01*
X150167667Y-112796399D01*
X150160440Y-112820224D01*
X150158000Y-112845000D01*
X150158000Y-117865000D01*
X150160440Y-117889776D01*
X150167667Y-117913601D01*
X150179403Y-117935557D01*
X150195197Y-117954803D01*
X150214443Y-117970597D01*
X150236399Y-117982333D01*
X150260224Y-117989560D01*
X150285000Y-117992000D01*
X156090257Y-117992000D01*
X156089620Y-118764499D01*
X156045521Y-118735033D01*
X155893560Y-118672089D01*
X155732240Y-118640000D01*
X155567760Y-118640000D01*
X155406440Y-118672089D01*
X155254479Y-118735033D01*
X155211426Y-118763800D01*
X151099365Y-118763800D01*
X150856179Y-118520614D01*
X150833904Y-118493472D01*
X150725610Y-118404597D01*
X150602058Y-118338557D01*
X150467997Y-118297890D01*
X150363513Y-118287599D01*
X150363503Y-118287599D01*
X150328577Y-118284159D01*
X150293651Y-118287599D01*
X148012747Y-118287599D01*
X147977819Y-118284159D01*
X147942890Y-118287599D01*
X147942883Y-118287599D01*
X147846532Y-118297089D01*
X147838399Y-118297890D01*
X147704337Y-118338557D01*
X147580786Y-118404597D01*
X147499628Y-118471201D01*
X147499623Y-118471206D01*
X147472492Y-118493472D01*
X147450226Y-118520603D01*
X144526200Y-121444630D01*
X144526200Y-117660000D01*
X144577240Y-117660000D01*
X144738560Y-117627911D01*
X144890521Y-117564967D01*
X145027281Y-117473587D01*
X145143587Y-117357281D01*
X145234967Y-117220521D01*
X145297911Y-117068560D01*
X145330000Y-116907240D01*
X145330000Y-116742760D01*
X145297911Y-116581440D01*
X145234967Y-116429479D01*
X145206200Y-116386426D01*
X145206200Y-116075147D01*
X145209640Y-116040221D01*
X145206200Y-116005295D01*
X145206200Y-116005286D01*
X145195909Y-115900802D01*
X145155242Y-115766741D01*
X145089202Y-115643189D01*
X145050312Y-115595802D01*
X145022597Y-115562031D01*
X145022593Y-115562027D01*
X145000326Y-115534895D01*
X144973195Y-115512629D01*
X140101179Y-110640614D01*
X140095468Y-110633656D01*
X156096309Y-110651843D01*
G37*
X156096309Y-110651843D02*
X156094613Y-112708429D01*
X150284791Y-112718000D01*
X150260224Y-112720440D01*
X150236399Y-112727667D01*
X150214443Y-112739403D01*
X150195197Y-112755197D01*
X150179403Y-112774443D01*
X150167667Y-112796399D01*
X150160440Y-112820224D01*
X150158000Y-112845000D01*
X150158000Y-117865000D01*
X150160440Y-117889776D01*
X150167667Y-117913601D01*
X150179403Y-117935557D01*
X150195197Y-117954803D01*
X150214443Y-117970597D01*
X150236399Y-117982333D01*
X150260224Y-117989560D01*
X150285000Y-117992000D01*
X156090257Y-117992000D01*
X156089620Y-118764499D01*
X156045521Y-118735033D01*
X155893560Y-118672089D01*
X155732240Y-118640000D01*
X155567760Y-118640000D01*
X155406440Y-118672089D01*
X155254479Y-118735033D01*
X155211426Y-118763800D01*
X151099365Y-118763800D01*
X150856179Y-118520614D01*
X150833904Y-118493472D01*
X150725610Y-118404597D01*
X150602058Y-118338557D01*
X150467997Y-118297890D01*
X150363513Y-118287599D01*
X150363503Y-118287599D01*
X150328577Y-118284159D01*
X150293651Y-118287599D01*
X148012747Y-118287599D01*
X147977819Y-118284159D01*
X147942890Y-118287599D01*
X147942883Y-118287599D01*
X147846532Y-118297089D01*
X147838399Y-118297890D01*
X147704337Y-118338557D01*
X147580786Y-118404597D01*
X147499628Y-118471201D01*
X147499623Y-118471206D01*
X147472492Y-118493472D01*
X147450226Y-118520603D01*
X144526200Y-121444630D01*
X144526200Y-117660000D01*
X144577240Y-117660000D01*
X144738560Y-117627911D01*
X144890521Y-117564967D01*
X145027281Y-117473587D01*
X145143587Y-117357281D01*
X145234967Y-117220521D01*
X145297911Y-117068560D01*
X145330000Y-116907240D01*
X145330000Y-116742760D01*
X145297911Y-116581440D01*
X145234967Y-116429479D01*
X145206200Y-116386426D01*
X145206200Y-116075147D01*
X145209640Y-116040221D01*
X145206200Y-116005295D01*
X145206200Y-116005286D01*
X145195909Y-115900802D01*
X145155242Y-115766741D01*
X145089202Y-115643189D01*
X145050312Y-115595802D01*
X145022597Y-115562031D01*
X145022593Y-115562027D01*
X145000326Y-115534895D01*
X144973195Y-115512629D01*
X140101179Y-110640614D01*
X140095468Y-110633656D01*
X156096309Y-110651843D01*
G36*
X131601928Y-118127284D02*
G01*
X131348441Y-118380772D01*
X131242719Y-118451413D01*
X131126413Y-118567719D01*
X131035033Y-118704479D01*
X130972089Y-118856440D01*
X130940000Y-119017760D01*
X130940000Y-119182240D01*
X130972089Y-119343560D01*
X131035033Y-119495521D01*
X131126413Y-119632281D01*
X131242719Y-119748587D01*
X131379479Y-119839967D01*
X131531440Y-119902911D01*
X131692760Y-119935000D01*
X131857240Y-119935000D01*
X131986184Y-119909351D01*
X131995820Y-119914502D01*
X132115518Y-119950812D01*
X132240000Y-119963072D01*
X132980000Y-119963072D01*
X133104482Y-119950812D01*
X133224180Y-119914502D01*
X133245000Y-119903373D01*
X133265820Y-119914502D01*
X133385518Y-119950812D01*
X133510000Y-119963072D01*
X133594250Y-119960000D01*
X133753000Y-119801250D01*
X133753000Y-118252000D01*
X134007000Y-118252000D01*
X134007000Y-119801250D01*
X134165750Y-119960000D01*
X134250000Y-119963072D01*
X134374482Y-119950812D01*
X134494180Y-119914502D01*
X134515000Y-119903373D01*
X134535820Y-119914502D01*
X134655518Y-119950812D01*
X134780000Y-119963072D01*
X134864250Y-119960000D01*
X135023000Y-119801250D01*
X135023000Y-118252000D01*
X134007000Y-118252000D01*
X133753000Y-118252000D01*
X133733000Y-118252000D01*
X133733000Y-117998000D01*
X133753000Y-117998000D01*
X133753000Y-117978000D01*
X134007000Y-117978000D01*
X134007000Y-117998000D01*
X135023000Y-117998000D01*
X135023000Y-117978000D01*
X135277000Y-117978000D01*
X135277000Y-117998000D01*
X135297000Y-117998000D01*
X135297000Y-118252000D01*
X135277000Y-118252000D01*
X135277000Y-119801250D01*
X135435750Y-119960000D01*
X135520000Y-119963072D01*
X135644482Y-119950812D01*
X135764180Y-119914502D01*
X135785000Y-119903373D01*
X135805820Y-119914502D01*
X135925518Y-119950812D01*
X136050000Y-119963072D01*
X136076041Y-119963072D01*
X136045033Y-120009479D01*
X135982089Y-120161440D01*
X135950000Y-120322760D01*
X135950000Y-120379160D01*
X128834860Y-120379160D01*
X128947033Y-120319202D01*
X129055327Y-120230327D01*
X129077602Y-120203185D01*
X131601928Y-117678860D01*
X131601928Y-118127284D01*
G37*
X131601928Y-118127284D02*
X131348441Y-118380772D01*
X131242719Y-118451413D01*
X131126413Y-118567719D01*
X131035033Y-118704479D01*
X130972089Y-118856440D01*
X130940000Y-119017760D01*
X130940000Y-119182240D01*
X130972089Y-119343560D01*
X131035033Y-119495521D01*
X131126413Y-119632281D01*
X131242719Y-119748587D01*
X131379479Y-119839967D01*
X131531440Y-119902911D01*
X131692760Y-119935000D01*
X131857240Y-119935000D01*
X131986184Y-119909351D01*
X131995820Y-119914502D01*
X132115518Y-119950812D01*
X132240000Y-119963072D01*
X132980000Y-119963072D01*
X133104482Y-119950812D01*
X133224180Y-119914502D01*
X133245000Y-119903373D01*
X133265820Y-119914502D01*
X133385518Y-119950812D01*
X133510000Y-119963072D01*
X133594250Y-119960000D01*
X133753000Y-119801250D01*
X133753000Y-118252000D01*
X134007000Y-118252000D01*
X134007000Y-119801250D01*
X134165750Y-119960000D01*
X134250000Y-119963072D01*
X134374482Y-119950812D01*
X134494180Y-119914502D01*
X134515000Y-119903373D01*
X134535820Y-119914502D01*
X134655518Y-119950812D01*
X134780000Y-119963072D01*
X134864250Y-119960000D01*
X135023000Y-119801250D01*
X135023000Y-118252000D01*
X134007000Y-118252000D01*
X133753000Y-118252000D01*
X133733000Y-118252000D01*
X133733000Y-117998000D01*
X133753000Y-117998000D01*
X133753000Y-117978000D01*
X134007000Y-117978000D01*
X134007000Y-117998000D01*
X135023000Y-117998000D01*
X135023000Y-117978000D01*
X135277000Y-117978000D01*
X135277000Y-117998000D01*
X135297000Y-117998000D01*
X135297000Y-118252000D01*
X135277000Y-118252000D01*
X135277000Y-119801250D01*
X135435750Y-119960000D01*
X135520000Y-119963072D01*
X135644482Y-119950812D01*
X135764180Y-119914502D01*
X135785000Y-119903373D01*
X135805820Y-119914502D01*
X135925518Y-119950812D01*
X136050000Y-119963072D01*
X136076041Y-119963072D01*
X136045033Y-120009479D01*
X135982089Y-120161440D01*
X135950000Y-120322760D01*
X135950000Y-120379160D01*
X128834860Y-120379160D01*
X128947033Y-120319202D01*
X129055327Y-120230327D01*
X129077602Y-120203185D01*
X131601928Y-117678860D01*
X131601928Y-118127284D01*
G36*
X119879500Y-119969500D02*
G01*
X119899500Y-119969500D01*
X119899500Y-120215500D01*
X119879500Y-120215500D01*
X119879500Y-120239500D01*
X119625500Y-120239500D01*
X119625500Y-120215500D01*
X119605500Y-120215500D01*
X119605500Y-119969500D01*
X119625500Y-119969500D01*
X119625500Y-119945500D01*
X119879500Y-119945500D01*
X119879500Y-119969500D01*
G37*
X119879500Y-119969500D02*
X119899500Y-119969500D01*
X119899500Y-120215500D01*
X119879500Y-120215500D01*
X119879500Y-120239500D01*
X119625500Y-120239500D01*
X119625500Y-120215500D01*
X119605500Y-120215500D01*
X119605500Y-119969500D01*
X119625500Y-119969500D01*
X119625500Y-119945500D01*
X119879500Y-119945500D01*
X119879500Y-119969500D01*
M02*
