G04 #@! TF.GenerationSoftware,KiCad,Pcbnew,(5.1.5)-3*
G04 #@! TF.CreationDate,2020-04-03T19:02:15-07:00*
G04 #@! TF.ProjectId,ShadowRunner,53686164-6f77-4527-956e-6e65722e6b69,rev?*
G04 #@! TF.SameCoordinates,Original*
G04 #@! TF.FileFunction,Legend,Top*
G04 #@! TF.FilePolarity,Positive*
%FSLAX46Y46*%
G04 Gerber Fmt 4.6, Leading zero omitted, Abs format (unit mm)*
G04 Created by KiCad (PCBNEW (5.1.5)-3) date 2020-04-03 19:02:15*
%MOMM*%
%LPD*%
G04 APERTURE LIST*
%ADD10C,0.120000*%
%ADD11C,0.152400*%
%ADD12C,0.100000*%
%ADD13C,0.075000*%
G04 APERTURE END LIST*
D10*
X151565000Y-126685000D02*
X151565000Y-127035000D01*
X151565000Y-126875000D02*
X151565000Y-126685000D01*
X151745000Y-126885000D02*
X151565000Y-126875000D01*
X151825000Y-126715000D02*
X151745000Y-126885000D01*
X151825000Y-127045000D02*
X151825000Y-126715000D01*
X151615000Y-126885000D02*
X151825000Y-127045000D01*
X151825000Y-126725000D02*
X151615000Y-126885000D01*
X111605000Y-133055000D02*
X111605000Y-133005000D01*
X156415000Y-133035000D02*
X111605000Y-133055000D01*
X111605000Y-96335000D02*
X111605000Y-133015000D01*
X112075000Y-96335000D02*
X111605000Y-96335000D01*
X156415000Y-96335000D02*
X156415000Y-133025000D01*
X112085000Y-96335000D02*
X156415000Y-96335000D01*
X134995000Y-129195000D02*
X134995000Y-123185000D01*
X141815000Y-126945000D02*
X141815000Y-123185000D01*
X134995000Y-123185000D02*
X136255000Y-123185000D01*
X141815000Y-123185000D02*
X140555000Y-123185000D01*
X122923578Y-127795000D02*
X122406422Y-127795000D01*
X122923578Y-129215000D02*
X122406422Y-129215000D01*
D11*
X134538500Y-118507741D02*
X134538500Y-118336400D01*
X134538500Y-121333600D02*
X134538500Y-121162259D01*
D10*
X144042500Y-130455000D02*
X144042500Y-124757500D01*
X148690000Y-130602500D02*
X148690000Y-124875000D01*
X145387500Y-123822500D02*
X147725000Y-123822500D01*
X145330000Y-131712500D02*
X147667500Y-131712500D01*
X113970000Y-126317500D02*
X119667500Y-126317500D01*
X113822500Y-130965000D02*
X119550000Y-130965000D01*
X120602500Y-127662500D02*
X120602500Y-130000000D01*
X112712500Y-127605000D02*
X112712500Y-129942500D01*
X131592500Y-123620000D02*
X133550000Y-123620000D01*
X133550000Y-123620000D02*
X133550000Y-124950000D01*
X133550000Y-124950000D02*
X131590000Y-124950000D01*
X131590000Y-124950000D02*
X131590000Y-123620000D01*
X131590000Y-123620000D02*
X131595000Y-123635000D01*
X131595000Y-123635000D02*
X131597500Y-123632500D01*
X131332500Y-123465000D02*
X131347500Y-123465000D01*
X130675000Y-132125000D02*
X130675000Y-130865000D01*
X130675000Y-125305000D02*
X130675000Y-126565000D01*
X126915000Y-132125000D02*
X130675000Y-132125000D01*
X124665000Y-125305000D02*
X130675000Y-125305000D01*
D12*
X133850000Y-132515000D02*
G75*
G03X133850000Y-132515000I-50000J0D01*
G01*
X142825000Y-132380000D02*
G75*
G03X142825000Y-132380000I-50000J0D01*
G01*
D10*
X132932500Y-115535000D02*
X132932500Y-116297500D01*
X130867500Y-116315000D02*
X130867500Y-115612500D01*
X151630000Y-118880000D02*
X153090000Y-118880000D01*
X151630000Y-122040000D02*
X153790000Y-122040000D01*
X151630000Y-122040000D02*
X151630000Y-121110000D01*
X151630000Y-118880000D02*
X151630000Y-119810000D01*
X146030000Y-118775000D02*
X146030000Y-119705000D01*
X146030000Y-121935000D02*
X146030000Y-121005000D01*
X146030000Y-121935000D02*
X148190000Y-121935000D01*
X146030000Y-118775000D02*
X147490000Y-118775000D01*
X141825000Y-118300000D02*
X142325000Y-118300000D01*
X142325000Y-118300000D02*
X142325000Y-118800000D01*
X142325000Y-118800000D02*
X142325000Y-118800000D01*
X142325000Y-120000000D02*
X142325000Y-120500000D01*
X142325000Y-120500000D02*
X141825000Y-120500000D01*
X141825000Y-120500000D02*
X141825000Y-120500000D01*
X140625000Y-120500000D02*
X140125000Y-120500000D01*
X140125000Y-120500000D02*
X140125000Y-120000000D01*
X140125000Y-120000000D02*
X140125000Y-120000000D01*
X140625000Y-118300000D02*
X140125000Y-118300000D01*
X140125000Y-118300000D02*
X140125000Y-118300000D01*
X113862500Y-113212500D02*
X129862500Y-113205000D01*
X129865000Y-113205000D02*
X129857500Y-123705000D01*
X129857500Y-123705000D02*
X113860000Y-123695000D01*
X113860000Y-123695000D02*
X113862500Y-113222500D01*
D12*
X152375000Y-129010000D02*
G75*
G03X152375000Y-129010000I-50000J0D01*
G01*
D10*
X145947500Y-116302500D02*
X145922500Y-116302500D01*
X112225000Y-96585000D02*
X156240000Y-96597500D01*
X156240000Y-96597500D02*
X156250000Y-110607500D01*
X156250000Y-110607500D02*
X112250000Y-110587500D01*
X112250000Y-110587500D02*
X112250000Y-96572500D01*
X150550000Y-128660000D02*
X153010000Y-128660000D01*
X153010000Y-128660000D02*
X153010000Y-127190000D01*
X153010000Y-127190000D02*
X150550000Y-127190000D01*
X156212500Y-117655000D02*
X156212500Y-114455000D01*
X156212500Y-114455000D02*
X154612500Y-114455000D01*
X154610000Y-114455000D02*
X154610000Y-117655000D01*
X154610000Y-117655000D02*
X156210000Y-117655000D01*
X138995000Y-130926422D02*
X138995000Y-131443578D01*
X137575000Y-130926422D02*
X137575000Y-131443578D01*
D13*
X141016428Y-122645714D02*
X141016428Y-122888571D01*
X141030714Y-122917142D01*
X141045000Y-122931428D01*
X141073571Y-122945714D01*
X141130714Y-122945714D01*
X141159285Y-122931428D01*
X141173571Y-122917142D01*
X141187857Y-122888571D01*
X141187857Y-122645714D01*
X141487857Y-122945714D02*
X141316428Y-122945714D01*
X141402142Y-122945714D02*
X141402142Y-122645714D01*
X141373571Y-122688571D01*
X141345000Y-122717142D01*
X141316428Y-122731428D01*
X136855000Y-132860714D02*
X136755000Y-132717857D01*
X136683571Y-132860714D02*
X136683571Y-132560714D01*
X136797857Y-132560714D01*
X136826428Y-132575000D01*
X136840714Y-132589285D01*
X136855000Y-132617857D01*
X136855000Y-132660714D01*
X136840714Y-132689285D01*
X136826428Y-132703571D01*
X136797857Y-132717857D01*
X136683571Y-132717857D01*
X137140714Y-132860714D02*
X136969285Y-132860714D01*
X137055000Y-132860714D02*
X137055000Y-132560714D01*
X137026428Y-132603571D01*
X136997857Y-132632142D01*
X136969285Y-132646428D01*
X124185000Y-127652142D02*
X124170714Y-127666428D01*
X124127857Y-127680714D01*
X124099285Y-127680714D01*
X124056428Y-127666428D01*
X124027857Y-127637857D01*
X124013571Y-127609285D01*
X123999285Y-127552142D01*
X123999285Y-127509285D01*
X124013571Y-127452142D01*
X124027857Y-127423571D01*
X124056428Y-127395000D01*
X124099285Y-127380714D01*
X124127857Y-127380714D01*
X124170714Y-127395000D01*
X124185000Y-127409285D01*
X124442142Y-127480714D02*
X124442142Y-127680714D01*
X124370714Y-127366428D02*
X124299285Y-127580714D01*
X124485000Y-127580714D01*
X135460000Y-119715714D02*
X135460000Y-119930000D01*
X135445714Y-119972857D01*
X135417142Y-120001428D01*
X135374285Y-120015714D01*
X135345714Y-120015714D01*
X135745714Y-119715714D02*
X135602857Y-119715714D01*
X135588571Y-119858571D01*
X135602857Y-119844285D01*
X135631428Y-119830000D01*
X135702857Y-119830000D01*
X135731428Y-119844285D01*
X135745714Y-119858571D01*
X135760000Y-119887142D01*
X135760000Y-119958571D01*
X135745714Y-119987142D01*
X135731428Y-120001428D01*
X135702857Y-120015714D01*
X135631428Y-120015714D01*
X135602857Y-120001428D01*
X135588571Y-119987142D01*
X131765000Y-115760714D02*
X131765000Y-115975000D01*
X131750714Y-116017857D01*
X131722142Y-116046428D01*
X131679285Y-116060714D01*
X131650714Y-116060714D01*
X131893571Y-115789285D02*
X131907857Y-115775000D01*
X131936428Y-115760714D01*
X132007857Y-115760714D01*
X132036428Y-115775000D01*
X132050714Y-115789285D01*
X132065000Y-115817857D01*
X132065000Y-115846428D01*
X132050714Y-115889285D01*
X131879285Y-116060714D01*
X132065000Y-116060714D01*
X142160714Y-129507857D02*
X142017857Y-129607857D01*
X142160714Y-129679285D02*
X141860714Y-129679285D01*
X141860714Y-129565000D01*
X141875000Y-129536428D01*
X141889285Y-129522142D01*
X141917857Y-129507857D01*
X141960714Y-129507857D01*
X141989285Y-129522142D01*
X142003571Y-129536428D01*
X142017857Y-129565000D01*
X142017857Y-129679285D01*
X142160714Y-129222142D02*
X142160714Y-129393571D01*
X142160714Y-129307857D02*
X141860714Y-129307857D01*
X141903571Y-129336428D01*
X141932142Y-129365000D01*
X141946428Y-129393571D01*
X141860714Y-129036428D02*
X141860714Y-129007857D01*
X141875000Y-128979285D01*
X141889285Y-128965000D01*
X141917857Y-128950714D01*
X141975000Y-128936428D01*
X142046428Y-128936428D01*
X142103571Y-128950714D01*
X142132142Y-128965000D01*
X142146428Y-128979285D01*
X142160714Y-129007857D01*
X142160714Y-129036428D01*
X142146428Y-129065000D01*
X142132142Y-129079285D01*
X142103571Y-129093571D01*
X142046428Y-129107857D01*
X141975000Y-129107857D01*
X141917857Y-129093571D01*
X141889285Y-129079285D01*
X141875000Y-129065000D01*
X141860714Y-129036428D01*
X143470714Y-128013571D02*
X143713571Y-128013571D01*
X143742142Y-127999285D01*
X143756428Y-127985000D01*
X143770714Y-127956428D01*
X143770714Y-127899285D01*
X143756428Y-127870714D01*
X143742142Y-127856428D01*
X143713571Y-127842142D01*
X143470714Y-127842142D01*
X143770714Y-127685000D02*
X143770714Y-127627857D01*
X143756428Y-127599285D01*
X143742142Y-127585000D01*
X143699285Y-127556428D01*
X143642142Y-127542142D01*
X143527857Y-127542142D01*
X143499285Y-127556428D01*
X143485000Y-127570714D01*
X143470714Y-127599285D01*
X143470714Y-127656428D01*
X143485000Y-127685000D01*
X143499285Y-127699285D01*
X143527857Y-127713571D01*
X143599285Y-127713571D01*
X143627857Y-127699285D01*
X143642142Y-127685000D01*
X143656428Y-127656428D01*
X143656428Y-127599285D01*
X143642142Y-127570714D01*
X143627857Y-127556428D01*
X143599285Y-127542142D01*
X116721428Y-125210714D02*
X116721428Y-125453571D01*
X116735714Y-125482142D01*
X116750000Y-125496428D01*
X116778571Y-125510714D01*
X116835714Y-125510714D01*
X116864285Y-125496428D01*
X116878571Y-125482142D01*
X116892857Y-125453571D01*
X116892857Y-125210714D01*
X117078571Y-125339285D02*
X117050000Y-125325000D01*
X117035714Y-125310714D01*
X117021428Y-125282142D01*
X117021428Y-125267857D01*
X117035714Y-125239285D01*
X117050000Y-125225000D01*
X117078571Y-125210714D01*
X117135714Y-125210714D01*
X117164285Y-125225000D01*
X117178571Y-125239285D01*
X117192857Y-125267857D01*
X117192857Y-125282142D01*
X117178571Y-125310714D01*
X117164285Y-125325000D01*
X117135714Y-125339285D01*
X117078571Y-125339285D01*
X117050000Y-125353571D01*
X117035714Y-125367857D01*
X117021428Y-125396428D01*
X117021428Y-125453571D01*
X117035714Y-125482142D01*
X117050000Y-125496428D01*
X117078571Y-125510714D01*
X117135714Y-125510714D01*
X117164285Y-125496428D01*
X117178571Y-125482142D01*
X117192857Y-125453571D01*
X117192857Y-125396428D01*
X117178571Y-125367857D01*
X117164285Y-125353571D01*
X117135714Y-125339285D01*
X132426428Y-125990714D02*
X132426428Y-126233571D01*
X132440714Y-126262142D01*
X132455000Y-126276428D01*
X132483571Y-126290714D01*
X132540714Y-126290714D01*
X132569285Y-126276428D01*
X132583571Y-126262142D01*
X132597857Y-126233571D01*
X132597857Y-125990714D01*
X132869285Y-125990714D02*
X132812142Y-125990714D01*
X132783571Y-126005000D01*
X132769285Y-126019285D01*
X132740714Y-126062142D01*
X132726428Y-126119285D01*
X132726428Y-126233571D01*
X132740714Y-126262142D01*
X132755000Y-126276428D01*
X132783571Y-126290714D01*
X132840714Y-126290714D01*
X132869285Y-126276428D01*
X132883571Y-126262142D01*
X132897857Y-126233571D01*
X132897857Y-126162142D01*
X132883571Y-126133571D01*
X132869285Y-126119285D01*
X132840714Y-126105000D01*
X132783571Y-126105000D01*
X132755000Y-126119285D01*
X132740714Y-126133571D01*
X132726428Y-126162142D01*
X139705000Y-132890714D02*
X139605000Y-132747857D01*
X139533571Y-132890714D02*
X139533571Y-132590714D01*
X139647857Y-132590714D01*
X139676428Y-132605000D01*
X139690714Y-132619285D01*
X139705000Y-132647857D01*
X139705000Y-132690714D01*
X139690714Y-132719285D01*
X139676428Y-132733571D01*
X139647857Y-132747857D01*
X139533571Y-132747857D01*
X139805000Y-132590714D02*
X140005000Y-132590714D01*
X139876428Y-132890714D01*
X118332142Y-124940714D02*
X118232142Y-124797857D01*
X118160714Y-124940714D02*
X118160714Y-124640714D01*
X118275000Y-124640714D01*
X118303571Y-124655000D01*
X118317857Y-124669285D01*
X118332142Y-124697857D01*
X118332142Y-124740714D01*
X118317857Y-124769285D01*
X118303571Y-124783571D01*
X118275000Y-124797857D01*
X118160714Y-124797857D01*
X118446428Y-124669285D02*
X118460714Y-124655000D01*
X118489285Y-124640714D01*
X118560714Y-124640714D01*
X118589285Y-124655000D01*
X118603571Y-124669285D01*
X118617857Y-124697857D01*
X118617857Y-124726428D01*
X118603571Y-124769285D01*
X118432142Y-124940714D01*
X118617857Y-124940714D01*
X118732142Y-124669285D02*
X118746428Y-124655000D01*
X118775000Y-124640714D01*
X118846428Y-124640714D01*
X118875000Y-124655000D01*
X118889285Y-124669285D01*
X118903571Y-124697857D01*
X118903571Y-124726428D01*
X118889285Y-124769285D01*
X118717857Y-124940714D01*
X118903571Y-124940714D01*
X128146428Y-124510714D02*
X128146428Y-124753571D01*
X128160714Y-124782142D01*
X128175000Y-124796428D01*
X128203571Y-124810714D01*
X128260714Y-124810714D01*
X128289285Y-124796428D01*
X128303571Y-124782142D01*
X128317857Y-124753571D01*
X128317857Y-124510714D01*
X128432142Y-124510714D02*
X128617857Y-124510714D01*
X128517857Y-124625000D01*
X128560714Y-124625000D01*
X128589285Y-124639285D01*
X128603571Y-124653571D01*
X128617857Y-124682142D01*
X128617857Y-124753571D01*
X128603571Y-124782142D01*
X128589285Y-124796428D01*
X128560714Y-124810714D01*
X128475000Y-124810714D01*
X128446428Y-124796428D01*
X128432142Y-124782142D01*
X139682142Y-117042142D02*
X139667857Y-117056428D01*
X139625000Y-117070714D01*
X139596428Y-117070714D01*
X139553571Y-117056428D01*
X139525000Y-117027857D01*
X139510714Y-116999285D01*
X139496428Y-116942142D01*
X139496428Y-116899285D01*
X139510714Y-116842142D01*
X139525000Y-116813571D01*
X139553571Y-116785000D01*
X139596428Y-116770714D01*
X139625000Y-116770714D01*
X139667857Y-116785000D01*
X139682142Y-116799285D01*
X139967857Y-117070714D02*
X139796428Y-117070714D01*
X139882142Y-117070714D02*
X139882142Y-116770714D01*
X139853571Y-116813571D01*
X139825000Y-116842142D01*
X139796428Y-116856428D01*
X140239285Y-116770714D02*
X140096428Y-116770714D01*
X140082142Y-116913571D01*
X140096428Y-116899285D01*
X140125000Y-116885000D01*
X140196428Y-116885000D01*
X140225000Y-116899285D01*
X140239285Y-116913571D01*
X140253571Y-116942142D01*
X140253571Y-117013571D01*
X140239285Y-117042142D01*
X140225000Y-117056428D01*
X140196428Y-117070714D01*
X140125000Y-117070714D01*
X140096428Y-117056428D01*
X140082142Y-117042142D01*
X113912142Y-111502142D02*
X113897857Y-111516428D01*
X113855000Y-111530714D01*
X113826428Y-111530714D01*
X113783571Y-111516428D01*
X113755000Y-111487857D01*
X113740714Y-111459285D01*
X113726428Y-111402142D01*
X113726428Y-111359285D01*
X113740714Y-111302142D01*
X113755000Y-111273571D01*
X113783571Y-111245000D01*
X113826428Y-111230714D01*
X113855000Y-111230714D01*
X113897857Y-111245000D01*
X113912142Y-111259285D01*
X114026428Y-111259285D02*
X114040714Y-111245000D01*
X114069285Y-111230714D01*
X114140714Y-111230714D01*
X114169285Y-111245000D01*
X114183571Y-111259285D01*
X114197857Y-111287857D01*
X114197857Y-111316428D01*
X114183571Y-111359285D01*
X114012142Y-111530714D01*
X114197857Y-111530714D01*
X114483571Y-111530714D02*
X114312142Y-111530714D01*
X114397857Y-111530714D02*
X114397857Y-111230714D01*
X114369285Y-111273571D01*
X114340714Y-111302142D01*
X114312142Y-111316428D01*
X121125000Y-127660714D02*
X121025000Y-127517857D01*
X120953571Y-127660714D02*
X120953571Y-127360714D01*
X121067857Y-127360714D01*
X121096428Y-127375000D01*
X121110714Y-127389285D01*
X121125000Y-127417857D01*
X121125000Y-127460714D01*
X121110714Y-127489285D01*
X121096428Y-127503571D01*
X121067857Y-127517857D01*
X120953571Y-127517857D01*
X121225000Y-127360714D02*
X121410714Y-127360714D01*
X121310714Y-127475000D01*
X121353571Y-127475000D01*
X121382142Y-127489285D01*
X121396428Y-127503571D01*
X121410714Y-127532142D01*
X121410714Y-127603571D01*
X121396428Y-127632142D01*
X121382142Y-127646428D01*
X121353571Y-127660714D01*
X121267857Y-127660714D01*
X121239285Y-127646428D01*
X121225000Y-127632142D01*
X140955000Y-132822142D02*
X140940714Y-132836428D01*
X140897857Y-132850714D01*
X140869285Y-132850714D01*
X140826428Y-132836428D01*
X140797857Y-132807857D01*
X140783571Y-132779285D01*
X140769285Y-132722142D01*
X140769285Y-132679285D01*
X140783571Y-132622142D01*
X140797857Y-132593571D01*
X140826428Y-132565000D01*
X140869285Y-132550714D01*
X140897857Y-132550714D01*
X140940714Y-132565000D01*
X140955000Y-132579285D01*
X141240714Y-132850714D02*
X141069285Y-132850714D01*
X141155000Y-132850714D02*
X141155000Y-132550714D01*
X141126428Y-132593571D01*
X141097857Y-132622142D01*
X141069285Y-132636428D01*
X122645000Y-132052142D02*
X122630714Y-132066428D01*
X122587857Y-132080714D01*
X122559285Y-132080714D01*
X122516428Y-132066428D01*
X122487857Y-132037857D01*
X122473571Y-132009285D01*
X122459285Y-131952142D01*
X122459285Y-131909285D01*
X122473571Y-131852142D01*
X122487857Y-131823571D01*
X122516428Y-131795000D01*
X122559285Y-131780714D01*
X122587857Y-131780714D01*
X122630714Y-131795000D01*
X122645000Y-131809285D01*
X122759285Y-131809285D02*
X122773571Y-131795000D01*
X122802142Y-131780714D01*
X122873571Y-131780714D01*
X122902142Y-131795000D01*
X122916428Y-131809285D01*
X122930714Y-131837857D01*
X122930714Y-131866428D01*
X122916428Y-131909285D01*
X122745000Y-132080714D01*
X122930714Y-132080714D01*
X144155000Y-117502142D02*
X144140714Y-117516428D01*
X144097857Y-117530714D01*
X144069285Y-117530714D01*
X144026428Y-117516428D01*
X143997857Y-117487857D01*
X143983571Y-117459285D01*
X143969285Y-117402142D01*
X143969285Y-117359285D01*
X143983571Y-117302142D01*
X143997857Y-117273571D01*
X144026428Y-117245000D01*
X144069285Y-117230714D01*
X144097857Y-117230714D01*
X144140714Y-117245000D01*
X144155000Y-117259285D01*
X144426428Y-117230714D02*
X144283571Y-117230714D01*
X144269285Y-117373571D01*
X144283571Y-117359285D01*
X144312142Y-117345000D01*
X144383571Y-117345000D01*
X144412142Y-117359285D01*
X144426428Y-117373571D01*
X144440714Y-117402142D01*
X144440714Y-117473571D01*
X144426428Y-117502142D01*
X144412142Y-117516428D01*
X144383571Y-117530714D01*
X144312142Y-117530714D01*
X144283571Y-117516428D01*
X144269285Y-117502142D01*
X143225000Y-117462142D02*
X143210714Y-117476428D01*
X143167857Y-117490714D01*
X143139285Y-117490714D01*
X143096428Y-117476428D01*
X143067857Y-117447857D01*
X143053571Y-117419285D01*
X143039285Y-117362142D01*
X143039285Y-117319285D01*
X143053571Y-117262142D01*
X143067857Y-117233571D01*
X143096428Y-117205000D01*
X143139285Y-117190714D01*
X143167857Y-117190714D01*
X143210714Y-117205000D01*
X143225000Y-117219285D01*
X143482142Y-117190714D02*
X143425000Y-117190714D01*
X143396428Y-117205000D01*
X143382142Y-117219285D01*
X143353571Y-117262142D01*
X143339285Y-117319285D01*
X143339285Y-117433571D01*
X143353571Y-117462142D01*
X143367857Y-117476428D01*
X143396428Y-117490714D01*
X143453571Y-117490714D01*
X143482142Y-117476428D01*
X143496428Y-117462142D01*
X143510714Y-117433571D01*
X143510714Y-117362142D01*
X143496428Y-117333571D01*
X143482142Y-117319285D01*
X143453571Y-117305000D01*
X143396428Y-117305000D01*
X143367857Y-117319285D01*
X143353571Y-117333571D01*
X143339285Y-117362142D01*
X143735000Y-116982142D02*
X143720714Y-116996428D01*
X143677857Y-117010714D01*
X143649285Y-117010714D01*
X143606428Y-116996428D01*
X143577857Y-116967857D01*
X143563571Y-116939285D01*
X143549285Y-116882142D01*
X143549285Y-116839285D01*
X143563571Y-116782142D01*
X143577857Y-116753571D01*
X143606428Y-116725000D01*
X143649285Y-116710714D01*
X143677857Y-116710714D01*
X143720714Y-116725000D01*
X143735000Y-116739285D01*
X143835000Y-116710714D02*
X144035000Y-116710714D01*
X143906428Y-117010714D01*
X134012142Y-123052142D02*
X133997857Y-123066428D01*
X133955000Y-123080714D01*
X133926428Y-123080714D01*
X133883571Y-123066428D01*
X133855000Y-123037857D01*
X133840714Y-123009285D01*
X133826428Y-122952142D01*
X133826428Y-122909285D01*
X133840714Y-122852142D01*
X133855000Y-122823571D01*
X133883571Y-122795000D01*
X133926428Y-122780714D01*
X133955000Y-122780714D01*
X133997857Y-122795000D01*
X134012142Y-122809285D01*
X134297857Y-123080714D02*
X134126428Y-123080714D01*
X134212142Y-123080714D02*
X134212142Y-122780714D01*
X134183571Y-122823571D01*
X134155000Y-122852142D01*
X134126428Y-122866428D01*
X134583571Y-123080714D02*
X134412142Y-123080714D01*
X134497857Y-123080714D02*
X134497857Y-122780714D01*
X134469285Y-122823571D01*
X134440714Y-122852142D01*
X134412142Y-122866428D01*
X140762142Y-112087857D02*
X140776428Y-112102142D01*
X140790714Y-112145000D01*
X140790714Y-112173571D01*
X140776428Y-112216428D01*
X140747857Y-112245000D01*
X140719285Y-112259285D01*
X140662142Y-112273571D01*
X140619285Y-112273571D01*
X140562142Y-112259285D01*
X140533571Y-112245000D01*
X140505000Y-112216428D01*
X140490714Y-112173571D01*
X140490714Y-112145000D01*
X140505000Y-112102142D01*
X140519285Y-112087857D01*
X140790714Y-111802142D02*
X140790714Y-111973571D01*
X140790714Y-111887857D02*
X140490714Y-111887857D01*
X140533571Y-111916428D01*
X140562142Y-111945000D01*
X140576428Y-111973571D01*
X140519285Y-111687857D02*
X140505000Y-111673571D01*
X140490714Y-111645000D01*
X140490714Y-111573571D01*
X140505000Y-111545000D01*
X140519285Y-111530714D01*
X140547857Y-111516428D01*
X140576428Y-111516428D01*
X140619285Y-111530714D01*
X140790714Y-111702142D01*
X140790714Y-111516428D01*
X136842142Y-114142142D02*
X136827857Y-114156428D01*
X136785000Y-114170714D01*
X136756428Y-114170714D01*
X136713571Y-114156428D01*
X136685000Y-114127857D01*
X136670714Y-114099285D01*
X136656428Y-114042142D01*
X136656428Y-113999285D01*
X136670714Y-113942142D01*
X136685000Y-113913571D01*
X136713571Y-113885000D01*
X136756428Y-113870714D01*
X136785000Y-113870714D01*
X136827857Y-113885000D01*
X136842142Y-113899285D01*
X137127857Y-114170714D02*
X136956428Y-114170714D01*
X137042142Y-114170714D02*
X137042142Y-113870714D01*
X137013571Y-113913571D01*
X136985000Y-113942142D01*
X136956428Y-113956428D01*
X137227857Y-113870714D02*
X137413571Y-113870714D01*
X137313571Y-113985000D01*
X137356428Y-113985000D01*
X137385000Y-113999285D01*
X137399285Y-114013571D01*
X137413571Y-114042142D01*
X137413571Y-114113571D01*
X137399285Y-114142142D01*
X137385000Y-114156428D01*
X137356428Y-114170714D01*
X137270714Y-114170714D01*
X137242142Y-114156428D01*
X137227857Y-114142142D01*
X134732142Y-112792142D02*
X134717857Y-112806428D01*
X134675000Y-112820714D01*
X134646428Y-112820714D01*
X134603571Y-112806428D01*
X134575000Y-112777857D01*
X134560714Y-112749285D01*
X134546428Y-112692142D01*
X134546428Y-112649285D01*
X134560714Y-112592142D01*
X134575000Y-112563571D01*
X134603571Y-112535000D01*
X134646428Y-112520714D01*
X134675000Y-112520714D01*
X134717857Y-112535000D01*
X134732142Y-112549285D01*
X135017857Y-112820714D02*
X134846428Y-112820714D01*
X134932142Y-112820714D02*
X134932142Y-112520714D01*
X134903571Y-112563571D01*
X134875000Y-112592142D01*
X134846428Y-112606428D01*
X135275000Y-112620714D02*
X135275000Y-112820714D01*
X135203571Y-112506428D02*
X135132142Y-112720714D01*
X135317857Y-112720714D01*
X131232142Y-112742142D02*
X131217857Y-112756428D01*
X131175000Y-112770714D01*
X131146428Y-112770714D01*
X131103571Y-112756428D01*
X131075000Y-112727857D01*
X131060714Y-112699285D01*
X131046428Y-112642142D01*
X131046428Y-112599285D01*
X131060714Y-112542142D01*
X131075000Y-112513571D01*
X131103571Y-112485000D01*
X131146428Y-112470714D01*
X131175000Y-112470714D01*
X131217857Y-112485000D01*
X131232142Y-112499285D01*
X131517857Y-112770714D02*
X131346428Y-112770714D01*
X131432142Y-112770714D02*
X131432142Y-112470714D01*
X131403571Y-112513571D01*
X131375000Y-112542142D01*
X131346428Y-112556428D01*
X131617857Y-112470714D02*
X131817857Y-112470714D01*
X131689285Y-112770714D01*
X137722142Y-118472142D02*
X137707857Y-118486428D01*
X137665000Y-118500714D01*
X137636428Y-118500714D01*
X137593571Y-118486428D01*
X137565000Y-118457857D01*
X137550714Y-118429285D01*
X137536428Y-118372142D01*
X137536428Y-118329285D01*
X137550714Y-118272142D01*
X137565000Y-118243571D01*
X137593571Y-118215000D01*
X137636428Y-118200714D01*
X137665000Y-118200714D01*
X137707857Y-118215000D01*
X137722142Y-118229285D01*
X138007857Y-118500714D02*
X137836428Y-118500714D01*
X137922142Y-118500714D02*
X137922142Y-118200714D01*
X137893571Y-118243571D01*
X137865000Y-118272142D01*
X137836428Y-118286428D01*
X138179285Y-118329285D02*
X138150714Y-118315000D01*
X138136428Y-118300714D01*
X138122142Y-118272142D01*
X138122142Y-118257857D01*
X138136428Y-118229285D01*
X138150714Y-118215000D01*
X138179285Y-118200714D01*
X138236428Y-118200714D01*
X138265000Y-118215000D01*
X138279285Y-118229285D01*
X138293571Y-118257857D01*
X138293571Y-118272142D01*
X138279285Y-118300714D01*
X138265000Y-118315000D01*
X138236428Y-118329285D01*
X138179285Y-118329285D01*
X138150714Y-118343571D01*
X138136428Y-118357857D01*
X138122142Y-118386428D01*
X138122142Y-118443571D01*
X138136428Y-118472142D01*
X138150714Y-118486428D01*
X138179285Y-118500714D01*
X138236428Y-118500714D01*
X138265000Y-118486428D01*
X138279285Y-118472142D01*
X138293571Y-118443571D01*
X138293571Y-118386428D01*
X138279285Y-118357857D01*
X138265000Y-118343571D01*
X138236428Y-118329285D01*
X135232142Y-116842142D02*
X135217857Y-116856428D01*
X135175000Y-116870714D01*
X135146428Y-116870714D01*
X135103571Y-116856428D01*
X135075000Y-116827857D01*
X135060714Y-116799285D01*
X135046428Y-116742142D01*
X135046428Y-116699285D01*
X135060714Y-116642142D01*
X135075000Y-116613571D01*
X135103571Y-116585000D01*
X135146428Y-116570714D01*
X135175000Y-116570714D01*
X135217857Y-116585000D01*
X135232142Y-116599285D01*
X135517857Y-116870714D02*
X135346428Y-116870714D01*
X135432142Y-116870714D02*
X135432142Y-116570714D01*
X135403571Y-116613571D01*
X135375000Y-116642142D01*
X135346428Y-116656428D01*
X135660714Y-116870714D02*
X135717857Y-116870714D01*
X135746428Y-116856428D01*
X135760714Y-116842142D01*
X135789285Y-116799285D01*
X135803571Y-116742142D01*
X135803571Y-116627857D01*
X135789285Y-116599285D01*
X135775000Y-116585000D01*
X135746428Y-116570714D01*
X135689285Y-116570714D01*
X135660714Y-116585000D01*
X135646428Y-116599285D01*
X135632142Y-116627857D01*
X135632142Y-116699285D01*
X135646428Y-116727857D01*
X135660714Y-116742142D01*
X135689285Y-116756428D01*
X135746428Y-116756428D01*
X135775000Y-116742142D01*
X135789285Y-116727857D01*
X135803571Y-116699285D01*
X114042142Y-125592142D02*
X114027857Y-125606428D01*
X113985000Y-125620714D01*
X113956428Y-125620714D01*
X113913571Y-125606428D01*
X113885000Y-125577857D01*
X113870714Y-125549285D01*
X113856428Y-125492142D01*
X113856428Y-125449285D01*
X113870714Y-125392142D01*
X113885000Y-125363571D01*
X113913571Y-125335000D01*
X113956428Y-125320714D01*
X113985000Y-125320714D01*
X114027857Y-125335000D01*
X114042142Y-125349285D01*
X114156428Y-125349285D02*
X114170714Y-125335000D01*
X114199285Y-125320714D01*
X114270714Y-125320714D01*
X114299285Y-125335000D01*
X114313571Y-125349285D01*
X114327857Y-125377857D01*
X114327857Y-125406428D01*
X114313571Y-125449285D01*
X114142142Y-125620714D01*
X114327857Y-125620714D01*
X114513571Y-125320714D02*
X114542142Y-125320714D01*
X114570714Y-125335000D01*
X114585000Y-125349285D01*
X114599285Y-125377857D01*
X114613571Y-125435000D01*
X114613571Y-125506428D01*
X114599285Y-125563571D01*
X114585000Y-125592142D01*
X114570714Y-125606428D01*
X114542142Y-125620714D01*
X114513571Y-125620714D01*
X114485000Y-125606428D01*
X114470714Y-125592142D01*
X114456428Y-125563571D01*
X114442142Y-125506428D01*
X114442142Y-125435000D01*
X114456428Y-125377857D01*
X114470714Y-125349285D01*
X114485000Y-125335000D01*
X114513571Y-125320714D01*
X133150714Y-131626428D02*
X132850714Y-131626428D01*
X132850714Y-131555000D01*
X132865000Y-131512142D01*
X132893571Y-131483571D01*
X132922142Y-131469285D01*
X132979285Y-131455000D01*
X133022142Y-131455000D01*
X133079285Y-131469285D01*
X133107857Y-131483571D01*
X133136428Y-131512142D01*
X133150714Y-131555000D01*
X133150714Y-131626428D01*
X133150714Y-131169285D02*
X133150714Y-131340714D01*
X133150714Y-131255000D02*
X132850714Y-131255000D01*
X132893571Y-131283571D01*
X132922142Y-131312142D01*
X132936428Y-131340714D01*
X142090714Y-131526428D02*
X141790714Y-131526428D01*
X141790714Y-131455000D01*
X141805000Y-131412142D01*
X141833571Y-131383571D01*
X141862142Y-131369285D01*
X141919285Y-131355000D01*
X141962142Y-131355000D01*
X142019285Y-131369285D01*
X142047857Y-131383571D01*
X142076428Y-131412142D01*
X142090714Y-131455000D01*
X142090714Y-131526428D01*
X141819285Y-131240714D02*
X141805000Y-131226428D01*
X141790714Y-131197857D01*
X141790714Y-131126428D01*
X141805000Y-131097857D01*
X141819285Y-131083571D01*
X141847857Y-131069285D01*
X141876428Y-131069285D01*
X141919285Y-131083571D01*
X142090714Y-131255000D01*
X142090714Y-131069285D01*
X133995000Y-116730714D02*
X133995000Y-116945000D01*
X133980714Y-116987857D01*
X133952142Y-117016428D01*
X133909285Y-117030714D01*
X133880714Y-117030714D01*
X134266428Y-116830714D02*
X134266428Y-117030714D01*
X134195000Y-116716428D02*
X134123571Y-116930714D01*
X134309285Y-116930714D01*
X140105000Y-111500714D02*
X139962142Y-111500714D01*
X139962142Y-111200714D01*
X140176428Y-111200714D02*
X140362142Y-111200714D01*
X140262142Y-111315000D01*
X140305000Y-111315000D01*
X140333571Y-111329285D01*
X140347857Y-111343571D01*
X140362142Y-111372142D01*
X140362142Y-111443571D01*
X140347857Y-111472142D01*
X140333571Y-111486428D01*
X140305000Y-111500714D01*
X140219285Y-111500714D01*
X140190714Y-111486428D01*
X140176428Y-111472142D01*
X133395000Y-112780714D02*
X133252142Y-112780714D01*
X133252142Y-112480714D01*
X133623571Y-112580714D02*
X133623571Y-112780714D01*
X133552142Y-112466428D02*
X133480714Y-112680714D01*
X133666428Y-112680714D01*
X137955000Y-114150714D02*
X137812142Y-114150714D01*
X137812142Y-113850714D01*
X138197857Y-113850714D02*
X138055000Y-113850714D01*
X138040714Y-113993571D01*
X138055000Y-113979285D01*
X138083571Y-113965000D01*
X138155000Y-113965000D01*
X138183571Y-113979285D01*
X138197857Y-113993571D01*
X138212142Y-114022142D01*
X138212142Y-114093571D01*
X138197857Y-114122142D01*
X138183571Y-114136428D01*
X138155000Y-114150714D01*
X138083571Y-114150714D01*
X138055000Y-114136428D01*
X138040714Y-114122142D01*
X136965000Y-115200714D02*
X136822142Y-115200714D01*
X136822142Y-114900714D01*
X137193571Y-114900714D02*
X137136428Y-114900714D01*
X137107857Y-114915000D01*
X137093571Y-114929285D01*
X137065000Y-114972142D01*
X137050714Y-115029285D01*
X137050714Y-115143571D01*
X137065000Y-115172142D01*
X137079285Y-115186428D01*
X137107857Y-115200714D01*
X137165000Y-115200714D01*
X137193571Y-115186428D01*
X137207857Y-115172142D01*
X137222142Y-115143571D01*
X137222142Y-115072142D01*
X137207857Y-115043571D01*
X137193571Y-115029285D01*
X137165000Y-115015000D01*
X137107857Y-115015000D01*
X137079285Y-115029285D01*
X137065000Y-115043571D01*
X137050714Y-115072142D01*
X151216428Y-119429285D02*
X151187857Y-119415000D01*
X151159285Y-119386428D01*
X151116428Y-119343571D01*
X151087857Y-119329285D01*
X151059285Y-119329285D01*
X151073571Y-119400714D02*
X151045000Y-119386428D01*
X151016428Y-119357857D01*
X151002142Y-119300714D01*
X151002142Y-119200714D01*
X151016428Y-119143571D01*
X151045000Y-119115000D01*
X151073571Y-119100714D01*
X151130714Y-119100714D01*
X151159285Y-119115000D01*
X151187857Y-119143571D01*
X151202142Y-119200714D01*
X151202142Y-119300714D01*
X151187857Y-119357857D01*
X151159285Y-119386428D01*
X151130714Y-119400714D01*
X151073571Y-119400714D01*
X151487857Y-119400714D02*
X151316428Y-119400714D01*
X151402142Y-119400714D02*
X151402142Y-119100714D01*
X151373571Y-119143571D01*
X151345000Y-119172142D01*
X151316428Y-119186428D01*
X145546428Y-119509285D02*
X145517857Y-119495000D01*
X145489285Y-119466428D01*
X145446428Y-119423571D01*
X145417857Y-119409285D01*
X145389285Y-119409285D01*
X145403571Y-119480714D02*
X145375000Y-119466428D01*
X145346428Y-119437857D01*
X145332142Y-119380714D01*
X145332142Y-119280714D01*
X145346428Y-119223571D01*
X145375000Y-119195000D01*
X145403571Y-119180714D01*
X145460714Y-119180714D01*
X145489285Y-119195000D01*
X145517857Y-119223571D01*
X145532142Y-119280714D01*
X145532142Y-119380714D01*
X145517857Y-119437857D01*
X145489285Y-119466428D01*
X145460714Y-119480714D01*
X145403571Y-119480714D01*
X145646428Y-119209285D02*
X145660714Y-119195000D01*
X145689285Y-119180714D01*
X145760714Y-119180714D01*
X145789285Y-119195000D01*
X145803571Y-119209285D01*
X145817857Y-119237857D01*
X145817857Y-119266428D01*
X145803571Y-119309285D01*
X145632142Y-119480714D01*
X145817857Y-119480714D01*
X135635000Y-132890714D02*
X135535000Y-132747857D01*
X135463571Y-132890714D02*
X135463571Y-132590714D01*
X135577857Y-132590714D01*
X135606428Y-132605000D01*
X135620714Y-132619285D01*
X135635000Y-132647857D01*
X135635000Y-132690714D01*
X135620714Y-132719285D01*
X135606428Y-132733571D01*
X135577857Y-132747857D01*
X135463571Y-132747857D01*
X135749285Y-132619285D02*
X135763571Y-132605000D01*
X135792142Y-132590714D01*
X135863571Y-132590714D01*
X135892142Y-132605000D01*
X135906428Y-132619285D01*
X135920714Y-132647857D01*
X135920714Y-132676428D01*
X135906428Y-132719285D01*
X135735000Y-132890714D01*
X135920714Y-132890714D01*
X122390000Y-125220714D02*
X122290000Y-125077857D01*
X122218571Y-125220714D02*
X122218571Y-124920714D01*
X122332857Y-124920714D01*
X122361428Y-124935000D01*
X122375714Y-124949285D01*
X122390000Y-124977857D01*
X122390000Y-125020714D01*
X122375714Y-125049285D01*
X122361428Y-125063571D01*
X122332857Y-125077857D01*
X122218571Y-125077857D01*
X122647142Y-125020714D02*
X122647142Y-125220714D01*
X122575714Y-124906428D02*
X122504285Y-125120714D01*
X122690000Y-125120714D01*
X151755000Y-124390714D02*
X151655000Y-124247857D01*
X151583571Y-124390714D02*
X151583571Y-124090714D01*
X151697857Y-124090714D01*
X151726428Y-124105000D01*
X151740714Y-124119285D01*
X151755000Y-124147857D01*
X151755000Y-124190714D01*
X151740714Y-124219285D01*
X151726428Y-124233571D01*
X151697857Y-124247857D01*
X151583571Y-124247857D01*
X152026428Y-124090714D02*
X151883571Y-124090714D01*
X151869285Y-124233571D01*
X151883571Y-124219285D01*
X151912142Y-124205000D01*
X151983571Y-124205000D01*
X152012142Y-124219285D01*
X152026428Y-124233571D01*
X152040714Y-124262142D01*
X152040714Y-124333571D01*
X152026428Y-124362142D01*
X152012142Y-124376428D01*
X151983571Y-124390714D01*
X151912142Y-124390714D01*
X151883571Y-124376428D01*
X151869285Y-124362142D01*
X121075000Y-129490714D02*
X120975000Y-129347857D01*
X120903571Y-129490714D02*
X120903571Y-129190714D01*
X121017857Y-129190714D01*
X121046428Y-129205000D01*
X121060714Y-129219285D01*
X121075000Y-129247857D01*
X121075000Y-129290714D01*
X121060714Y-129319285D01*
X121046428Y-129333571D01*
X121017857Y-129347857D01*
X120903571Y-129347857D01*
X121246428Y-129319285D02*
X121217857Y-129305000D01*
X121203571Y-129290714D01*
X121189285Y-129262142D01*
X121189285Y-129247857D01*
X121203571Y-129219285D01*
X121217857Y-129205000D01*
X121246428Y-129190714D01*
X121303571Y-129190714D01*
X121332142Y-129205000D01*
X121346428Y-129219285D01*
X121360714Y-129247857D01*
X121360714Y-129262142D01*
X121346428Y-129290714D01*
X121332142Y-129305000D01*
X121303571Y-129319285D01*
X121246428Y-129319285D01*
X121217857Y-129333571D01*
X121203571Y-129347857D01*
X121189285Y-129376428D01*
X121189285Y-129433571D01*
X121203571Y-129462142D01*
X121217857Y-129476428D01*
X121246428Y-129490714D01*
X121303571Y-129490714D01*
X121332142Y-129476428D01*
X121346428Y-129462142D01*
X121360714Y-129433571D01*
X121360714Y-129376428D01*
X121346428Y-129347857D01*
X121332142Y-129333571D01*
X121303571Y-129319285D01*
X133190714Y-129405000D02*
X133047857Y-129505000D01*
X133190714Y-129576428D02*
X132890714Y-129576428D01*
X132890714Y-129462142D01*
X132905000Y-129433571D01*
X132919285Y-129419285D01*
X132947857Y-129405000D01*
X132990714Y-129405000D01*
X133019285Y-129419285D01*
X133033571Y-129433571D01*
X133047857Y-129462142D01*
X133047857Y-129576428D01*
X133190714Y-129262142D02*
X133190714Y-129205000D01*
X133176428Y-129176428D01*
X133162142Y-129162142D01*
X133119285Y-129133571D01*
X133062142Y-129119285D01*
X132947857Y-129119285D01*
X132919285Y-129133571D01*
X132905000Y-129147857D01*
X132890714Y-129176428D01*
X132890714Y-129233571D01*
X132905000Y-129262142D01*
X132919285Y-129276428D01*
X132947857Y-129290714D01*
X133019285Y-129290714D01*
X133047857Y-129276428D01*
X133062142Y-129262142D01*
X133076428Y-129233571D01*
X133076428Y-129176428D01*
X133062142Y-129147857D01*
X133047857Y-129133571D01*
X133019285Y-129119285D01*
X154622142Y-119710714D02*
X154522142Y-119567857D01*
X154450714Y-119710714D02*
X154450714Y-119410714D01*
X154565000Y-119410714D01*
X154593571Y-119425000D01*
X154607857Y-119439285D01*
X154622142Y-119467857D01*
X154622142Y-119510714D01*
X154607857Y-119539285D01*
X154593571Y-119553571D01*
X154565000Y-119567857D01*
X154450714Y-119567857D01*
X154907857Y-119710714D02*
X154736428Y-119710714D01*
X154822142Y-119710714D02*
X154822142Y-119410714D01*
X154793571Y-119453571D01*
X154765000Y-119482142D01*
X154736428Y-119496428D01*
X155179285Y-119410714D02*
X155036428Y-119410714D01*
X155022142Y-119553571D01*
X155036428Y-119539285D01*
X155065000Y-119525000D01*
X155136428Y-119525000D01*
X155165000Y-119539285D01*
X155179285Y-119553571D01*
X155193571Y-119582142D01*
X155193571Y-119653571D01*
X155179285Y-119682142D01*
X155165000Y-119696428D01*
X155136428Y-119710714D01*
X155065000Y-119710714D01*
X155036428Y-119696428D01*
X155022142Y-119682142D01*
X149242142Y-119610714D02*
X149142142Y-119467857D01*
X149070714Y-119610714D02*
X149070714Y-119310714D01*
X149185000Y-119310714D01*
X149213571Y-119325000D01*
X149227857Y-119339285D01*
X149242142Y-119367857D01*
X149242142Y-119410714D01*
X149227857Y-119439285D01*
X149213571Y-119453571D01*
X149185000Y-119467857D01*
X149070714Y-119467857D01*
X149527857Y-119610714D02*
X149356428Y-119610714D01*
X149442142Y-119610714D02*
X149442142Y-119310714D01*
X149413571Y-119353571D01*
X149385000Y-119382142D01*
X149356428Y-119396428D01*
X149785000Y-119310714D02*
X149727857Y-119310714D01*
X149699285Y-119325000D01*
X149685000Y-119339285D01*
X149656428Y-119382142D01*
X149642142Y-119439285D01*
X149642142Y-119553571D01*
X149656428Y-119582142D01*
X149670714Y-119596428D01*
X149699285Y-119610714D01*
X149756428Y-119610714D01*
X149785000Y-119596428D01*
X149799285Y-119582142D01*
X149813571Y-119553571D01*
X149813571Y-119482142D01*
X149799285Y-119453571D01*
X149785000Y-119439285D01*
X149756428Y-119425000D01*
X149699285Y-119425000D01*
X149670714Y-119439285D01*
X149656428Y-119453571D01*
X149642142Y-119482142D01*
X116262142Y-111550714D02*
X116162142Y-111407857D01*
X116090714Y-111550714D02*
X116090714Y-111250714D01*
X116205000Y-111250714D01*
X116233571Y-111265000D01*
X116247857Y-111279285D01*
X116262142Y-111307857D01*
X116262142Y-111350714D01*
X116247857Y-111379285D01*
X116233571Y-111393571D01*
X116205000Y-111407857D01*
X116090714Y-111407857D01*
X116376428Y-111279285D02*
X116390714Y-111265000D01*
X116419285Y-111250714D01*
X116490714Y-111250714D01*
X116519285Y-111265000D01*
X116533571Y-111279285D01*
X116547857Y-111307857D01*
X116547857Y-111336428D01*
X116533571Y-111379285D01*
X116362142Y-111550714D01*
X116547857Y-111550714D01*
X116819285Y-111250714D02*
X116676428Y-111250714D01*
X116662142Y-111393571D01*
X116676428Y-111379285D01*
X116705000Y-111365000D01*
X116776428Y-111365000D01*
X116805000Y-111379285D01*
X116819285Y-111393571D01*
X116833571Y-111422142D01*
X116833571Y-111493571D01*
X116819285Y-111522142D01*
X116805000Y-111536428D01*
X116776428Y-111550714D01*
X116705000Y-111550714D01*
X116676428Y-111536428D01*
X116662142Y-111522142D01*
X150766428Y-122090714D02*
X150766428Y-122333571D01*
X150780714Y-122362142D01*
X150795000Y-122376428D01*
X150823571Y-122390714D01*
X150880714Y-122390714D01*
X150909285Y-122376428D01*
X150923571Y-122362142D01*
X150937857Y-122333571D01*
X150937857Y-122090714D01*
X151066428Y-122119285D02*
X151080714Y-122105000D01*
X151109285Y-122090714D01*
X151180714Y-122090714D01*
X151209285Y-122105000D01*
X151223571Y-122119285D01*
X151237857Y-122147857D01*
X151237857Y-122176428D01*
X151223571Y-122219285D01*
X151052142Y-122390714D01*
X151237857Y-122390714D01*
X141826428Y-117680714D02*
X141826428Y-117923571D01*
X141840714Y-117952142D01*
X141855000Y-117966428D01*
X141883571Y-117980714D01*
X141940714Y-117980714D01*
X141969285Y-117966428D01*
X141983571Y-117952142D01*
X141997857Y-117923571D01*
X141997857Y-117680714D01*
X142269285Y-117780714D02*
X142269285Y-117980714D01*
X142197857Y-117666428D02*
X142126428Y-117880714D01*
X142312142Y-117880714D01*
X117381428Y-112293214D02*
X117381428Y-112536071D01*
X117395714Y-112564642D01*
X117410000Y-112578928D01*
X117438571Y-112593214D01*
X117495714Y-112593214D01*
X117524285Y-112578928D01*
X117538571Y-112564642D01*
X117552857Y-112536071D01*
X117552857Y-112293214D01*
X117667142Y-112293214D02*
X117867142Y-112293214D01*
X117738571Y-112593214D01*
X152963571Y-130240714D02*
X152963571Y-129940714D01*
X153035000Y-129940714D01*
X153077857Y-129955000D01*
X153106428Y-129983571D01*
X153120714Y-130012142D01*
X153135000Y-130069285D01*
X153135000Y-130112142D01*
X153120714Y-130169285D01*
X153106428Y-130197857D01*
X153077857Y-130226428D01*
X153035000Y-130240714D01*
X152963571Y-130240714D01*
X153392142Y-130040714D02*
X153392142Y-130240714D01*
X153320714Y-129926428D02*
X153249285Y-130140714D01*
X153435000Y-130140714D01*
X149972142Y-130140714D02*
X149872142Y-129997857D01*
X149800714Y-130140714D02*
X149800714Y-129840714D01*
X149915000Y-129840714D01*
X149943571Y-129855000D01*
X149957857Y-129869285D01*
X149972142Y-129897857D01*
X149972142Y-129940714D01*
X149957857Y-129969285D01*
X149943571Y-129983571D01*
X149915000Y-129997857D01*
X149800714Y-129997857D01*
X150243571Y-129840714D02*
X150100714Y-129840714D01*
X150086428Y-129983571D01*
X150100714Y-129969285D01*
X150129285Y-129955000D01*
X150200714Y-129955000D01*
X150229285Y-129969285D01*
X150243571Y-129983571D01*
X150257857Y-130012142D01*
X150257857Y-130083571D01*
X150243571Y-130112142D01*
X150229285Y-130126428D01*
X150200714Y-130140714D01*
X150129285Y-130140714D01*
X150100714Y-130126428D01*
X150086428Y-130112142D01*
X150443571Y-129840714D02*
X150472142Y-129840714D01*
X150500714Y-129855000D01*
X150515000Y-129869285D01*
X150529285Y-129897857D01*
X150543571Y-129955000D01*
X150543571Y-130026428D01*
X150529285Y-130083571D01*
X150515000Y-130112142D01*
X150500714Y-130126428D01*
X150472142Y-130140714D01*
X150443571Y-130140714D01*
X150415000Y-130126428D01*
X150400714Y-130112142D01*
X150386428Y-130083571D01*
X150372142Y-130026428D01*
X150372142Y-129955000D01*
X150386428Y-129897857D01*
X150400714Y-129869285D01*
X150415000Y-129855000D01*
X150443571Y-129840714D01*
X142182142Y-126150714D02*
X142082142Y-126007857D01*
X142010714Y-126150714D02*
X142010714Y-125850714D01*
X142125000Y-125850714D01*
X142153571Y-125865000D01*
X142167857Y-125879285D01*
X142182142Y-125907857D01*
X142182142Y-125950714D01*
X142167857Y-125979285D01*
X142153571Y-125993571D01*
X142125000Y-126007857D01*
X142010714Y-126007857D01*
X142467857Y-126150714D02*
X142296428Y-126150714D01*
X142382142Y-126150714D02*
X142382142Y-125850714D01*
X142353571Y-125893571D01*
X142325000Y-125922142D01*
X142296428Y-125936428D01*
X142753571Y-126150714D02*
X142582142Y-126150714D01*
X142667857Y-126150714D02*
X142667857Y-125850714D01*
X142639285Y-125893571D01*
X142610714Y-125922142D01*
X142582142Y-125936428D01*
X146632142Y-113865000D02*
X146646428Y-113879285D01*
X146660714Y-113922142D01*
X146660714Y-113950714D01*
X146646428Y-113993571D01*
X146617857Y-114022142D01*
X146589285Y-114036428D01*
X146532142Y-114050714D01*
X146489285Y-114050714D01*
X146432142Y-114036428D01*
X146403571Y-114022142D01*
X146375000Y-113993571D01*
X146360714Y-113950714D01*
X146360714Y-113922142D01*
X146375000Y-113879285D01*
X146389285Y-113865000D01*
X146489285Y-113693571D02*
X146475000Y-113722142D01*
X146460714Y-113736428D01*
X146432142Y-113750714D01*
X146417857Y-113750714D01*
X146389285Y-113736428D01*
X146375000Y-113722142D01*
X146360714Y-113693571D01*
X146360714Y-113636428D01*
X146375000Y-113607857D01*
X146389285Y-113593571D01*
X146417857Y-113579285D01*
X146432142Y-113579285D01*
X146460714Y-113593571D01*
X146475000Y-113607857D01*
X146489285Y-113636428D01*
X146489285Y-113693571D01*
X146503571Y-113722142D01*
X146517857Y-113736428D01*
X146546428Y-113750714D01*
X146603571Y-113750714D01*
X146632142Y-113736428D01*
X146646428Y-113722142D01*
X146660714Y-113693571D01*
X146660714Y-113636428D01*
X146646428Y-113607857D01*
X146632142Y-113593571D01*
X146603571Y-113579285D01*
X146546428Y-113579285D01*
X146517857Y-113593571D01*
X146503571Y-113607857D01*
X146489285Y-113636428D01*
X147432142Y-115835000D02*
X147446428Y-115849285D01*
X147460714Y-115892142D01*
X147460714Y-115920714D01*
X147446428Y-115963571D01*
X147417857Y-115992142D01*
X147389285Y-116006428D01*
X147332142Y-116020714D01*
X147289285Y-116020714D01*
X147232142Y-116006428D01*
X147203571Y-115992142D01*
X147175000Y-115963571D01*
X147160714Y-115920714D01*
X147160714Y-115892142D01*
X147175000Y-115849285D01*
X147189285Y-115835000D01*
X147460714Y-115692142D02*
X147460714Y-115635000D01*
X147446428Y-115606428D01*
X147432142Y-115592142D01*
X147389285Y-115563571D01*
X147332142Y-115549285D01*
X147217857Y-115549285D01*
X147189285Y-115563571D01*
X147175000Y-115577857D01*
X147160714Y-115606428D01*
X147160714Y-115663571D01*
X147175000Y-115692142D01*
X147189285Y-115706428D01*
X147217857Y-115720714D01*
X147289285Y-115720714D01*
X147317857Y-115706428D01*
X147332142Y-115692142D01*
X147346428Y-115663571D01*
X147346428Y-115606428D01*
X147332142Y-115577857D01*
X147317857Y-115563571D01*
X147289285Y-115549285D01*
X148542142Y-115937857D02*
X148556428Y-115952142D01*
X148570714Y-115995000D01*
X148570714Y-116023571D01*
X148556428Y-116066428D01*
X148527857Y-116095000D01*
X148499285Y-116109285D01*
X148442142Y-116123571D01*
X148399285Y-116123571D01*
X148342142Y-116109285D01*
X148313571Y-116095000D01*
X148285000Y-116066428D01*
X148270714Y-116023571D01*
X148270714Y-115995000D01*
X148285000Y-115952142D01*
X148299285Y-115937857D01*
X148570714Y-115652142D02*
X148570714Y-115823571D01*
X148570714Y-115737857D02*
X148270714Y-115737857D01*
X148313571Y-115766428D01*
X148342142Y-115795000D01*
X148356428Y-115823571D01*
X148270714Y-115466428D02*
X148270714Y-115437857D01*
X148285000Y-115409285D01*
X148299285Y-115395000D01*
X148327857Y-115380714D01*
X148385000Y-115366428D01*
X148456428Y-115366428D01*
X148513571Y-115380714D01*
X148542142Y-115395000D01*
X148556428Y-115409285D01*
X148570714Y-115437857D01*
X148570714Y-115466428D01*
X148556428Y-115495000D01*
X148542142Y-115509285D01*
X148513571Y-115523571D01*
X148456428Y-115537857D01*
X148385000Y-115537857D01*
X148327857Y-115523571D01*
X148299285Y-115509285D01*
X148285000Y-115495000D01*
X148270714Y-115466428D01*
X139312142Y-114102142D02*
X139297857Y-114116428D01*
X139255000Y-114130714D01*
X139226428Y-114130714D01*
X139183571Y-114116428D01*
X139155000Y-114087857D01*
X139140714Y-114059285D01*
X139126428Y-114002142D01*
X139126428Y-113959285D01*
X139140714Y-113902142D01*
X139155000Y-113873571D01*
X139183571Y-113845000D01*
X139226428Y-113830714D01*
X139255000Y-113830714D01*
X139297857Y-113845000D01*
X139312142Y-113859285D01*
X139597857Y-114130714D02*
X139426428Y-114130714D01*
X139512142Y-114130714D02*
X139512142Y-113830714D01*
X139483571Y-113873571D01*
X139455000Y-113902142D01*
X139426428Y-113916428D01*
X139855000Y-113830714D02*
X139797857Y-113830714D01*
X139769285Y-113845000D01*
X139755000Y-113859285D01*
X139726428Y-113902142D01*
X139712142Y-113959285D01*
X139712142Y-114073571D01*
X139726428Y-114102142D01*
X139740714Y-114116428D01*
X139769285Y-114130714D01*
X139826428Y-114130714D01*
X139855000Y-114116428D01*
X139869285Y-114102142D01*
X139883571Y-114073571D01*
X139883571Y-114002142D01*
X139869285Y-113973571D01*
X139855000Y-113959285D01*
X139826428Y-113945000D01*
X139769285Y-113945000D01*
X139740714Y-113959285D01*
X139726428Y-113973571D01*
X139712142Y-114002142D01*
X148715000Y-111790714D02*
X148572142Y-111790714D01*
X148572142Y-111490714D01*
X148972142Y-111790714D02*
X148800714Y-111790714D01*
X148886428Y-111790714D02*
X148886428Y-111490714D01*
X148857857Y-111533571D01*
X148829285Y-111562142D01*
X148800714Y-111576428D01*
X140585000Y-113620714D02*
X140442142Y-113620714D01*
X140442142Y-113320714D01*
X140670714Y-113349285D02*
X140685000Y-113335000D01*
X140713571Y-113320714D01*
X140785000Y-113320714D01*
X140813571Y-113335000D01*
X140827857Y-113349285D01*
X140842142Y-113377857D01*
X140842142Y-113406428D01*
X140827857Y-113449285D01*
X140656428Y-113620714D01*
X140842142Y-113620714D01*
X146460714Y-115987857D02*
X146317857Y-116087857D01*
X146460714Y-116159285D02*
X146160714Y-116159285D01*
X146160714Y-116045000D01*
X146175000Y-116016428D01*
X146189285Y-116002142D01*
X146217857Y-115987857D01*
X146260714Y-115987857D01*
X146289285Y-116002142D01*
X146303571Y-116016428D01*
X146317857Y-116045000D01*
X146317857Y-116159285D01*
X146460714Y-115702142D02*
X146460714Y-115873571D01*
X146460714Y-115787857D02*
X146160714Y-115787857D01*
X146203571Y-115816428D01*
X146232142Y-115845000D01*
X146246428Y-115873571D01*
X146460714Y-115559285D02*
X146460714Y-115502142D01*
X146446428Y-115473571D01*
X146432142Y-115459285D01*
X146389285Y-115430714D01*
X146332142Y-115416428D01*
X146217857Y-115416428D01*
X146189285Y-115430714D01*
X146175000Y-115445000D01*
X146160714Y-115473571D01*
X146160714Y-115530714D01*
X146175000Y-115559285D01*
X146189285Y-115573571D01*
X146217857Y-115587857D01*
X146289285Y-115587857D01*
X146317857Y-115573571D01*
X146332142Y-115559285D01*
X146346428Y-115530714D01*
X146346428Y-115473571D01*
X146332142Y-115445000D01*
X146317857Y-115430714D01*
X146289285Y-115416428D01*
X143621428Y-111485714D02*
X143621428Y-111728571D01*
X143635714Y-111757142D01*
X143650000Y-111771428D01*
X143678571Y-111785714D01*
X143735714Y-111785714D01*
X143764285Y-111771428D01*
X143778571Y-111757142D01*
X143792857Y-111728571D01*
X143792857Y-111485714D01*
X144078571Y-111485714D02*
X143935714Y-111485714D01*
X143921428Y-111628571D01*
X143935714Y-111614285D01*
X143964285Y-111600000D01*
X144035714Y-111600000D01*
X144064285Y-111614285D01*
X144078571Y-111628571D01*
X144092857Y-111657142D01*
X144092857Y-111728571D01*
X144078571Y-111757142D01*
X144064285Y-111771428D01*
X144035714Y-111785714D01*
X143964285Y-111785714D01*
X143935714Y-111771428D01*
X143921428Y-111757142D01*
X138515000Y-110810714D02*
X138515000Y-111025000D01*
X138500714Y-111067857D01*
X138472142Y-111096428D01*
X138429285Y-111110714D01*
X138400714Y-111110714D01*
X138786428Y-110810714D02*
X138729285Y-110810714D01*
X138700714Y-110825000D01*
X138686428Y-110839285D01*
X138657857Y-110882142D01*
X138643571Y-110939285D01*
X138643571Y-111053571D01*
X138657857Y-111082142D01*
X138672142Y-111096428D01*
X138700714Y-111110714D01*
X138757857Y-111110714D01*
X138786428Y-111096428D01*
X138800714Y-111082142D01*
X138815000Y-111053571D01*
X138815000Y-110982142D01*
X138800714Y-110953571D01*
X138786428Y-110939285D01*
X138757857Y-110925000D01*
X138700714Y-110925000D01*
X138672142Y-110939285D01*
X138657857Y-110953571D01*
X138643571Y-110982142D01*
X149923571Y-127010714D02*
X149923571Y-126710714D01*
X149995000Y-126710714D01*
X150037857Y-126725000D01*
X150066428Y-126753571D01*
X150080714Y-126782142D01*
X150095000Y-126839285D01*
X150095000Y-126882142D01*
X150080714Y-126939285D01*
X150066428Y-126967857D01*
X150037857Y-126996428D01*
X149995000Y-127010714D01*
X149923571Y-127010714D01*
X150366428Y-126710714D02*
X150223571Y-126710714D01*
X150209285Y-126853571D01*
X150223571Y-126839285D01*
X150252142Y-126825000D01*
X150323571Y-126825000D01*
X150352142Y-126839285D01*
X150366428Y-126853571D01*
X150380714Y-126882142D01*
X150380714Y-126953571D01*
X150366428Y-126982142D01*
X150352142Y-126996428D01*
X150323571Y-127010714D01*
X150252142Y-127010714D01*
X150223571Y-126996428D01*
X150209285Y-126982142D01*
X154110714Y-116146428D02*
X154353571Y-116146428D01*
X154382142Y-116132142D01*
X154396428Y-116117857D01*
X154410714Y-116089285D01*
X154410714Y-116032142D01*
X154396428Y-116003571D01*
X154382142Y-115989285D01*
X154353571Y-115975000D01*
X154110714Y-115975000D01*
X154410714Y-115675000D02*
X154410714Y-115846428D01*
X154410714Y-115760714D02*
X154110714Y-115760714D01*
X154153571Y-115789285D01*
X154182142Y-115817857D01*
X154196428Y-115846428D01*
X154110714Y-115489285D02*
X154110714Y-115460714D01*
X154125000Y-115432142D01*
X154139285Y-115417857D01*
X154167857Y-115403571D01*
X154225000Y-115389285D01*
X154296428Y-115389285D01*
X154353571Y-115403571D01*
X154382142Y-115417857D01*
X154396428Y-115432142D01*
X154410714Y-115460714D01*
X154410714Y-115489285D01*
X154396428Y-115517857D01*
X154382142Y-115532142D01*
X154353571Y-115546428D01*
X154296428Y-115560714D01*
X154225000Y-115560714D01*
X154167857Y-115546428D01*
X154139285Y-115532142D01*
X154125000Y-115517857D01*
X154110714Y-115489285D01*
X139645000Y-130232142D02*
X139630714Y-130246428D01*
X139587857Y-130260714D01*
X139559285Y-130260714D01*
X139516428Y-130246428D01*
X139487857Y-130217857D01*
X139473571Y-130189285D01*
X139459285Y-130132142D01*
X139459285Y-130089285D01*
X139473571Y-130032142D01*
X139487857Y-130003571D01*
X139516428Y-129975000D01*
X139559285Y-129960714D01*
X139587857Y-129960714D01*
X139630714Y-129975000D01*
X139645000Y-129989285D01*
X139745000Y-129960714D02*
X139930714Y-129960714D01*
X139830714Y-130075000D01*
X139873571Y-130075000D01*
X139902142Y-130089285D01*
X139916428Y-130103571D01*
X139930714Y-130132142D01*
X139930714Y-130203571D01*
X139916428Y-130232142D01*
X139902142Y-130246428D01*
X139873571Y-130260714D01*
X139787857Y-130260714D01*
X139759285Y-130246428D01*
X139745000Y-130232142D01*
M02*
