G04 #@! TF.GenerationSoftware,KiCad,Pcbnew,(5.1.5)-3*
G04 #@! TF.CreationDate,2020-04-03T19:02:15-07:00*
G04 #@! TF.ProjectId,ShadowRunner,53686164-6f77-4527-956e-6e65722e6b69,rev?*
G04 #@! TF.SameCoordinates,Original*
G04 #@! TF.FileFunction,Soldermask,Bot*
G04 #@! TF.FilePolarity,Negative*
%FSLAX46Y46*%
G04 Gerber Fmt 4.6, Leading zero omitted, Abs format (unit mm)*
G04 Created by KiCad (PCBNEW (5.1.5)-3) date 2020-04-03 19:02:15*
%MOMM*%
%LPD*%
G04 APERTURE LIST*
%ADD10C,0.100000*%
G04 APERTURE END LIST*
D10*
G36*
X155275713Y-131356249D02*
G01*
X155370152Y-131384897D01*
X155457187Y-131431418D01*
X155533475Y-131494025D01*
X155596082Y-131570313D01*
X155642603Y-131657348D01*
X155671251Y-131751787D01*
X155680924Y-131850000D01*
X155671251Y-131948213D01*
X155642603Y-132042652D01*
X155596082Y-132129687D01*
X155533475Y-132205975D01*
X155457187Y-132268582D01*
X155370152Y-132315103D01*
X155275713Y-132343751D01*
X155202112Y-132351000D01*
X153652888Y-132351000D01*
X153579287Y-132343751D01*
X153484848Y-132315103D01*
X153397813Y-132268582D01*
X153321525Y-132205975D01*
X153258918Y-132129687D01*
X153212397Y-132042652D01*
X153183749Y-131948213D01*
X153174076Y-131850000D01*
X153183749Y-131751787D01*
X153212397Y-131657348D01*
X153258918Y-131570313D01*
X153321525Y-131494025D01*
X153397813Y-131431418D01*
X153484848Y-131384897D01*
X153579287Y-131356249D01*
X153652888Y-131349000D01*
X155202112Y-131349000D01*
X155275713Y-131356249D01*
G37*
G36*
X151520713Y-131356249D02*
G01*
X151615152Y-131384897D01*
X151702187Y-131431418D01*
X151778475Y-131494025D01*
X151841082Y-131570313D01*
X151887603Y-131657348D01*
X151916251Y-131751787D01*
X151925924Y-131850000D01*
X151916251Y-131948213D01*
X151887603Y-132042652D01*
X151841082Y-132129687D01*
X151778475Y-132205975D01*
X151702187Y-132268582D01*
X151615152Y-132315103D01*
X151520713Y-132343751D01*
X151447112Y-132351000D01*
X150597888Y-132351000D01*
X150524287Y-132343751D01*
X150429848Y-132315103D01*
X150342813Y-132268582D01*
X150266525Y-132205975D01*
X150203918Y-132129687D01*
X150157397Y-132042652D01*
X150128749Y-131948213D01*
X150119076Y-131850000D01*
X150128749Y-131751787D01*
X150157397Y-131657348D01*
X150203918Y-131570313D01*
X150266525Y-131494025D01*
X150342813Y-131431418D01*
X150429848Y-131384897D01*
X150524287Y-131356249D01*
X150597888Y-131349000D01*
X151447112Y-131349000D01*
X151520713Y-131356249D01*
G37*
G36*
X120411000Y-131791000D02*
G01*
X118709000Y-131791000D01*
X118709000Y-131189000D01*
X120411000Y-131189000D01*
X120411000Y-131791000D01*
G37*
G36*
X125911000Y-131791000D02*
G01*
X123809000Y-131791000D01*
X123809000Y-131189000D01*
X125911000Y-131189000D01*
X125911000Y-131791000D01*
G37*
G36*
X116211000Y-131791000D02*
G01*
X114509000Y-131791000D01*
X114509000Y-131189000D01*
X116211000Y-131189000D01*
X116211000Y-131791000D01*
G37*
G36*
X155512172Y-124175949D02*
G01*
X155512174Y-124175950D01*
X155512175Y-124175950D01*
X155580603Y-124204293D01*
X155642186Y-124245442D01*
X155694558Y-124297814D01*
X155735707Y-124359397D01*
X155764050Y-124427825D01*
X155778500Y-124500467D01*
X155778500Y-124574533D01*
X155764050Y-124647175D01*
X155735707Y-124715603D01*
X155694558Y-124777186D01*
X155642186Y-124829558D01*
X155598763Y-124858573D01*
X155579828Y-124874112D01*
X155564283Y-124893054D01*
X155552732Y-124914665D01*
X155545619Y-124938114D01*
X155543217Y-124962500D01*
X155545619Y-124986886D01*
X155552732Y-125010335D01*
X155564283Y-125031946D01*
X155579828Y-125050888D01*
X155598763Y-125066427D01*
X155642186Y-125095442D01*
X155694558Y-125147814D01*
X155735707Y-125209397D01*
X155764050Y-125277825D01*
X155778500Y-125350467D01*
X155778500Y-125424533D01*
X155764050Y-125497175D01*
X155735707Y-125565603D01*
X155694558Y-125627186D01*
X155642186Y-125679558D01*
X155598763Y-125708573D01*
X155579828Y-125724112D01*
X155564283Y-125743054D01*
X155552732Y-125764665D01*
X155545619Y-125788114D01*
X155543217Y-125812500D01*
X155545619Y-125836886D01*
X155552732Y-125860335D01*
X155564283Y-125881946D01*
X155579828Y-125900888D01*
X155598763Y-125916427D01*
X155642186Y-125945442D01*
X155694558Y-125997814D01*
X155735707Y-126059397D01*
X155764050Y-126127825D01*
X155778500Y-126200467D01*
X155778500Y-126274533D01*
X155764050Y-126347175D01*
X155735707Y-126415603D01*
X155694558Y-126477186D01*
X155642186Y-126529558D01*
X155598763Y-126558573D01*
X155579828Y-126574112D01*
X155564283Y-126593054D01*
X155552732Y-126614665D01*
X155545619Y-126638114D01*
X155543217Y-126662500D01*
X155545619Y-126686886D01*
X155552732Y-126710335D01*
X155564283Y-126731946D01*
X155579828Y-126750888D01*
X155598763Y-126766427D01*
X155642186Y-126795442D01*
X155694558Y-126847814D01*
X155735707Y-126909397D01*
X155764050Y-126977825D01*
X155778500Y-127050467D01*
X155778500Y-127124533D01*
X155764050Y-127197175D01*
X155735707Y-127265603D01*
X155694558Y-127327186D01*
X155642186Y-127379558D01*
X155598763Y-127408573D01*
X155579828Y-127424112D01*
X155564283Y-127443054D01*
X155552732Y-127464665D01*
X155545619Y-127488114D01*
X155543217Y-127512500D01*
X155545619Y-127536886D01*
X155552732Y-127560335D01*
X155564283Y-127581946D01*
X155579828Y-127600888D01*
X155598763Y-127616427D01*
X155642186Y-127645442D01*
X155694558Y-127697814D01*
X155735707Y-127759397D01*
X155764050Y-127827825D01*
X155778500Y-127900467D01*
X155778500Y-127974533D01*
X155764050Y-128047175D01*
X155735707Y-128115603D01*
X155694558Y-128177186D01*
X155642186Y-128229558D01*
X155598763Y-128258573D01*
X155579828Y-128274112D01*
X155564283Y-128293054D01*
X155552732Y-128314665D01*
X155545619Y-128338114D01*
X155543217Y-128362500D01*
X155545619Y-128386886D01*
X155552732Y-128410335D01*
X155564283Y-128431946D01*
X155579828Y-128450888D01*
X155598763Y-128466427D01*
X155642186Y-128495442D01*
X155694558Y-128547814D01*
X155735707Y-128609397D01*
X155764050Y-128677825D01*
X155778500Y-128750467D01*
X155778500Y-128824533D01*
X155764050Y-128897175D01*
X155735707Y-128965603D01*
X155694558Y-129027186D01*
X155642186Y-129079558D01*
X155598763Y-129108573D01*
X155579828Y-129124112D01*
X155564283Y-129143054D01*
X155552732Y-129164665D01*
X155545619Y-129188114D01*
X155543217Y-129212500D01*
X155545619Y-129236886D01*
X155552732Y-129260335D01*
X155564283Y-129281946D01*
X155579828Y-129300888D01*
X155598763Y-129316427D01*
X155642186Y-129345442D01*
X155694558Y-129397814D01*
X155735707Y-129459397D01*
X155764050Y-129527825D01*
X155778500Y-129600467D01*
X155778500Y-129674533D01*
X155764050Y-129747175D01*
X155735707Y-129815603D01*
X155694558Y-129877186D01*
X155642186Y-129929558D01*
X155598763Y-129958573D01*
X155579828Y-129974112D01*
X155564283Y-129993054D01*
X155552732Y-130014665D01*
X155545619Y-130038114D01*
X155543217Y-130062500D01*
X155545619Y-130086886D01*
X155552732Y-130110335D01*
X155564283Y-130131946D01*
X155579828Y-130150888D01*
X155598763Y-130166427D01*
X155642186Y-130195442D01*
X155694558Y-130247814D01*
X155735707Y-130309397D01*
X155764050Y-130377825D01*
X155778500Y-130450467D01*
X155778500Y-130524533D01*
X155764050Y-130597175D01*
X155735707Y-130665603D01*
X155694558Y-130727186D01*
X155642186Y-130779558D01*
X155580603Y-130820707D01*
X155512175Y-130849050D01*
X155512174Y-130849050D01*
X155512172Y-130849051D01*
X155439534Y-130863500D01*
X155365466Y-130863500D01*
X155292828Y-130849051D01*
X155292826Y-130849050D01*
X155292825Y-130849050D01*
X155224397Y-130820707D01*
X155162814Y-130779558D01*
X155110442Y-130727186D01*
X155069293Y-130665603D01*
X155040950Y-130597175D01*
X155026500Y-130524533D01*
X155026500Y-130450467D01*
X155040950Y-130377825D01*
X155069293Y-130309397D01*
X155110442Y-130247814D01*
X155162814Y-130195442D01*
X155206237Y-130166427D01*
X155225172Y-130150888D01*
X155240717Y-130131946D01*
X155252268Y-130110335D01*
X155259381Y-130086886D01*
X155261783Y-130062500D01*
X155259381Y-130038114D01*
X155252268Y-130014665D01*
X155240717Y-129993054D01*
X155225172Y-129974112D01*
X155206237Y-129958573D01*
X155162814Y-129929558D01*
X155110442Y-129877186D01*
X155069293Y-129815603D01*
X155040950Y-129747175D01*
X155026500Y-129674533D01*
X155026500Y-129600467D01*
X155040950Y-129527825D01*
X155069293Y-129459397D01*
X155110442Y-129397814D01*
X155162814Y-129345442D01*
X155206237Y-129316427D01*
X155225172Y-129300888D01*
X155240717Y-129281946D01*
X155252268Y-129260335D01*
X155259381Y-129236886D01*
X155261783Y-129212500D01*
X155259381Y-129188114D01*
X155252268Y-129164665D01*
X155240717Y-129143054D01*
X155225172Y-129124112D01*
X155206237Y-129108573D01*
X155162814Y-129079558D01*
X155110442Y-129027186D01*
X155069293Y-128965603D01*
X155040950Y-128897175D01*
X155026500Y-128824533D01*
X155026500Y-128750467D01*
X155040950Y-128677825D01*
X155069293Y-128609397D01*
X155110442Y-128547814D01*
X155162814Y-128495442D01*
X155206237Y-128466427D01*
X155225172Y-128450888D01*
X155240717Y-128431946D01*
X155252268Y-128410335D01*
X155259381Y-128386886D01*
X155261783Y-128362500D01*
X155259381Y-128338114D01*
X155252268Y-128314665D01*
X155240717Y-128293054D01*
X155225172Y-128274112D01*
X155206237Y-128258573D01*
X155162814Y-128229558D01*
X155110442Y-128177186D01*
X155069293Y-128115603D01*
X155040950Y-128047175D01*
X155026500Y-127974533D01*
X155026500Y-127900467D01*
X155040950Y-127827825D01*
X155069293Y-127759397D01*
X155110442Y-127697814D01*
X155162814Y-127645442D01*
X155206237Y-127616427D01*
X155225172Y-127600888D01*
X155240717Y-127581946D01*
X155252268Y-127560335D01*
X155259381Y-127536886D01*
X155261783Y-127512500D01*
X155259381Y-127488114D01*
X155252268Y-127464665D01*
X155240717Y-127443054D01*
X155225172Y-127424112D01*
X155206237Y-127408573D01*
X155162814Y-127379558D01*
X155110442Y-127327186D01*
X155069293Y-127265603D01*
X155040950Y-127197175D01*
X155026500Y-127124533D01*
X155026500Y-127050467D01*
X155040950Y-126977825D01*
X155069293Y-126909397D01*
X155110442Y-126847814D01*
X155162814Y-126795442D01*
X155206237Y-126766427D01*
X155225172Y-126750888D01*
X155240717Y-126731946D01*
X155252268Y-126710335D01*
X155259381Y-126686886D01*
X155261783Y-126662500D01*
X155259381Y-126638114D01*
X155252268Y-126614665D01*
X155240717Y-126593054D01*
X155225172Y-126574112D01*
X155206237Y-126558573D01*
X155162814Y-126529558D01*
X155110442Y-126477186D01*
X155069293Y-126415603D01*
X155040950Y-126347175D01*
X155026500Y-126274533D01*
X155026500Y-126200467D01*
X155040950Y-126127825D01*
X155069293Y-126059397D01*
X155110442Y-125997814D01*
X155162814Y-125945442D01*
X155206237Y-125916427D01*
X155225172Y-125900888D01*
X155240717Y-125881946D01*
X155252268Y-125860335D01*
X155259381Y-125836886D01*
X155261783Y-125812500D01*
X155259381Y-125788114D01*
X155252268Y-125764665D01*
X155240717Y-125743054D01*
X155225172Y-125724112D01*
X155206237Y-125708573D01*
X155162814Y-125679558D01*
X155110442Y-125627186D01*
X155069293Y-125565603D01*
X155040950Y-125497175D01*
X155026500Y-125424533D01*
X155026500Y-125350467D01*
X155040950Y-125277825D01*
X155069293Y-125209397D01*
X155110442Y-125147814D01*
X155162814Y-125095442D01*
X155206237Y-125066427D01*
X155225172Y-125050888D01*
X155240717Y-125031946D01*
X155252268Y-125010335D01*
X155259381Y-124986886D01*
X155261783Y-124962500D01*
X155259381Y-124938114D01*
X155252268Y-124914665D01*
X155240717Y-124893054D01*
X155225172Y-124874112D01*
X155206237Y-124858573D01*
X155162814Y-124829558D01*
X155110442Y-124777186D01*
X155069293Y-124715603D01*
X155040950Y-124647175D01*
X155026500Y-124574533D01*
X155026500Y-124500467D01*
X155040950Y-124427825D01*
X155069293Y-124359397D01*
X155110442Y-124297814D01*
X155162814Y-124245442D01*
X155224397Y-124204293D01*
X155292825Y-124175950D01*
X155292826Y-124175950D01*
X155292828Y-124175949D01*
X155365466Y-124161500D01*
X155439534Y-124161500D01*
X155512172Y-124175949D01*
G37*
G36*
X154162172Y-124175949D02*
G01*
X154162174Y-124175950D01*
X154162175Y-124175950D01*
X154230603Y-124204293D01*
X154292186Y-124245442D01*
X154344558Y-124297814D01*
X154385707Y-124359397D01*
X154414050Y-124427825D01*
X154428500Y-124500467D01*
X154428500Y-124574533D01*
X154414050Y-124647175D01*
X154385707Y-124715603D01*
X154344558Y-124777186D01*
X154292186Y-124829558D01*
X154248763Y-124858573D01*
X154229828Y-124874112D01*
X154214283Y-124893054D01*
X154202732Y-124914665D01*
X154195619Y-124938114D01*
X154193217Y-124962500D01*
X154195619Y-124986886D01*
X154202732Y-125010335D01*
X154214283Y-125031946D01*
X154229828Y-125050888D01*
X154248763Y-125066427D01*
X154292186Y-125095442D01*
X154344558Y-125147814D01*
X154385707Y-125209397D01*
X154414050Y-125277825D01*
X154428500Y-125350467D01*
X154428500Y-125424533D01*
X154414050Y-125497175D01*
X154385707Y-125565603D01*
X154344558Y-125627186D01*
X154292186Y-125679558D01*
X154248763Y-125708573D01*
X154229828Y-125724112D01*
X154214283Y-125743054D01*
X154202732Y-125764665D01*
X154195619Y-125788114D01*
X154193217Y-125812500D01*
X154195619Y-125836886D01*
X154202732Y-125860335D01*
X154214283Y-125881946D01*
X154229828Y-125900888D01*
X154248763Y-125916427D01*
X154292186Y-125945442D01*
X154344558Y-125997814D01*
X154385707Y-126059397D01*
X154414050Y-126127825D01*
X154428500Y-126200467D01*
X154428500Y-126274533D01*
X154414050Y-126347175D01*
X154385707Y-126415603D01*
X154344558Y-126477186D01*
X154292186Y-126529558D01*
X154248763Y-126558573D01*
X154229828Y-126574112D01*
X154214283Y-126593054D01*
X154202732Y-126614665D01*
X154195619Y-126638114D01*
X154193217Y-126662500D01*
X154195619Y-126686886D01*
X154202732Y-126710335D01*
X154214283Y-126731946D01*
X154229828Y-126750888D01*
X154248763Y-126766427D01*
X154292186Y-126795442D01*
X154344558Y-126847814D01*
X154385707Y-126909397D01*
X154414050Y-126977825D01*
X154428500Y-127050467D01*
X154428500Y-127124533D01*
X154414050Y-127197175D01*
X154385707Y-127265603D01*
X154344558Y-127327186D01*
X154292186Y-127379558D01*
X154248763Y-127408573D01*
X154229828Y-127424112D01*
X154214283Y-127443054D01*
X154202732Y-127464665D01*
X154195619Y-127488114D01*
X154193217Y-127512500D01*
X154195619Y-127536886D01*
X154202732Y-127560335D01*
X154214283Y-127581946D01*
X154229828Y-127600888D01*
X154248763Y-127616427D01*
X154292186Y-127645442D01*
X154344558Y-127697814D01*
X154385707Y-127759397D01*
X154414050Y-127827825D01*
X154428500Y-127900467D01*
X154428500Y-127974533D01*
X154414050Y-128047175D01*
X154385707Y-128115603D01*
X154344558Y-128177186D01*
X154292186Y-128229558D01*
X154248763Y-128258573D01*
X154229828Y-128274112D01*
X154214283Y-128293054D01*
X154202732Y-128314665D01*
X154195619Y-128338114D01*
X154193217Y-128362500D01*
X154195619Y-128386886D01*
X154202732Y-128410335D01*
X154214283Y-128431946D01*
X154229828Y-128450888D01*
X154248763Y-128466427D01*
X154292186Y-128495442D01*
X154344558Y-128547814D01*
X154385707Y-128609397D01*
X154414050Y-128677825D01*
X154428500Y-128750467D01*
X154428500Y-128824533D01*
X154414050Y-128897175D01*
X154385707Y-128965603D01*
X154344558Y-129027186D01*
X154292186Y-129079558D01*
X154248763Y-129108573D01*
X154229828Y-129124112D01*
X154214283Y-129143054D01*
X154202732Y-129164665D01*
X154195619Y-129188114D01*
X154193217Y-129212500D01*
X154195619Y-129236886D01*
X154202732Y-129260335D01*
X154214283Y-129281946D01*
X154229828Y-129300888D01*
X154248763Y-129316427D01*
X154292186Y-129345442D01*
X154344558Y-129397814D01*
X154385707Y-129459397D01*
X154414050Y-129527825D01*
X154428500Y-129600467D01*
X154428500Y-129674533D01*
X154414050Y-129747175D01*
X154385707Y-129815603D01*
X154344558Y-129877186D01*
X154292186Y-129929558D01*
X154248763Y-129958573D01*
X154229828Y-129974112D01*
X154214283Y-129993054D01*
X154202732Y-130014665D01*
X154195619Y-130038114D01*
X154193217Y-130062500D01*
X154195619Y-130086886D01*
X154202732Y-130110335D01*
X154214283Y-130131946D01*
X154229828Y-130150888D01*
X154248763Y-130166427D01*
X154292186Y-130195442D01*
X154344558Y-130247814D01*
X154385707Y-130309397D01*
X154414050Y-130377825D01*
X154428500Y-130450467D01*
X154428500Y-130524533D01*
X154414050Y-130597175D01*
X154385707Y-130665603D01*
X154344558Y-130727186D01*
X154292186Y-130779558D01*
X154230603Y-130820707D01*
X154162175Y-130849050D01*
X154162174Y-130849050D01*
X154162172Y-130849051D01*
X154089534Y-130863500D01*
X154015466Y-130863500D01*
X153942828Y-130849051D01*
X153942826Y-130849050D01*
X153942825Y-130849050D01*
X153874397Y-130820707D01*
X153812814Y-130779558D01*
X153760442Y-130727186D01*
X153719293Y-130665603D01*
X153690950Y-130597175D01*
X153676500Y-130524533D01*
X153676500Y-130450467D01*
X153690950Y-130377825D01*
X153719293Y-130309397D01*
X153760442Y-130247814D01*
X153812814Y-130195442D01*
X153856237Y-130166427D01*
X153875172Y-130150888D01*
X153890717Y-130131946D01*
X153902268Y-130110335D01*
X153909381Y-130086886D01*
X153911783Y-130062500D01*
X153909381Y-130038114D01*
X153902268Y-130014665D01*
X153890717Y-129993054D01*
X153875172Y-129974112D01*
X153856237Y-129958573D01*
X153812814Y-129929558D01*
X153760442Y-129877186D01*
X153719293Y-129815603D01*
X153690950Y-129747175D01*
X153676500Y-129674533D01*
X153676500Y-129600467D01*
X153690950Y-129527825D01*
X153719293Y-129459397D01*
X153760442Y-129397814D01*
X153812814Y-129345442D01*
X153856237Y-129316427D01*
X153875172Y-129300888D01*
X153890717Y-129281946D01*
X153902268Y-129260335D01*
X153909381Y-129236886D01*
X153911783Y-129212500D01*
X153909381Y-129188114D01*
X153902268Y-129164665D01*
X153890717Y-129143054D01*
X153875172Y-129124112D01*
X153856237Y-129108573D01*
X153812814Y-129079558D01*
X153760442Y-129027186D01*
X153719293Y-128965603D01*
X153690950Y-128897175D01*
X153676500Y-128824533D01*
X153676500Y-128750467D01*
X153690950Y-128677825D01*
X153719293Y-128609397D01*
X153760442Y-128547814D01*
X153812814Y-128495442D01*
X153856237Y-128466427D01*
X153875172Y-128450888D01*
X153890717Y-128431946D01*
X153902268Y-128410335D01*
X153909381Y-128386886D01*
X153911783Y-128362500D01*
X153909381Y-128338114D01*
X153902268Y-128314665D01*
X153890717Y-128293054D01*
X153875172Y-128274112D01*
X153856237Y-128258573D01*
X153812814Y-128229558D01*
X153760442Y-128177186D01*
X153719293Y-128115603D01*
X153690950Y-128047175D01*
X153676500Y-127974533D01*
X153676500Y-127900467D01*
X153690950Y-127827825D01*
X153719293Y-127759397D01*
X153760442Y-127697814D01*
X153812814Y-127645442D01*
X153856237Y-127616427D01*
X153875172Y-127600888D01*
X153890717Y-127581946D01*
X153902268Y-127560335D01*
X153909381Y-127536886D01*
X153911783Y-127512500D01*
X153909381Y-127488114D01*
X153902268Y-127464665D01*
X153890717Y-127443054D01*
X153875172Y-127424112D01*
X153856237Y-127408573D01*
X153812814Y-127379558D01*
X153760442Y-127327186D01*
X153719293Y-127265603D01*
X153690950Y-127197175D01*
X153676500Y-127124533D01*
X153676500Y-127050467D01*
X153690950Y-126977825D01*
X153719293Y-126909397D01*
X153760442Y-126847814D01*
X153812814Y-126795442D01*
X153856237Y-126766427D01*
X153875172Y-126750888D01*
X153890717Y-126731946D01*
X153902268Y-126710335D01*
X153909381Y-126686886D01*
X153911783Y-126662500D01*
X153909381Y-126638114D01*
X153902268Y-126614665D01*
X153890717Y-126593054D01*
X153875172Y-126574112D01*
X153856237Y-126558573D01*
X153812814Y-126529558D01*
X153760442Y-126477186D01*
X153719293Y-126415603D01*
X153690950Y-126347175D01*
X153676500Y-126274533D01*
X153676500Y-126200467D01*
X153690950Y-126127825D01*
X153719293Y-126059397D01*
X153760442Y-125997814D01*
X153812814Y-125945442D01*
X153856237Y-125916427D01*
X153875172Y-125900888D01*
X153890717Y-125881946D01*
X153902268Y-125860335D01*
X153909381Y-125836886D01*
X153911783Y-125812500D01*
X153909381Y-125788114D01*
X153902268Y-125764665D01*
X153890717Y-125743054D01*
X153875172Y-125724112D01*
X153856237Y-125708573D01*
X153812814Y-125679558D01*
X153760442Y-125627186D01*
X153719293Y-125565603D01*
X153690950Y-125497175D01*
X153676500Y-125424533D01*
X153676500Y-125350467D01*
X153690950Y-125277825D01*
X153719293Y-125209397D01*
X153760442Y-125147814D01*
X153812814Y-125095442D01*
X153856237Y-125066427D01*
X153875172Y-125050888D01*
X153890717Y-125031946D01*
X153902268Y-125010335D01*
X153909381Y-124986886D01*
X153911783Y-124962500D01*
X153909381Y-124938114D01*
X153902268Y-124914665D01*
X153890717Y-124893054D01*
X153875172Y-124874112D01*
X153856237Y-124858573D01*
X153812814Y-124829558D01*
X153760442Y-124777186D01*
X153719293Y-124715603D01*
X153690950Y-124647175D01*
X153676500Y-124574533D01*
X153676500Y-124500467D01*
X153690950Y-124427825D01*
X153719293Y-124359397D01*
X153760442Y-124297814D01*
X153812814Y-124245442D01*
X153874397Y-124204293D01*
X153942825Y-124175950D01*
X153942826Y-124175950D01*
X153942828Y-124175949D01*
X154015466Y-124161500D01*
X154089534Y-124161500D01*
X154162172Y-124175949D01*
G37*
G36*
X113256000Y-129451000D02*
G01*
X112404000Y-129451000D01*
X112404000Y-128749000D01*
X113256000Y-128749000D01*
X113256000Y-129451000D01*
G37*
G36*
X113256000Y-128351000D02*
G01*
X112404000Y-128351000D01*
X112404000Y-127649000D01*
X113256000Y-127649000D01*
X113256000Y-128351000D01*
G37*
G36*
X113256000Y-127251000D02*
G01*
X112404000Y-127251000D01*
X112404000Y-126549000D01*
X113256000Y-126549000D01*
X113256000Y-127251000D01*
G37*
G36*
X113256000Y-126151000D02*
G01*
X112404000Y-126151000D01*
X112404000Y-125449000D01*
X113256000Y-125449000D01*
X113256000Y-126151000D01*
G37*
G36*
X113256000Y-125051000D02*
G01*
X112404000Y-125051000D01*
X112404000Y-124349000D01*
X113256000Y-124349000D01*
X113256000Y-125051000D01*
G37*
G36*
X113256000Y-123951000D02*
G01*
X112404000Y-123951000D01*
X112404000Y-123249000D01*
X113256000Y-123249000D01*
X113256000Y-123951000D01*
G37*
G36*
X151520713Y-122703749D02*
G01*
X151615152Y-122732397D01*
X151702187Y-122778918D01*
X151778475Y-122841525D01*
X151841082Y-122917813D01*
X151887603Y-123004848D01*
X151916251Y-123099287D01*
X151925924Y-123197500D01*
X151916251Y-123295713D01*
X151887603Y-123390152D01*
X151841082Y-123477187D01*
X151778475Y-123553475D01*
X151702187Y-123616082D01*
X151615152Y-123662603D01*
X151520713Y-123691251D01*
X151447112Y-123698500D01*
X150597888Y-123698500D01*
X150524287Y-123691251D01*
X150429848Y-123662603D01*
X150342813Y-123616082D01*
X150266525Y-123553475D01*
X150203918Y-123477187D01*
X150157397Y-123390152D01*
X150128749Y-123295713D01*
X150119076Y-123197500D01*
X150128749Y-123099287D01*
X150157397Y-123004848D01*
X150203918Y-122917813D01*
X150266525Y-122841525D01*
X150342813Y-122778918D01*
X150429848Y-122732397D01*
X150524287Y-122703749D01*
X150597888Y-122696500D01*
X151447112Y-122696500D01*
X151520713Y-122703749D01*
G37*
G36*
X155260713Y-122701249D02*
G01*
X155355152Y-122729897D01*
X155442187Y-122776418D01*
X155518475Y-122839025D01*
X155581082Y-122915313D01*
X155627603Y-123002348D01*
X155656251Y-123096787D01*
X155665924Y-123195000D01*
X155656251Y-123293213D01*
X155627603Y-123387652D01*
X155581082Y-123474687D01*
X155518475Y-123550975D01*
X155442187Y-123613582D01*
X155355152Y-123660103D01*
X155260713Y-123688751D01*
X155187112Y-123696000D01*
X153637888Y-123696000D01*
X153564287Y-123688751D01*
X153469848Y-123660103D01*
X153382813Y-123613582D01*
X153306525Y-123550975D01*
X153243918Y-123474687D01*
X153197397Y-123387652D01*
X153168749Y-123293213D01*
X153159076Y-123195000D01*
X153168749Y-123096787D01*
X153197397Y-123002348D01*
X153243918Y-122915313D01*
X153306525Y-122839025D01*
X153382813Y-122776418D01*
X153469848Y-122729897D01*
X153564287Y-122701249D01*
X153637888Y-122694000D01*
X155187112Y-122694000D01*
X155260713Y-122701249D01*
G37*
G36*
X113256000Y-122851000D02*
G01*
X112404000Y-122851000D01*
X112404000Y-122149000D01*
X113256000Y-122149000D01*
X113256000Y-122851000D01*
G37*
G36*
X125908500Y-120821000D02*
G01*
X124306500Y-120821000D01*
X124306500Y-120019000D01*
X125908500Y-120019000D01*
X125908500Y-120821000D01*
G37*
G36*
X120803500Y-120393500D02*
G01*
X118701500Y-120393500D01*
X118701500Y-119791500D01*
X120803500Y-119791500D01*
X120803500Y-120393500D01*
G37*
G36*
X114658500Y-120388500D02*
G01*
X112606500Y-120388500D01*
X112606500Y-119786500D01*
X114658500Y-119786500D01*
X114658500Y-120388500D01*
G37*
G36*
X136841000Y-119376000D02*
G01*
X135999000Y-119376000D01*
X135999000Y-116874000D01*
X136841000Y-116874000D01*
X136841000Y-119376000D01*
G37*
G36*
X135571000Y-119376000D02*
G01*
X134729000Y-119376000D01*
X134729000Y-116874000D01*
X135571000Y-116874000D01*
X135571000Y-119376000D01*
G37*
G36*
X138111000Y-119376000D02*
G01*
X137269000Y-119376000D01*
X137269000Y-116874000D01*
X138111000Y-116874000D01*
X138111000Y-119376000D01*
G37*
G36*
X134301000Y-119376000D02*
G01*
X133459000Y-119376000D01*
X133459000Y-116874000D01*
X134301000Y-116874000D01*
X134301000Y-119376000D01*
G37*
G36*
X133031000Y-119376000D02*
G01*
X132189000Y-119376000D01*
X132189000Y-116874000D01*
X133031000Y-116874000D01*
X133031000Y-119376000D01*
G37*
G36*
X120826900Y-118747900D02*
G01*
X118718300Y-118747900D01*
X118718300Y-117452100D01*
X120826900Y-117452100D01*
X120826900Y-118747900D01*
G37*
G36*
X125576199Y-116555900D02*
G01*
X121968999Y-116555900D01*
X121968999Y-115742700D01*
X125576199Y-115742700D01*
X125576199Y-116555900D01*
G37*
G36*
X135571000Y-115476000D02*
G01*
X134729000Y-115476000D01*
X134729000Y-112974000D01*
X135571000Y-112974000D01*
X135571000Y-115476000D01*
G37*
G36*
X138111000Y-115476000D02*
G01*
X137269000Y-115476000D01*
X137269000Y-112974000D01*
X138111000Y-112974000D01*
X138111000Y-115476000D01*
G37*
G36*
X136841000Y-115476000D02*
G01*
X135999000Y-115476000D01*
X135999000Y-112974000D01*
X136841000Y-112974000D01*
X136841000Y-115476000D01*
G37*
G36*
X134301000Y-115476000D02*
G01*
X133459000Y-115476000D01*
X133459000Y-112974000D01*
X134301000Y-112974000D01*
X134301000Y-115476000D01*
G37*
G36*
X133031000Y-115476000D02*
G01*
X132189000Y-115476000D01*
X132189000Y-112974000D01*
X133031000Y-112974000D01*
X133031000Y-115476000D01*
G37*
G36*
X125576199Y-115057300D02*
G01*
X121968999Y-115057300D01*
X121968999Y-114244100D01*
X125576199Y-114244100D01*
X125576199Y-115057300D01*
G37*
G36*
X120826900Y-113347900D02*
G01*
X118718300Y-113347900D01*
X118718300Y-112052100D01*
X120826900Y-112052100D01*
X120826900Y-113347900D01*
G37*
M02*
