G04 #@! TF.GenerationSoftware,KiCad,Pcbnew,(5.1.5)-3*
G04 #@! TF.CreationDate,2020-04-03T19:02:15-07:00*
G04 #@! TF.ProjectId,ShadowRunner,53686164-6f77-4527-956e-6e65722e6b69,rev?*
G04 #@! TF.SameCoordinates,Original*
G04 #@! TF.FileFunction,Soldermask,Top*
G04 #@! TF.FilePolarity,Negative*
%FSLAX46Y46*%
G04 Gerber Fmt 4.6, Leading zero omitted, Abs format (unit mm)*
G04 Created by KiCad (PCBNEW (5.1.5)-3) date 2020-04-03 19:02:15*
%MOMM*%
%LPD*%
G04 APERTURE LIST*
%ADD10C,0.100000*%
G04 APERTURE END LIST*
D10*
G36*
X138869468Y-131588565D02*
G01*
X138908138Y-131600296D01*
X138943777Y-131619346D01*
X138975017Y-131644983D01*
X139000654Y-131676223D01*
X139019704Y-131711862D01*
X139031435Y-131750532D01*
X139036000Y-131796888D01*
X139036000Y-132448112D01*
X139031435Y-132494468D01*
X139019704Y-132533138D01*
X139000654Y-132568777D01*
X138975017Y-132600017D01*
X138943777Y-132625654D01*
X138908138Y-132644704D01*
X138869468Y-132656435D01*
X138823112Y-132661000D01*
X137746888Y-132661000D01*
X137700532Y-132656435D01*
X137661862Y-132644704D01*
X137626223Y-132625654D01*
X137594983Y-132600017D01*
X137569346Y-132568777D01*
X137550296Y-132533138D01*
X137538565Y-132494468D01*
X137534000Y-132448112D01*
X137534000Y-131796888D01*
X137538565Y-131750532D01*
X137550296Y-131711862D01*
X137569346Y-131676223D01*
X137594983Y-131644983D01*
X137626223Y-131619346D01*
X137661862Y-131600296D01*
X137700532Y-131588565D01*
X137746888Y-131584000D01*
X138823112Y-131584000D01*
X138869468Y-131588565D01*
G37*
G36*
X149396000Y-132515500D02*
G01*
X147994000Y-132515500D01*
X147994000Y-130889500D01*
X149396000Y-130889500D01*
X149396000Y-132515500D01*
G37*
G36*
X144891000Y-132515500D02*
G01*
X143489000Y-132515500D01*
X143489000Y-130889500D01*
X144891000Y-130889500D01*
X144891000Y-132515500D01*
G37*
G36*
X135966938Y-131666716D02*
G01*
X135987557Y-131672971D01*
X136006553Y-131683124D01*
X136023208Y-131696792D01*
X136036876Y-131713447D01*
X136047029Y-131732443D01*
X136053284Y-131753062D01*
X136056000Y-131780640D01*
X136056000Y-132239360D01*
X136053284Y-132266938D01*
X136047029Y-132287557D01*
X136036876Y-132306553D01*
X136023208Y-132323208D01*
X136006553Y-132336876D01*
X135987557Y-132347029D01*
X135966938Y-132353284D01*
X135939360Y-132356000D01*
X135430640Y-132356000D01*
X135403062Y-132353284D01*
X135382443Y-132347029D01*
X135363447Y-132336876D01*
X135346792Y-132323208D01*
X135333124Y-132306553D01*
X135322971Y-132287557D01*
X135316716Y-132266938D01*
X135314000Y-132239360D01*
X135314000Y-131780640D01*
X135316716Y-131753062D01*
X135322971Y-131732443D01*
X135333124Y-131713447D01*
X135346792Y-131696792D01*
X135363447Y-131683124D01*
X135382443Y-131672971D01*
X135403062Y-131666716D01*
X135430640Y-131664000D01*
X135939360Y-131664000D01*
X135966938Y-131666716D01*
G37*
G36*
X137116938Y-131666716D02*
G01*
X137137557Y-131672971D01*
X137156553Y-131683124D01*
X137173208Y-131696792D01*
X137186876Y-131713447D01*
X137197029Y-131732443D01*
X137203284Y-131753062D01*
X137206000Y-131780640D01*
X137206000Y-132239360D01*
X137203284Y-132266938D01*
X137197029Y-132287557D01*
X137186876Y-132306553D01*
X137173208Y-132323208D01*
X137156553Y-132336876D01*
X137137557Y-132347029D01*
X137116938Y-132353284D01*
X137089360Y-132356000D01*
X136580640Y-132356000D01*
X136553062Y-132353284D01*
X136532443Y-132347029D01*
X136513447Y-132336876D01*
X136496792Y-132323208D01*
X136483124Y-132306553D01*
X136472971Y-132287557D01*
X136466716Y-132266938D01*
X136464000Y-132239360D01*
X136464000Y-131780640D01*
X136466716Y-131753062D01*
X136472971Y-131732443D01*
X136483124Y-131713447D01*
X136496792Y-131696792D01*
X136513447Y-131683124D01*
X136532443Y-131672971D01*
X136553062Y-131666716D01*
X136580640Y-131664000D01*
X137089360Y-131664000D01*
X137116938Y-131666716D01*
G37*
G36*
X141286938Y-131666716D02*
G01*
X141307557Y-131672971D01*
X141326553Y-131683124D01*
X141343208Y-131696792D01*
X141356876Y-131713447D01*
X141367029Y-131732443D01*
X141373284Y-131753062D01*
X141376000Y-131780640D01*
X141376000Y-132239360D01*
X141373284Y-132266938D01*
X141367029Y-132287557D01*
X141356876Y-132306553D01*
X141343208Y-132323208D01*
X141326553Y-132336876D01*
X141307557Y-132347029D01*
X141286938Y-132353284D01*
X141259360Y-132356000D01*
X140750640Y-132356000D01*
X140723062Y-132353284D01*
X140702443Y-132347029D01*
X140683447Y-132336876D01*
X140666792Y-132323208D01*
X140653124Y-132306553D01*
X140642971Y-132287557D01*
X140636716Y-132266938D01*
X140634000Y-132239360D01*
X140634000Y-131780640D01*
X140636716Y-131753062D01*
X140642971Y-131732443D01*
X140653124Y-131713447D01*
X140666792Y-131696792D01*
X140683447Y-131683124D01*
X140702443Y-131672971D01*
X140723062Y-131666716D01*
X140750640Y-131664000D01*
X141259360Y-131664000D01*
X141286938Y-131666716D01*
G37*
G36*
X140016938Y-131666716D02*
G01*
X140037557Y-131672971D01*
X140056553Y-131683124D01*
X140073208Y-131696792D01*
X140086876Y-131713447D01*
X140097029Y-131732443D01*
X140103284Y-131753062D01*
X140106000Y-131780640D01*
X140106000Y-132239360D01*
X140103284Y-132266938D01*
X140097029Y-132287557D01*
X140086876Y-132306553D01*
X140073208Y-132323208D01*
X140056553Y-132336876D01*
X140037557Y-132347029D01*
X140016938Y-132353284D01*
X139989360Y-132356000D01*
X139480640Y-132356000D01*
X139453062Y-132353284D01*
X139432443Y-132347029D01*
X139413447Y-132336876D01*
X139396792Y-132323208D01*
X139383124Y-132306553D01*
X139372971Y-132287557D01*
X139366716Y-132266938D01*
X139364000Y-132239360D01*
X139364000Y-131780640D01*
X139366716Y-131753062D01*
X139372971Y-131732443D01*
X139383124Y-131713447D01*
X139396792Y-131696792D01*
X139413447Y-131683124D01*
X139432443Y-131672971D01*
X139453062Y-131666716D01*
X139480640Y-131664000D01*
X139989360Y-131664000D01*
X140016938Y-131666716D01*
G37*
G36*
X151520713Y-131356249D02*
G01*
X151615152Y-131384897D01*
X151702187Y-131431418D01*
X151778475Y-131494025D01*
X151841082Y-131570313D01*
X151887603Y-131657348D01*
X151916251Y-131751787D01*
X151925924Y-131850000D01*
X151916251Y-131948213D01*
X151887603Y-132042652D01*
X151841082Y-132129687D01*
X151778475Y-132205975D01*
X151702187Y-132268582D01*
X151615152Y-132315103D01*
X151520713Y-132343751D01*
X151447112Y-132351000D01*
X150597888Y-132351000D01*
X150524287Y-132343751D01*
X150429848Y-132315103D01*
X150342813Y-132268582D01*
X150266525Y-132205975D01*
X150203918Y-132129687D01*
X150157397Y-132042652D01*
X150128749Y-131948213D01*
X150119076Y-131850000D01*
X150128749Y-131751787D01*
X150157397Y-131657348D01*
X150203918Y-131570313D01*
X150266525Y-131494025D01*
X150342813Y-131431418D01*
X150429848Y-131384897D01*
X150524287Y-131356249D01*
X150597888Y-131349000D01*
X151447112Y-131349000D01*
X151520713Y-131356249D01*
G37*
G36*
X155275713Y-131356249D02*
G01*
X155370152Y-131384897D01*
X155457187Y-131431418D01*
X155533475Y-131494025D01*
X155596082Y-131570313D01*
X155642603Y-131657348D01*
X155671251Y-131751787D01*
X155680924Y-131850000D01*
X155671251Y-131948213D01*
X155642603Y-132042652D01*
X155596082Y-132129687D01*
X155533475Y-132205975D01*
X155457187Y-132268582D01*
X155370152Y-132315103D01*
X155275713Y-132343751D01*
X155202112Y-132351000D01*
X153652888Y-132351000D01*
X153579287Y-132343751D01*
X153484848Y-132315103D01*
X153397813Y-132268582D01*
X153321525Y-132205975D01*
X153258918Y-132129687D01*
X153212397Y-132042652D01*
X153183749Y-131948213D01*
X153174076Y-131850000D01*
X153183749Y-131751787D01*
X153212397Y-131657348D01*
X153258918Y-131570313D01*
X153321525Y-131494025D01*
X153397813Y-131431418D01*
X153484848Y-131384897D01*
X153579287Y-131356249D01*
X153652888Y-131349000D01*
X155202112Y-131349000D01*
X155275713Y-131356249D01*
G37*
G36*
X134081938Y-131566716D02*
G01*
X134102557Y-131572971D01*
X134121553Y-131583124D01*
X134138208Y-131596792D01*
X134151876Y-131613447D01*
X134162029Y-131632443D01*
X134168284Y-131653062D01*
X134171000Y-131680640D01*
X134171000Y-132139360D01*
X134168284Y-132166938D01*
X134162029Y-132187557D01*
X134151876Y-132206553D01*
X134138208Y-132223208D01*
X134121553Y-132236876D01*
X134102557Y-132247029D01*
X134081938Y-132253284D01*
X134054360Y-132256000D01*
X133545640Y-132256000D01*
X133518062Y-132253284D01*
X133497443Y-132247029D01*
X133478447Y-132236876D01*
X133461792Y-132223208D01*
X133448124Y-132206553D01*
X133437971Y-132187557D01*
X133431716Y-132166938D01*
X133429000Y-132139360D01*
X133429000Y-131680640D01*
X133431716Y-131653062D01*
X133437971Y-131632443D01*
X133448124Y-131613447D01*
X133461792Y-131596792D01*
X133478447Y-131583124D01*
X133497443Y-131572971D01*
X133518062Y-131566716D01*
X133545640Y-131564000D01*
X134054360Y-131564000D01*
X134081938Y-131566716D01*
G37*
G36*
X143056938Y-131431716D02*
G01*
X143077557Y-131437971D01*
X143096553Y-131448124D01*
X143113208Y-131461792D01*
X143126876Y-131478447D01*
X143137029Y-131497443D01*
X143143284Y-131518062D01*
X143146000Y-131545640D01*
X143146000Y-132004360D01*
X143143284Y-132031938D01*
X143137029Y-132052557D01*
X143126876Y-132071553D01*
X143113208Y-132088208D01*
X143096553Y-132101876D01*
X143077557Y-132112029D01*
X143056938Y-132118284D01*
X143029360Y-132121000D01*
X142520640Y-132121000D01*
X142493062Y-132118284D01*
X142472443Y-132112029D01*
X142453447Y-132101876D01*
X142436792Y-132088208D01*
X142423124Y-132071553D01*
X142412971Y-132052557D01*
X142406716Y-132031938D01*
X142404000Y-132004360D01*
X142404000Y-131545640D01*
X142406716Y-131518062D01*
X142412971Y-131497443D01*
X142423124Y-131478447D01*
X142436792Y-131461792D01*
X142453447Y-131448124D01*
X142472443Y-131437971D01*
X142493062Y-131431716D01*
X142520640Y-131429000D01*
X143029360Y-131429000D01*
X143056938Y-131431716D01*
G37*
G36*
X126666000Y-131816000D02*
G01*
X124564000Y-131816000D01*
X124564000Y-130214000D01*
X126666000Y-130214000D01*
X126666000Y-131816000D01*
G37*
G36*
X121468000Y-131673500D02*
G01*
X119842000Y-131673500D01*
X119842000Y-130271500D01*
X121468000Y-130271500D01*
X121468000Y-131673500D01*
G37*
G36*
X113535500Y-131671000D02*
G01*
X111909500Y-131671000D01*
X111909500Y-130269000D01*
X113535500Y-130269000D01*
X113535500Y-131671000D01*
G37*
G36*
X122446938Y-130696716D02*
G01*
X122467557Y-130702971D01*
X122486553Y-130713124D01*
X122503208Y-130726792D01*
X122516876Y-130743447D01*
X122527029Y-130762443D01*
X122533284Y-130783062D01*
X122536000Y-130810640D01*
X122536000Y-131319360D01*
X122533284Y-131346938D01*
X122527029Y-131367557D01*
X122516876Y-131386553D01*
X122503208Y-131403208D01*
X122486553Y-131416876D01*
X122467557Y-131427029D01*
X122446938Y-131433284D01*
X122419360Y-131436000D01*
X121960640Y-131436000D01*
X121933062Y-131433284D01*
X121912443Y-131427029D01*
X121893447Y-131416876D01*
X121876792Y-131403208D01*
X121863124Y-131386553D01*
X121852971Y-131367557D01*
X121846716Y-131346938D01*
X121844000Y-131319360D01*
X121844000Y-130810640D01*
X121846716Y-130783062D01*
X121852971Y-130762443D01*
X121863124Y-130743447D01*
X121876792Y-130726792D01*
X121893447Y-130713124D01*
X121912443Y-130702971D01*
X121933062Y-130696716D01*
X121960640Y-130694000D01*
X122419360Y-130694000D01*
X122446938Y-130696716D01*
G37*
G36*
X123416938Y-130696716D02*
G01*
X123437557Y-130702971D01*
X123456553Y-130713124D01*
X123473208Y-130726792D01*
X123486876Y-130743447D01*
X123497029Y-130762443D01*
X123503284Y-130783062D01*
X123506000Y-130810640D01*
X123506000Y-131319360D01*
X123503284Y-131346938D01*
X123497029Y-131367557D01*
X123486876Y-131386553D01*
X123473208Y-131403208D01*
X123456553Y-131416876D01*
X123437557Y-131427029D01*
X123416938Y-131433284D01*
X123389360Y-131436000D01*
X122930640Y-131436000D01*
X122903062Y-131433284D01*
X122882443Y-131427029D01*
X122863447Y-131416876D01*
X122846792Y-131403208D01*
X122833124Y-131386553D01*
X122822971Y-131367557D01*
X122816716Y-131346938D01*
X122814000Y-131319360D01*
X122814000Y-130810640D01*
X122816716Y-130783062D01*
X122822971Y-130762443D01*
X122833124Y-130743447D01*
X122846792Y-130726792D01*
X122863447Y-130713124D01*
X122882443Y-130702971D01*
X122903062Y-130696716D01*
X122930640Y-130694000D01*
X123389360Y-130694000D01*
X123416938Y-130696716D01*
G37*
G36*
X141286938Y-130696716D02*
G01*
X141307557Y-130702971D01*
X141326553Y-130713124D01*
X141343208Y-130726792D01*
X141356876Y-130743447D01*
X141367029Y-130762443D01*
X141373284Y-130783062D01*
X141376000Y-130810640D01*
X141376000Y-131269360D01*
X141373284Y-131296938D01*
X141367029Y-131317557D01*
X141356876Y-131336553D01*
X141343208Y-131353208D01*
X141326553Y-131366876D01*
X141307557Y-131377029D01*
X141286938Y-131383284D01*
X141259360Y-131386000D01*
X140750640Y-131386000D01*
X140723062Y-131383284D01*
X140702443Y-131377029D01*
X140683447Y-131366876D01*
X140666792Y-131353208D01*
X140653124Y-131336553D01*
X140642971Y-131317557D01*
X140636716Y-131296938D01*
X140634000Y-131269360D01*
X140634000Y-130810640D01*
X140636716Y-130783062D01*
X140642971Y-130762443D01*
X140653124Y-130743447D01*
X140666792Y-130726792D01*
X140683447Y-130713124D01*
X140702443Y-130702971D01*
X140723062Y-130696716D01*
X140750640Y-130694000D01*
X141259360Y-130694000D01*
X141286938Y-130696716D01*
G37*
G36*
X140016938Y-130696716D02*
G01*
X140037557Y-130702971D01*
X140056553Y-130713124D01*
X140073208Y-130726792D01*
X140086876Y-130743447D01*
X140097029Y-130762443D01*
X140103284Y-130783062D01*
X140106000Y-130810640D01*
X140106000Y-131269360D01*
X140103284Y-131296938D01*
X140097029Y-131317557D01*
X140086876Y-131336553D01*
X140073208Y-131353208D01*
X140056553Y-131366876D01*
X140037557Y-131377029D01*
X140016938Y-131383284D01*
X139989360Y-131386000D01*
X139480640Y-131386000D01*
X139453062Y-131383284D01*
X139432443Y-131377029D01*
X139413447Y-131366876D01*
X139396792Y-131353208D01*
X139383124Y-131336553D01*
X139372971Y-131317557D01*
X139366716Y-131296938D01*
X139364000Y-131269360D01*
X139364000Y-130810640D01*
X139366716Y-130783062D01*
X139372971Y-130762443D01*
X139383124Y-130743447D01*
X139396792Y-130726792D01*
X139413447Y-130713124D01*
X139432443Y-130702971D01*
X139453062Y-130696716D01*
X139480640Y-130694000D01*
X139989360Y-130694000D01*
X140016938Y-130696716D01*
G37*
G36*
X135966938Y-130696716D02*
G01*
X135987557Y-130702971D01*
X136006553Y-130713124D01*
X136023208Y-130726792D01*
X136036876Y-130743447D01*
X136047029Y-130762443D01*
X136053284Y-130783062D01*
X136056000Y-130810640D01*
X136056000Y-131269360D01*
X136053284Y-131296938D01*
X136047029Y-131317557D01*
X136036876Y-131336553D01*
X136023208Y-131353208D01*
X136006553Y-131366876D01*
X135987557Y-131377029D01*
X135966938Y-131383284D01*
X135939360Y-131386000D01*
X135430640Y-131386000D01*
X135403062Y-131383284D01*
X135382443Y-131377029D01*
X135363447Y-131366876D01*
X135346792Y-131353208D01*
X135333124Y-131336553D01*
X135322971Y-131317557D01*
X135316716Y-131296938D01*
X135314000Y-131269360D01*
X135314000Y-130810640D01*
X135316716Y-130783062D01*
X135322971Y-130762443D01*
X135333124Y-130743447D01*
X135346792Y-130726792D01*
X135363447Y-130713124D01*
X135382443Y-130702971D01*
X135403062Y-130696716D01*
X135430640Y-130694000D01*
X135939360Y-130694000D01*
X135966938Y-130696716D01*
G37*
G36*
X137116938Y-130696716D02*
G01*
X137137557Y-130702971D01*
X137156553Y-130713124D01*
X137173208Y-130726792D01*
X137186876Y-130743447D01*
X137197029Y-130762443D01*
X137203284Y-130783062D01*
X137206000Y-130810640D01*
X137206000Y-131269360D01*
X137203284Y-131296938D01*
X137197029Y-131317557D01*
X137186876Y-131336553D01*
X137173208Y-131353208D01*
X137156553Y-131366876D01*
X137137557Y-131377029D01*
X137116938Y-131383284D01*
X137089360Y-131386000D01*
X136580640Y-131386000D01*
X136553062Y-131383284D01*
X136532443Y-131377029D01*
X136513447Y-131366876D01*
X136496792Y-131353208D01*
X136483124Y-131336553D01*
X136472971Y-131317557D01*
X136466716Y-131296938D01*
X136464000Y-131269360D01*
X136464000Y-130810640D01*
X136466716Y-130783062D01*
X136472971Y-130762443D01*
X136483124Y-130743447D01*
X136496792Y-130726792D01*
X136513447Y-130713124D01*
X136532443Y-130702971D01*
X136553062Y-130696716D01*
X136580640Y-130694000D01*
X137089360Y-130694000D01*
X137116938Y-130696716D01*
G37*
G36*
X134081938Y-130596716D02*
G01*
X134102557Y-130602971D01*
X134121553Y-130613124D01*
X134138208Y-130626792D01*
X134151876Y-130643447D01*
X134162029Y-130662443D01*
X134168284Y-130683062D01*
X134171000Y-130710640D01*
X134171000Y-131169360D01*
X134168284Y-131196938D01*
X134162029Y-131217557D01*
X134151876Y-131236553D01*
X134138208Y-131253208D01*
X134121553Y-131266876D01*
X134102557Y-131277029D01*
X134081938Y-131283284D01*
X134054360Y-131286000D01*
X133545640Y-131286000D01*
X133518062Y-131283284D01*
X133497443Y-131277029D01*
X133478447Y-131266876D01*
X133461792Y-131253208D01*
X133448124Y-131236553D01*
X133437971Y-131217557D01*
X133431716Y-131196938D01*
X133429000Y-131169360D01*
X133429000Y-130710640D01*
X133431716Y-130683062D01*
X133437971Y-130662443D01*
X133448124Y-130643447D01*
X133461792Y-130626792D01*
X133478447Y-130613124D01*
X133497443Y-130602971D01*
X133518062Y-130596716D01*
X133545640Y-130594000D01*
X134054360Y-130594000D01*
X134081938Y-130596716D01*
G37*
G36*
X143056938Y-130461716D02*
G01*
X143077557Y-130467971D01*
X143096553Y-130478124D01*
X143113208Y-130491792D01*
X143126876Y-130508447D01*
X143137029Y-130527443D01*
X143143284Y-130548062D01*
X143146000Y-130575640D01*
X143146000Y-131034360D01*
X143143284Y-131061938D01*
X143137029Y-131082557D01*
X143126876Y-131101553D01*
X143113208Y-131118208D01*
X143096553Y-131131876D01*
X143077557Y-131142029D01*
X143056938Y-131148284D01*
X143029360Y-131151000D01*
X142520640Y-131151000D01*
X142493062Y-131148284D01*
X142472443Y-131142029D01*
X142453447Y-131131876D01*
X142436792Y-131118208D01*
X142423124Y-131101553D01*
X142412971Y-131082557D01*
X142406716Y-131061938D01*
X142404000Y-131034360D01*
X142404000Y-130575640D01*
X142406716Y-130548062D01*
X142412971Y-130527443D01*
X142423124Y-130508447D01*
X142436792Y-130491792D01*
X142453447Y-130478124D01*
X142472443Y-130467971D01*
X142493062Y-130461716D01*
X142520640Y-130459000D01*
X143029360Y-130459000D01*
X143056938Y-130461716D01*
G37*
G36*
X152606938Y-130241716D02*
G01*
X152627557Y-130247971D01*
X152646553Y-130258124D01*
X152663208Y-130271792D01*
X152676876Y-130288447D01*
X152687029Y-130307443D01*
X152693284Y-130328062D01*
X152696000Y-130355640D01*
X152696000Y-130814360D01*
X152693284Y-130841938D01*
X152687029Y-130862557D01*
X152676876Y-130881553D01*
X152663208Y-130898208D01*
X152646553Y-130911876D01*
X152627557Y-130922029D01*
X152606938Y-130928284D01*
X152579360Y-130931000D01*
X152070640Y-130931000D01*
X152043062Y-130928284D01*
X152022443Y-130922029D01*
X152003447Y-130911876D01*
X151986792Y-130898208D01*
X151973124Y-130881553D01*
X151962971Y-130862557D01*
X151956716Y-130841938D01*
X151954000Y-130814360D01*
X151954000Y-130355640D01*
X151956716Y-130328062D01*
X151962971Y-130307443D01*
X151973124Y-130288447D01*
X151986792Y-130271792D01*
X152003447Y-130258124D01*
X152022443Y-130247971D01*
X152043062Y-130241716D01*
X152070640Y-130239000D01*
X152579360Y-130239000D01*
X152606938Y-130241716D01*
G37*
G36*
X151531938Y-130216716D02*
G01*
X151552557Y-130222971D01*
X151571553Y-130233124D01*
X151588208Y-130246792D01*
X151601876Y-130263447D01*
X151612029Y-130282443D01*
X151618284Y-130303062D01*
X151621000Y-130330640D01*
X151621000Y-130789360D01*
X151618284Y-130816938D01*
X151612029Y-130837557D01*
X151601876Y-130856553D01*
X151588208Y-130873208D01*
X151571553Y-130886876D01*
X151552557Y-130897029D01*
X151531938Y-130903284D01*
X151504360Y-130906000D01*
X150995640Y-130906000D01*
X150968062Y-130903284D01*
X150947443Y-130897029D01*
X150928447Y-130886876D01*
X150911792Y-130873208D01*
X150898124Y-130856553D01*
X150887971Y-130837557D01*
X150881716Y-130816938D01*
X150879000Y-130789360D01*
X150879000Y-130330640D01*
X150881716Y-130303062D01*
X150887971Y-130282443D01*
X150898124Y-130263447D01*
X150911792Y-130246792D01*
X150928447Y-130233124D01*
X150947443Y-130222971D01*
X150968062Y-130216716D01*
X150995640Y-130214000D01*
X151504360Y-130214000D01*
X151531938Y-130216716D01*
G37*
G36*
X155512172Y-124175949D02*
G01*
X155512174Y-124175950D01*
X155512175Y-124175950D01*
X155580603Y-124204293D01*
X155642186Y-124245442D01*
X155694558Y-124297814D01*
X155735707Y-124359397D01*
X155761074Y-124420640D01*
X155764051Y-124427828D01*
X155778500Y-124500466D01*
X155778500Y-124574534D01*
X155768761Y-124623496D01*
X155764050Y-124647175D01*
X155735707Y-124715603D01*
X155694558Y-124777186D01*
X155642186Y-124829558D01*
X155598763Y-124858573D01*
X155579828Y-124874112D01*
X155564283Y-124893054D01*
X155552732Y-124914665D01*
X155545619Y-124938114D01*
X155543217Y-124962500D01*
X155545619Y-124986886D01*
X155552732Y-125010335D01*
X155564283Y-125031946D01*
X155579828Y-125050888D01*
X155598763Y-125066427D01*
X155642186Y-125095442D01*
X155694558Y-125147814D01*
X155735707Y-125209397D01*
X155757897Y-125262971D01*
X155764051Y-125277828D01*
X155778500Y-125350466D01*
X155778500Y-125424534D01*
X155766069Y-125487029D01*
X155764050Y-125497175D01*
X155735707Y-125565603D01*
X155694558Y-125627186D01*
X155642186Y-125679558D01*
X155598763Y-125708573D01*
X155579828Y-125724112D01*
X155564283Y-125743054D01*
X155552732Y-125764665D01*
X155545619Y-125788114D01*
X155543217Y-125812500D01*
X155545619Y-125836886D01*
X155552732Y-125860335D01*
X155564283Y-125881946D01*
X155579828Y-125900888D01*
X155598763Y-125916427D01*
X155642186Y-125945442D01*
X155694558Y-125997814D01*
X155735707Y-126059397D01*
X155764050Y-126127825D01*
X155764051Y-126127828D01*
X155778500Y-126200466D01*
X155778500Y-126274534D01*
X155768803Y-126323284D01*
X155764050Y-126347175D01*
X155735707Y-126415603D01*
X155694558Y-126477186D01*
X155642186Y-126529558D01*
X155598763Y-126558573D01*
X155579828Y-126574112D01*
X155564283Y-126593054D01*
X155552732Y-126614665D01*
X155545619Y-126638114D01*
X155543217Y-126662500D01*
X155545619Y-126686886D01*
X155552732Y-126710335D01*
X155564283Y-126731946D01*
X155579828Y-126750888D01*
X155598763Y-126766427D01*
X155642186Y-126795442D01*
X155694558Y-126847814D01*
X155735707Y-126909397D01*
X155764050Y-126977825D01*
X155764051Y-126977828D01*
X155778500Y-127050466D01*
X155778500Y-127124534D01*
X155770252Y-127166000D01*
X155764050Y-127197175D01*
X155735707Y-127265603D01*
X155694558Y-127327186D01*
X155642186Y-127379558D01*
X155598763Y-127408573D01*
X155579828Y-127424112D01*
X155564283Y-127443054D01*
X155552732Y-127464665D01*
X155545619Y-127488114D01*
X155543217Y-127512500D01*
X155545619Y-127536886D01*
X155552732Y-127560335D01*
X155564283Y-127581946D01*
X155579828Y-127600888D01*
X155598763Y-127616427D01*
X155642186Y-127645442D01*
X155694558Y-127697814D01*
X155735707Y-127759397D01*
X155764050Y-127827825D01*
X155764051Y-127827828D01*
X155778500Y-127900466D01*
X155778500Y-127974534D01*
X155768810Y-128023250D01*
X155764050Y-128047175D01*
X155735707Y-128115603D01*
X155694558Y-128177186D01*
X155642186Y-128229558D01*
X155598763Y-128258573D01*
X155579828Y-128274112D01*
X155564283Y-128293054D01*
X155552732Y-128314665D01*
X155545619Y-128338114D01*
X155543217Y-128362500D01*
X155545619Y-128386886D01*
X155552732Y-128410335D01*
X155564283Y-128431946D01*
X155579828Y-128450888D01*
X155598763Y-128466427D01*
X155642186Y-128495442D01*
X155694558Y-128547814D01*
X155735707Y-128609397D01*
X155761176Y-128670886D01*
X155764051Y-128677828D01*
X155770578Y-128710640D01*
X155778500Y-128750467D01*
X155778500Y-128824533D01*
X155764050Y-128897175D01*
X155735707Y-128965603D01*
X155694558Y-129027186D01*
X155642186Y-129079558D01*
X155598763Y-129108573D01*
X155579828Y-129124112D01*
X155564283Y-129143054D01*
X155552732Y-129164665D01*
X155545619Y-129188114D01*
X155543217Y-129212500D01*
X155545619Y-129236886D01*
X155552732Y-129260335D01*
X155564283Y-129281946D01*
X155579828Y-129300888D01*
X155598763Y-129316427D01*
X155642186Y-129345442D01*
X155694558Y-129397814D01*
X155735707Y-129459397D01*
X155759152Y-129516000D01*
X155764051Y-129527828D01*
X155778500Y-129600466D01*
X155778500Y-129674534D01*
X155766821Y-129733249D01*
X155764050Y-129747175D01*
X155735707Y-129815603D01*
X155694558Y-129877186D01*
X155642186Y-129929558D01*
X155598763Y-129958573D01*
X155579828Y-129974112D01*
X155564283Y-129993054D01*
X155552732Y-130014665D01*
X155545619Y-130038114D01*
X155543217Y-130062500D01*
X155545619Y-130086886D01*
X155552732Y-130110335D01*
X155564283Y-130131946D01*
X155579828Y-130150888D01*
X155598763Y-130166427D01*
X155642186Y-130195442D01*
X155694558Y-130247814D01*
X155735707Y-130309397D01*
X155764050Y-130377825D01*
X155764051Y-130377828D01*
X155778500Y-130450466D01*
X155778500Y-130524534D01*
X155764142Y-130596716D01*
X155764050Y-130597175D01*
X155735707Y-130665603D01*
X155694558Y-130727186D01*
X155642186Y-130779558D01*
X155580603Y-130820707D01*
X155512175Y-130849050D01*
X155512174Y-130849050D01*
X155512172Y-130849051D01*
X155439534Y-130863500D01*
X155365466Y-130863500D01*
X155292828Y-130849051D01*
X155292826Y-130849050D01*
X155292825Y-130849050D01*
X155224397Y-130820707D01*
X155162814Y-130779558D01*
X155110442Y-130727186D01*
X155069293Y-130665603D01*
X155040950Y-130597175D01*
X155040859Y-130596716D01*
X155026500Y-130524534D01*
X155026500Y-130450466D01*
X155040949Y-130377828D01*
X155040950Y-130377825D01*
X155069293Y-130309397D01*
X155110442Y-130247814D01*
X155162814Y-130195442D01*
X155206237Y-130166427D01*
X155225172Y-130150888D01*
X155240717Y-130131946D01*
X155252268Y-130110335D01*
X155259381Y-130086886D01*
X155261783Y-130062500D01*
X155259381Y-130038114D01*
X155252268Y-130014665D01*
X155240717Y-129993054D01*
X155225172Y-129974112D01*
X155206237Y-129958573D01*
X155162814Y-129929558D01*
X155110442Y-129877186D01*
X155069293Y-129815603D01*
X155040950Y-129747175D01*
X155038180Y-129733249D01*
X155026500Y-129674534D01*
X155026500Y-129600466D01*
X155040949Y-129527828D01*
X155045848Y-129516000D01*
X155069293Y-129459397D01*
X155110442Y-129397814D01*
X155162814Y-129345442D01*
X155206237Y-129316427D01*
X155225172Y-129300888D01*
X155240717Y-129281946D01*
X155252268Y-129260335D01*
X155259381Y-129236886D01*
X155261783Y-129212500D01*
X155259381Y-129188114D01*
X155252268Y-129164665D01*
X155240717Y-129143054D01*
X155225172Y-129124112D01*
X155206237Y-129108573D01*
X155162814Y-129079558D01*
X155110442Y-129027186D01*
X155069293Y-128965603D01*
X155040950Y-128897175D01*
X155026500Y-128824533D01*
X155026500Y-128750467D01*
X155034422Y-128710640D01*
X155040949Y-128677828D01*
X155043824Y-128670886D01*
X155069293Y-128609397D01*
X155110442Y-128547814D01*
X155162814Y-128495442D01*
X155206237Y-128466427D01*
X155225172Y-128450888D01*
X155240717Y-128431946D01*
X155252268Y-128410335D01*
X155259381Y-128386886D01*
X155261783Y-128362500D01*
X155259381Y-128338114D01*
X155252268Y-128314665D01*
X155240717Y-128293054D01*
X155225172Y-128274112D01*
X155206237Y-128258573D01*
X155162814Y-128229558D01*
X155110442Y-128177186D01*
X155069293Y-128115603D01*
X155040950Y-128047175D01*
X155036191Y-128023250D01*
X155026500Y-127974534D01*
X155026500Y-127900466D01*
X155040949Y-127827828D01*
X155040950Y-127827825D01*
X155069293Y-127759397D01*
X155110442Y-127697814D01*
X155162814Y-127645442D01*
X155206237Y-127616427D01*
X155225172Y-127600888D01*
X155240717Y-127581946D01*
X155252268Y-127560335D01*
X155259381Y-127536886D01*
X155261783Y-127512500D01*
X155259381Y-127488114D01*
X155252268Y-127464665D01*
X155240717Y-127443054D01*
X155225172Y-127424112D01*
X155206237Y-127408573D01*
X155162814Y-127379558D01*
X155110442Y-127327186D01*
X155069293Y-127265603D01*
X155040950Y-127197175D01*
X155034749Y-127166000D01*
X155026500Y-127124534D01*
X155026500Y-127050466D01*
X155040949Y-126977828D01*
X155040950Y-126977825D01*
X155069293Y-126909397D01*
X155110442Y-126847814D01*
X155162814Y-126795442D01*
X155206237Y-126766427D01*
X155225172Y-126750888D01*
X155240717Y-126731946D01*
X155252268Y-126710335D01*
X155259381Y-126686886D01*
X155261783Y-126662500D01*
X155259381Y-126638114D01*
X155252268Y-126614665D01*
X155240717Y-126593054D01*
X155225172Y-126574112D01*
X155206237Y-126558573D01*
X155162814Y-126529558D01*
X155110442Y-126477186D01*
X155069293Y-126415603D01*
X155040950Y-126347175D01*
X155036198Y-126323284D01*
X155026500Y-126274534D01*
X155026500Y-126200466D01*
X155040949Y-126127828D01*
X155040950Y-126127825D01*
X155069293Y-126059397D01*
X155110442Y-125997814D01*
X155162814Y-125945442D01*
X155206237Y-125916427D01*
X155225172Y-125900888D01*
X155240717Y-125881946D01*
X155252268Y-125860335D01*
X155259381Y-125836886D01*
X155261783Y-125812500D01*
X155259381Y-125788114D01*
X155252268Y-125764665D01*
X155240717Y-125743054D01*
X155225172Y-125724112D01*
X155206237Y-125708573D01*
X155162814Y-125679558D01*
X155110442Y-125627186D01*
X155069293Y-125565603D01*
X155040950Y-125497175D01*
X155038932Y-125487029D01*
X155026500Y-125424534D01*
X155026500Y-125350466D01*
X155040949Y-125277828D01*
X155047103Y-125262971D01*
X155069293Y-125209397D01*
X155110442Y-125147814D01*
X155162814Y-125095442D01*
X155206237Y-125066427D01*
X155225172Y-125050888D01*
X155240717Y-125031946D01*
X155252268Y-125010335D01*
X155259381Y-124986886D01*
X155261783Y-124962500D01*
X155259381Y-124938114D01*
X155252268Y-124914665D01*
X155240717Y-124893054D01*
X155225172Y-124874112D01*
X155206237Y-124858573D01*
X155162814Y-124829558D01*
X155110442Y-124777186D01*
X155069293Y-124715603D01*
X155040950Y-124647175D01*
X155036240Y-124623496D01*
X155026500Y-124574534D01*
X155026500Y-124500466D01*
X155040949Y-124427828D01*
X155043926Y-124420640D01*
X155069293Y-124359397D01*
X155110442Y-124297814D01*
X155162814Y-124245442D01*
X155224397Y-124204293D01*
X155292825Y-124175950D01*
X155292826Y-124175950D01*
X155292828Y-124175949D01*
X155365466Y-124161500D01*
X155439534Y-124161500D01*
X155512172Y-124175949D01*
G37*
G36*
X154162172Y-124175949D02*
G01*
X154162174Y-124175950D01*
X154162175Y-124175950D01*
X154230603Y-124204293D01*
X154292186Y-124245442D01*
X154344558Y-124297814D01*
X154385707Y-124359397D01*
X154411074Y-124420640D01*
X154414051Y-124427828D01*
X154428500Y-124500466D01*
X154428500Y-124574534D01*
X154418761Y-124623496D01*
X154414050Y-124647175D01*
X154385707Y-124715603D01*
X154344558Y-124777186D01*
X154292186Y-124829558D01*
X154248763Y-124858573D01*
X154229828Y-124874112D01*
X154214283Y-124893054D01*
X154202732Y-124914665D01*
X154195619Y-124938114D01*
X154193217Y-124962500D01*
X154195619Y-124986886D01*
X154202732Y-125010335D01*
X154214283Y-125031946D01*
X154229828Y-125050888D01*
X154248763Y-125066427D01*
X154292186Y-125095442D01*
X154344558Y-125147814D01*
X154385707Y-125209397D01*
X154407897Y-125262971D01*
X154414051Y-125277828D01*
X154428500Y-125350466D01*
X154428500Y-125424534D01*
X154416069Y-125487029D01*
X154414050Y-125497175D01*
X154385707Y-125565603D01*
X154344558Y-125627186D01*
X154292186Y-125679558D01*
X154248763Y-125708573D01*
X154229828Y-125724112D01*
X154214283Y-125743054D01*
X154202732Y-125764665D01*
X154195619Y-125788114D01*
X154193217Y-125812500D01*
X154195619Y-125836886D01*
X154202732Y-125860335D01*
X154214283Y-125881946D01*
X154229828Y-125900888D01*
X154248763Y-125916427D01*
X154292186Y-125945442D01*
X154344558Y-125997814D01*
X154385707Y-126059397D01*
X154414050Y-126127825D01*
X154414051Y-126127828D01*
X154428500Y-126200466D01*
X154428500Y-126274534D01*
X154418803Y-126323284D01*
X154414050Y-126347175D01*
X154385707Y-126415603D01*
X154344558Y-126477186D01*
X154292186Y-126529558D01*
X154248763Y-126558573D01*
X154229828Y-126574112D01*
X154214283Y-126593054D01*
X154202732Y-126614665D01*
X154195619Y-126638114D01*
X154193217Y-126662500D01*
X154195619Y-126686886D01*
X154202732Y-126710335D01*
X154214283Y-126731946D01*
X154229828Y-126750888D01*
X154248763Y-126766427D01*
X154292186Y-126795442D01*
X154344558Y-126847814D01*
X154385707Y-126909397D01*
X154414050Y-126977825D01*
X154414051Y-126977828D01*
X154428500Y-127050466D01*
X154428500Y-127124534D01*
X154420252Y-127166000D01*
X154414050Y-127197175D01*
X154385707Y-127265603D01*
X154344558Y-127327186D01*
X154292186Y-127379558D01*
X154248763Y-127408573D01*
X154229828Y-127424112D01*
X154214283Y-127443054D01*
X154202732Y-127464665D01*
X154195619Y-127488114D01*
X154193217Y-127512500D01*
X154195619Y-127536886D01*
X154202732Y-127560335D01*
X154214283Y-127581946D01*
X154229828Y-127600888D01*
X154248763Y-127616427D01*
X154292186Y-127645442D01*
X154344558Y-127697814D01*
X154385707Y-127759397D01*
X154414050Y-127827825D01*
X154414051Y-127827828D01*
X154428500Y-127900466D01*
X154428500Y-127974534D01*
X154418810Y-128023250D01*
X154414050Y-128047175D01*
X154385707Y-128115603D01*
X154344558Y-128177186D01*
X154292186Y-128229558D01*
X154248763Y-128258573D01*
X154229828Y-128274112D01*
X154214283Y-128293054D01*
X154202732Y-128314665D01*
X154195619Y-128338114D01*
X154193217Y-128362500D01*
X154195619Y-128386886D01*
X154202732Y-128410335D01*
X154214283Y-128431946D01*
X154229828Y-128450888D01*
X154248763Y-128466427D01*
X154292186Y-128495442D01*
X154344558Y-128547814D01*
X154385707Y-128609397D01*
X154411176Y-128670886D01*
X154414051Y-128677828D01*
X154420578Y-128710640D01*
X154428500Y-128750467D01*
X154428500Y-128824533D01*
X154414050Y-128897175D01*
X154385707Y-128965603D01*
X154344558Y-129027186D01*
X154292186Y-129079558D01*
X154248763Y-129108573D01*
X154229828Y-129124112D01*
X154214283Y-129143054D01*
X154202732Y-129164665D01*
X154195619Y-129188114D01*
X154193217Y-129212500D01*
X154195619Y-129236886D01*
X154202732Y-129260335D01*
X154214283Y-129281946D01*
X154229828Y-129300888D01*
X154248763Y-129316427D01*
X154292186Y-129345442D01*
X154344558Y-129397814D01*
X154385707Y-129459397D01*
X154409152Y-129516000D01*
X154414051Y-129527828D01*
X154428500Y-129600466D01*
X154428500Y-129674534D01*
X154416821Y-129733249D01*
X154414050Y-129747175D01*
X154385707Y-129815603D01*
X154344558Y-129877186D01*
X154292186Y-129929558D01*
X154248763Y-129958573D01*
X154229828Y-129974112D01*
X154214283Y-129993054D01*
X154202732Y-130014665D01*
X154195619Y-130038114D01*
X154193217Y-130062500D01*
X154195619Y-130086886D01*
X154202732Y-130110335D01*
X154214283Y-130131946D01*
X154229828Y-130150888D01*
X154248763Y-130166427D01*
X154292186Y-130195442D01*
X154344558Y-130247814D01*
X154385707Y-130309397D01*
X154414050Y-130377825D01*
X154414051Y-130377828D01*
X154428500Y-130450466D01*
X154428500Y-130524534D01*
X154414142Y-130596716D01*
X154414050Y-130597175D01*
X154385707Y-130665603D01*
X154344558Y-130727186D01*
X154292186Y-130779558D01*
X154230603Y-130820707D01*
X154162175Y-130849050D01*
X154162174Y-130849050D01*
X154162172Y-130849051D01*
X154089534Y-130863500D01*
X154015466Y-130863500D01*
X153942828Y-130849051D01*
X153942826Y-130849050D01*
X153942825Y-130849050D01*
X153874397Y-130820707D01*
X153812814Y-130779558D01*
X153760442Y-130727186D01*
X153719293Y-130665603D01*
X153690950Y-130597175D01*
X153690859Y-130596716D01*
X153676500Y-130524534D01*
X153676500Y-130450466D01*
X153690949Y-130377828D01*
X153690950Y-130377825D01*
X153719293Y-130309397D01*
X153760442Y-130247814D01*
X153812814Y-130195442D01*
X153856237Y-130166427D01*
X153875172Y-130150888D01*
X153890717Y-130131946D01*
X153902268Y-130110335D01*
X153909381Y-130086886D01*
X153911783Y-130062500D01*
X153909381Y-130038114D01*
X153902268Y-130014665D01*
X153890717Y-129993054D01*
X153875172Y-129974112D01*
X153856237Y-129958573D01*
X153812814Y-129929558D01*
X153760442Y-129877186D01*
X153719293Y-129815603D01*
X153690950Y-129747175D01*
X153688180Y-129733249D01*
X153676500Y-129674534D01*
X153676500Y-129600466D01*
X153690949Y-129527828D01*
X153695848Y-129516000D01*
X153719293Y-129459397D01*
X153760442Y-129397814D01*
X153812814Y-129345442D01*
X153856237Y-129316427D01*
X153875172Y-129300888D01*
X153890717Y-129281946D01*
X153902268Y-129260335D01*
X153909381Y-129236886D01*
X153911783Y-129212500D01*
X153909381Y-129188114D01*
X153902268Y-129164665D01*
X153890717Y-129143054D01*
X153875172Y-129124112D01*
X153856237Y-129108573D01*
X153812814Y-129079558D01*
X153760442Y-129027186D01*
X153719293Y-128965603D01*
X153690950Y-128897175D01*
X153676500Y-128824533D01*
X153676500Y-128750467D01*
X153684422Y-128710640D01*
X153690949Y-128677828D01*
X153693824Y-128670886D01*
X153719293Y-128609397D01*
X153760442Y-128547814D01*
X153812814Y-128495442D01*
X153856237Y-128466427D01*
X153875172Y-128450888D01*
X153890717Y-128431946D01*
X153902268Y-128410335D01*
X153909381Y-128386886D01*
X153911783Y-128362500D01*
X153909381Y-128338114D01*
X153902268Y-128314665D01*
X153890717Y-128293054D01*
X153875172Y-128274112D01*
X153856237Y-128258573D01*
X153812814Y-128229558D01*
X153760442Y-128177186D01*
X153719293Y-128115603D01*
X153690950Y-128047175D01*
X153686191Y-128023250D01*
X153676500Y-127974534D01*
X153676500Y-127900466D01*
X153690949Y-127827828D01*
X153690950Y-127827825D01*
X153719293Y-127759397D01*
X153760442Y-127697814D01*
X153812814Y-127645442D01*
X153856237Y-127616427D01*
X153875172Y-127600888D01*
X153890717Y-127581946D01*
X153902268Y-127560335D01*
X153909381Y-127536886D01*
X153911783Y-127512500D01*
X153909381Y-127488114D01*
X153902268Y-127464665D01*
X153890717Y-127443054D01*
X153875172Y-127424112D01*
X153856237Y-127408573D01*
X153812814Y-127379558D01*
X153760442Y-127327186D01*
X153719293Y-127265603D01*
X153690950Y-127197175D01*
X153684749Y-127166000D01*
X153676500Y-127124534D01*
X153676500Y-127050466D01*
X153690949Y-126977828D01*
X153690950Y-126977825D01*
X153719293Y-126909397D01*
X153760442Y-126847814D01*
X153812814Y-126795442D01*
X153856237Y-126766427D01*
X153875172Y-126750888D01*
X153890717Y-126731946D01*
X153902268Y-126710335D01*
X153909381Y-126686886D01*
X153911783Y-126662500D01*
X153909381Y-126638114D01*
X153902268Y-126614665D01*
X153890717Y-126593054D01*
X153875172Y-126574112D01*
X153856237Y-126558573D01*
X153812814Y-126529558D01*
X153760442Y-126477186D01*
X153719293Y-126415603D01*
X153690950Y-126347175D01*
X153686198Y-126323284D01*
X153676500Y-126274534D01*
X153676500Y-126200466D01*
X153690949Y-126127828D01*
X153690950Y-126127825D01*
X153719293Y-126059397D01*
X153760442Y-125997814D01*
X153812814Y-125945442D01*
X153856237Y-125916427D01*
X153875172Y-125900888D01*
X153890717Y-125881946D01*
X153902268Y-125860335D01*
X153909381Y-125836886D01*
X153911783Y-125812500D01*
X153909381Y-125788114D01*
X153902268Y-125764665D01*
X153890717Y-125743054D01*
X153875172Y-125724112D01*
X153856237Y-125708573D01*
X153812814Y-125679558D01*
X153760442Y-125627186D01*
X153719293Y-125565603D01*
X153690950Y-125497175D01*
X153688932Y-125487029D01*
X153676500Y-125424534D01*
X153676500Y-125350466D01*
X153690949Y-125277828D01*
X153697103Y-125262971D01*
X153719293Y-125209397D01*
X153760442Y-125147814D01*
X153812814Y-125095442D01*
X153856237Y-125066427D01*
X153875172Y-125050888D01*
X153890717Y-125031946D01*
X153902268Y-125010335D01*
X153909381Y-124986886D01*
X153911783Y-124962500D01*
X153909381Y-124938114D01*
X153902268Y-124914665D01*
X153890717Y-124893054D01*
X153875172Y-124874112D01*
X153856237Y-124858573D01*
X153812814Y-124829558D01*
X153760442Y-124777186D01*
X153719293Y-124715603D01*
X153690950Y-124647175D01*
X153686240Y-124623496D01*
X153676500Y-124574534D01*
X153676500Y-124500466D01*
X153690949Y-124427828D01*
X153693926Y-124420640D01*
X153719293Y-124359397D01*
X153760442Y-124297814D01*
X153812814Y-124245442D01*
X153874397Y-124204293D01*
X153942825Y-124175950D01*
X153942826Y-124175950D01*
X153942828Y-124175949D01*
X154015466Y-124161500D01*
X154089534Y-124161500D01*
X154162172Y-124175949D01*
G37*
G36*
X138869468Y-129713565D02*
G01*
X138908138Y-129725296D01*
X138943777Y-129744346D01*
X138975017Y-129769983D01*
X139000654Y-129801223D01*
X139019704Y-129836862D01*
X139031435Y-129875532D01*
X139036000Y-129921888D01*
X139036000Y-130573112D01*
X139031435Y-130619468D01*
X139019704Y-130658138D01*
X139000654Y-130693777D01*
X138975017Y-130725017D01*
X138943777Y-130750654D01*
X138908138Y-130769704D01*
X138869468Y-130781435D01*
X138823112Y-130786000D01*
X137746888Y-130786000D01*
X137700532Y-130781435D01*
X137661862Y-130769704D01*
X137626223Y-130750654D01*
X137594983Y-130725017D01*
X137569346Y-130693777D01*
X137550296Y-130658138D01*
X137538565Y-130619468D01*
X137534000Y-130573112D01*
X137534000Y-129921888D01*
X137538565Y-129875532D01*
X137550296Y-129836862D01*
X137569346Y-129801223D01*
X137594983Y-129769983D01*
X137626223Y-129744346D01*
X137661862Y-129725296D01*
X137700532Y-129713565D01*
X137746888Y-129709000D01*
X138823112Y-129709000D01*
X138869468Y-129713565D01*
G37*
G36*
X132966000Y-130666000D02*
G01*
X130864000Y-130666000D01*
X130864000Y-126764000D01*
X132966000Y-126764000D01*
X132966000Y-130666000D01*
G37*
G36*
X123406938Y-129596716D02*
G01*
X123427557Y-129602971D01*
X123446553Y-129613124D01*
X123463208Y-129626792D01*
X123476876Y-129643447D01*
X123487029Y-129662443D01*
X123493284Y-129683062D01*
X123496000Y-129710640D01*
X123496000Y-130219360D01*
X123493284Y-130246938D01*
X123487029Y-130267557D01*
X123476876Y-130286553D01*
X123463208Y-130303208D01*
X123446553Y-130316876D01*
X123427557Y-130327029D01*
X123406938Y-130333284D01*
X123379360Y-130336000D01*
X122920640Y-130336000D01*
X122893062Y-130333284D01*
X122872443Y-130327029D01*
X122853447Y-130316876D01*
X122836792Y-130303208D01*
X122823124Y-130286553D01*
X122812971Y-130267557D01*
X122806716Y-130246938D01*
X122804000Y-130219360D01*
X122804000Y-129710640D01*
X122806716Y-129683062D01*
X122812971Y-129662443D01*
X122823124Y-129643447D01*
X122836792Y-129626792D01*
X122853447Y-129613124D01*
X122872443Y-129602971D01*
X122893062Y-129596716D01*
X122920640Y-129594000D01*
X123379360Y-129594000D01*
X123406938Y-129596716D01*
G37*
G36*
X122436938Y-129596716D02*
G01*
X122457557Y-129602971D01*
X122476553Y-129613124D01*
X122493208Y-129626792D01*
X122506876Y-129643447D01*
X122517029Y-129662443D01*
X122523284Y-129683062D01*
X122526000Y-129710640D01*
X122526000Y-130219360D01*
X122523284Y-130246938D01*
X122517029Y-130267557D01*
X122506876Y-130286553D01*
X122493208Y-130303208D01*
X122476553Y-130316876D01*
X122457557Y-130327029D01*
X122436938Y-130333284D01*
X122409360Y-130336000D01*
X121950640Y-130336000D01*
X121923062Y-130333284D01*
X121902443Y-130327029D01*
X121883447Y-130316876D01*
X121866792Y-130303208D01*
X121853124Y-130286553D01*
X121842971Y-130267557D01*
X121836716Y-130246938D01*
X121834000Y-130219360D01*
X121834000Y-129710640D01*
X121836716Y-129683062D01*
X121842971Y-129662443D01*
X121853124Y-129643447D01*
X121866792Y-129626792D01*
X121883447Y-129613124D01*
X121902443Y-129602971D01*
X121923062Y-129596716D01*
X121950640Y-129594000D01*
X122409360Y-129594000D01*
X122436938Y-129596716D01*
G37*
G36*
X134081938Y-129566716D02*
G01*
X134102557Y-129572971D01*
X134121553Y-129583124D01*
X134138208Y-129596792D01*
X134151876Y-129613447D01*
X134162029Y-129632443D01*
X134168284Y-129653062D01*
X134171000Y-129680640D01*
X134171000Y-130139360D01*
X134168284Y-130166938D01*
X134162029Y-130187557D01*
X134151876Y-130206553D01*
X134138208Y-130223208D01*
X134121553Y-130236876D01*
X134102557Y-130247029D01*
X134081938Y-130253284D01*
X134054360Y-130256000D01*
X133545640Y-130256000D01*
X133518062Y-130253284D01*
X133497443Y-130247029D01*
X133478447Y-130236876D01*
X133461792Y-130223208D01*
X133448124Y-130206553D01*
X133437971Y-130187557D01*
X133431716Y-130166938D01*
X133429000Y-130139360D01*
X133429000Y-129680640D01*
X133431716Y-129653062D01*
X133437971Y-129632443D01*
X133448124Y-129613447D01*
X133461792Y-129596792D01*
X133478447Y-129583124D01*
X133497443Y-129572971D01*
X133518062Y-129566716D01*
X133545640Y-129564000D01*
X134054360Y-129564000D01*
X134081938Y-129566716D01*
G37*
G36*
X143056938Y-129431716D02*
G01*
X143077557Y-129437971D01*
X143096553Y-129448124D01*
X143113208Y-129461792D01*
X143126876Y-129478447D01*
X143137029Y-129497443D01*
X143143284Y-129518062D01*
X143146000Y-129545640D01*
X143146000Y-130004360D01*
X143143284Y-130031938D01*
X143137029Y-130052557D01*
X143126876Y-130071553D01*
X143113208Y-130088208D01*
X143096553Y-130101876D01*
X143077557Y-130112029D01*
X143056938Y-130118284D01*
X143029360Y-130121000D01*
X142520640Y-130121000D01*
X142493062Y-130118284D01*
X142472443Y-130112029D01*
X142453447Y-130101876D01*
X142436792Y-130088208D01*
X142423124Y-130071553D01*
X142412971Y-130052557D01*
X142406716Y-130031938D01*
X142404000Y-130004360D01*
X142404000Y-129545640D01*
X142406716Y-129518062D01*
X142412971Y-129497443D01*
X142423124Y-129478447D01*
X142436792Y-129461792D01*
X142453447Y-129448124D01*
X142472443Y-129437971D01*
X142493062Y-129431716D01*
X142520640Y-129429000D01*
X143029360Y-129429000D01*
X143056938Y-129431716D01*
G37*
G36*
X152606938Y-129271716D02*
G01*
X152627557Y-129277971D01*
X152646553Y-129288124D01*
X152663208Y-129301792D01*
X152676876Y-129318447D01*
X152687029Y-129337443D01*
X152693284Y-129358062D01*
X152696000Y-129385640D01*
X152696000Y-129844360D01*
X152693284Y-129871938D01*
X152687029Y-129892557D01*
X152676876Y-129911553D01*
X152663208Y-129928208D01*
X152646553Y-129941876D01*
X152627557Y-129952029D01*
X152606938Y-129958284D01*
X152579360Y-129961000D01*
X152070640Y-129961000D01*
X152043062Y-129958284D01*
X152022443Y-129952029D01*
X152003447Y-129941876D01*
X151986792Y-129928208D01*
X151973124Y-129911553D01*
X151962971Y-129892557D01*
X151956716Y-129871938D01*
X151954000Y-129844360D01*
X151954000Y-129385640D01*
X151956716Y-129358062D01*
X151962971Y-129337443D01*
X151973124Y-129318447D01*
X151986792Y-129301792D01*
X152003447Y-129288124D01*
X152022443Y-129277971D01*
X152043062Y-129271716D01*
X152070640Y-129269000D01*
X152579360Y-129269000D01*
X152606938Y-129271716D01*
G37*
G36*
X151531938Y-129246716D02*
G01*
X151552557Y-129252971D01*
X151571553Y-129263124D01*
X151588208Y-129276792D01*
X151601876Y-129293447D01*
X151612029Y-129312443D01*
X151618284Y-129333062D01*
X151621000Y-129360640D01*
X151621000Y-129819360D01*
X151618284Y-129846938D01*
X151612029Y-129867557D01*
X151601876Y-129886553D01*
X151588208Y-129903208D01*
X151571553Y-129916876D01*
X151552557Y-129927029D01*
X151531938Y-129933284D01*
X151504360Y-129936000D01*
X150995640Y-129936000D01*
X150968062Y-129933284D01*
X150947443Y-129927029D01*
X150928447Y-129916876D01*
X150911792Y-129903208D01*
X150898124Y-129886553D01*
X150887971Y-129867557D01*
X150881716Y-129846938D01*
X150879000Y-129819360D01*
X150879000Y-129360640D01*
X150881716Y-129333062D01*
X150887971Y-129312443D01*
X150898124Y-129293447D01*
X150911792Y-129276792D01*
X150928447Y-129263124D01*
X150947443Y-129252971D01*
X150968062Y-129246716D01*
X150995640Y-129244000D01*
X151504360Y-129244000D01*
X151531938Y-129246716D01*
G37*
G36*
X126666000Y-129516000D02*
G01*
X124564000Y-129516000D01*
X124564000Y-127914000D01*
X126666000Y-127914000D01*
X126666000Y-129516000D01*
G37*
G36*
X136906000Y-129296000D02*
G01*
X135304000Y-129296000D01*
X135304000Y-127194000D01*
X136906000Y-127194000D01*
X136906000Y-129296000D01*
G37*
G36*
X141506000Y-129296000D02*
G01*
X139904000Y-129296000D01*
X139904000Y-127194000D01*
X141506000Y-127194000D01*
X141506000Y-129296000D01*
G37*
G36*
X139206000Y-129296000D02*
G01*
X137604000Y-129296000D01*
X137604000Y-127194000D01*
X139206000Y-127194000D01*
X139206000Y-129296000D01*
G37*
G36*
X134081938Y-128596716D02*
G01*
X134102557Y-128602971D01*
X134121553Y-128613124D01*
X134138208Y-128626792D01*
X134151876Y-128643447D01*
X134162029Y-128662443D01*
X134168284Y-128683062D01*
X134171000Y-128710640D01*
X134171000Y-129169360D01*
X134168284Y-129196938D01*
X134162029Y-129217557D01*
X134151876Y-129236553D01*
X134138208Y-129253208D01*
X134121553Y-129266876D01*
X134102557Y-129277029D01*
X134081938Y-129283284D01*
X134054360Y-129286000D01*
X133545640Y-129286000D01*
X133518062Y-129283284D01*
X133497443Y-129277029D01*
X133478447Y-129266876D01*
X133461792Y-129253208D01*
X133448124Y-129236553D01*
X133437971Y-129217557D01*
X133431716Y-129196938D01*
X133429000Y-129169360D01*
X133429000Y-128710640D01*
X133431716Y-128683062D01*
X133437971Y-128662443D01*
X133448124Y-128643447D01*
X133461792Y-128626792D01*
X133478447Y-128613124D01*
X133497443Y-128602971D01*
X133518062Y-128596716D01*
X133545640Y-128594000D01*
X134054360Y-128594000D01*
X134081938Y-128596716D01*
G37*
G36*
X122099468Y-127758565D02*
G01*
X122138138Y-127770296D01*
X122173777Y-127789346D01*
X122205017Y-127814983D01*
X122230654Y-127846223D01*
X122249704Y-127881862D01*
X122261435Y-127920532D01*
X122266000Y-127966888D01*
X122266000Y-129043112D01*
X122261435Y-129089468D01*
X122249704Y-129128138D01*
X122230654Y-129163777D01*
X122205017Y-129195017D01*
X122173777Y-129220654D01*
X122138138Y-129239704D01*
X122099468Y-129251435D01*
X122053112Y-129256000D01*
X121401888Y-129256000D01*
X121355532Y-129251435D01*
X121316862Y-129239704D01*
X121281223Y-129220654D01*
X121249983Y-129195017D01*
X121224346Y-129163777D01*
X121205296Y-129128138D01*
X121193565Y-129089468D01*
X121189000Y-129043112D01*
X121189000Y-127966888D01*
X121193565Y-127920532D01*
X121205296Y-127881862D01*
X121224346Y-127846223D01*
X121249983Y-127814983D01*
X121281223Y-127789346D01*
X121316862Y-127770296D01*
X121355532Y-127758565D01*
X121401888Y-127754000D01*
X122053112Y-127754000D01*
X122099468Y-127758565D01*
G37*
G36*
X123974468Y-127758565D02*
G01*
X124013138Y-127770296D01*
X124048777Y-127789346D01*
X124080017Y-127814983D01*
X124105654Y-127846223D01*
X124124704Y-127881862D01*
X124136435Y-127920532D01*
X124141000Y-127966888D01*
X124141000Y-129043112D01*
X124136435Y-129089468D01*
X124124704Y-129128138D01*
X124105654Y-129163777D01*
X124080017Y-129195017D01*
X124048777Y-129220654D01*
X124013138Y-129239704D01*
X123974468Y-129251435D01*
X123928112Y-129256000D01*
X123276888Y-129256000D01*
X123230532Y-129251435D01*
X123191862Y-129239704D01*
X123156223Y-129220654D01*
X123124983Y-129195017D01*
X123099346Y-129163777D01*
X123080296Y-129128138D01*
X123068565Y-129089468D01*
X123064000Y-129043112D01*
X123064000Y-127966888D01*
X123068565Y-127920532D01*
X123080296Y-127881862D01*
X123099346Y-127846223D01*
X123124983Y-127814983D01*
X123156223Y-127789346D01*
X123191862Y-127770296D01*
X123230532Y-127758565D01*
X123276888Y-127754000D01*
X123928112Y-127754000D01*
X123974468Y-127758565D01*
G37*
G36*
X143056938Y-128461716D02*
G01*
X143077557Y-128467971D01*
X143096553Y-128478124D01*
X143113208Y-128491792D01*
X143126876Y-128508447D01*
X143137029Y-128527443D01*
X143143284Y-128548062D01*
X143146000Y-128575640D01*
X143146000Y-129034360D01*
X143143284Y-129061938D01*
X143137029Y-129082557D01*
X143126876Y-129101553D01*
X143113208Y-129118208D01*
X143096553Y-129131876D01*
X143077557Y-129142029D01*
X143056938Y-129148284D01*
X143029360Y-129151000D01*
X142520640Y-129151000D01*
X142493062Y-129148284D01*
X142472443Y-129142029D01*
X142453447Y-129131876D01*
X142436792Y-129118208D01*
X142423124Y-129101553D01*
X142412971Y-129082557D01*
X142406716Y-129061938D01*
X142404000Y-129034360D01*
X142404000Y-128575640D01*
X142406716Y-128548062D01*
X142412971Y-128527443D01*
X142423124Y-128508447D01*
X142436792Y-128491792D01*
X142453447Y-128478124D01*
X142472443Y-128467971D01*
X142493062Y-128461716D01*
X142520640Y-128459000D01*
X143029360Y-128459000D01*
X143056938Y-128461716D01*
G37*
G36*
X152639499Y-127403445D02*
G01*
X152676995Y-127414820D01*
X152711554Y-127433292D01*
X152741847Y-127458153D01*
X152766708Y-127488446D01*
X152785180Y-127523005D01*
X152796555Y-127560501D01*
X152801000Y-127605638D01*
X152801000Y-128244362D01*
X152796555Y-128289499D01*
X152785180Y-128326995D01*
X152766708Y-128361554D01*
X152741847Y-128391847D01*
X152711554Y-128416708D01*
X152676995Y-128435180D01*
X152639499Y-128446555D01*
X152594362Y-128451000D01*
X151855638Y-128451000D01*
X151810501Y-128446555D01*
X151773005Y-128435180D01*
X151738446Y-128416708D01*
X151708153Y-128391847D01*
X151683292Y-128361554D01*
X151664820Y-128326995D01*
X151653445Y-128289499D01*
X151649000Y-128244362D01*
X151649000Y-127605638D01*
X151653445Y-127560501D01*
X151664820Y-127523005D01*
X151683292Y-127488446D01*
X151708153Y-127458153D01*
X151738446Y-127433292D01*
X151773005Y-127414820D01*
X151810501Y-127403445D01*
X151855638Y-127399000D01*
X152594362Y-127399000D01*
X152639499Y-127403445D01*
G37*
G36*
X150889499Y-127403445D02*
G01*
X150926995Y-127414820D01*
X150961554Y-127433292D01*
X150991847Y-127458153D01*
X151016708Y-127488446D01*
X151035180Y-127523005D01*
X151046555Y-127560501D01*
X151051000Y-127605638D01*
X151051000Y-128244362D01*
X151046555Y-128289499D01*
X151035180Y-128326995D01*
X151016708Y-128361554D01*
X150991847Y-128391847D01*
X150961554Y-128416708D01*
X150926995Y-128435180D01*
X150889499Y-128446555D01*
X150844362Y-128451000D01*
X150105638Y-128451000D01*
X150060501Y-128446555D01*
X150023005Y-128435180D01*
X149988446Y-128416708D01*
X149958153Y-128391847D01*
X149933292Y-128361554D01*
X149914820Y-128326995D01*
X149903445Y-128289499D01*
X149899000Y-128244362D01*
X149899000Y-127605638D01*
X149903445Y-127560501D01*
X149914820Y-127523005D01*
X149933292Y-127488446D01*
X149958153Y-127458153D01*
X149988446Y-127433292D01*
X150023005Y-127414820D01*
X150060501Y-127403445D01*
X150105638Y-127399000D01*
X150844362Y-127399000D01*
X150889499Y-127403445D01*
G37*
G36*
X122436938Y-126676716D02*
G01*
X122457557Y-126682971D01*
X122476553Y-126693124D01*
X122493208Y-126706792D01*
X122506876Y-126723447D01*
X122517029Y-126742443D01*
X122523284Y-126763062D01*
X122526000Y-126790640D01*
X122526000Y-127299360D01*
X122523284Y-127326938D01*
X122517029Y-127347557D01*
X122506876Y-127366553D01*
X122493208Y-127383208D01*
X122476553Y-127396876D01*
X122457557Y-127407029D01*
X122436938Y-127413284D01*
X122409360Y-127416000D01*
X121950640Y-127416000D01*
X121923062Y-127413284D01*
X121902443Y-127407029D01*
X121883447Y-127396876D01*
X121866792Y-127383208D01*
X121853124Y-127366553D01*
X121842971Y-127347557D01*
X121836716Y-127326938D01*
X121834000Y-127299360D01*
X121834000Y-126790640D01*
X121836716Y-126763062D01*
X121842971Y-126742443D01*
X121853124Y-126723447D01*
X121866792Y-126706792D01*
X121883447Y-126693124D01*
X121902443Y-126682971D01*
X121923062Y-126676716D01*
X121950640Y-126674000D01*
X122409360Y-126674000D01*
X122436938Y-126676716D01*
G37*
G36*
X123406938Y-126676716D02*
G01*
X123427557Y-126682971D01*
X123446553Y-126693124D01*
X123463208Y-126706792D01*
X123476876Y-126723447D01*
X123487029Y-126742443D01*
X123493284Y-126763062D01*
X123496000Y-126790640D01*
X123496000Y-127299360D01*
X123493284Y-127326938D01*
X123487029Y-127347557D01*
X123476876Y-127366553D01*
X123463208Y-127383208D01*
X123446553Y-127396876D01*
X123427557Y-127407029D01*
X123406938Y-127413284D01*
X123379360Y-127416000D01*
X122920640Y-127416000D01*
X122893062Y-127413284D01*
X122872443Y-127407029D01*
X122853447Y-127396876D01*
X122836792Y-127383208D01*
X122823124Y-127366553D01*
X122812971Y-127347557D01*
X122806716Y-127326938D01*
X122804000Y-127299360D01*
X122804000Y-126790640D01*
X122806716Y-126763062D01*
X122812971Y-126742443D01*
X122823124Y-126723447D01*
X122836792Y-126706792D01*
X122853447Y-126693124D01*
X122872443Y-126682971D01*
X122893062Y-126676716D01*
X122920640Y-126674000D01*
X123379360Y-126674000D01*
X123406938Y-126676716D01*
G37*
G36*
X126666000Y-127216000D02*
G01*
X124564000Y-127216000D01*
X124564000Y-125614000D01*
X126666000Y-125614000D01*
X126666000Y-127216000D01*
G37*
G36*
X113535500Y-127166000D02*
G01*
X111909500Y-127166000D01*
X111909500Y-125764000D01*
X113535500Y-125764000D01*
X113535500Y-127166000D01*
G37*
G36*
X121468000Y-127166000D02*
G01*
X119842000Y-127166000D01*
X119842000Y-125764000D01*
X121468000Y-125764000D01*
X121468000Y-127166000D01*
G37*
G36*
X143606938Y-126166716D02*
G01*
X143627557Y-126172971D01*
X143646553Y-126183124D01*
X143663208Y-126196792D01*
X143676876Y-126213447D01*
X143687029Y-126232443D01*
X143693284Y-126253062D01*
X143696000Y-126280640D01*
X143696000Y-126739360D01*
X143693284Y-126766938D01*
X143687029Y-126787557D01*
X143676876Y-126806553D01*
X143663208Y-126823208D01*
X143646553Y-126836876D01*
X143627557Y-126847029D01*
X143606938Y-126853284D01*
X143579360Y-126856000D01*
X143070640Y-126856000D01*
X143043062Y-126853284D01*
X143022443Y-126847029D01*
X143003447Y-126836876D01*
X142986792Y-126823208D01*
X142973124Y-126806553D01*
X142962971Y-126787557D01*
X142956716Y-126766938D01*
X142954000Y-126739360D01*
X142954000Y-126280640D01*
X142956716Y-126253062D01*
X142962971Y-126232443D01*
X142973124Y-126213447D01*
X142986792Y-126196792D01*
X143003447Y-126183124D01*
X143022443Y-126172971D01*
X143043062Y-126166716D01*
X143070640Y-126164000D01*
X143579360Y-126164000D01*
X143606938Y-126166716D01*
G37*
G36*
X151596938Y-125806716D02*
G01*
X151617557Y-125812971D01*
X151636553Y-125823124D01*
X151653208Y-125836792D01*
X151666876Y-125853447D01*
X151677029Y-125872443D01*
X151683284Y-125893062D01*
X151686000Y-125920640D01*
X151686000Y-126429360D01*
X151683284Y-126456938D01*
X151677029Y-126477557D01*
X151666876Y-126496553D01*
X151653208Y-126513208D01*
X151636553Y-126526876D01*
X151617557Y-126537029D01*
X151596938Y-126543284D01*
X151569360Y-126546000D01*
X151110640Y-126546000D01*
X151083062Y-126543284D01*
X151062443Y-126537029D01*
X151043447Y-126526876D01*
X151026792Y-126513208D01*
X151013124Y-126496553D01*
X151002971Y-126477557D01*
X150996716Y-126456938D01*
X150994000Y-126429360D01*
X150994000Y-125920640D01*
X150996716Y-125893062D01*
X151002971Y-125872443D01*
X151013124Y-125853447D01*
X151026792Y-125836792D01*
X151043447Y-125823124D01*
X151062443Y-125812971D01*
X151083062Y-125806716D01*
X151110640Y-125804000D01*
X151569360Y-125804000D01*
X151596938Y-125806716D01*
G37*
G36*
X152566938Y-125806716D02*
G01*
X152587557Y-125812971D01*
X152606553Y-125823124D01*
X152623208Y-125836792D01*
X152636876Y-125853447D01*
X152647029Y-125872443D01*
X152653284Y-125893062D01*
X152656000Y-125920640D01*
X152656000Y-126429360D01*
X152653284Y-126456938D01*
X152647029Y-126477557D01*
X152636876Y-126496553D01*
X152623208Y-126513208D01*
X152606553Y-126526876D01*
X152587557Y-126537029D01*
X152566938Y-126543284D01*
X152539360Y-126546000D01*
X152080640Y-126546000D01*
X152053062Y-126543284D01*
X152032443Y-126537029D01*
X152013447Y-126526876D01*
X151996792Y-126513208D01*
X151983124Y-126496553D01*
X151972971Y-126477557D01*
X151966716Y-126456938D01*
X151964000Y-126429360D01*
X151964000Y-125920640D01*
X151966716Y-125893062D01*
X151972971Y-125872443D01*
X151983124Y-125853447D01*
X151996792Y-125836792D01*
X152013447Y-125823124D01*
X152032443Y-125812971D01*
X152053062Y-125806716D01*
X152080640Y-125804000D01*
X152539360Y-125804000D01*
X152566938Y-125806716D01*
G37*
G36*
X123386938Y-125586716D02*
G01*
X123407557Y-125592971D01*
X123426553Y-125603124D01*
X123443208Y-125616792D01*
X123456876Y-125633447D01*
X123467029Y-125652443D01*
X123473284Y-125673062D01*
X123476000Y-125700640D01*
X123476000Y-126209360D01*
X123473284Y-126236938D01*
X123467029Y-126257557D01*
X123456876Y-126276553D01*
X123443208Y-126293208D01*
X123426553Y-126306876D01*
X123407557Y-126317029D01*
X123386938Y-126323284D01*
X123359360Y-126326000D01*
X122900640Y-126326000D01*
X122873062Y-126323284D01*
X122852443Y-126317029D01*
X122833447Y-126306876D01*
X122816792Y-126293208D01*
X122803124Y-126276553D01*
X122792971Y-126257557D01*
X122786716Y-126236938D01*
X122784000Y-126209360D01*
X122784000Y-125700640D01*
X122786716Y-125673062D01*
X122792971Y-125652443D01*
X122803124Y-125633447D01*
X122816792Y-125616792D01*
X122833447Y-125603124D01*
X122852443Y-125592971D01*
X122873062Y-125586716D01*
X122900640Y-125584000D01*
X123359360Y-125584000D01*
X123386938Y-125586716D01*
G37*
G36*
X122416938Y-125586716D02*
G01*
X122437557Y-125592971D01*
X122456553Y-125603124D01*
X122473208Y-125616792D01*
X122486876Y-125633447D01*
X122497029Y-125652443D01*
X122503284Y-125673062D01*
X122506000Y-125700640D01*
X122506000Y-126209360D01*
X122503284Y-126236938D01*
X122497029Y-126257557D01*
X122486876Y-126276553D01*
X122473208Y-126293208D01*
X122456553Y-126306876D01*
X122437557Y-126317029D01*
X122416938Y-126323284D01*
X122389360Y-126326000D01*
X121930640Y-126326000D01*
X121903062Y-126323284D01*
X121882443Y-126317029D01*
X121863447Y-126306876D01*
X121846792Y-126293208D01*
X121833124Y-126276553D01*
X121822971Y-126257557D01*
X121816716Y-126236938D01*
X121814000Y-126209360D01*
X121814000Y-125700640D01*
X121816716Y-125673062D01*
X121822971Y-125652443D01*
X121833124Y-125633447D01*
X121846792Y-125616792D01*
X121863447Y-125603124D01*
X121882443Y-125592971D01*
X121903062Y-125586716D01*
X121930640Y-125584000D01*
X122389360Y-125584000D01*
X122416938Y-125586716D01*
G37*
G36*
X118221938Y-125256716D02*
G01*
X118242557Y-125262971D01*
X118261553Y-125273124D01*
X118278208Y-125286792D01*
X118291876Y-125303447D01*
X118302029Y-125322443D01*
X118308284Y-125343062D01*
X118311000Y-125370640D01*
X118311000Y-125879360D01*
X118308284Y-125906938D01*
X118302029Y-125927557D01*
X118291876Y-125946553D01*
X118278208Y-125963208D01*
X118261553Y-125976876D01*
X118242557Y-125987029D01*
X118221938Y-125993284D01*
X118194360Y-125996000D01*
X117735640Y-125996000D01*
X117708062Y-125993284D01*
X117687443Y-125987029D01*
X117668447Y-125976876D01*
X117651792Y-125963208D01*
X117638124Y-125946553D01*
X117627971Y-125927557D01*
X117621716Y-125906938D01*
X117619000Y-125879360D01*
X117619000Y-125370640D01*
X117621716Y-125343062D01*
X117627971Y-125322443D01*
X117638124Y-125303447D01*
X117651792Y-125286792D01*
X117668447Y-125273124D01*
X117687443Y-125262971D01*
X117708062Y-125256716D01*
X117735640Y-125254000D01*
X118194360Y-125254000D01*
X118221938Y-125256716D01*
G37*
G36*
X119191938Y-125256716D02*
G01*
X119212557Y-125262971D01*
X119231553Y-125273124D01*
X119248208Y-125286792D01*
X119261876Y-125303447D01*
X119272029Y-125322443D01*
X119278284Y-125343062D01*
X119281000Y-125370640D01*
X119281000Y-125879360D01*
X119278284Y-125906938D01*
X119272029Y-125927557D01*
X119261876Y-125946553D01*
X119248208Y-125963208D01*
X119231553Y-125976876D01*
X119212557Y-125987029D01*
X119191938Y-125993284D01*
X119164360Y-125996000D01*
X118705640Y-125996000D01*
X118678062Y-125993284D01*
X118657443Y-125987029D01*
X118638447Y-125976876D01*
X118621792Y-125963208D01*
X118608124Y-125946553D01*
X118597971Y-125927557D01*
X118591716Y-125906938D01*
X118589000Y-125879360D01*
X118589000Y-125370640D01*
X118591716Y-125343062D01*
X118597971Y-125322443D01*
X118608124Y-125303447D01*
X118621792Y-125286792D01*
X118638447Y-125273124D01*
X118657443Y-125262971D01*
X118678062Y-125256716D01*
X118705640Y-125254000D01*
X119164360Y-125254000D01*
X119191938Y-125256716D01*
G37*
G36*
X143606938Y-125196716D02*
G01*
X143627557Y-125202971D01*
X143646553Y-125213124D01*
X143663208Y-125226792D01*
X143676876Y-125243447D01*
X143687029Y-125262443D01*
X143693284Y-125283062D01*
X143696000Y-125310640D01*
X143696000Y-125769360D01*
X143693284Y-125796938D01*
X143687029Y-125817557D01*
X143676876Y-125836553D01*
X143663208Y-125853208D01*
X143646553Y-125866876D01*
X143627557Y-125877029D01*
X143606938Y-125883284D01*
X143579360Y-125886000D01*
X143070640Y-125886000D01*
X143043062Y-125883284D01*
X143022443Y-125877029D01*
X143003447Y-125866876D01*
X142986792Y-125853208D01*
X142973124Y-125836553D01*
X142962971Y-125817557D01*
X142956716Y-125796938D01*
X142954000Y-125769360D01*
X142954000Y-125310640D01*
X142956716Y-125283062D01*
X142962971Y-125262443D01*
X142973124Y-125243447D01*
X142986792Y-125226792D01*
X143003447Y-125213124D01*
X143022443Y-125202971D01*
X143043062Y-125196716D01*
X143070640Y-125194000D01*
X143579360Y-125194000D01*
X143606938Y-125196716D01*
G37*
G36*
X151596938Y-124756716D02*
G01*
X151617557Y-124762971D01*
X151636553Y-124773124D01*
X151653208Y-124786792D01*
X151666876Y-124803447D01*
X151677029Y-124822443D01*
X151683284Y-124843062D01*
X151686000Y-124870640D01*
X151686000Y-125379360D01*
X151683284Y-125406938D01*
X151677029Y-125427557D01*
X151666876Y-125446553D01*
X151653208Y-125463208D01*
X151636553Y-125476876D01*
X151617557Y-125487029D01*
X151596938Y-125493284D01*
X151569360Y-125496000D01*
X151110640Y-125496000D01*
X151083062Y-125493284D01*
X151062443Y-125487029D01*
X151043447Y-125476876D01*
X151026792Y-125463208D01*
X151013124Y-125446553D01*
X151002971Y-125427557D01*
X150996716Y-125406938D01*
X150994000Y-125379360D01*
X150994000Y-124870640D01*
X150996716Y-124843062D01*
X151002971Y-124822443D01*
X151013124Y-124803447D01*
X151026792Y-124786792D01*
X151043447Y-124773124D01*
X151062443Y-124762971D01*
X151083062Y-124756716D01*
X151110640Y-124754000D01*
X151569360Y-124754000D01*
X151596938Y-124756716D01*
G37*
G36*
X152566938Y-124756716D02*
G01*
X152587557Y-124762971D01*
X152606553Y-124773124D01*
X152623208Y-124786792D01*
X152636876Y-124803447D01*
X152647029Y-124822443D01*
X152653284Y-124843062D01*
X152656000Y-124870640D01*
X152656000Y-125379360D01*
X152653284Y-125406938D01*
X152647029Y-125427557D01*
X152636876Y-125446553D01*
X152623208Y-125463208D01*
X152606553Y-125476876D01*
X152587557Y-125487029D01*
X152566938Y-125493284D01*
X152539360Y-125496000D01*
X152080640Y-125496000D01*
X152053062Y-125493284D01*
X152032443Y-125487029D01*
X152013447Y-125476876D01*
X151996792Y-125463208D01*
X151983124Y-125446553D01*
X151972971Y-125427557D01*
X151966716Y-125406938D01*
X151964000Y-125379360D01*
X151964000Y-124870640D01*
X151966716Y-124843062D01*
X151972971Y-124822443D01*
X151983124Y-124803447D01*
X151996792Y-124786792D01*
X152013447Y-124773124D01*
X152032443Y-124762971D01*
X152053062Y-124756716D01*
X152080640Y-124754000D01*
X152539360Y-124754000D01*
X152566938Y-124756716D01*
G37*
G36*
X134481938Y-124366716D02*
G01*
X134502557Y-124372971D01*
X134521553Y-124383124D01*
X134538208Y-124396792D01*
X134551876Y-124413447D01*
X134562029Y-124432443D01*
X134568284Y-124453062D01*
X134571000Y-124480640D01*
X134571000Y-124939360D01*
X134568284Y-124966938D01*
X134562029Y-124987557D01*
X134551876Y-125006553D01*
X134538208Y-125023208D01*
X134521553Y-125036876D01*
X134502557Y-125047029D01*
X134481938Y-125053284D01*
X134454360Y-125056000D01*
X133945640Y-125056000D01*
X133918062Y-125053284D01*
X133897443Y-125047029D01*
X133878447Y-125036876D01*
X133861792Y-125023208D01*
X133848124Y-125006553D01*
X133837971Y-124987557D01*
X133831716Y-124966938D01*
X133829000Y-124939360D01*
X133829000Y-124480640D01*
X133831716Y-124453062D01*
X133837971Y-124432443D01*
X133848124Y-124413447D01*
X133861792Y-124396792D01*
X133878447Y-124383124D01*
X133897443Y-124372971D01*
X133918062Y-124366716D01*
X133945640Y-124364000D01*
X134454360Y-124364000D01*
X134481938Y-124366716D01*
G37*
G36*
X114856938Y-124306716D02*
G01*
X114877557Y-124312971D01*
X114896553Y-124323124D01*
X114913208Y-124336792D01*
X114926876Y-124353447D01*
X114937029Y-124372443D01*
X114943284Y-124393062D01*
X114946000Y-124420640D01*
X114946000Y-124929360D01*
X114943284Y-124956938D01*
X114937029Y-124977557D01*
X114926876Y-124996553D01*
X114913208Y-125013208D01*
X114896553Y-125026876D01*
X114877557Y-125037029D01*
X114856938Y-125043284D01*
X114829360Y-125046000D01*
X114370640Y-125046000D01*
X114343062Y-125043284D01*
X114322443Y-125037029D01*
X114303447Y-125026876D01*
X114286792Y-125013208D01*
X114273124Y-124996553D01*
X114262971Y-124977557D01*
X114256716Y-124956938D01*
X114254000Y-124929360D01*
X114254000Y-124420640D01*
X114256716Y-124393062D01*
X114262971Y-124372443D01*
X114273124Y-124353447D01*
X114286792Y-124336792D01*
X114303447Y-124323124D01*
X114322443Y-124312971D01*
X114343062Y-124306716D01*
X114370640Y-124304000D01*
X114829360Y-124304000D01*
X114856938Y-124306716D01*
G37*
G36*
X113886938Y-124306716D02*
G01*
X113907557Y-124312971D01*
X113926553Y-124323124D01*
X113943208Y-124336792D01*
X113956876Y-124353447D01*
X113967029Y-124372443D01*
X113973284Y-124393062D01*
X113976000Y-124420640D01*
X113976000Y-124929360D01*
X113973284Y-124956938D01*
X113967029Y-124977557D01*
X113956876Y-124996553D01*
X113943208Y-125013208D01*
X113926553Y-125026876D01*
X113907557Y-125037029D01*
X113886938Y-125043284D01*
X113859360Y-125046000D01*
X113400640Y-125046000D01*
X113373062Y-125043284D01*
X113352443Y-125037029D01*
X113333447Y-125026876D01*
X113316792Y-125013208D01*
X113303124Y-124996553D01*
X113292971Y-124977557D01*
X113286716Y-124956938D01*
X113284000Y-124929360D01*
X113284000Y-124420640D01*
X113286716Y-124393062D01*
X113292971Y-124372443D01*
X113303124Y-124353447D01*
X113316792Y-124336792D01*
X113333447Y-124323124D01*
X113352443Y-124312971D01*
X113373062Y-124306716D01*
X113400640Y-124304000D01*
X113859360Y-124304000D01*
X113886938Y-124306716D01*
G37*
G36*
X132364878Y-123688071D02*
G01*
X132395998Y-123700961D01*
X132410965Y-123710962D01*
X132424006Y-123719676D01*
X132447824Y-123743494D01*
X132447826Y-123743497D01*
X132447828Y-123743499D01*
X132464409Y-123768314D01*
X132479954Y-123787256D01*
X132498896Y-123802801D01*
X132520507Y-123814352D01*
X132543956Y-123821465D01*
X132568342Y-123823867D01*
X132592728Y-123821465D01*
X132616177Y-123814352D01*
X132637787Y-123802800D01*
X132656729Y-123787255D01*
X132672271Y-123768318D01*
X132682176Y-123753494D01*
X132705994Y-123729676D01*
X132734001Y-123710962D01*
X132734002Y-123710961D01*
X132765122Y-123698071D01*
X132798157Y-123691500D01*
X132831843Y-123691500D01*
X132864878Y-123698071D01*
X132895998Y-123710961D01*
X132895999Y-123710962D01*
X132924006Y-123729676D01*
X132947824Y-123753494D01*
X132947825Y-123753496D01*
X132947826Y-123753497D01*
X132960233Y-123772065D01*
X132975778Y-123791007D01*
X132994720Y-123806552D01*
X133016331Y-123818103D01*
X133039780Y-123825215D01*
X133064166Y-123827617D01*
X133088552Y-123825215D01*
X133112001Y-123818102D01*
X133133612Y-123806550D01*
X133152554Y-123791005D01*
X133168097Y-123772065D01*
X133182176Y-123750994D01*
X133205994Y-123727176D01*
X133217221Y-123719674D01*
X133234002Y-123708461D01*
X133265122Y-123695571D01*
X133298157Y-123689000D01*
X133331843Y-123689000D01*
X133364878Y-123695571D01*
X133395998Y-123708461D01*
X133412779Y-123719674D01*
X133424006Y-123727176D01*
X133447824Y-123750994D01*
X133447826Y-123750997D01*
X133466539Y-123779002D01*
X133479429Y-123810122D01*
X133486000Y-123843157D01*
X133486000Y-123876843D01*
X133479429Y-123909878D01*
X133466539Y-123940998D01*
X133448080Y-123968623D01*
X133447824Y-123969006D01*
X133424006Y-123992824D01*
X133424003Y-123992826D01*
X133395998Y-124011539D01*
X133364878Y-124024429D01*
X133331843Y-124031000D01*
X133325606Y-124031000D01*
X133301220Y-124033402D01*
X133277771Y-124040515D01*
X133256160Y-124052066D01*
X133237218Y-124067611D01*
X133221673Y-124086553D01*
X133210122Y-124108164D01*
X133203009Y-124131613D01*
X133200607Y-124155999D01*
X133203009Y-124180385D01*
X133210122Y-124203834D01*
X133217224Y-124217120D01*
X133231929Y-124252622D01*
X133238500Y-124285657D01*
X133238500Y-124319343D01*
X133231929Y-124352378D01*
X133216898Y-124388666D01*
X133209785Y-124412115D01*
X133207383Y-124436501D01*
X133209785Y-124460887D01*
X133216898Y-124484336D01*
X133228449Y-124505946D01*
X133243994Y-124524888D01*
X133262936Y-124540434D01*
X133284547Y-124551985D01*
X133307996Y-124559098D01*
X133331314Y-124561395D01*
X133364878Y-124568071D01*
X133395998Y-124580961D01*
X133395999Y-124580962D01*
X133424006Y-124599676D01*
X133447824Y-124623494D01*
X133447825Y-124623496D01*
X133447826Y-124623497D01*
X133466539Y-124651502D01*
X133479429Y-124682622D01*
X133486000Y-124715657D01*
X133486000Y-124749343D01*
X133479429Y-124782378D01*
X133466539Y-124813498D01*
X133466538Y-124813499D01*
X133447824Y-124841506D01*
X133424006Y-124865324D01*
X133424003Y-124865326D01*
X133395998Y-124884039D01*
X133364878Y-124896929D01*
X133331843Y-124903500D01*
X133298157Y-124903500D01*
X133265122Y-124896929D01*
X133234002Y-124884039D01*
X133205997Y-124865326D01*
X133205994Y-124865324D01*
X133182176Y-124841506D01*
X133168930Y-124821683D01*
X133153387Y-124802744D01*
X133134445Y-124787199D01*
X133112834Y-124775648D01*
X133089385Y-124768535D01*
X133064999Y-124766133D01*
X133040613Y-124768535D01*
X133017164Y-124775648D01*
X132995554Y-124787199D01*
X132976612Y-124802745D01*
X132961070Y-124821683D01*
X132947824Y-124841506D01*
X132924006Y-124865324D01*
X132924003Y-124865326D01*
X132895998Y-124884039D01*
X132864878Y-124896929D01*
X132831843Y-124903500D01*
X132798157Y-124903500D01*
X132765122Y-124896929D01*
X132734002Y-124884039D01*
X132705997Y-124865326D01*
X132705994Y-124865324D01*
X132682176Y-124841506D01*
X132668930Y-124821683D01*
X132653387Y-124802744D01*
X132634445Y-124787199D01*
X132612834Y-124775648D01*
X132589385Y-124768535D01*
X132564999Y-124766133D01*
X132540613Y-124768535D01*
X132517164Y-124775648D01*
X132495554Y-124787199D01*
X132476612Y-124802745D01*
X132461070Y-124821683D01*
X132447824Y-124841506D01*
X132424006Y-124865324D01*
X132424003Y-124865326D01*
X132395998Y-124884039D01*
X132364878Y-124896929D01*
X132331843Y-124903500D01*
X132298157Y-124903500D01*
X132265122Y-124896929D01*
X132234002Y-124884039D01*
X132205997Y-124865326D01*
X132205994Y-124865324D01*
X132182176Y-124841506D01*
X132168930Y-124821683D01*
X132153387Y-124802744D01*
X132134445Y-124787199D01*
X132112834Y-124775648D01*
X132089385Y-124768535D01*
X132064999Y-124766133D01*
X132040613Y-124768535D01*
X132017164Y-124775648D01*
X131995554Y-124787199D01*
X131976612Y-124802745D01*
X131961070Y-124821683D01*
X131947824Y-124841506D01*
X131924006Y-124865324D01*
X131924003Y-124865326D01*
X131895998Y-124884039D01*
X131864878Y-124896929D01*
X131831843Y-124903500D01*
X131798157Y-124903500D01*
X131765122Y-124896929D01*
X131734002Y-124884039D01*
X131705997Y-124865326D01*
X131705994Y-124865324D01*
X131682176Y-124841506D01*
X131663462Y-124813499D01*
X131663461Y-124813498D01*
X131650571Y-124782378D01*
X131644000Y-124749343D01*
X131644000Y-124715657D01*
X131650571Y-124682622D01*
X131663461Y-124651502D01*
X131682174Y-124623497D01*
X131682175Y-124623496D01*
X131682176Y-124623494D01*
X131705994Y-124599676D01*
X131734001Y-124580962D01*
X131734002Y-124580961D01*
X131765122Y-124568071D01*
X131798157Y-124561500D01*
X131800118Y-124561500D01*
X131824504Y-124559098D01*
X131847953Y-124551985D01*
X131869564Y-124540434D01*
X131888506Y-124524889D01*
X131904051Y-124505947D01*
X131915602Y-124484336D01*
X131922715Y-124460887D01*
X131925117Y-124436501D01*
X131922715Y-124412115D01*
X131915602Y-124388666D01*
X131900571Y-124352378D01*
X131894000Y-124319343D01*
X131894000Y-124285657D01*
X131900571Y-124252622D01*
X131916428Y-124214340D01*
X131920711Y-124206326D01*
X131927822Y-124182876D01*
X131930222Y-124158490D01*
X131929238Y-124148499D01*
X132193096Y-124148499D01*
X132195498Y-124172885D01*
X132202611Y-124196334D01*
X132214161Y-124217944D01*
X132216539Y-124221503D01*
X132229429Y-124252622D01*
X132236000Y-124285657D01*
X132236000Y-124319343D01*
X132229429Y-124352378D01*
X132214398Y-124388666D01*
X132207285Y-124412115D01*
X132204883Y-124436501D01*
X132207285Y-124460887D01*
X132214398Y-124484336D01*
X132225949Y-124505946D01*
X132241494Y-124524888D01*
X132260436Y-124540434D01*
X132282047Y-124551985D01*
X132305496Y-124559098D01*
X132329882Y-124561500D01*
X132331843Y-124561500D01*
X132364878Y-124568071D01*
X132395998Y-124580961D01*
X132395999Y-124580962D01*
X132424006Y-124599676D01*
X132447824Y-124623494D01*
X132461070Y-124643317D01*
X132476613Y-124662256D01*
X132495555Y-124677801D01*
X132517166Y-124689352D01*
X132540615Y-124696465D01*
X132565001Y-124698867D01*
X132589387Y-124696465D01*
X132612836Y-124689352D01*
X132634446Y-124677801D01*
X132653388Y-124662255D01*
X132668930Y-124643317D01*
X132682176Y-124623494D01*
X132705994Y-124599676D01*
X132734001Y-124580962D01*
X132734002Y-124580961D01*
X132765122Y-124568071D01*
X132798157Y-124561500D01*
X132802618Y-124561500D01*
X132827004Y-124559098D01*
X132850453Y-124551985D01*
X132872064Y-124540434D01*
X132891006Y-124524889D01*
X132906551Y-124505947D01*
X132918102Y-124484336D01*
X132925215Y-124460887D01*
X132927617Y-124436501D01*
X132925215Y-124412115D01*
X132918102Y-124388666D01*
X132903071Y-124352378D01*
X132896500Y-124319343D01*
X132896500Y-124285657D01*
X132903071Y-124252622D01*
X132918928Y-124214340D01*
X132923211Y-124206326D01*
X132930322Y-124182876D01*
X132932722Y-124158490D01*
X132930318Y-124134104D01*
X132923204Y-124110656D01*
X132911651Y-124089046D01*
X132896104Y-124070105D01*
X132877161Y-124054561D01*
X132855550Y-124043011D01*
X132832100Y-124035900D01*
X132807723Y-124033500D01*
X132798157Y-124033500D01*
X132765122Y-124026929D01*
X132734002Y-124014039D01*
X132705997Y-123995326D01*
X132705994Y-123995324D01*
X132682176Y-123971506D01*
X132682174Y-123971503D01*
X132682172Y-123971501D01*
X132665591Y-123946686D01*
X132650046Y-123927744D01*
X132631104Y-123912199D01*
X132609493Y-123900648D01*
X132586044Y-123893535D01*
X132561658Y-123891133D01*
X132537272Y-123893535D01*
X132513823Y-123900648D01*
X132492213Y-123912200D01*
X132473271Y-123927745D01*
X132457729Y-123946682D01*
X132447824Y-123961506D01*
X132424006Y-123985324D01*
X132424003Y-123985326D01*
X132395998Y-124004039D01*
X132364878Y-124016929D01*
X132331843Y-124023500D01*
X132318095Y-124023500D01*
X132293709Y-124025902D01*
X132270260Y-124033015D01*
X132248649Y-124044566D01*
X132229707Y-124060111D01*
X132214162Y-124079053D01*
X132202611Y-124100664D01*
X132195498Y-124124113D01*
X132193096Y-124148499D01*
X131929238Y-124148499D01*
X131927818Y-124134104D01*
X131920704Y-124110656D01*
X131909151Y-124089046D01*
X131893604Y-124070105D01*
X131874661Y-124054561D01*
X131853050Y-124043011D01*
X131829600Y-124035900D01*
X131805223Y-124033500D01*
X131798157Y-124033500D01*
X131765122Y-124026929D01*
X131734002Y-124014039D01*
X131705997Y-123995326D01*
X131705994Y-123995324D01*
X131682176Y-123971506D01*
X131680742Y-123969360D01*
X131663461Y-123943498D01*
X131650571Y-123912378D01*
X131644000Y-123879343D01*
X131644000Y-123845657D01*
X131650571Y-123812622D01*
X131663463Y-123781499D01*
X131682174Y-123753497D01*
X131682175Y-123753496D01*
X131682176Y-123753494D01*
X131705994Y-123729676D01*
X131734001Y-123710962D01*
X131734002Y-123710961D01*
X131765122Y-123698071D01*
X131798157Y-123691500D01*
X131831843Y-123691500D01*
X131864878Y-123698071D01*
X131895998Y-123710961D01*
X131895999Y-123710962D01*
X131924006Y-123729676D01*
X131947824Y-123753494D01*
X131957729Y-123768318D01*
X131973272Y-123787256D01*
X131992214Y-123802801D01*
X132013824Y-123814352D01*
X132037273Y-123821465D01*
X132061659Y-123823867D01*
X132086045Y-123821465D01*
X132109494Y-123814352D01*
X132131105Y-123802801D01*
X132150047Y-123787255D01*
X132165591Y-123768314D01*
X132182172Y-123743499D01*
X132182174Y-123743497D01*
X132182176Y-123743494D01*
X132205994Y-123719676D01*
X132219035Y-123710962D01*
X132234002Y-123700961D01*
X132265122Y-123688071D01*
X132298157Y-123681500D01*
X132331843Y-123681500D01*
X132364878Y-123688071D01*
G37*
G36*
X144891000Y-124583000D02*
G01*
X143489000Y-124583000D01*
X143489000Y-122957000D01*
X144891000Y-122957000D01*
X144891000Y-124583000D01*
G37*
G36*
X149398500Y-124583000D02*
G01*
X147996500Y-124583000D01*
X147996500Y-122957000D01*
X149398500Y-122957000D01*
X149398500Y-124583000D01*
G37*
G36*
X134481938Y-123396716D02*
G01*
X134502557Y-123402971D01*
X134521553Y-123413124D01*
X134538208Y-123426792D01*
X134551876Y-123443447D01*
X134562029Y-123462443D01*
X134568284Y-123483062D01*
X134571000Y-123510640D01*
X134571000Y-123969360D01*
X134568284Y-123996938D01*
X134562029Y-124017557D01*
X134551876Y-124036553D01*
X134538208Y-124053208D01*
X134521553Y-124066876D01*
X134502557Y-124077029D01*
X134481938Y-124083284D01*
X134454360Y-124086000D01*
X133945640Y-124086000D01*
X133918062Y-124083284D01*
X133897443Y-124077029D01*
X133878447Y-124066876D01*
X133861792Y-124053208D01*
X133848124Y-124036553D01*
X133837971Y-124017557D01*
X133831716Y-123996938D01*
X133829000Y-123969360D01*
X133829000Y-123510640D01*
X133831716Y-123483062D01*
X133837971Y-123462443D01*
X133848124Y-123443447D01*
X133861792Y-123426792D01*
X133878447Y-123413124D01*
X133897443Y-123402971D01*
X133918062Y-123396716D01*
X133945640Y-123394000D01*
X134454360Y-123394000D01*
X134481938Y-123396716D01*
G37*
G36*
X151520713Y-122703749D02*
G01*
X151615152Y-122732397D01*
X151702187Y-122778918D01*
X151778475Y-122841525D01*
X151841082Y-122917813D01*
X151887603Y-123004848D01*
X151916251Y-123099287D01*
X151925924Y-123197500D01*
X151916251Y-123295713D01*
X151887603Y-123390152D01*
X151841082Y-123477187D01*
X151778475Y-123553475D01*
X151702187Y-123616082D01*
X151615152Y-123662603D01*
X151520713Y-123691251D01*
X151447112Y-123698500D01*
X150597888Y-123698500D01*
X150524287Y-123691251D01*
X150429848Y-123662603D01*
X150342813Y-123616082D01*
X150266525Y-123553475D01*
X150203918Y-123477187D01*
X150157397Y-123390152D01*
X150128749Y-123295713D01*
X150119076Y-123197500D01*
X150128749Y-123099287D01*
X150157397Y-123004848D01*
X150203918Y-122917813D01*
X150266525Y-122841525D01*
X150342813Y-122778918D01*
X150429848Y-122732397D01*
X150524287Y-122703749D01*
X150597888Y-122696500D01*
X151447112Y-122696500D01*
X151520713Y-122703749D01*
G37*
G36*
X155260713Y-122701249D02*
G01*
X155355152Y-122729897D01*
X155442187Y-122776418D01*
X155518475Y-122839025D01*
X155581082Y-122915313D01*
X155627603Y-123002348D01*
X155656251Y-123096787D01*
X155665924Y-123195000D01*
X155656251Y-123293213D01*
X155627603Y-123387652D01*
X155581082Y-123474687D01*
X155518475Y-123550975D01*
X155442187Y-123613582D01*
X155355152Y-123660103D01*
X155260713Y-123688751D01*
X155187112Y-123696000D01*
X153637888Y-123696000D01*
X153564287Y-123688751D01*
X153469848Y-123660103D01*
X153382813Y-123613582D01*
X153306525Y-123550975D01*
X153243918Y-123474687D01*
X153197397Y-123387652D01*
X153168749Y-123293213D01*
X153159076Y-123195000D01*
X153168749Y-123096787D01*
X153197397Y-123002348D01*
X153243918Y-122915313D01*
X153306525Y-122839025D01*
X153382813Y-122776418D01*
X153469848Y-122729897D01*
X153564287Y-122701249D01*
X153637888Y-122694000D01*
X155187112Y-122694000D01*
X155260713Y-122701249D01*
G37*
G36*
X114450999Y-113255000D02*
G01*
X129821000Y-113255000D01*
X129821000Y-123657000D01*
X114304077Y-123657000D01*
X114299001Y-123656500D01*
X113924000Y-123656500D01*
X113924000Y-115280999D01*
X113921598Y-115256613D01*
X113921500Y-115256290D01*
X113921500Y-114280999D01*
X114323500Y-114280999D01*
X114323500Y-115129001D01*
X114325902Y-115153387D01*
X114326000Y-115153710D01*
X114326000Y-123130001D01*
X114328402Y-123154387D01*
X114335515Y-123177836D01*
X114347066Y-123199447D01*
X114362611Y-123218389D01*
X114381553Y-123233934D01*
X114403164Y-123245485D01*
X114426613Y-123252598D01*
X114450999Y-123255000D01*
X116799001Y-123255000D01*
X116823387Y-123252598D01*
X116846836Y-123245485D01*
X116868447Y-123233934D01*
X116887389Y-123218389D01*
X116902934Y-123199447D01*
X116914485Y-123177836D01*
X116921598Y-123154387D01*
X116924000Y-123130001D01*
X116924000Y-122755000D01*
X118826000Y-122755000D01*
X118826000Y-123130001D01*
X118828402Y-123154387D01*
X118835515Y-123177836D01*
X118847066Y-123199447D01*
X118862611Y-123218389D01*
X118881553Y-123233934D01*
X118903164Y-123245485D01*
X118926613Y-123252598D01*
X118950999Y-123255000D01*
X121794001Y-123255000D01*
X121818387Y-123252598D01*
X121841836Y-123245485D01*
X121863447Y-123233934D01*
X121882389Y-123218389D01*
X121897934Y-123199447D01*
X121909485Y-123177836D01*
X121916598Y-123154387D01*
X121919000Y-123130001D01*
X121919000Y-122755000D01*
X123821000Y-122755000D01*
X123821000Y-123130001D01*
X123823402Y-123154387D01*
X123830515Y-123177836D01*
X123842066Y-123199447D01*
X123857611Y-123218389D01*
X123876553Y-123233934D01*
X123898164Y-123245485D01*
X123921613Y-123252598D01*
X123945999Y-123255000D01*
X125794001Y-123255000D01*
X125818387Y-123252598D01*
X125841836Y-123245485D01*
X125863447Y-123233934D01*
X125882389Y-123218389D01*
X125897934Y-123199447D01*
X125909485Y-123177836D01*
X125916598Y-123154387D01*
X125919000Y-123130001D01*
X125919000Y-122755000D01*
X127821000Y-122755000D01*
X127821000Y-123130001D01*
X127823402Y-123154387D01*
X127830515Y-123177836D01*
X127842066Y-123199447D01*
X127857611Y-123218389D01*
X127876553Y-123233934D01*
X127898164Y-123245485D01*
X127921613Y-123252598D01*
X127945999Y-123255000D01*
X129294001Y-123255000D01*
X129318387Y-123252598D01*
X129341836Y-123245485D01*
X129363447Y-123233934D01*
X129382389Y-123218389D01*
X129397934Y-123199447D01*
X129409485Y-123177836D01*
X129416598Y-123154387D01*
X129419000Y-123130001D01*
X129419000Y-113781999D01*
X129416598Y-113757613D01*
X129409485Y-113734164D01*
X129397934Y-113712553D01*
X129382389Y-113693611D01*
X129363447Y-113678066D01*
X129341836Y-113666515D01*
X129318387Y-113659402D01*
X129294001Y-113657000D01*
X127945999Y-113657000D01*
X127921613Y-113659402D01*
X127898164Y-113666515D01*
X127876553Y-113678066D01*
X127857611Y-113693611D01*
X127842066Y-113712553D01*
X127830515Y-113734164D01*
X127823402Y-113757613D01*
X127821000Y-113781999D01*
X127821000Y-114157000D01*
X125919000Y-114157000D01*
X125919000Y-113781999D01*
X125916598Y-113757613D01*
X125909485Y-113734164D01*
X125897934Y-113712553D01*
X125882389Y-113693611D01*
X125863447Y-113678066D01*
X125841836Y-113666515D01*
X125818387Y-113659402D01*
X125794001Y-113657000D01*
X123945999Y-113657000D01*
X123921613Y-113659402D01*
X123898164Y-113666515D01*
X123876553Y-113678066D01*
X123857611Y-113693611D01*
X123842066Y-113712553D01*
X123830515Y-113734164D01*
X123823402Y-113757613D01*
X123821000Y-113781999D01*
X123821000Y-114157000D01*
X121919000Y-114157000D01*
X121919000Y-113781999D01*
X121916598Y-113757613D01*
X121909485Y-113734164D01*
X121897934Y-113712553D01*
X121882389Y-113693611D01*
X121863447Y-113678066D01*
X121841836Y-113666515D01*
X121818387Y-113659402D01*
X121794001Y-113657000D01*
X118945999Y-113657000D01*
X118921613Y-113659402D01*
X118898164Y-113666515D01*
X118876553Y-113678066D01*
X118857611Y-113693611D01*
X118842066Y-113712553D01*
X118830515Y-113734164D01*
X118823402Y-113757613D01*
X118821000Y-113781999D01*
X118821000Y-114157000D01*
X116919000Y-114157000D01*
X116919000Y-113781999D01*
X116916598Y-113757613D01*
X116909485Y-113734164D01*
X116897934Y-113712553D01*
X116882389Y-113693611D01*
X116863447Y-113678066D01*
X116841836Y-113666515D01*
X116818387Y-113659402D01*
X116794001Y-113657000D01*
X114450999Y-113657000D01*
X114426613Y-113659402D01*
X114403164Y-113666515D01*
X114381553Y-113678066D01*
X114362611Y-113693611D01*
X114347066Y-113712553D01*
X114335515Y-113734164D01*
X114328402Y-113757613D01*
X114326000Y-113781999D01*
X114326000Y-114256290D01*
X114325902Y-114256613D01*
X114323500Y-114280999D01*
X113921500Y-114280999D01*
X113921500Y-114153710D01*
X113921598Y-114153387D01*
X113924000Y-114129001D01*
X113924000Y-113254000D01*
X114440847Y-113254000D01*
X114450999Y-113255000D01*
G37*
G36*
X116326000Y-122106000D02*
G01*
X115424000Y-122106000D01*
X115424000Y-121204000D01*
X116326000Y-121204000D01*
X116326000Y-122106000D01*
G37*
G36*
X122326000Y-122106000D02*
G01*
X121424000Y-122106000D01*
X121424000Y-121204000D01*
X122326000Y-121204000D01*
X122326000Y-122106000D01*
G37*
G36*
X124326000Y-122106000D02*
G01*
X123424000Y-122106000D01*
X123424000Y-121204000D01*
X124326000Y-121204000D01*
X124326000Y-122106000D01*
G37*
G36*
X126326000Y-122106000D02*
G01*
X125424000Y-122106000D01*
X125424000Y-121204000D01*
X126326000Y-121204000D01*
X126326000Y-122106000D01*
G37*
G36*
X128326000Y-122106000D02*
G01*
X127424000Y-122106000D01*
X127424000Y-121204000D01*
X128326000Y-121204000D01*
X128326000Y-122106000D01*
G37*
G36*
X118326000Y-122106000D02*
G01*
X117424000Y-122106000D01*
X117424000Y-121204000D01*
X118326000Y-121204000D01*
X118326000Y-122106000D01*
G37*
G36*
X120326000Y-122106000D02*
G01*
X119424000Y-122106000D01*
X119424000Y-121204000D01*
X120326000Y-121204000D01*
X120326000Y-122106000D01*
G37*
G36*
X128326000Y-120506000D02*
G01*
X127424000Y-120506000D01*
X127424000Y-119604000D01*
X128326000Y-119604000D01*
X128326000Y-120506000D01*
G37*
G36*
X122326000Y-120506000D02*
G01*
X121424000Y-120506000D01*
X121424000Y-119604000D01*
X122326000Y-119604000D01*
X122326000Y-120506000D01*
G37*
G36*
X120326000Y-120506000D02*
G01*
X119424000Y-120506000D01*
X119424000Y-119604000D01*
X120326000Y-119604000D01*
X120326000Y-120506000D01*
G37*
G36*
X118326000Y-120506000D02*
G01*
X117424000Y-120506000D01*
X117424000Y-119604000D01*
X118326000Y-119604000D01*
X118326000Y-120506000D01*
G37*
G36*
X124326000Y-120506000D02*
G01*
X123424000Y-120506000D01*
X123424000Y-119604000D01*
X124326000Y-119604000D01*
X124326000Y-120506000D01*
G37*
G36*
X126326000Y-120506000D02*
G01*
X125424000Y-120506000D01*
X125424000Y-119604000D01*
X126326000Y-119604000D01*
X126326000Y-120506000D01*
G37*
G36*
X116326000Y-120506000D02*
G01*
X115424000Y-120506000D01*
X115424000Y-119604000D01*
X116326000Y-119604000D01*
X116326000Y-120506000D01*
G37*
G36*
X122326000Y-118906000D02*
G01*
X121424000Y-118906000D01*
X121424000Y-118004000D01*
X122326000Y-118004000D01*
X122326000Y-118906000D01*
G37*
G36*
X118326000Y-118906000D02*
G01*
X117424000Y-118906000D01*
X117424000Y-118004000D01*
X118326000Y-118004000D01*
X118326000Y-118906000D01*
G37*
G36*
X126326000Y-118906000D02*
G01*
X125424000Y-118906000D01*
X125424000Y-118004000D01*
X126326000Y-118004000D01*
X126326000Y-118906000D01*
G37*
G36*
X120326000Y-118906000D02*
G01*
X119424000Y-118906000D01*
X119424000Y-118004000D01*
X120326000Y-118004000D01*
X120326000Y-118906000D01*
G37*
G36*
X128326000Y-118906000D02*
G01*
X127424000Y-118906000D01*
X127424000Y-118004000D01*
X128326000Y-118004000D01*
X128326000Y-118906000D01*
G37*
G36*
X116326000Y-118906000D02*
G01*
X115424000Y-118906000D01*
X115424000Y-118004000D01*
X116326000Y-118004000D01*
X116326000Y-118906000D01*
G37*
G36*
X124326000Y-118906000D02*
G01*
X123424000Y-118906000D01*
X123424000Y-118004000D01*
X124326000Y-118004000D01*
X124326000Y-118906000D01*
G37*
G36*
X120326000Y-117306000D02*
G01*
X119424000Y-117306000D01*
X119424000Y-116404000D01*
X120326000Y-116404000D01*
X120326000Y-117306000D01*
G37*
G36*
X116326000Y-117306000D02*
G01*
X115424000Y-117306000D01*
X115424000Y-116404000D01*
X116326000Y-116404000D01*
X116326000Y-117306000D01*
G37*
G36*
X128326000Y-117306000D02*
G01*
X127424000Y-117306000D01*
X127424000Y-116404000D01*
X128326000Y-116404000D01*
X128326000Y-117306000D01*
G37*
G36*
X118326000Y-117306000D02*
G01*
X117424000Y-117306000D01*
X117424000Y-116404000D01*
X118326000Y-116404000D01*
X118326000Y-117306000D01*
G37*
G36*
X124326000Y-117306000D02*
G01*
X123424000Y-117306000D01*
X123424000Y-116404000D01*
X124326000Y-116404000D01*
X124326000Y-117306000D01*
G37*
G36*
X126326000Y-117306000D02*
G01*
X125424000Y-117306000D01*
X125424000Y-116404000D01*
X126326000Y-116404000D01*
X126326000Y-117306000D01*
G37*
G36*
X122326000Y-117306000D02*
G01*
X121424000Y-117306000D01*
X121424000Y-116404000D01*
X122326000Y-116404000D01*
X122326000Y-117306000D01*
G37*
G36*
X122326000Y-115706000D02*
G01*
X121424000Y-115706000D01*
X121424000Y-114804000D01*
X122326000Y-114804000D01*
X122326000Y-115706000D01*
G37*
G36*
X128326000Y-115706000D02*
G01*
X127424000Y-115706000D01*
X127424000Y-114804000D01*
X128326000Y-114804000D01*
X128326000Y-115706000D01*
G37*
G36*
X118326000Y-115706000D02*
G01*
X117424000Y-115706000D01*
X117424000Y-114804000D01*
X118326000Y-114804000D01*
X118326000Y-115706000D01*
G37*
G36*
X116326000Y-115706000D02*
G01*
X115424000Y-115706000D01*
X115424000Y-114804000D01*
X116326000Y-114804000D01*
X116326000Y-115706000D01*
G37*
G36*
X126326000Y-115706000D02*
G01*
X125424000Y-115706000D01*
X125424000Y-114804000D01*
X126326000Y-114804000D01*
X126326000Y-115706000D01*
G37*
G36*
X120326000Y-115706000D02*
G01*
X119424000Y-115706000D01*
X119424000Y-114804000D01*
X120326000Y-114804000D01*
X120326000Y-115706000D01*
G37*
G36*
X124326000Y-115706000D02*
G01*
X123424000Y-115706000D01*
X123424000Y-114804000D01*
X124326000Y-114804000D01*
X124326000Y-115706000D01*
G37*
G36*
X140356000Y-122996000D02*
G01*
X136454000Y-122996000D01*
X136454000Y-120894000D01*
X140356000Y-120894000D01*
X140356000Y-122996000D01*
G37*
G36*
X155941938Y-121361716D02*
G01*
X155962557Y-121367971D01*
X155981553Y-121378124D01*
X155998208Y-121391792D01*
X156011876Y-121408447D01*
X156022029Y-121427443D01*
X156028284Y-121448062D01*
X156031000Y-121475640D01*
X156031000Y-121984360D01*
X156028284Y-122011938D01*
X156022029Y-122032557D01*
X156011876Y-122051553D01*
X155998208Y-122068208D01*
X155981553Y-122081876D01*
X155962557Y-122092029D01*
X155941938Y-122098284D01*
X155914360Y-122101000D01*
X155455640Y-122101000D01*
X155428062Y-122098284D01*
X155407443Y-122092029D01*
X155388447Y-122081876D01*
X155371792Y-122068208D01*
X155358124Y-122051553D01*
X155347971Y-122032557D01*
X155341716Y-122011938D01*
X155339000Y-121984360D01*
X155339000Y-121475640D01*
X155341716Y-121448062D01*
X155347971Y-121427443D01*
X155358124Y-121408447D01*
X155371792Y-121391792D01*
X155388447Y-121378124D01*
X155407443Y-121367971D01*
X155428062Y-121361716D01*
X155455640Y-121359000D01*
X155914360Y-121359000D01*
X155941938Y-121361716D01*
G37*
G36*
X154971938Y-121361716D02*
G01*
X154992557Y-121367971D01*
X155011553Y-121378124D01*
X155028208Y-121391792D01*
X155041876Y-121408447D01*
X155052029Y-121427443D01*
X155058284Y-121448062D01*
X155061000Y-121475640D01*
X155061000Y-121984360D01*
X155058284Y-122011938D01*
X155052029Y-122032557D01*
X155041876Y-122051553D01*
X155028208Y-122068208D01*
X155011553Y-122081876D01*
X154992557Y-122092029D01*
X154971938Y-122098284D01*
X154944360Y-122101000D01*
X154485640Y-122101000D01*
X154458062Y-122098284D01*
X154437443Y-122092029D01*
X154418447Y-122081876D01*
X154401792Y-122068208D01*
X154388124Y-122051553D01*
X154377971Y-122032557D01*
X154371716Y-122011938D01*
X154369000Y-121984360D01*
X154369000Y-121475640D01*
X154371716Y-121448062D01*
X154377971Y-121427443D01*
X154388124Y-121408447D01*
X154401792Y-121391792D01*
X154418447Y-121378124D01*
X154437443Y-121367971D01*
X154458062Y-121361716D01*
X154485640Y-121359000D01*
X154944360Y-121359000D01*
X154971938Y-121361716D01*
G37*
G36*
X149371938Y-121256716D02*
G01*
X149392557Y-121262971D01*
X149411553Y-121273124D01*
X149428208Y-121286792D01*
X149441876Y-121303447D01*
X149452029Y-121322443D01*
X149458284Y-121343062D01*
X149461000Y-121370640D01*
X149461000Y-121879360D01*
X149458284Y-121906938D01*
X149452029Y-121927557D01*
X149441876Y-121946553D01*
X149428208Y-121963208D01*
X149411553Y-121976876D01*
X149392557Y-121987029D01*
X149371938Y-121993284D01*
X149344360Y-121996000D01*
X148885640Y-121996000D01*
X148858062Y-121993284D01*
X148837443Y-121987029D01*
X148818447Y-121976876D01*
X148801792Y-121963208D01*
X148788124Y-121946553D01*
X148777971Y-121927557D01*
X148771716Y-121906938D01*
X148769000Y-121879360D01*
X148769000Y-121370640D01*
X148771716Y-121343062D01*
X148777971Y-121322443D01*
X148788124Y-121303447D01*
X148801792Y-121286792D01*
X148818447Y-121273124D01*
X148837443Y-121262971D01*
X148858062Y-121256716D01*
X148885640Y-121254000D01*
X149344360Y-121254000D01*
X149371938Y-121256716D01*
G37*
G36*
X150341938Y-121256716D02*
G01*
X150362557Y-121262971D01*
X150381553Y-121273124D01*
X150398208Y-121286792D01*
X150411876Y-121303447D01*
X150422029Y-121322443D01*
X150428284Y-121343062D01*
X150431000Y-121370640D01*
X150431000Y-121879360D01*
X150428284Y-121906938D01*
X150422029Y-121927557D01*
X150411876Y-121946553D01*
X150398208Y-121963208D01*
X150381553Y-121976876D01*
X150362557Y-121987029D01*
X150341938Y-121993284D01*
X150314360Y-121996000D01*
X149855640Y-121996000D01*
X149828062Y-121993284D01*
X149807443Y-121987029D01*
X149788447Y-121976876D01*
X149771792Y-121963208D01*
X149758124Y-121946553D01*
X149747971Y-121927557D01*
X149741716Y-121906938D01*
X149739000Y-121879360D01*
X149739000Y-121370640D01*
X149741716Y-121343062D01*
X149747971Y-121322443D01*
X149758124Y-121303447D01*
X149771792Y-121286792D01*
X149788447Y-121273124D01*
X149807443Y-121262971D01*
X149828062Y-121256716D01*
X149855640Y-121254000D01*
X150314360Y-121254000D01*
X150341938Y-121256716D01*
G37*
G36*
X153891000Y-121861000D02*
G01*
X152889000Y-121861000D01*
X152889000Y-120959000D01*
X153891000Y-120959000D01*
X153891000Y-121861000D01*
G37*
G36*
X134119699Y-121835900D02*
G01*
X131960299Y-121835900D01*
X131960299Y-120794100D01*
X134119699Y-120794100D01*
X134119699Y-121835900D01*
G37*
G36*
X148291000Y-121756000D02*
G01*
X147289000Y-121756000D01*
X147289000Y-120854000D01*
X148291000Y-120854000D01*
X148291000Y-121756000D01*
G37*
G36*
X151891000Y-120911000D02*
G01*
X150889000Y-120911000D01*
X150889000Y-120009000D01*
X151891000Y-120009000D01*
X151891000Y-120911000D01*
G37*
G36*
X155941938Y-120091716D02*
G01*
X155962557Y-120097971D01*
X155981553Y-120108124D01*
X155998208Y-120121792D01*
X156011876Y-120138447D01*
X156022029Y-120157443D01*
X156028284Y-120178062D01*
X156031000Y-120205640D01*
X156031000Y-120714360D01*
X156028284Y-120741938D01*
X156022029Y-120762557D01*
X156011876Y-120781553D01*
X155998208Y-120798208D01*
X155981553Y-120811876D01*
X155962557Y-120822029D01*
X155941938Y-120828284D01*
X155914360Y-120831000D01*
X155455640Y-120831000D01*
X155428062Y-120828284D01*
X155407443Y-120822029D01*
X155388447Y-120811876D01*
X155371792Y-120798208D01*
X155358124Y-120781553D01*
X155347971Y-120762557D01*
X155341716Y-120741938D01*
X155339000Y-120714360D01*
X155339000Y-120205640D01*
X155341716Y-120178062D01*
X155347971Y-120157443D01*
X155358124Y-120138447D01*
X155371792Y-120121792D01*
X155388447Y-120108124D01*
X155407443Y-120097971D01*
X155428062Y-120091716D01*
X155455640Y-120089000D01*
X155914360Y-120089000D01*
X155941938Y-120091716D01*
G37*
G36*
X154971938Y-120091716D02*
G01*
X154992557Y-120097971D01*
X155011553Y-120108124D01*
X155028208Y-120121792D01*
X155041876Y-120138447D01*
X155052029Y-120157443D01*
X155058284Y-120178062D01*
X155061000Y-120205640D01*
X155061000Y-120714360D01*
X155058284Y-120741938D01*
X155052029Y-120762557D01*
X155041876Y-120781553D01*
X155028208Y-120798208D01*
X155011553Y-120811876D01*
X154992557Y-120822029D01*
X154971938Y-120828284D01*
X154944360Y-120831000D01*
X154485640Y-120831000D01*
X154458062Y-120828284D01*
X154437443Y-120822029D01*
X154418447Y-120811876D01*
X154401792Y-120798208D01*
X154388124Y-120781553D01*
X154377971Y-120762557D01*
X154371716Y-120741938D01*
X154369000Y-120714360D01*
X154369000Y-120205640D01*
X154371716Y-120178062D01*
X154377971Y-120157443D01*
X154388124Y-120138447D01*
X154401792Y-120121792D01*
X154418447Y-120108124D01*
X154437443Y-120097971D01*
X154458062Y-120091716D01*
X154485640Y-120089000D01*
X154944360Y-120089000D01*
X154971938Y-120091716D01*
G37*
G36*
X146291000Y-120806000D02*
G01*
X145289000Y-120806000D01*
X145289000Y-119904000D01*
X146291000Y-119904000D01*
X146291000Y-120806000D01*
G37*
G36*
X150341938Y-119986716D02*
G01*
X150362557Y-119992971D01*
X150381553Y-120003124D01*
X150398208Y-120016792D01*
X150411876Y-120033447D01*
X150422029Y-120052443D01*
X150428284Y-120073062D01*
X150431000Y-120100640D01*
X150431000Y-120609360D01*
X150428284Y-120636938D01*
X150422029Y-120657557D01*
X150411876Y-120676553D01*
X150398208Y-120693208D01*
X150381553Y-120706876D01*
X150362557Y-120717029D01*
X150341938Y-120723284D01*
X150314360Y-120726000D01*
X149855640Y-120726000D01*
X149828062Y-120723284D01*
X149807443Y-120717029D01*
X149788447Y-120706876D01*
X149771792Y-120693208D01*
X149758124Y-120676553D01*
X149747971Y-120657557D01*
X149741716Y-120636938D01*
X149739000Y-120609360D01*
X149739000Y-120100640D01*
X149741716Y-120073062D01*
X149747971Y-120052443D01*
X149758124Y-120033447D01*
X149771792Y-120016792D01*
X149788447Y-120003124D01*
X149807443Y-119992971D01*
X149828062Y-119986716D01*
X149855640Y-119984000D01*
X150314360Y-119984000D01*
X150341938Y-119986716D01*
G37*
G36*
X149371938Y-119986716D02*
G01*
X149392557Y-119992971D01*
X149411553Y-120003124D01*
X149428208Y-120016792D01*
X149441876Y-120033447D01*
X149452029Y-120052443D01*
X149458284Y-120073062D01*
X149461000Y-120100640D01*
X149461000Y-120609360D01*
X149458284Y-120636938D01*
X149452029Y-120657557D01*
X149441876Y-120676553D01*
X149428208Y-120693208D01*
X149411553Y-120706876D01*
X149392557Y-120717029D01*
X149371938Y-120723284D01*
X149344360Y-120726000D01*
X148885640Y-120726000D01*
X148858062Y-120723284D01*
X148837443Y-120717029D01*
X148818447Y-120706876D01*
X148801792Y-120693208D01*
X148788124Y-120676553D01*
X148777971Y-120657557D01*
X148771716Y-120636938D01*
X148769000Y-120609360D01*
X148769000Y-120100640D01*
X148771716Y-120073062D01*
X148777971Y-120052443D01*
X148788124Y-120033447D01*
X148801792Y-120016792D01*
X148818447Y-120003124D01*
X148837443Y-119992971D01*
X148858062Y-119986716D01*
X148885640Y-119984000D01*
X149344360Y-119984000D01*
X149371938Y-119986716D01*
G37*
G36*
X143606938Y-119841716D02*
G01*
X143627557Y-119847971D01*
X143646553Y-119858124D01*
X143663208Y-119871792D01*
X143676876Y-119888447D01*
X143687029Y-119907443D01*
X143693284Y-119928062D01*
X143696000Y-119955640D01*
X143696000Y-120414360D01*
X143693284Y-120441938D01*
X143687029Y-120462557D01*
X143676876Y-120481553D01*
X143663208Y-120498208D01*
X143646553Y-120511876D01*
X143627557Y-120522029D01*
X143606938Y-120528284D01*
X143579360Y-120531000D01*
X143070640Y-120531000D01*
X143043062Y-120528284D01*
X143022443Y-120522029D01*
X143003447Y-120511876D01*
X142986792Y-120498208D01*
X142973124Y-120481553D01*
X142962971Y-120462557D01*
X142956716Y-120441938D01*
X142954000Y-120414360D01*
X142954000Y-119955640D01*
X142956716Y-119928062D01*
X142962971Y-119907443D01*
X142973124Y-119888447D01*
X142986792Y-119871792D01*
X143003447Y-119858124D01*
X143022443Y-119847971D01*
X143043062Y-119841716D01*
X143070640Y-119839000D01*
X143579360Y-119839000D01*
X143606938Y-119841716D01*
G37*
G36*
X144606938Y-119841716D02*
G01*
X144627557Y-119847971D01*
X144646553Y-119858124D01*
X144663208Y-119871792D01*
X144676876Y-119888447D01*
X144687029Y-119907443D01*
X144693284Y-119928062D01*
X144696000Y-119955640D01*
X144696000Y-120414360D01*
X144693284Y-120441938D01*
X144687029Y-120462557D01*
X144676876Y-120481553D01*
X144663208Y-120498208D01*
X144646553Y-120511876D01*
X144627557Y-120522029D01*
X144606938Y-120528284D01*
X144579360Y-120531000D01*
X144070640Y-120531000D01*
X144043062Y-120528284D01*
X144022443Y-120522029D01*
X144003447Y-120511876D01*
X143986792Y-120498208D01*
X143973124Y-120481553D01*
X143962971Y-120462557D01*
X143956716Y-120441938D01*
X143954000Y-120414360D01*
X143954000Y-119955640D01*
X143956716Y-119928062D01*
X143962971Y-119907443D01*
X143973124Y-119888447D01*
X143986792Y-119871792D01*
X144003447Y-119858124D01*
X144022443Y-119847971D01*
X144043062Y-119841716D01*
X144070640Y-119839000D01*
X144579360Y-119839000D01*
X144606938Y-119841716D01*
G37*
G36*
X141756553Y-118402934D02*
G01*
X141778164Y-118414485D01*
X141801613Y-118421598D01*
X141825999Y-118424000D01*
X142226000Y-118424000D01*
X142226000Y-120376000D01*
X141825999Y-120376000D01*
X141801613Y-120378402D01*
X141778164Y-120385515D01*
X141756553Y-120397066D01*
X141751759Y-120401000D01*
X140698241Y-120401000D01*
X140693447Y-120397066D01*
X140671836Y-120385515D01*
X140648387Y-120378402D01*
X140624001Y-120376000D01*
X140224000Y-120376000D01*
X140224000Y-119000999D01*
X140701000Y-119000999D01*
X140701000Y-119799001D01*
X140703402Y-119823387D01*
X140710515Y-119846836D01*
X140722066Y-119868447D01*
X140737611Y-119887389D01*
X140756553Y-119902934D01*
X140778164Y-119914485D01*
X140801613Y-119921598D01*
X140825999Y-119924000D01*
X141624001Y-119924000D01*
X141648387Y-119921598D01*
X141671836Y-119914485D01*
X141693447Y-119902934D01*
X141712389Y-119887389D01*
X141727934Y-119868447D01*
X141739485Y-119846836D01*
X141746598Y-119823387D01*
X141749000Y-119799001D01*
X141749000Y-119000999D01*
X141746598Y-118976613D01*
X141739485Y-118953164D01*
X141727934Y-118931553D01*
X141712389Y-118912611D01*
X141693447Y-118897066D01*
X141671836Y-118885515D01*
X141648387Y-118878402D01*
X141624001Y-118876000D01*
X140825999Y-118876000D01*
X140801613Y-118878402D01*
X140778164Y-118885515D01*
X140756553Y-118897066D01*
X140737611Y-118912611D01*
X140722066Y-118931553D01*
X140710515Y-118953164D01*
X140703402Y-118976613D01*
X140701000Y-119000999D01*
X140224000Y-119000999D01*
X140224000Y-118424000D01*
X140624001Y-118424000D01*
X140648387Y-118421598D01*
X140671836Y-118414485D01*
X140693447Y-118402934D01*
X140698241Y-118399000D01*
X141751759Y-118399000D01*
X141756553Y-118402934D01*
G37*
G36*
X135040500Y-120305100D02*
G01*
X134049500Y-120305100D01*
X134049500Y-119364900D01*
X135040500Y-119364900D01*
X135040500Y-120305100D01*
G37*
G36*
X153891000Y-119961000D02*
G01*
X152889000Y-119961000D01*
X152889000Y-119059000D01*
X153891000Y-119059000D01*
X153891000Y-119961000D01*
G37*
G36*
X148291000Y-119856000D02*
G01*
X147289000Y-119856000D01*
X147289000Y-118954000D01*
X148291000Y-118954000D01*
X148291000Y-119856000D01*
G37*
G36*
X144606938Y-118871716D02*
G01*
X144627557Y-118877971D01*
X144646553Y-118888124D01*
X144663208Y-118901792D01*
X144676876Y-118918447D01*
X144687029Y-118937443D01*
X144693284Y-118958062D01*
X144696000Y-118985640D01*
X144696000Y-119444360D01*
X144693284Y-119471938D01*
X144687029Y-119492557D01*
X144676876Y-119511553D01*
X144663208Y-119528208D01*
X144646553Y-119541876D01*
X144627557Y-119552029D01*
X144606938Y-119558284D01*
X144579360Y-119561000D01*
X144070640Y-119561000D01*
X144043062Y-119558284D01*
X144022443Y-119552029D01*
X144003447Y-119541876D01*
X143986792Y-119528208D01*
X143973124Y-119511553D01*
X143962971Y-119492557D01*
X143956716Y-119471938D01*
X143954000Y-119444360D01*
X143954000Y-118985640D01*
X143956716Y-118958062D01*
X143962971Y-118937443D01*
X143973124Y-118918447D01*
X143986792Y-118901792D01*
X144003447Y-118888124D01*
X144022443Y-118877971D01*
X144043062Y-118871716D01*
X144070640Y-118869000D01*
X144579360Y-118869000D01*
X144606938Y-118871716D01*
G37*
G36*
X143606938Y-118871716D02*
G01*
X143627557Y-118877971D01*
X143646553Y-118888124D01*
X143663208Y-118901792D01*
X143676876Y-118918447D01*
X143687029Y-118937443D01*
X143693284Y-118958062D01*
X143696000Y-118985640D01*
X143696000Y-119444360D01*
X143693284Y-119471938D01*
X143687029Y-119492557D01*
X143676876Y-119511553D01*
X143663208Y-119528208D01*
X143646553Y-119541876D01*
X143627557Y-119552029D01*
X143606938Y-119558284D01*
X143579360Y-119561000D01*
X143070640Y-119561000D01*
X143043062Y-119558284D01*
X143022443Y-119552029D01*
X143003447Y-119541876D01*
X142986792Y-119528208D01*
X142973124Y-119511553D01*
X142962971Y-119492557D01*
X142956716Y-119471938D01*
X142954000Y-119444360D01*
X142954000Y-118985640D01*
X142956716Y-118958062D01*
X142962971Y-118937443D01*
X142973124Y-118918447D01*
X142986792Y-118901792D01*
X143003447Y-118888124D01*
X143022443Y-118877971D01*
X143043062Y-118871716D01*
X143070640Y-118869000D01*
X143579360Y-118869000D01*
X143606938Y-118871716D01*
G37*
G36*
X113131938Y-118581716D02*
G01*
X113152557Y-118587971D01*
X113171553Y-118598124D01*
X113188208Y-118611792D01*
X113201876Y-118628447D01*
X113212029Y-118647443D01*
X113218284Y-118668062D01*
X113221000Y-118695640D01*
X113221000Y-119154360D01*
X113218284Y-119181938D01*
X113212029Y-119202557D01*
X113201876Y-119221553D01*
X113188208Y-119238208D01*
X113171553Y-119251876D01*
X113152557Y-119262029D01*
X113131938Y-119268284D01*
X113104360Y-119271000D01*
X112595640Y-119271000D01*
X112568062Y-119268284D01*
X112547443Y-119262029D01*
X112528447Y-119251876D01*
X112511792Y-119238208D01*
X112498124Y-119221553D01*
X112487971Y-119202557D01*
X112481716Y-119181938D01*
X112479000Y-119154360D01*
X112479000Y-118695640D01*
X112481716Y-118668062D01*
X112487971Y-118647443D01*
X112498124Y-118628447D01*
X112511792Y-118611792D01*
X112528447Y-118598124D01*
X112547443Y-118587971D01*
X112568062Y-118581716D01*
X112595640Y-118579000D01*
X113104360Y-118579000D01*
X113131938Y-118581716D01*
G37*
G36*
X137231938Y-118516716D02*
G01*
X137252557Y-118522971D01*
X137271553Y-118533124D01*
X137288208Y-118546792D01*
X137301876Y-118563447D01*
X137312029Y-118582443D01*
X137318284Y-118603062D01*
X137321000Y-118630640D01*
X137321000Y-119089360D01*
X137318284Y-119116938D01*
X137312029Y-119137557D01*
X137301876Y-119156553D01*
X137288208Y-119173208D01*
X137271553Y-119186876D01*
X137252557Y-119197029D01*
X137231938Y-119203284D01*
X137204360Y-119206000D01*
X136695640Y-119206000D01*
X136668062Y-119203284D01*
X136647443Y-119197029D01*
X136628447Y-119186876D01*
X136611792Y-119173208D01*
X136598124Y-119156553D01*
X136587971Y-119137557D01*
X136581716Y-119116938D01*
X136579000Y-119089360D01*
X136579000Y-118630640D01*
X136581716Y-118603062D01*
X136587971Y-118582443D01*
X136598124Y-118563447D01*
X136611792Y-118546792D01*
X136628447Y-118533124D01*
X136647443Y-118522971D01*
X136668062Y-118516716D01*
X136695640Y-118514000D01*
X137204360Y-118514000D01*
X137231938Y-118516716D01*
G37*
G36*
X134119699Y-118875900D02*
G01*
X131960299Y-118875900D01*
X131960299Y-117834100D01*
X134119699Y-117834100D01*
X134119699Y-118875900D01*
G37*
G36*
X144566938Y-117831716D02*
G01*
X144587557Y-117837971D01*
X144606553Y-117848124D01*
X144623208Y-117861792D01*
X144636876Y-117878447D01*
X144647029Y-117897443D01*
X144653284Y-117918062D01*
X144656000Y-117945640D01*
X144656000Y-118454360D01*
X144653284Y-118481938D01*
X144647029Y-118502557D01*
X144636876Y-118521553D01*
X144623208Y-118538208D01*
X144606553Y-118551876D01*
X144587557Y-118562029D01*
X144566938Y-118568284D01*
X144539360Y-118571000D01*
X144080640Y-118571000D01*
X144053062Y-118568284D01*
X144032443Y-118562029D01*
X144013447Y-118551876D01*
X143996792Y-118538208D01*
X143983124Y-118521553D01*
X143972971Y-118502557D01*
X143966716Y-118481938D01*
X143964000Y-118454360D01*
X143964000Y-117945640D01*
X143966716Y-117918062D01*
X143972971Y-117897443D01*
X143983124Y-117878447D01*
X143996792Y-117861792D01*
X144013447Y-117848124D01*
X144032443Y-117837971D01*
X144053062Y-117831716D01*
X144080640Y-117829000D01*
X144539360Y-117829000D01*
X144566938Y-117831716D01*
G37*
G36*
X143596938Y-117831716D02*
G01*
X143617557Y-117837971D01*
X143636553Y-117848124D01*
X143653208Y-117861792D01*
X143666876Y-117878447D01*
X143677029Y-117897443D01*
X143683284Y-117918062D01*
X143686000Y-117945640D01*
X143686000Y-118454360D01*
X143683284Y-118481938D01*
X143677029Y-118502557D01*
X143666876Y-118521553D01*
X143653208Y-118538208D01*
X143636553Y-118551876D01*
X143617557Y-118562029D01*
X143596938Y-118568284D01*
X143569360Y-118571000D01*
X143110640Y-118571000D01*
X143083062Y-118568284D01*
X143062443Y-118562029D01*
X143043447Y-118551876D01*
X143026792Y-118538208D01*
X143013124Y-118521553D01*
X143002971Y-118502557D01*
X142996716Y-118481938D01*
X142994000Y-118454360D01*
X142994000Y-117945640D01*
X142996716Y-117918062D01*
X143002971Y-117897443D01*
X143013124Y-117878447D01*
X143026792Y-117861792D01*
X143043447Y-117848124D01*
X143062443Y-117837971D01*
X143083062Y-117831716D01*
X143110640Y-117829000D01*
X143569360Y-117829000D01*
X143596938Y-117831716D01*
G37*
G36*
X113131938Y-117611716D02*
G01*
X113152557Y-117617971D01*
X113171553Y-117628124D01*
X113188208Y-117641792D01*
X113201876Y-117658447D01*
X113212029Y-117677443D01*
X113218284Y-117698062D01*
X113221000Y-117725640D01*
X113221000Y-118184360D01*
X113218284Y-118211938D01*
X113212029Y-118232557D01*
X113201876Y-118251553D01*
X113188208Y-118268208D01*
X113171553Y-118281876D01*
X113152557Y-118292029D01*
X113131938Y-118298284D01*
X113104360Y-118301000D01*
X112595640Y-118301000D01*
X112568062Y-118298284D01*
X112547443Y-118292029D01*
X112528447Y-118281876D01*
X112511792Y-118268208D01*
X112498124Y-118251553D01*
X112487971Y-118232557D01*
X112481716Y-118211938D01*
X112479000Y-118184360D01*
X112479000Y-117725640D01*
X112481716Y-117698062D01*
X112487971Y-117677443D01*
X112498124Y-117658447D01*
X112511792Y-117641792D01*
X112528447Y-117628124D01*
X112547443Y-117617971D01*
X112568062Y-117611716D01*
X112595640Y-117609000D01*
X113104360Y-117609000D01*
X113131938Y-117611716D01*
G37*
G36*
X137231938Y-117546716D02*
G01*
X137252557Y-117552971D01*
X137271553Y-117563124D01*
X137288208Y-117576792D01*
X137301876Y-117593447D01*
X137312029Y-117612443D01*
X137318284Y-117633062D01*
X137321000Y-117660640D01*
X137321000Y-118119360D01*
X137318284Y-118146938D01*
X137312029Y-118167557D01*
X137301876Y-118186553D01*
X137288208Y-118203208D01*
X137271553Y-118216876D01*
X137252557Y-118227029D01*
X137231938Y-118233284D01*
X137204360Y-118236000D01*
X136695640Y-118236000D01*
X136668062Y-118233284D01*
X136647443Y-118227029D01*
X136628447Y-118216876D01*
X136611792Y-118203208D01*
X136598124Y-118186553D01*
X136587971Y-118167557D01*
X136581716Y-118146938D01*
X136579000Y-118119360D01*
X136579000Y-117660640D01*
X136581716Y-117633062D01*
X136587971Y-117612443D01*
X136598124Y-117593447D01*
X136611792Y-117576792D01*
X136628447Y-117563124D01*
X136647443Y-117552971D01*
X136668062Y-117546716D01*
X136695640Y-117544000D01*
X137204360Y-117544000D01*
X137231938Y-117546716D01*
G37*
G36*
X148656938Y-117466716D02*
G01*
X148677557Y-117472971D01*
X148696553Y-117483124D01*
X148713208Y-117496792D01*
X148726876Y-117513447D01*
X148737029Y-117532443D01*
X148743284Y-117553062D01*
X148746000Y-117580640D01*
X148746000Y-118039360D01*
X148743284Y-118066938D01*
X148737029Y-118087557D01*
X148726876Y-118106553D01*
X148713208Y-118123208D01*
X148696553Y-118136876D01*
X148677557Y-118147029D01*
X148656938Y-118153284D01*
X148629360Y-118156000D01*
X148120640Y-118156000D01*
X148093062Y-118153284D01*
X148072443Y-118147029D01*
X148053447Y-118136876D01*
X148036792Y-118123208D01*
X148023124Y-118106553D01*
X148012971Y-118087557D01*
X148006716Y-118066938D01*
X148004000Y-118039360D01*
X148004000Y-117580640D01*
X148006716Y-117553062D01*
X148012971Y-117532443D01*
X148023124Y-117513447D01*
X148036792Y-117496792D01*
X148053447Y-117483124D01*
X148072443Y-117472971D01*
X148093062Y-117466716D01*
X148120640Y-117464000D01*
X148629360Y-117464000D01*
X148656938Y-117466716D01*
G37*
G36*
X146556938Y-117441716D02*
G01*
X146577557Y-117447971D01*
X146596553Y-117458124D01*
X146613208Y-117471792D01*
X146626876Y-117488447D01*
X146637029Y-117507443D01*
X146643284Y-117528062D01*
X146646000Y-117555640D01*
X146646000Y-118014360D01*
X146643284Y-118041938D01*
X146637029Y-118062557D01*
X146626876Y-118081553D01*
X146613208Y-118098208D01*
X146596553Y-118111876D01*
X146577557Y-118122029D01*
X146556938Y-118128284D01*
X146529360Y-118131000D01*
X146020640Y-118131000D01*
X145993062Y-118128284D01*
X145972443Y-118122029D01*
X145953447Y-118111876D01*
X145936792Y-118098208D01*
X145923124Y-118081553D01*
X145912971Y-118062557D01*
X145906716Y-118041938D01*
X145904000Y-118014360D01*
X145904000Y-117555640D01*
X145906716Y-117528062D01*
X145912971Y-117507443D01*
X145923124Y-117488447D01*
X145936792Y-117471792D01*
X145953447Y-117458124D01*
X145972443Y-117447971D01*
X145993062Y-117441716D01*
X146020640Y-117439000D01*
X146529360Y-117439000D01*
X146556938Y-117441716D01*
G37*
G36*
X147606938Y-117441716D02*
G01*
X147627557Y-117447971D01*
X147646553Y-117458124D01*
X147663208Y-117471792D01*
X147676876Y-117488447D01*
X147687029Y-117507443D01*
X147693284Y-117528062D01*
X147696000Y-117555640D01*
X147696000Y-118014360D01*
X147693284Y-118041938D01*
X147687029Y-118062557D01*
X147676876Y-118081553D01*
X147663208Y-118098208D01*
X147646553Y-118111876D01*
X147627557Y-118122029D01*
X147606938Y-118128284D01*
X147579360Y-118131000D01*
X147070640Y-118131000D01*
X147043062Y-118128284D01*
X147022443Y-118122029D01*
X147003447Y-118111876D01*
X146986792Y-118098208D01*
X146973124Y-118081553D01*
X146962971Y-118062557D01*
X146956716Y-118041938D01*
X146954000Y-118014360D01*
X146954000Y-117555640D01*
X146956716Y-117528062D01*
X146962971Y-117507443D01*
X146973124Y-117488447D01*
X146986792Y-117471792D01*
X147003447Y-117458124D01*
X147022443Y-117447971D01*
X147043062Y-117441716D01*
X147070640Y-117439000D01*
X147579360Y-117439000D01*
X147606938Y-117441716D01*
G37*
G36*
X156261000Y-117683500D02*
G01*
X154559000Y-117683500D01*
X154559000Y-117081500D01*
X156261000Y-117081500D01*
X156261000Y-117683500D01*
G37*
G36*
X132231000Y-117366000D02*
G01*
X131629000Y-117366000D01*
X131629000Y-116684000D01*
X132231000Y-116684000D01*
X132231000Y-117366000D01*
G37*
G36*
X133383500Y-117328500D02*
G01*
X132531500Y-117328500D01*
X132531500Y-116426500D01*
X133383500Y-116426500D01*
X133383500Y-117328500D01*
G37*
G36*
X131328500Y-117328500D02*
G01*
X130476500Y-117328500D01*
X130476500Y-116426500D01*
X131328500Y-116426500D01*
X131328500Y-117328500D01*
G37*
G36*
X137256938Y-116541716D02*
G01*
X137277557Y-116547971D01*
X137296553Y-116558124D01*
X137313208Y-116571792D01*
X137326876Y-116588447D01*
X137337029Y-116607443D01*
X137343284Y-116628062D01*
X137346000Y-116655640D01*
X137346000Y-117114360D01*
X137343284Y-117141938D01*
X137337029Y-117162557D01*
X137326876Y-117181553D01*
X137313208Y-117198208D01*
X137296553Y-117211876D01*
X137277557Y-117222029D01*
X137256938Y-117228284D01*
X137229360Y-117231000D01*
X136720640Y-117231000D01*
X136693062Y-117228284D01*
X136672443Y-117222029D01*
X136653447Y-117211876D01*
X136636792Y-117198208D01*
X136623124Y-117181553D01*
X136612971Y-117162557D01*
X136606716Y-117141938D01*
X136604000Y-117114360D01*
X136604000Y-116655640D01*
X136606716Y-116628062D01*
X136612971Y-116607443D01*
X136623124Y-116588447D01*
X136636792Y-116571792D01*
X136653447Y-116558124D01*
X136672443Y-116547971D01*
X136693062Y-116541716D01*
X136720640Y-116539000D01*
X137229360Y-116539000D01*
X137256938Y-116541716D01*
G37*
G36*
X148656938Y-116496716D02*
G01*
X148677557Y-116502971D01*
X148696553Y-116513124D01*
X148713208Y-116526792D01*
X148726876Y-116543447D01*
X148737029Y-116562443D01*
X148743284Y-116583062D01*
X148746000Y-116610640D01*
X148746000Y-117069360D01*
X148743284Y-117096938D01*
X148737029Y-117117557D01*
X148726876Y-117136553D01*
X148713208Y-117153208D01*
X148696553Y-117166876D01*
X148677557Y-117177029D01*
X148656938Y-117183284D01*
X148629360Y-117186000D01*
X148120640Y-117186000D01*
X148093062Y-117183284D01*
X148072443Y-117177029D01*
X148053447Y-117166876D01*
X148036792Y-117153208D01*
X148023124Y-117136553D01*
X148012971Y-117117557D01*
X148006716Y-117096938D01*
X148004000Y-117069360D01*
X148004000Y-116610640D01*
X148006716Y-116583062D01*
X148012971Y-116562443D01*
X148023124Y-116543447D01*
X148036792Y-116526792D01*
X148053447Y-116513124D01*
X148072443Y-116502971D01*
X148093062Y-116496716D01*
X148120640Y-116494000D01*
X148629360Y-116494000D01*
X148656938Y-116496716D01*
G37*
G36*
X146556938Y-116471716D02*
G01*
X146577557Y-116477971D01*
X146596553Y-116488124D01*
X146613208Y-116501792D01*
X146626876Y-116518447D01*
X146637029Y-116537443D01*
X146643284Y-116558062D01*
X146646000Y-116585640D01*
X146646000Y-117044360D01*
X146643284Y-117071938D01*
X146637029Y-117092557D01*
X146626876Y-117111553D01*
X146613208Y-117128208D01*
X146596553Y-117141876D01*
X146577557Y-117152029D01*
X146556938Y-117158284D01*
X146529360Y-117161000D01*
X146020640Y-117161000D01*
X145993062Y-117158284D01*
X145972443Y-117152029D01*
X145953447Y-117141876D01*
X145936792Y-117128208D01*
X145923124Y-117111553D01*
X145912971Y-117092557D01*
X145906716Y-117071938D01*
X145904000Y-117044360D01*
X145904000Y-116585640D01*
X145906716Y-116558062D01*
X145912971Y-116537443D01*
X145923124Y-116518447D01*
X145936792Y-116501792D01*
X145953447Y-116488124D01*
X145972443Y-116477971D01*
X145993062Y-116471716D01*
X146020640Y-116469000D01*
X146529360Y-116469000D01*
X146556938Y-116471716D01*
G37*
G36*
X147606938Y-116471716D02*
G01*
X147627557Y-116477971D01*
X147646553Y-116488124D01*
X147663208Y-116501792D01*
X147676876Y-116518447D01*
X147687029Y-116537443D01*
X147693284Y-116558062D01*
X147696000Y-116585640D01*
X147696000Y-117044360D01*
X147693284Y-117071938D01*
X147687029Y-117092557D01*
X147676876Y-117111553D01*
X147663208Y-117128208D01*
X147646553Y-117141876D01*
X147627557Y-117152029D01*
X147606938Y-117158284D01*
X147579360Y-117161000D01*
X147070640Y-117161000D01*
X147043062Y-117158284D01*
X147022443Y-117152029D01*
X147003447Y-117141876D01*
X146986792Y-117128208D01*
X146973124Y-117111553D01*
X146962971Y-117092557D01*
X146956716Y-117071938D01*
X146954000Y-117044360D01*
X146954000Y-116585640D01*
X146956716Y-116558062D01*
X146962971Y-116537443D01*
X146973124Y-116518447D01*
X146986792Y-116501792D01*
X147003447Y-116488124D01*
X147022443Y-116477971D01*
X147043062Y-116471716D01*
X147070640Y-116469000D01*
X147579360Y-116469000D01*
X147606938Y-116471716D01*
G37*
G36*
X140246938Y-115606716D02*
G01*
X140267557Y-115612971D01*
X140286553Y-115623124D01*
X140303208Y-115636792D01*
X140316876Y-115653447D01*
X140327029Y-115672443D01*
X140333284Y-115693062D01*
X140336000Y-115720640D01*
X140336000Y-116229360D01*
X140333284Y-116256938D01*
X140327029Y-116277557D01*
X140316876Y-116296553D01*
X140303208Y-116313208D01*
X140286553Y-116326876D01*
X140267557Y-116337029D01*
X140246938Y-116343284D01*
X140219360Y-116346000D01*
X139760640Y-116346000D01*
X139733062Y-116343284D01*
X139712443Y-116337029D01*
X139693447Y-116326876D01*
X139676792Y-116313208D01*
X139663124Y-116296553D01*
X139652971Y-116277557D01*
X139646716Y-116256938D01*
X139644000Y-116229360D01*
X139644000Y-115720640D01*
X139646716Y-115693062D01*
X139652971Y-115672443D01*
X139663124Y-115653447D01*
X139676792Y-115636792D01*
X139693447Y-115623124D01*
X139712443Y-115612971D01*
X139733062Y-115606716D01*
X139760640Y-115604000D01*
X140219360Y-115604000D01*
X140246938Y-115606716D01*
G37*
G36*
X141216938Y-115606716D02*
G01*
X141237557Y-115612971D01*
X141256553Y-115623124D01*
X141273208Y-115636792D01*
X141286876Y-115653447D01*
X141297029Y-115672443D01*
X141303284Y-115693062D01*
X141306000Y-115720640D01*
X141306000Y-116229360D01*
X141303284Y-116256938D01*
X141297029Y-116277557D01*
X141286876Y-116296553D01*
X141273208Y-116313208D01*
X141256553Y-116326876D01*
X141237557Y-116337029D01*
X141216938Y-116343284D01*
X141189360Y-116346000D01*
X140730640Y-116346000D01*
X140703062Y-116343284D01*
X140682443Y-116337029D01*
X140663447Y-116326876D01*
X140646792Y-116313208D01*
X140633124Y-116296553D01*
X140622971Y-116277557D01*
X140616716Y-116256938D01*
X140614000Y-116229360D01*
X140614000Y-115720640D01*
X140616716Y-115693062D01*
X140622971Y-115672443D01*
X140633124Y-115653447D01*
X140646792Y-115636792D01*
X140663447Y-115623124D01*
X140682443Y-115612971D01*
X140703062Y-115606716D01*
X140730640Y-115604000D01*
X141189360Y-115604000D01*
X141216938Y-115606716D01*
G37*
G36*
X135221938Y-115581716D02*
G01*
X135242557Y-115587971D01*
X135261553Y-115598124D01*
X135278208Y-115611792D01*
X135291876Y-115628447D01*
X135302029Y-115647443D01*
X135308284Y-115668062D01*
X135311000Y-115695640D01*
X135311000Y-116204360D01*
X135308284Y-116231938D01*
X135302029Y-116252557D01*
X135291876Y-116271553D01*
X135278208Y-116288208D01*
X135261553Y-116301876D01*
X135242557Y-116312029D01*
X135221938Y-116318284D01*
X135194360Y-116321000D01*
X134735640Y-116321000D01*
X134708062Y-116318284D01*
X134687443Y-116312029D01*
X134668447Y-116301876D01*
X134651792Y-116288208D01*
X134638124Y-116271553D01*
X134627971Y-116252557D01*
X134621716Y-116231938D01*
X134619000Y-116204360D01*
X134619000Y-115695640D01*
X134621716Y-115668062D01*
X134627971Y-115647443D01*
X134638124Y-115628447D01*
X134651792Y-115611792D01*
X134668447Y-115598124D01*
X134687443Y-115587971D01*
X134708062Y-115581716D01*
X134735640Y-115579000D01*
X135194360Y-115579000D01*
X135221938Y-115581716D01*
G37*
G36*
X136191938Y-115581716D02*
G01*
X136212557Y-115587971D01*
X136231553Y-115598124D01*
X136248208Y-115611792D01*
X136261876Y-115628447D01*
X136272029Y-115647443D01*
X136278284Y-115668062D01*
X136281000Y-115695640D01*
X136281000Y-116204360D01*
X136278284Y-116231938D01*
X136272029Y-116252557D01*
X136261876Y-116271553D01*
X136248208Y-116288208D01*
X136231553Y-116301876D01*
X136212557Y-116312029D01*
X136191938Y-116318284D01*
X136164360Y-116321000D01*
X135705640Y-116321000D01*
X135678062Y-116318284D01*
X135657443Y-116312029D01*
X135638447Y-116301876D01*
X135621792Y-116288208D01*
X135608124Y-116271553D01*
X135597971Y-116252557D01*
X135591716Y-116231938D01*
X135589000Y-116204360D01*
X135589000Y-115695640D01*
X135591716Y-115668062D01*
X135597971Y-115647443D01*
X135608124Y-115628447D01*
X135621792Y-115611792D01*
X135638447Y-115598124D01*
X135657443Y-115587971D01*
X135678062Y-115581716D01*
X135705640Y-115579000D01*
X136164360Y-115579000D01*
X136191938Y-115581716D01*
G37*
G36*
X137256938Y-115571716D02*
G01*
X137277557Y-115577971D01*
X137296553Y-115588124D01*
X137313208Y-115601792D01*
X137326876Y-115618447D01*
X137337029Y-115637443D01*
X137343284Y-115658062D01*
X137346000Y-115685640D01*
X137346000Y-116144360D01*
X137343284Y-116171938D01*
X137337029Y-116192557D01*
X137326876Y-116211553D01*
X137313208Y-116228208D01*
X137296553Y-116241876D01*
X137277557Y-116252029D01*
X137256938Y-116258284D01*
X137229360Y-116261000D01*
X136720640Y-116261000D01*
X136693062Y-116258284D01*
X136672443Y-116252029D01*
X136653447Y-116241876D01*
X136636792Y-116228208D01*
X136623124Y-116211553D01*
X136612971Y-116192557D01*
X136606716Y-116171938D01*
X136604000Y-116144360D01*
X136604000Y-115685640D01*
X136606716Y-115658062D01*
X136612971Y-115637443D01*
X136623124Y-115618447D01*
X136636792Y-115601792D01*
X136653447Y-115588124D01*
X136672443Y-115577971D01*
X136693062Y-115571716D01*
X136720640Y-115569000D01*
X137229360Y-115569000D01*
X137256938Y-115571716D01*
G37*
G36*
X138281938Y-115566716D02*
G01*
X138302557Y-115572971D01*
X138321553Y-115583124D01*
X138338208Y-115596792D01*
X138351876Y-115613447D01*
X138362029Y-115632443D01*
X138368284Y-115653062D01*
X138371000Y-115680640D01*
X138371000Y-116139360D01*
X138368284Y-116166938D01*
X138362029Y-116187557D01*
X138351876Y-116206553D01*
X138338208Y-116223208D01*
X138321553Y-116236876D01*
X138302557Y-116247029D01*
X138281938Y-116253284D01*
X138254360Y-116256000D01*
X137745640Y-116256000D01*
X137718062Y-116253284D01*
X137697443Y-116247029D01*
X137678447Y-116236876D01*
X137661792Y-116223208D01*
X137648124Y-116206553D01*
X137637971Y-116187557D01*
X137631716Y-116166938D01*
X137629000Y-116139360D01*
X137629000Y-115680640D01*
X137631716Y-115653062D01*
X137637971Y-115632443D01*
X137648124Y-115613447D01*
X137661792Y-115596792D01*
X137678447Y-115583124D01*
X137697443Y-115572971D01*
X137718062Y-115566716D01*
X137745640Y-115564000D01*
X138254360Y-115564000D01*
X138281938Y-115566716D01*
G37*
G36*
X145748500Y-113924001D02*
G01*
X145750902Y-113948387D01*
X145753500Y-113956952D01*
X145753500Y-115026290D01*
X145753402Y-115026613D01*
X145751000Y-115050999D01*
X145751000Y-115526290D01*
X145750902Y-115526613D01*
X145748500Y-115550999D01*
X145748500Y-116201000D01*
X145209492Y-116201000D01*
X145200434Y-116184053D01*
X145184889Y-116165111D01*
X145165947Y-116149566D01*
X145144336Y-116138015D01*
X145120887Y-116130902D01*
X145096501Y-116128500D01*
X143498499Y-116128500D01*
X143474113Y-116130902D01*
X143450664Y-116138015D01*
X143429053Y-116149566D01*
X143410111Y-116165111D01*
X143394566Y-116184053D01*
X143385508Y-116201000D01*
X142846500Y-116201000D01*
X142846500Y-115483710D01*
X142846598Y-115483387D01*
X142849000Y-115459001D01*
X142849000Y-113301500D01*
X143376000Y-113301500D01*
X143376000Y-113404001D01*
X143378402Y-113428387D01*
X143385515Y-113451836D01*
X143397066Y-113473447D01*
X143412611Y-113492389D01*
X143431553Y-113507934D01*
X143453164Y-113519485D01*
X143476613Y-113526598D01*
X143500999Y-113529000D01*
X145096501Y-113529000D01*
X145120887Y-113526598D01*
X145144336Y-113519485D01*
X145165947Y-113507934D01*
X145184889Y-113492389D01*
X145200434Y-113473447D01*
X145211985Y-113451836D01*
X145219098Y-113428387D01*
X145221500Y-113404001D01*
X145221500Y-113296500D01*
X145748500Y-113296500D01*
X145748500Y-113924001D01*
G37*
G36*
X131328500Y-115431000D02*
G01*
X130476500Y-115431000D01*
X130476500Y-114529000D01*
X131328500Y-114529000D01*
X131328500Y-115431000D01*
G37*
G36*
X133383500Y-115428500D02*
G01*
X132531500Y-115428500D01*
X132531500Y-114526500D01*
X133383500Y-114526500D01*
X133383500Y-115428500D01*
G37*
G36*
X140241938Y-114556716D02*
G01*
X140262557Y-114562971D01*
X140281553Y-114573124D01*
X140298208Y-114586792D01*
X140311876Y-114603447D01*
X140322029Y-114622443D01*
X140328284Y-114643062D01*
X140331000Y-114670640D01*
X140331000Y-115179360D01*
X140328284Y-115206938D01*
X140322029Y-115227557D01*
X140311876Y-115246553D01*
X140298208Y-115263208D01*
X140281553Y-115276876D01*
X140262557Y-115287029D01*
X140241938Y-115293284D01*
X140214360Y-115296000D01*
X139755640Y-115296000D01*
X139728062Y-115293284D01*
X139707443Y-115287029D01*
X139688447Y-115276876D01*
X139671792Y-115263208D01*
X139658124Y-115246553D01*
X139647971Y-115227557D01*
X139641716Y-115206938D01*
X139639000Y-115179360D01*
X139639000Y-114670640D01*
X139641716Y-114643062D01*
X139647971Y-114622443D01*
X139658124Y-114603447D01*
X139671792Y-114586792D01*
X139688447Y-114573124D01*
X139707443Y-114562971D01*
X139728062Y-114556716D01*
X139755640Y-114554000D01*
X140214360Y-114554000D01*
X140241938Y-114556716D01*
G37*
G36*
X139271938Y-114556716D02*
G01*
X139292557Y-114562971D01*
X139311553Y-114573124D01*
X139328208Y-114586792D01*
X139341876Y-114603447D01*
X139352029Y-114622443D01*
X139358284Y-114643062D01*
X139361000Y-114670640D01*
X139361000Y-115179360D01*
X139358284Y-115206938D01*
X139352029Y-115227557D01*
X139341876Y-115246553D01*
X139328208Y-115263208D01*
X139311553Y-115276876D01*
X139292557Y-115287029D01*
X139271938Y-115293284D01*
X139244360Y-115296000D01*
X138785640Y-115296000D01*
X138758062Y-115293284D01*
X138737443Y-115287029D01*
X138718447Y-115276876D01*
X138701792Y-115263208D01*
X138688124Y-115246553D01*
X138677971Y-115227557D01*
X138671716Y-115206938D01*
X138669000Y-115179360D01*
X138669000Y-114670640D01*
X138671716Y-114643062D01*
X138677971Y-114622443D01*
X138688124Y-114603447D01*
X138701792Y-114586792D01*
X138718447Y-114573124D01*
X138737443Y-114562971D01*
X138758062Y-114556716D01*
X138785640Y-114554000D01*
X139244360Y-114554000D01*
X139271938Y-114556716D01*
G37*
G36*
X138281938Y-114596716D02*
G01*
X138302557Y-114602971D01*
X138321553Y-114613124D01*
X138338208Y-114626792D01*
X138351876Y-114643447D01*
X138362029Y-114662443D01*
X138368284Y-114683062D01*
X138371000Y-114710640D01*
X138371000Y-115169360D01*
X138368284Y-115196938D01*
X138362029Y-115217557D01*
X138351876Y-115236553D01*
X138338208Y-115253208D01*
X138321553Y-115266876D01*
X138302557Y-115277029D01*
X138281938Y-115283284D01*
X138254360Y-115286000D01*
X137745640Y-115286000D01*
X137718062Y-115283284D01*
X137697443Y-115277029D01*
X137678447Y-115266876D01*
X137661792Y-115253208D01*
X137648124Y-115236553D01*
X137637971Y-115217557D01*
X137631716Y-115196938D01*
X137629000Y-115169360D01*
X137629000Y-114710640D01*
X137631716Y-114683062D01*
X137637971Y-114662443D01*
X137648124Y-114643447D01*
X137661792Y-114626792D01*
X137678447Y-114613124D01*
X137697443Y-114602971D01*
X137718062Y-114596716D01*
X137745640Y-114594000D01*
X138254360Y-114594000D01*
X138281938Y-114596716D01*
G37*
G36*
X132228500Y-115143500D02*
G01*
X131626500Y-115143500D01*
X131626500Y-114461500D01*
X132228500Y-114461500D01*
X132228500Y-115143500D01*
G37*
G36*
X155218500Y-115066000D02*
G01*
X154616500Y-115066000D01*
X154616500Y-114464000D01*
X155218500Y-114464000D01*
X155218500Y-115066000D01*
G37*
G36*
X156206000Y-115066000D02*
G01*
X155604000Y-115066000D01*
X155604000Y-114464000D01*
X156206000Y-114464000D01*
X156206000Y-115066000D01*
G37*
G36*
X135206938Y-114216716D02*
G01*
X135227557Y-114222971D01*
X135246553Y-114233124D01*
X135263208Y-114246792D01*
X135276876Y-114263447D01*
X135287029Y-114282443D01*
X135293284Y-114303062D01*
X135296000Y-114330640D01*
X135296000Y-114789360D01*
X135293284Y-114816938D01*
X135287029Y-114837557D01*
X135276876Y-114856553D01*
X135263208Y-114873208D01*
X135246553Y-114886876D01*
X135227557Y-114897029D01*
X135206938Y-114903284D01*
X135179360Y-114906000D01*
X134670640Y-114906000D01*
X134643062Y-114903284D01*
X134622443Y-114897029D01*
X134603447Y-114886876D01*
X134586792Y-114873208D01*
X134573124Y-114856553D01*
X134562971Y-114837557D01*
X134556716Y-114816938D01*
X134554000Y-114789360D01*
X134554000Y-114330640D01*
X134556716Y-114303062D01*
X134562971Y-114282443D01*
X134573124Y-114263447D01*
X134586792Y-114246792D01*
X134603447Y-114233124D01*
X134622443Y-114222971D01*
X134643062Y-114216716D01*
X134670640Y-114214000D01*
X135179360Y-114214000D01*
X135206938Y-114216716D01*
G37*
G36*
X136256938Y-114191716D02*
G01*
X136277557Y-114197971D01*
X136296553Y-114208124D01*
X136313208Y-114221792D01*
X136326876Y-114238447D01*
X136337029Y-114257443D01*
X136343284Y-114278062D01*
X136346000Y-114305640D01*
X136346000Y-114764360D01*
X136343284Y-114791938D01*
X136337029Y-114812557D01*
X136326876Y-114831553D01*
X136313208Y-114848208D01*
X136296553Y-114861876D01*
X136277557Y-114872029D01*
X136256938Y-114878284D01*
X136229360Y-114881000D01*
X135720640Y-114881000D01*
X135693062Y-114878284D01*
X135672443Y-114872029D01*
X135653447Y-114861876D01*
X135636792Y-114848208D01*
X135623124Y-114831553D01*
X135612971Y-114812557D01*
X135606716Y-114791938D01*
X135604000Y-114764360D01*
X135604000Y-114305640D01*
X135606716Y-114278062D01*
X135612971Y-114257443D01*
X135623124Y-114238447D01*
X135636792Y-114221792D01*
X135653447Y-114208124D01*
X135672443Y-114197971D01*
X135693062Y-114191716D01*
X135720640Y-114189000D01*
X136229360Y-114189000D01*
X136256938Y-114191716D01*
G37*
G36*
X147581938Y-113966716D02*
G01*
X147602557Y-113972971D01*
X147621553Y-113983124D01*
X147638208Y-113996792D01*
X147651876Y-114013447D01*
X147662029Y-114032443D01*
X147668284Y-114053062D01*
X147671000Y-114080640D01*
X147671000Y-114539360D01*
X147668284Y-114566938D01*
X147662029Y-114587557D01*
X147651876Y-114606553D01*
X147638208Y-114623208D01*
X147621553Y-114636876D01*
X147602557Y-114647029D01*
X147581938Y-114653284D01*
X147554360Y-114656000D01*
X147045640Y-114656000D01*
X147018062Y-114653284D01*
X146997443Y-114647029D01*
X146978447Y-114636876D01*
X146961792Y-114623208D01*
X146948124Y-114606553D01*
X146937971Y-114587557D01*
X146931716Y-114566938D01*
X146929000Y-114539360D01*
X146929000Y-114080640D01*
X146931716Y-114053062D01*
X146937971Y-114032443D01*
X146948124Y-114013447D01*
X146961792Y-113996792D01*
X146978447Y-113983124D01*
X146997443Y-113972971D01*
X147018062Y-113966716D01*
X147045640Y-113964000D01*
X147554360Y-113964000D01*
X147581938Y-113966716D01*
G37*
G36*
X141881938Y-113616716D02*
G01*
X141902557Y-113622971D01*
X141921553Y-113633124D01*
X141938208Y-113646792D01*
X141951876Y-113663447D01*
X141962029Y-113682443D01*
X141968284Y-113703062D01*
X141971000Y-113730640D01*
X141971000Y-114189360D01*
X141968284Y-114216938D01*
X141962029Y-114237557D01*
X141951876Y-114256553D01*
X141938208Y-114273208D01*
X141921553Y-114286876D01*
X141902557Y-114297029D01*
X141881938Y-114303284D01*
X141854360Y-114306000D01*
X141345640Y-114306000D01*
X141318062Y-114303284D01*
X141297443Y-114297029D01*
X141278447Y-114286876D01*
X141261792Y-114273208D01*
X141248124Y-114256553D01*
X141237971Y-114237557D01*
X141231716Y-114216938D01*
X141229000Y-114189360D01*
X141229000Y-113730640D01*
X141231716Y-113703062D01*
X141237971Y-113682443D01*
X141248124Y-113663447D01*
X141261792Y-113646792D01*
X141278447Y-113633124D01*
X141297443Y-113622971D01*
X141318062Y-113616716D01*
X141345640Y-113614000D01*
X141854360Y-113614000D01*
X141881938Y-113616716D01*
G37*
G36*
X134166938Y-113231716D02*
G01*
X134187557Y-113237971D01*
X134206553Y-113248124D01*
X134223208Y-113261792D01*
X134236876Y-113278447D01*
X134247029Y-113297443D01*
X134253284Y-113318062D01*
X134256000Y-113345640D01*
X134256000Y-113854360D01*
X134253284Y-113881938D01*
X134247029Y-113902557D01*
X134236876Y-113921553D01*
X134223208Y-113938208D01*
X134206553Y-113951876D01*
X134187557Y-113962029D01*
X134166938Y-113968284D01*
X134139360Y-113971000D01*
X133680640Y-113971000D01*
X133653062Y-113968284D01*
X133632443Y-113962029D01*
X133613447Y-113951876D01*
X133596792Y-113938208D01*
X133583124Y-113921553D01*
X133572971Y-113902557D01*
X133566716Y-113881938D01*
X133564000Y-113854360D01*
X133564000Y-113345640D01*
X133566716Y-113318062D01*
X133572971Y-113297443D01*
X133583124Y-113278447D01*
X133596792Y-113261792D01*
X133613447Y-113248124D01*
X133632443Y-113237971D01*
X133653062Y-113231716D01*
X133680640Y-113229000D01*
X134139360Y-113229000D01*
X134166938Y-113231716D01*
G37*
G36*
X133196938Y-113231716D02*
G01*
X133217557Y-113237971D01*
X133236553Y-113248124D01*
X133253208Y-113261792D01*
X133266876Y-113278447D01*
X133277029Y-113297443D01*
X133283284Y-113318062D01*
X133286000Y-113345640D01*
X133286000Y-113854360D01*
X133283284Y-113881938D01*
X133277029Y-113902557D01*
X133266876Y-113921553D01*
X133253208Y-113938208D01*
X133236553Y-113951876D01*
X133217557Y-113962029D01*
X133196938Y-113968284D01*
X133169360Y-113971000D01*
X132710640Y-113971000D01*
X132683062Y-113968284D01*
X132662443Y-113962029D01*
X132643447Y-113951876D01*
X132626792Y-113938208D01*
X132613124Y-113921553D01*
X132602971Y-113902557D01*
X132596716Y-113881938D01*
X132594000Y-113854360D01*
X132594000Y-113345640D01*
X132596716Y-113318062D01*
X132602971Y-113297443D01*
X132613124Y-113278447D01*
X132626792Y-113261792D01*
X132643447Y-113248124D01*
X132662443Y-113237971D01*
X132683062Y-113231716D01*
X132710640Y-113229000D01*
X133169360Y-113229000D01*
X133196938Y-113231716D01*
G37*
G36*
X132191938Y-113206716D02*
G01*
X132212557Y-113212971D01*
X132231553Y-113223124D01*
X132248208Y-113236792D01*
X132261876Y-113253447D01*
X132272029Y-113272443D01*
X132278284Y-113293062D01*
X132281000Y-113320640D01*
X132281000Y-113829360D01*
X132278284Y-113856938D01*
X132272029Y-113877557D01*
X132261876Y-113896553D01*
X132248208Y-113913208D01*
X132231553Y-113926876D01*
X132212557Y-113937029D01*
X132191938Y-113943284D01*
X132164360Y-113946000D01*
X131705640Y-113946000D01*
X131678062Y-113943284D01*
X131657443Y-113937029D01*
X131638447Y-113926876D01*
X131621792Y-113913208D01*
X131608124Y-113896553D01*
X131597971Y-113877557D01*
X131591716Y-113856938D01*
X131589000Y-113829360D01*
X131589000Y-113320640D01*
X131591716Y-113293062D01*
X131597971Y-113272443D01*
X131608124Y-113253447D01*
X131621792Y-113236792D01*
X131638447Y-113223124D01*
X131657443Y-113212971D01*
X131678062Y-113206716D01*
X131705640Y-113204000D01*
X132164360Y-113204000D01*
X132191938Y-113206716D01*
G37*
G36*
X131221938Y-113206716D02*
G01*
X131242557Y-113212971D01*
X131261553Y-113223124D01*
X131278208Y-113236792D01*
X131291876Y-113253447D01*
X131302029Y-113272443D01*
X131308284Y-113293062D01*
X131311000Y-113320640D01*
X131311000Y-113829360D01*
X131308284Y-113856938D01*
X131302029Y-113877557D01*
X131291876Y-113896553D01*
X131278208Y-113913208D01*
X131261553Y-113926876D01*
X131242557Y-113937029D01*
X131221938Y-113943284D01*
X131194360Y-113946000D01*
X130735640Y-113946000D01*
X130708062Y-113943284D01*
X130687443Y-113937029D01*
X130668447Y-113926876D01*
X130651792Y-113913208D01*
X130638124Y-113896553D01*
X130627971Y-113877557D01*
X130621716Y-113856938D01*
X130619000Y-113829360D01*
X130619000Y-113320640D01*
X130621716Y-113293062D01*
X130627971Y-113272443D01*
X130638124Y-113253447D01*
X130651792Y-113236792D01*
X130668447Y-113223124D01*
X130687443Y-113212971D01*
X130708062Y-113206716D01*
X130735640Y-113204000D01*
X131194360Y-113204000D01*
X131221938Y-113206716D01*
G37*
G36*
X135206938Y-113246716D02*
G01*
X135227557Y-113252971D01*
X135246553Y-113263124D01*
X135263208Y-113276792D01*
X135276876Y-113293447D01*
X135287029Y-113312443D01*
X135293284Y-113333062D01*
X135296000Y-113360640D01*
X135296000Y-113819360D01*
X135293284Y-113846938D01*
X135287029Y-113867557D01*
X135276876Y-113886553D01*
X135263208Y-113903208D01*
X135246553Y-113916876D01*
X135227557Y-113927029D01*
X135206938Y-113933284D01*
X135179360Y-113936000D01*
X134670640Y-113936000D01*
X134643062Y-113933284D01*
X134622443Y-113927029D01*
X134603447Y-113916876D01*
X134586792Y-113903208D01*
X134573124Y-113886553D01*
X134562971Y-113867557D01*
X134556716Y-113846938D01*
X134554000Y-113819360D01*
X134554000Y-113360640D01*
X134556716Y-113333062D01*
X134562971Y-113312443D01*
X134573124Y-113293447D01*
X134586792Y-113276792D01*
X134603447Y-113263124D01*
X134622443Y-113252971D01*
X134643062Y-113246716D01*
X134670640Y-113244000D01*
X135179360Y-113244000D01*
X135206938Y-113246716D01*
G37*
G36*
X136256938Y-113221716D02*
G01*
X136277557Y-113227971D01*
X136296553Y-113238124D01*
X136313208Y-113251792D01*
X136326876Y-113268447D01*
X136337029Y-113287443D01*
X136343284Y-113308062D01*
X136346000Y-113335640D01*
X136346000Y-113794360D01*
X136343284Y-113821938D01*
X136337029Y-113842557D01*
X136326876Y-113861553D01*
X136313208Y-113878208D01*
X136296553Y-113891876D01*
X136277557Y-113902029D01*
X136256938Y-113908284D01*
X136229360Y-113911000D01*
X135720640Y-113911000D01*
X135693062Y-113908284D01*
X135672443Y-113902029D01*
X135653447Y-113891876D01*
X135636792Y-113878208D01*
X135623124Y-113861553D01*
X135612971Y-113842557D01*
X135606716Y-113821938D01*
X135604000Y-113794360D01*
X135604000Y-113335640D01*
X135606716Y-113308062D01*
X135612971Y-113287443D01*
X135623124Y-113268447D01*
X135636792Y-113251792D01*
X135653447Y-113238124D01*
X135672443Y-113227971D01*
X135693062Y-113221716D01*
X135720640Y-113219000D01*
X136229360Y-113219000D01*
X136256938Y-113221716D01*
G37*
G36*
X147581938Y-112996716D02*
G01*
X147602557Y-113002971D01*
X147621553Y-113013124D01*
X147638208Y-113026792D01*
X147651876Y-113043447D01*
X147662029Y-113062443D01*
X147668284Y-113083062D01*
X147671000Y-113110640D01*
X147671000Y-113569360D01*
X147668284Y-113596938D01*
X147662029Y-113617557D01*
X147651876Y-113636553D01*
X147638208Y-113653208D01*
X147621553Y-113666876D01*
X147602557Y-113677029D01*
X147581938Y-113683284D01*
X147554360Y-113686000D01*
X147045640Y-113686000D01*
X147018062Y-113683284D01*
X146997443Y-113677029D01*
X146978447Y-113666876D01*
X146961792Y-113653208D01*
X146948124Y-113636553D01*
X146937971Y-113617557D01*
X146931716Y-113596938D01*
X146929000Y-113569360D01*
X146929000Y-113110640D01*
X146931716Y-113083062D01*
X146937971Y-113062443D01*
X146948124Y-113043447D01*
X146961792Y-113026792D01*
X146978447Y-113013124D01*
X146997443Y-113002971D01*
X147018062Y-112996716D01*
X147045640Y-112994000D01*
X147554360Y-112994000D01*
X147581938Y-112996716D01*
G37*
G36*
X141881938Y-112646716D02*
G01*
X141902557Y-112652971D01*
X141921553Y-112663124D01*
X141938208Y-112676792D01*
X141951876Y-112693447D01*
X141962029Y-112712443D01*
X141968284Y-112733062D01*
X141971000Y-112760640D01*
X141971000Y-113219360D01*
X141968284Y-113246938D01*
X141962029Y-113267557D01*
X141951876Y-113286553D01*
X141938208Y-113303208D01*
X141921553Y-113316876D01*
X141902557Y-113327029D01*
X141881938Y-113333284D01*
X141854360Y-113336000D01*
X141345640Y-113336000D01*
X141318062Y-113333284D01*
X141297443Y-113327029D01*
X141278447Y-113316876D01*
X141261792Y-113303208D01*
X141248124Y-113286553D01*
X141237971Y-113267557D01*
X141231716Y-113246938D01*
X141229000Y-113219360D01*
X141229000Y-112760640D01*
X141231716Y-112733062D01*
X141237971Y-112712443D01*
X141248124Y-112693447D01*
X141261792Y-112676792D01*
X141278447Y-112663124D01*
X141297443Y-112652971D01*
X141318062Y-112646716D01*
X141345640Y-112644000D01*
X141854360Y-112644000D01*
X141881938Y-112646716D01*
G37*
G36*
X148546938Y-112081716D02*
G01*
X148567557Y-112087971D01*
X148586553Y-112098124D01*
X148603208Y-112111792D01*
X148616876Y-112128447D01*
X148627029Y-112147443D01*
X148633284Y-112168062D01*
X148636000Y-112195640D01*
X148636000Y-112704360D01*
X148633284Y-112731938D01*
X148627029Y-112752557D01*
X148616876Y-112771553D01*
X148603208Y-112788208D01*
X148586553Y-112801876D01*
X148567557Y-112812029D01*
X148546938Y-112818284D01*
X148519360Y-112821000D01*
X148060640Y-112821000D01*
X148033062Y-112818284D01*
X148012443Y-112812029D01*
X147993447Y-112801876D01*
X147976792Y-112788208D01*
X147963124Y-112771553D01*
X147952971Y-112752557D01*
X147946716Y-112731938D01*
X147944000Y-112704360D01*
X147944000Y-112195640D01*
X147946716Y-112168062D01*
X147952971Y-112147443D01*
X147963124Y-112128447D01*
X147976792Y-112111792D01*
X147993447Y-112098124D01*
X148012443Y-112087971D01*
X148033062Y-112081716D01*
X148060640Y-112079000D01*
X148519360Y-112079000D01*
X148546938Y-112081716D01*
G37*
G36*
X149516938Y-112081716D02*
G01*
X149537557Y-112087971D01*
X149556553Y-112098124D01*
X149573208Y-112111792D01*
X149586876Y-112128447D01*
X149597029Y-112147443D01*
X149603284Y-112168062D01*
X149606000Y-112195640D01*
X149606000Y-112704360D01*
X149603284Y-112731938D01*
X149597029Y-112752557D01*
X149586876Y-112771553D01*
X149573208Y-112788208D01*
X149556553Y-112801876D01*
X149537557Y-112812029D01*
X149516938Y-112818284D01*
X149489360Y-112821000D01*
X149030640Y-112821000D01*
X149003062Y-112818284D01*
X148982443Y-112812029D01*
X148963447Y-112801876D01*
X148946792Y-112788208D01*
X148933124Y-112771553D01*
X148922971Y-112752557D01*
X148916716Y-112731938D01*
X148914000Y-112704360D01*
X148914000Y-112195640D01*
X148916716Y-112168062D01*
X148922971Y-112147443D01*
X148933124Y-112128447D01*
X148946792Y-112111792D01*
X148963447Y-112098124D01*
X148982443Y-112087971D01*
X149003062Y-112081716D01*
X149030640Y-112079000D01*
X149489360Y-112079000D01*
X149516938Y-112081716D01*
G37*
G36*
X116816938Y-111831716D02*
G01*
X116837557Y-111837971D01*
X116856553Y-111848124D01*
X116873208Y-111861792D01*
X116886876Y-111878447D01*
X116897029Y-111897443D01*
X116903284Y-111918062D01*
X116906000Y-111945640D01*
X116906000Y-112454360D01*
X116903284Y-112481938D01*
X116897029Y-112502557D01*
X116886876Y-112521553D01*
X116873208Y-112538208D01*
X116856553Y-112551876D01*
X116837557Y-112562029D01*
X116816938Y-112568284D01*
X116789360Y-112571000D01*
X116330640Y-112571000D01*
X116303062Y-112568284D01*
X116282443Y-112562029D01*
X116263447Y-112551876D01*
X116246792Y-112538208D01*
X116233124Y-112521553D01*
X116222971Y-112502557D01*
X116216716Y-112481938D01*
X116214000Y-112454360D01*
X116214000Y-111945640D01*
X116216716Y-111918062D01*
X116222971Y-111897443D01*
X116233124Y-111878447D01*
X116246792Y-111861792D01*
X116263447Y-111848124D01*
X116282443Y-111837971D01*
X116303062Y-111831716D01*
X116330640Y-111829000D01*
X116789360Y-111829000D01*
X116816938Y-111831716D01*
G37*
G36*
X115846938Y-111831716D02*
G01*
X115867557Y-111837971D01*
X115886553Y-111848124D01*
X115903208Y-111861792D01*
X115916876Y-111878447D01*
X115927029Y-111897443D01*
X115933284Y-111918062D01*
X115936000Y-111945640D01*
X115936000Y-112454360D01*
X115933284Y-112481938D01*
X115927029Y-112502557D01*
X115916876Y-112521553D01*
X115903208Y-112538208D01*
X115886553Y-112551876D01*
X115867557Y-112562029D01*
X115846938Y-112568284D01*
X115819360Y-112571000D01*
X115360640Y-112571000D01*
X115333062Y-112568284D01*
X115312443Y-112562029D01*
X115293447Y-112551876D01*
X115276792Y-112538208D01*
X115263124Y-112521553D01*
X115252971Y-112502557D01*
X115246716Y-112481938D01*
X115244000Y-112454360D01*
X115244000Y-111945640D01*
X115246716Y-111918062D01*
X115252971Y-111897443D01*
X115263124Y-111878447D01*
X115276792Y-111861792D01*
X115293447Y-111848124D01*
X115312443Y-111837971D01*
X115333062Y-111831716D01*
X115360640Y-111829000D01*
X115819360Y-111829000D01*
X115846938Y-111831716D01*
G37*
G36*
X114841938Y-111806716D02*
G01*
X114862557Y-111812971D01*
X114881553Y-111823124D01*
X114898208Y-111836792D01*
X114911876Y-111853447D01*
X114922029Y-111872443D01*
X114928284Y-111893062D01*
X114931000Y-111920640D01*
X114931000Y-112429360D01*
X114928284Y-112456938D01*
X114922029Y-112477557D01*
X114911876Y-112496553D01*
X114898208Y-112513208D01*
X114881553Y-112526876D01*
X114862557Y-112537029D01*
X114841938Y-112543284D01*
X114814360Y-112546000D01*
X114355640Y-112546000D01*
X114328062Y-112543284D01*
X114307443Y-112537029D01*
X114288447Y-112526876D01*
X114271792Y-112513208D01*
X114258124Y-112496553D01*
X114247971Y-112477557D01*
X114241716Y-112456938D01*
X114239000Y-112429360D01*
X114239000Y-111920640D01*
X114241716Y-111893062D01*
X114247971Y-111872443D01*
X114258124Y-111853447D01*
X114271792Y-111836792D01*
X114288447Y-111823124D01*
X114307443Y-111812971D01*
X114328062Y-111806716D01*
X114355640Y-111804000D01*
X114814360Y-111804000D01*
X114841938Y-111806716D01*
G37*
G36*
X113871938Y-111806716D02*
G01*
X113892557Y-111812971D01*
X113911553Y-111823124D01*
X113928208Y-111836792D01*
X113941876Y-111853447D01*
X113952029Y-111872443D01*
X113958284Y-111893062D01*
X113961000Y-111920640D01*
X113961000Y-112429360D01*
X113958284Y-112456938D01*
X113952029Y-112477557D01*
X113941876Y-112496553D01*
X113928208Y-112513208D01*
X113911553Y-112526876D01*
X113892557Y-112537029D01*
X113871938Y-112543284D01*
X113844360Y-112546000D01*
X113385640Y-112546000D01*
X113358062Y-112543284D01*
X113337443Y-112537029D01*
X113318447Y-112526876D01*
X113301792Y-112513208D01*
X113288124Y-112496553D01*
X113277971Y-112477557D01*
X113271716Y-112456938D01*
X113269000Y-112429360D01*
X113269000Y-111920640D01*
X113271716Y-111893062D01*
X113277971Y-111872443D01*
X113288124Y-111853447D01*
X113301792Y-111836792D01*
X113318447Y-111823124D01*
X113337443Y-111812971D01*
X113358062Y-111806716D01*
X113385640Y-111804000D01*
X113844360Y-111804000D01*
X113871938Y-111806716D01*
G37*
G36*
X140906938Y-110141716D02*
G01*
X140927557Y-110147971D01*
X140946553Y-110158124D01*
X140963208Y-110171792D01*
X140976876Y-110188447D01*
X140987029Y-110207443D01*
X140993284Y-110228062D01*
X140996000Y-110255640D01*
X140996000Y-110714360D01*
X140993284Y-110741938D01*
X140987029Y-110762557D01*
X140976876Y-110781553D01*
X140963208Y-110798208D01*
X140946553Y-110811876D01*
X140927557Y-110822029D01*
X140906938Y-110828284D01*
X140879360Y-110831000D01*
X140370640Y-110831000D01*
X140343062Y-110828284D01*
X140322443Y-110822029D01*
X140303447Y-110811876D01*
X140286792Y-110798208D01*
X140273124Y-110781553D01*
X140262971Y-110762557D01*
X140256716Y-110741938D01*
X140254000Y-110714360D01*
X140254000Y-110255640D01*
X140256716Y-110228062D01*
X140262971Y-110207443D01*
X140273124Y-110188447D01*
X140286792Y-110171792D01*
X140303447Y-110158124D01*
X140322443Y-110147971D01*
X140343062Y-110141716D01*
X140370640Y-110139000D01*
X140879360Y-110139000D01*
X140906938Y-110141716D01*
G37*
G36*
X140906938Y-109171716D02*
G01*
X140927557Y-109177971D01*
X140946553Y-109188124D01*
X140963208Y-109201792D01*
X140976876Y-109218447D01*
X140987029Y-109237443D01*
X140993284Y-109258062D01*
X140996000Y-109285640D01*
X140996000Y-109744360D01*
X140993284Y-109771938D01*
X140987029Y-109792557D01*
X140976876Y-109811553D01*
X140963208Y-109828208D01*
X140946553Y-109841876D01*
X140927557Y-109852029D01*
X140906938Y-109858284D01*
X140879360Y-109861000D01*
X140370640Y-109861000D01*
X140343062Y-109858284D01*
X140322443Y-109852029D01*
X140303447Y-109841876D01*
X140286792Y-109828208D01*
X140273124Y-109811553D01*
X140262971Y-109792557D01*
X140256716Y-109771938D01*
X140254000Y-109744360D01*
X140254000Y-109285640D01*
X140256716Y-109258062D01*
X140262971Y-109237443D01*
X140273124Y-109218447D01*
X140286792Y-109201792D01*
X140303447Y-109188124D01*
X140322443Y-109177971D01*
X140343062Y-109171716D01*
X140370640Y-109169000D01*
X140879360Y-109169000D01*
X140906938Y-109171716D01*
G37*
G36*
X140541938Y-107256716D02*
G01*
X140562557Y-107262971D01*
X140581553Y-107273124D01*
X140598208Y-107286792D01*
X140611876Y-107303447D01*
X140622029Y-107322443D01*
X140628284Y-107343062D01*
X140631000Y-107370640D01*
X140631000Y-107879360D01*
X140628284Y-107906938D01*
X140622029Y-107927557D01*
X140611876Y-107946553D01*
X140598208Y-107963208D01*
X140581553Y-107976876D01*
X140562557Y-107987029D01*
X140541938Y-107993284D01*
X140514360Y-107996000D01*
X140055640Y-107996000D01*
X140028062Y-107993284D01*
X140007443Y-107987029D01*
X139988447Y-107976876D01*
X139971792Y-107963208D01*
X139958124Y-107946553D01*
X139947971Y-107927557D01*
X139941716Y-107906938D01*
X139939000Y-107879360D01*
X139939000Y-107370640D01*
X139941716Y-107343062D01*
X139947971Y-107322443D01*
X139958124Y-107303447D01*
X139971792Y-107286792D01*
X139988447Y-107273124D01*
X140007443Y-107262971D01*
X140028062Y-107256716D01*
X140055640Y-107254000D01*
X140514360Y-107254000D01*
X140541938Y-107256716D01*
G37*
G36*
X139571938Y-107256716D02*
G01*
X139592557Y-107262971D01*
X139611553Y-107273124D01*
X139628208Y-107286792D01*
X139641876Y-107303447D01*
X139652029Y-107322443D01*
X139658284Y-107343062D01*
X139661000Y-107370640D01*
X139661000Y-107879360D01*
X139658284Y-107906938D01*
X139652029Y-107927557D01*
X139641876Y-107946553D01*
X139628208Y-107963208D01*
X139611553Y-107976876D01*
X139592557Y-107987029D01*
X139571938Y-107993284D01*
X139544360Y-107996000D01*
X139085640Y-107996000D01*
X139058062Y-107993284D01*
X139037443Y-107987029D01*
X139018447Y-107976876D01*
X139001792Y-107963208D01*
X138988124Y-107946553D01*
X138977971Y-107927557D01*
X138971716Y-107906938D01*
X138969000Y-107879360D01*
X138969000Y-107370640D01*
X138971716Y-107343062D01*
X138977971Y-107322443D01*
X138988124Y-107303447D01*
X139001792Y-107286792D01*
X139018447Y-107273124D01*
X139037443Y-107262971D01*
X139058062Y-107256716D01*
X139085640Y-107254000D01*
X139544360Y-107254000D01*
X139571938Y-107256716D01*
G37*
G36*
X116743500Y-105961000D02*
G01*
X112641500Y-105961000D01*
X112641500Y-96859000D01*
X116743500Y-96859000D01*
X116743500Y-105961000D01*
G37*
G36*
X155758500Y-105953500D02*
G01*
X151656500Y-105953500D01*
X151656500Y-96851500D01*
X155758500Y-96851500D01*
X155758500Y-105953500D01*
G37*
G36*
X141706000Y-105951000D02*
G01*
X139954000Y-105951000D01*
X139954000Y-104349000D01*
X141706000Y-104349000D01*
X141706000Y-105951000D01*
G37*
G36*
X139558500Y-105951000D02*
G01*
X137806500Y-105951000D01*
X137806500Y-104349000D01*
X139558500Y-104349000D01*
X139558500Y-105951000D01*
G37*
M02*
